<?xml version="1.0" encoding="UTF-8" standalone="no"?>
<!DOCTYPE svg PUBLIC "-//W3C//DTD SVG 1.1//EN"
"http://www.w3.org/Graphics/SVG/1.1/DTD/svg11.dtd">
<svg version="1.1" xmlns="http://www.w3.org/2000/svg" xmlns:xlink="http://www.w3.org/1999/xlink">
<defs>
<style type="text/css"><![CDATA[
.g2_2{
fill: none;
stroke: #000000;
stroke-width: 1;
stroke-linecap: butt;
stroke-linejoin: miter;
}
.g3_2{
}
.g4_2{
fill: #FFFFFF;
}
.g1_2{
fill: #C0C0C0;
}
]]></style>
</defs>
<path d="M58,204l0,71l1417,0l0,-71L58,204Z" class="g1_2" />
<path d="M376.5,174.5l0,21" class="g2_2" />
<path d="M713.5,175.5l0,20" class="g2_2" />
<path d="M505,225l0,3l318,0l0,-3l-318,0Z" class="g3_2" />
<path d="M59.5,319.5l25,0" class="g2_2" />
<path d="M87.5,319.5l289,0" class="g2_2" />
<path d="M379.5,319.5l88,0" class="g2_2" />
<path d="M470.5,319.5l32,0" class="g2_2" />
<path d="M505.5,319.5l207,0" class="g2_2" />
<path d="M715.5,319.5l105,0" class="g2_2" />
<path d="M823.5,319.5l234,0" class="g2_2" />
<path d="M1060.5,319.5l202,0" class="g2_2" />
<path d="M1265.5,319.5l51,0" class="g2_2" />
<path d="M1319.5,319.5l75,0" class="g2_2" />
<path d="M59.5,364.5l25,0" class="g2_2" />
<path d="M87.5,364.5l289,0" class="g2_2" />
<path d="M379.5,364.5l88,0" class="g2_2" />
<path d="M470.5,364.5l32,0" class="g2_2" />
<path d="M505.5,364.5l207,0" class="g2_2" />
<path d="M715.5,364.5l105,0" class="g2_2" />
<path d="M823.5,364.5l234,0" class="g2_2" />
<path d="M1060.5,364.5l202,0" class="g2_2" />
<path d="M1265.5,364.5l51,0" class="g2_2" />
<path d="M1319.5,364.5l75,0" class="g2_2" />
<path d="M59.5,408.5l25,0" class="g2_2" />
<path d="M87.5,408.5l289,0" class="g2_2" />
<path d="M379.5,408.5l88,0" class="g2_2" />
<path d="M470.5,408.5l32,0" class="g2_2" />
<path d="M505.5,408.5l207,0" class="g2_2" />
<path d="M715.5,408.5l105,0" class="g2_2" />
<path d="M823.5,408.5l234,0" class="g2_2" />
<path d="M1060.5,408.5l202,0" class="g2_2" />
<path d="M1265.5,408.5l51,0" class="g2_2" />
<path d="M1319.5,408.5l75,0" class="g2_2" />
<path d="M59.5,453.5l25,0" class="g2_2" />
<path d="M87.5,453.5l289,0" class="g2_2" />
<path d="M379.5,453.5l88,0" class="g2_2" />
<path d="M470.5,453.5l32,0" class="g2_2" />
<path d="M505.5,453.5l207,0" class="g2_2" />
<path d="M715.5,453.5l105,0" class="g2_2" />
<path d="M823.5,453.5l234,0" class="g2_2" />
<path d="M1060.5,453.5l202,0" class="g2_2" />
<path d="M1265.5,453.5l51,0" class="g2_2" />
<path d="M1319.5,453.5l75,0" class="g2_2" />
<path d="M59.5,498.5l25,0" class="g2_2" />
<path d="M87.5,498.5l289,0" class="g2_2" />
<path d="M379.5,498.5l88,0" class="g2_2" />
<path d="M470.5,498.5l32,0" class="g2_2" />
<path d="M505.5,498.5l207,0" class="g2_2" />
<path d="M715.5,498.5l105,0" class="g2_2" />
<path d="M823.5,498.5l234,0" class="g2_2" />
<path d="M1060.5,498.5l202,0" class="g2_2" />
<path d="M1265.5,498.5l51,0" class="g2_2" />
<path d="M1319.5,498.5l75,0" class="g2_2" />
<path d="M59.5,543.5l25,0" class="g2_2" />
<path d="M87.5,543.5l289,0" class="g2_2" />
<path d="M379.5,543.5l88,0" class="g2_2" />
<path d="M470.5,543.5l32,0" class="g2_2" />
<path d="M505.5,543.5l207,0" class="g2_2" />
<path d="M715.5,543.5l105,0" class="g2_2" />
<path d="M823.5,543.5l234,0" class="g2_2" />
<path d="M1060.5,543.5l202,0" class="g2_2" />
<path d="M1265.5,543.5l51,0" class="g2_2" />
<path d="M1319.5,543.5l75,0" class="g2_2" />
<path d="M59.5,587.5l25,0" class="g2_2" />
<path d="M87.5,587.5l289,0" class="g2_2" />
<path d="M379.5,587.5l88,0" class="g2_2" />
<path d="M470.5,587.5l32,0" class="g2_2" />
<path d="M505.5,587.5l207,0" class="g2_2" />
<path d="M715.5,587.5l105,0" class="g2_2" />
<path d="M823.5,587.5l234,0" class="g2_2" />
<path d="M1060.5,587.5l202,0" class="g2_2" />
<path d="M1265.5,587.5l51,0" class="g2_2" />
<path d="M1319.5,587.5l75,0" class="g2_2" />
<path d="M59.5,632.5l25,0" class="g2_2" />
<path d="M87.5,632.5l289,0" class="g2_2" />
<path d="M379.5,632.5l88,0" class="g2_2" />
<path d="M470.5,632.5l32,0" class="g2_2" />
<path d="M505.5,632.5l207,0" class="g2_2" />
<path d="M715.5,632.5l105,0" class="g2_2" />
<path d="M823.5,632.5l234,0" class="g2_2" />
<path d="M1060.5,632.5l202,0" class="g2_2" />
<path d="M1265.5,632.5l51,0" class="g2_2" />
<path d="M1319.5,632.5l75,0" class="g2_2" />
<path d="M59.5,677.5l25,0" class="g2_2" />
<path d="M87.5,677.5l289,0" class="g2_2" />
<path d="M379.5,677.5l88,0" class="g2_2" />
<path d="M470.5,677.5l32,0" class="g2_2" />
<path d="M505.5,677.5l207,0" class="g2_2" />
<path d="M715.5,677.5l105,0" class="g2_2" />
<path d="M823.5,677.5l234,0" class="g2_2" />
<path d="M1060.5,677.5l202,0" class="g2_2" />
<path d="M1265.5,677.5l51,0" class="g2_2" />
<path d="M1319.5,677.5l75,0" class="g2_2" />
<path d="M42,12l0,896l3,0L45,12l-3,0Z" class="g3_2" />
<path d="M1485,15l0,893l3,0l0,-893l-3,0Z" class="g3_2" />
<path d="M376,206l0,518l3,0l0,-518l-3,0Z" class="g3_2" />
<path d="M712,228l0,496l3,0l0,-496l-3,0Z" class="g3_2" />
<path d="M56,203l0,521l3,0L59,203l-3,0Z" class="g3_2" />
<path d="M467,206l0,518l3,0l0,-518l-3,0Z" class="g3_2" />
<path d="M502,206l0,518l3,0l0,-518l-3,0Z" class="g3_2" />
<path d="M820,206l0,518l3,0l0,-518l-3,0Z" class="g3_2" />
<path d="M1057,206l0,518l3,0l0,-518l-3,0Z" class="g3_2" />
<path d="M1262,206l0,518l3,0l0,-518l-3,0Z" class="g3_2" />
<path d="M1473,206l0,518l3,0l0,-518l-3,0Z" class="g3_2" />
<path d="M1316,228l0,496l3,0l0,-496l-3,0Z" class="g3_2" />
<path d="M1394,228l0,496l3,0l0,-496l-3,0Z" class="g3_2" />
<path d="M84,276l0,448l3,0L87,276l-3,0Z" class="g3_2" />
<path d="M45,12l0,3l1443,0l0,-3L45,12Z" class="g3_2" />
<path d="M378.5,174.5l336,0" class="g2_2" />
<path d="M378.5,194.5l336,0" class="g2_2" />
<path d="M59,203l0,3l1417,0l0,-3L59,203Z" class="g3_2" />
<path d="M1265,225l0,3l211,0l0,-3l-211,0Z" class="g3_2" />
<path d="M59,273l0,3l1417,0l0,-3L59,273Z" class="g3_2" />
<path d="M1397.5,319.5l76,0" class="g2_2" />
<path d="M1397.5,364.5l76,0" class="g2_2" />
<path d="M1397.5,408.5l76,0" class="g2_2" />
<path d="M1397.5,453.5l76,0" class="g2_2" />
<path d="M1397.5,498.5l76,0" class="g2_2" />
<path d="M1397.5,543.5l76,0" class="g2_2" />
<path d="M1397.5,587.5l76,0" class="g2_2" />
<path d="M1397.5,632.5l76,0" class="g2_2" />
<path d="M1397.5,677.5l76,0" class="g2_2" />
<path d="M59,721l0,3l1417,0l0,-3L59,721Z" class="g3_2" />
<path d="M45,906l0,2l1443,0l0,-2L45,906Z" class="g3_2" />
<path fill-rule="evenodd" d="M741,26l0,34l35,0l0,-34l-35,0Z" class="g4_2" />
<path fill-rule="evenodd" d="M741,26l0,34l35,0l0,-34l-35,0Z" class="g4_2" />
<path fill-rule="evenodd" d="M741,26l0,34l35,0l0,-34l-35,0Z" class="g4_2" />
<image x="741" y="26" width="36" height="35" xlink:href="img/1.png" />
</svg>