<?xml version="1.0" encoding="UTF-8" standalone="no"?>
<!DOCTYPE svg PUBLIC "-//W3C//DTD SVG 1.1//EN"
"http://www.w3.org/Graphics/SVG/1.1/DTD/svg11.dtd">
<svg version="1.1" xmlns="http://www.w3.org/2000/svg" xmlns:xlink="http://www.w3.org/1999/xlink">
<defs>
<clipPath id="c0_2"><path d="M278.5,863.5l0,-50l-171,0l0,50Zm-175,4l0,-58l179,0l0,58Z" /></clipPath>
<clipPath id="c1_2"><path d="M461.5,863.5l0,-50l-171,0l0,50Zm-175,4l0,-58l179,0l0,58Z" /></clipPath>
<clipPath id="c2_2"><path d="M644.5,863.5l0,-50l-171,0l0,50Zm-176,4l0,-58l180,0l0,58Z" /></clipPath>
<clipPath id="c3_2"><path d="M827.5,863.5l0,-50l-171,0l0,50Zm-175,4l0,-58l179,0l0,58Z" /></clipPath>
<style type="text/css"><![CDATA[
.g4_2{
fill: none;
stroke: #A0A0A0;
stroke-width: 1;
stroke-linecap: butt;
stroke-linejoin: miter;
stroke-miterlimit: 1;
}
.g3_2{
fill: none;
stroke: #EFEFEF;
stroke-width: 1;
stroke-linecap: butt;
stroke-linejoin: miter;
stroke-miterlimit: 1;
}
.g2_2{
fill: #FFFFFF;
}
.g1_2{
fill: none;
stroke: #000000;
stroke-width: 1;
stroke-linecap: butt;
stroke-linejoin: miter;
}
]]></style>
</defs>
<image x="443" y="71" width="49" height="59" xlink:href="img/1.png" />
<path d="M98.5,189.5l738,0" class="g1_2" />
<g clip-path="url(#c0_2)">
<path d="M103,867l179,0l0,-58l-179,0l0,58Z" class="g2_2" />
</g>
<path d="M107,863l171,0l0,-50l-171,0l0,50Z" class="g2_2" />
<g clip-path="url(#c1_2)">
<path d="M286,867l179,0l0,-58l-179,0l0,58Z" class="g2_2" />
</g>
<path d="M290,863l171,0l0,-50l-171,0l0,50Z" class="g2_2" />
<g clip-path="url(#c2_2)">
<path d="M468,867l180,0l0,-58l-180,0l0,58Z" class="g2_2" />
</g>
<path d="M473,863l171,0l0,-50l-171,0l0,50Z" class="g2_2" />
<g clip-path="url(#c3_2)">
<path d="M652,867l179,0l0,-58l-179,0l0,58Z" class="g2_2" />
</g>
<path d="M656,863l171,0l0,-50l-171,0l0,50Z" class="g2_2" />
<path d="M100.5,813.5l0,-7" class="g3_2" />
<path d="M100.5,807.5l733,0" class="g3_2" />
<path d="M833.5,813.5l0,-7" class="g4_2" />
<path d="M833.5,807.5l0,-1" class="g3_2" />
<path d="M102.5,809.5l0,-1" class="g4_2" />
<path d="M102.5,809.5l180,0" class="g4_2" />
<path d="M282.5,809.5l0,-1" class="g3_2" />
<path d="M282.5,809.5l0,-1" class="g4_2" />
<path d="M102.5,868.5l0,-1" class="g4_2" />
<path d="M102.5,868.5l181,0" class="g3_2" />
<path d="M282.5,868.5l0,-1" class="g3_2" />
<path d="M102,867l181,0l0,-4l-181,0l0,4Z" class="g2_2" />
<path d="M102,813l181,0l0,-4l-181,0l0,4Z" class="g2_2" />
<path d="M102.5,867.5l0,-58" class="g4_2" />
<path d="M282.5,867.5l0,-58" class="g3_2" />
<path d="M100.5,870.5l0,-57" class="g3_2" />
<path d="M100.5,870.5l184,0" class="g4_2" />
<path d="M285.5,809.5l0,-1" class="g4_2" />
<path d="M285.5,809.5l180,0" class="g4_2" />
<path d="M465.5,809.5l0,-1" class="g3_2" />
<path d="M465.5,809.5l0,-1" class="g4_2" />
<path d="M285.5,868.5l0,-1" class="g4_2" />
<path d="M285.5,868.5l181,0" class="g3_2" />
<path d="M465.5,868.5l0,-1" class="g3_2" />
<path d="M285,867l181,0l0,-4l-181,0l0,4Z" class="g2_2" />
<path d="M285,813l181,0l0,-4l-181,0l0,4Z" class="g2_2" />
<path d="M285.5,867.5l0,-58" class="g4_2" />
<path d="M465.5,867.5l0,-58" class="g3_2" />
<path d="M284.5,870.5l183,0" class="g4_2" />
<path d="M467.5,809.5l0,-1" class="g4_2" />
<path d="M467.5,809.5l181,0" class="g4_2" />
<path d="M648.5,809.5l0,-1" class="g3_2" />
<path d="M648.5,809.5l0,-1" class="g4_2" />
<path d="M467.5,868.5l0,-1" class="g4_2" />
<path d="M467.5,868.5l182,0" class="g3_2" />
<path d="M648.5,868.5l0,-1" class="g3_2" />
<path d="M467,867l182,0l0,-4l-182,0l0,4Z" class="g2_2" />
<path d="M467,813l182,0l0,-4l-182,0l0,4Z" class="g2_2" />
<path d="M467.5,867.5l0,-58" class="g4_2" />
<path d="M648.5,867.5l0,-58" class="g3_2" />
<path d="M467.5,870.5l183,0" class="g4_2" />
<path d="M651.5,809.5l0,-1" class="g4_2" />
<path d="M651.5,809.5l180,0" class="g4_2" />
<path d="M831.5,809.5l0,-1" class="g3_2" />
<path d="M831.5,809.5l0,-1" class="g4_2" />
<path d="M651.5,868.5l0,-1" class="g4_2" />
<path d="M651.5,868.5l182,0" class="g3_2" />
<path d="M831.5,868.5l0,-1" class="g3_2" />
<path d="M651,867l182,0l0,-4l-182,0l0,4Z" class="g2_2" />
<path d="M651,813l182,0l0,-4l-182,0l0,4Z" class="g2_2" />
<path d="M651.5,867.5l0,-58" class="g4_2" />
<path d="M831.5,867.5l0,-58" class="g3_2" />
<path d="M650.5,870.5l183,0" class="g4_2" />
<path d="M833.5,870.5l0,-57" class="g4_2" />
<path d="M833.5,870.5l0,-1" class="g4_2" />
</svg>