<?xml version="1.0" encoding="UTF-8" standalone="no"?>
<!DOCTYPE svg PUBLIC "-//W3C//DTD SVG 1.1//EN"
"http://www.w3.org/Graphics/SVG/1.1/DTD/svg11.dtd">
<svg version="1.1" xmlns="http://www.w3.org/2000/svg" xmlns:xlink="http://www.w3.org/1999/xlink">
<defs>
<clipPath id="c0_5"><path d="M168.5,309.5l0,-31l7,0l0,31Zm446,0l0,-31l7,0l0,31Z" /></clipPath>
<clipPath id="c1_5"><path d="M168.5,362.5l0,-49l7,0l0,49Zm446,0l0,-49l7,0l0,49Z" /></clipPath>
<clipPath id="c2_5"><path d="M168.5,397.5l0,-31l7,0l0,31Zm446,0l0,-31l7,0l0,31Z" /></clipPath>
<clipPath id="c3_5"><path d="M168.5,468.5l0,-68l7,0l0,68Zm446,0l0,-68l7,0l0,68Z" /></clipPath>
<clipPath id="c4_5"><path d="M168.5,502.5l0,-30l7,0l0,30Zm446,0l0,-30l7,0l0,30Z" /></clipPath>
<clipPath id="c5_5"><path d="M168.5,555.5l0,-49l7,0l0,49Zm446,0l0,-49l7,0l0,49Z" /></clipPath>
<clipPath id="c6_5"><path d="M168.5,608.5l0,-49l7,0l0,49Zm446,0l0,-49l7,0l0,49Z" /></clipPath>
<clipPath id="c7_5"><path d="M168.5,643.5l0,-31l7,0l0,31Zm446,0l0,-31l7,0l0,31Z" /></clipPath>
<clipPath id="c8_5"><path d="M168.5,677.5l0,-31l7,0l0,31Zm446,0l0,-31l7,0l0,31Z" /></clipPath>
<clipPath id="c9_5"><path d="M168.5,730.5l0,-50l7,0l0,50Zm446,0l0,-50l7,0l0,50Z" /></clipPath>
<clipPath id="c10_5"><path d="M168.5,783.5l0,-50l7,0l0,50Zm446,0l0,-50l7,0l0,50Z" /></clipPath>
<clipPath id="c11_5"><path d="M168.5,833.5l0,-47l7,0l0,47Zm446,0l0,-47l7,0l0,47Z" /></clipPath>
<clipPath id="c12_5"><path d="M168.5,872.5l0,-36l7,0l0,36Zm446,0l0,-36l7,0l0,36Z" /></clipPath>
<clipPath id="c13_5"><path d="M168.5,907.5l0,-31l7,0l0,31Zm446,0l0,-31l7,0l0,31Z" /></clipPath>
<clipPath id="c14_5"><path d="M168.5,959.5l0,-49l7,0l0,49Zm446,0l0,-49l7,0l0,49Z" /></clipPath>
<clipPath id="c15_5"><path d="M168.5,994.5l0,-31l7,0l0,31Zm446,0l0,-31l7,0l0,31Z" /></clipPath>
<clipPath id="c16_5"><path d="M168.5,1047.5l0,-50l7,0l0,50Zm446,0l0,-50l7,0l0,50Z" /></clipPath>
<clipPath id="c17_5"><path d="M168.5,1081.5l0,-31l7,0l0,31Zm446,0l0,-31l7,0l0,31Z" /></clipPath>
<clipPath id="c18_5"><path d="M168.5,1134.5l0,-50l7,0l0,50Zm446,0l0,-50l7,0l0,50Z" /></clipPath>
<clipPath id="c19_5"><path d="M168.5,1168.5l0,-31l7,0l0,31Zm446,0l0,-31l7,0l0,31Z" /></clipPath>
<clipPath id="c20_5"><path d="M168.5,1203.5l0,-31l7,0l0,31Zm446,0l0,-31l7,0l0,31Z" /></clipPath>
<clipPath id="c21_5"><path d="M168.5,1256.5l0,-50l7,0l0,50Zm446,0l0,-50l7,0l0,50Z" /></clipPath>
<clipPath id="c22_5"><path d="M168.5,1290.5l0,-31l7,0l0,31Zm446,0l0,-31l7,0l0,31Z" /></clipPath>
<clipPath id="c23_5"><path d="M168.5,1324.5l0,-31l7,0l0,31Zm446,0l0,-31l7,0l0,31Z" /></clipPath>
<clipPath id="c24_5"><path d="M168.5,1396.5l0,-68l7,0l0,68Zm446,0l0,-68l7,0l0,68Z" /></clipPath>
<style type="text/css"><![CDATA[
.g6_5{
fill: #4BACC6;
}
.g2_5{
fill: #E5DFEC;
}
.g5_5{
fill: none;
stroke: #FDE9D9;
stroke-width: 1;
stroke-linecap: butt;
stroke-linejoin: miter;
}
.g7_5{
fill: none;
stroke: #4BACC6;
stroke-width: 1;
stroke-linecap: butt;
stroke-linejoin: miter;
}
.g9_5{
fill: none;
stroke: #DBE5F1;
stroke-width: 1;
stroke-linecap: butt;
stroke-linejoin: miter;
}
.g3_5{
fill: #D9D9D9;
}
.g10_5{
fill: none;
stroke: #E5DFEC;
stroke-width: 1;
stroke-linecap: butt;
stroke-linejoin: miter;
}
.g11_5{
fill: #EAF1DD;
}
.g12_5{
fill: none;
stroke: #EAF1DD;
stroke-width: 1;
stroke-linecap: butt;
stroke-linejoin: miter;
}
.g4_5{
fill: #FDE9D9;
}
.g8_5{
fill: #DBE5F1;
}
.g1_5{
fill: #FFFFFF;
}
]]></style>
</defs>
<image x="319" y="129" width="219" height="52" xlink:href="img/1.png" />
<image x="535" y="86" width="79" height="93" xlink:href="img/2.png" />
<path d="M674,73l192,0l0,-52L674,21l0,52Z" class="g1_5" />
<g clip-path="url(#c0_5)">
<path d="M168,309l453,0l0,-31l-453,0l0,31Z" class="g2_5" />
</g>
<path d="M175,309l439,0l0,-31l-439,0l0,31Z" class="g2_5" />
<path d="M69,278l2,0l0,-2l-2,0l0,2Z" class="g3_5" />
<path d="M69,278l771,0l0,-2L69,276l0,2Z" class="g3_5" />
<path d="M837,278l3,0l0,-2l-3,0l0,2Z" class="g3_5" />
<path d="M69,309l2,0l0,-31l-2,0l0,31Z" class="g3_5" />
<path d="M166,309l2,0l0,-31l-2,0l0,31Z" class="g3_5" />
<path d="M621,309l2,0l0,-31l-2,0l0,31Z" class="g3_5" />
<path d="M740,309l2,0l0,-31l-2,0l0,31Z" class="g3_5" />
<path d="M837,309l3,0l0,-31l-3,0l0,31Z" class="g3_5" />
<g clip-path="url(#c1_5)">
<path d="M168,362l453,0l0,-49l-453,0l0,49Z" class="g4_5" />
</g>
<path d="M175,337l439,0l0,-24l-439,0l0,24Z" class="g4_5" />
<path d="M175,362l439,0l0,-25l-439,0l0,25Z" class="g4_5" />
<path d="M69,313l2,0l0,-4l-2,0l0,4Z" class="g3_5" />
<path d="M71,312l95,0l0,-3l-95,0l0,3Z" class="g3_5" />
<path d="M166,313l2,0l0,-4l-2,0l0,4Z" class="g3_5" />
<path d="M168,313l453,0l0,-4l-453,0l0,4Z" class="g1_5" />
<path d="M168.5,313.5l453,0" class="g5_5" />
<path d="M621,313l2,0l0,-4l-2,0l0,4Z" class="g3_5" />
<path d="M623,312l117,0l0,-3l-117,0l0,3Z" class="g3_5" />
<path d="M740,313l2,0l0,-4l-2,0l0,4Z" class="g3_5" />
<path d="M742,312l95,0l0,-3l-95,0l0,3Z" class="g3_5" />
<path d="M837,313l3,0l0,-4l-3,0l0,4Z" class="g3_5" />
<path d="M69,362l2,0l0,-49l-2,0l0,49Z" class="g3_5" />
<path d="M166,362l2,0l0,-49l-2,0l0,49Z" class="g3_5" />
<path d="M621,362l2,0l0,-49l-2,0l0,49Z" class="g3_5" />
<path d="M740,362l2,0l0,-49l-2,0l0,49Z" class="g3_5" />
<path d="M837,362l3,0l0,-49l-3,0l0,49Z" class="g3_5" />
<g clip-path="url(#c2_5)">
<path d="M168,397l453,0l0,-31l-453,0l0,31Z" class="g4_5" />
</g>
<path d="M175,397l439,0l0,-31l-439,0l0,31Z" class="g4_5" />
<path d="M69,366l2,0l0,-4l-2,0l0,4Z" class="g3_5" />
<path d="M71,365l95,0l0,-3l-95,0l0,3Z" class="g3_5" />
<path d="M166,366l2,0l0,-4l-2,0l0,4Z" class="g3_5" />
<path d="M168,366l453,0l0,-4l-453,0l0,4Z" class="g1_5" />
<path d="M168.5,366.5l453,0" class="g5_5" />
<path d="M621,366l2,0l0,-4l-2,0l0,4Z" class="g3_5" />
<path d="M623,365l117,0l0,-3l-117,0l0,3Z" class="g3_5" />
<path d="M740,366l2,0l0,-4l-2,0l0,4Z" class="g3_5" />
<path d="M742,365l95,0l0,-3l-95,0l0,3Z" class="g3_5" />
<path d="M837,366l3,0l0,-4l-3,0l0,4Z" class="g3_5" />
<path d="M69,397l2,0l0,-31l-2,0l0,31Z" class="g3_5" />
<path d="M166,397l2,0l0,-31l-2,0l0,31Z" class="g3_5" />
<path d="M621,397l2,0l0,-31l-2,0l0,31Z" class="g3_5" />
<path d="M740,397l2,0l0,-31l-2,0l0,31Z" class="g3_5" />
<path d="M837,397l3,0l0,-31l-3,0l0,31Z" class="g3_5" />
<g clip-path="url(#c3_5)">
<path d="M168,468l453,0l0,-68l-453,0l0,68Z" class="g4_5" />
</g>
<path d="M175,425l439,0l0,-25l-439,0l0,25Z" class="g4_5" />
<path d="M175,443l439,0l0,-18l-439,0l0,18Z" class="g4_5" />
<path d="M175,468l439,0l0,-25l-439,0l0,25Z" class="g4_5" />
<path d="M69,400l2,0l0,-3l-2,0l0,3Z" class="g3_5" />
<path d="M166,400l2,0l0,-3l-2,0l0,3Z" class="g3_5" />
<path d="M168,400l453,0l0,-3l-453,0l0,3Z" class="g1_5" />
<path d="M168.5,400.5l453,0" class="g5_5" />
<path d="M621,400l2,0l0,-3l-2,0l0,3Z" class="g3_5" />
<path d="M740,400l2,0l0,-3l-2,0l0,3Z" class="g3_5" />
<path d="M742,399l95,0l0,-2l-95,0l0,2Z" class="g3_5" />
<path d="M837,400l3,0l0,-3l-3,0l0,3Z" class="g3_5" />
<path d="M69,468l2,0l0,-68l-2,0l0,68Z" class="g3_5" />
<path d="M166,468l2,0l0,-68l-2,0l0,68Z" class="g3_5" />
<path d="M621,468l2,0l0,-68l-2,0l0,68Z" class="g3_5" />
<path d="M740,468l2,0l0,-68l-2,0l0,68Z" class="g3_5" />
<path d="M837,468l3,0l0,-68l-3,0l0,68Z" class="g3_5" />
<g clip-path="url(#c4_5)">
<path d="M168,502l453,0l0,-30l-453,0l0,30Z" class="g6_5" />
</g>
<path d="M175,502l439,0l0,-30l-439,0l0,30Z" class="g6_5" />
<path d="M69,472l2,0l0,-4l-2,0l0,4Z" class="g3_5" />
<path d="M71,470l95,0l0,-2l-95,0l0,2Z" class="g3_5" />
<path d="M166,472l2,0l0,-4l-2,0l0,4Z" class="g3_5" />
<path d="M168,471l453,0l0,-3l-453,0l0,3Z" class="g1_5" />
<path d="M168.5,472.5l453,0" class="g7_5" />
<path d="M621,472l2,0l0,-4l-2,0l0,4Z" class="g3_5" />
<path d="M623,470l117,0l0,-2l-117,0l0,2Z" class="g3_5" />
<path d="M740,472l2,0l0,-4l-2,0l0,4Z" class="g3_5" />
<path d="M742,470l95,0l0,-2l-95,0l0,2Z" class="g3_5" />
<path d="M837,472l3,0l0,-4l-3,0l0,4Z" class="g3_5" />
<path d="M69,502l2,0l0,-30l-2,0l0,30Z" class="g3_5" />
<path d="M166,502l2,0l0,-30l-2,0l0,30Z" class="g3_5" />
<path d="M621,502l2,0l0,-30l-2,0l0,30Z" class="g3_5" />
<path d="M740,502l2,0l0,-30l-2,0l0,30Z" class="g3_5" />
<path d="M837,502l3,0l0,-30l-3,0l0,30Z" class="g3_5" />
<g clip-path="url(#c5_5)">
<path d="M168,555l453,0l0,-49l-453,0l0,49Z" class="g4_5" />
</g>
<path d="M175,531l439,0l0,-25l-439,0l0,25Z" class="g4_5" />
<path d="M175,555l439,0l0,-24l-439,0l0,24Z" class="g4_5" />
<path d="M69,506l2,0l0,-4l-2,0l0,4Z" class="g3_5" />
<path d="M71,505l95,0l0,-3l-95,0l0,3Z" class="g3_5" />
<path d="M166,506l2,0l0,-4l-2,0l0,4Z" class="g3_5" />
<path d="M168,506l453,0l0,-4l-453,0l0,4Z" class="g1_5" />
<path d="M168.5,506.5l453,0" class="g5_5" />
<path d="M621,506l2,0l0,-4l-2,0l0,4Z" class="g3_5" />
<path d="M623,505l117,0l0,-3l-117,0l0,3Z" class="g3_5" />
<path d="M740,506l2,0l0,-4l-2,0l0,4Z" class="g3_5" />
<path d="M742,505l95,0l0,-3l-95,0l0,3Z" class="g3_5" />
<path d="M837,506l3,0l0,-4l-3,0l0,4Z" class="g3_5" />
<path d="M69,555l2,0l0,-49l-2,0l0,49Z" class="g3_5" />
<path d="M166,555l2,0l0,-49l-2,0l0,49Z" class="g3_5" />
<path d="M621,555l2,0l0,-49l-2,0l0,49Z" class="g3_5" />
<path d="M740,555l2,0l0,-49l-2,0l0,49Z" class="g3_5" />
<path d="M837,555l3,0l0,-49l-3,0l0,49Z" class="g3_5" />
<g clip-path="url(#c6_5)">
<path d="M168,608l453,0l0,-49l-453,0l0,49Z" class="g8_5" />
</g>
<path d="M175,584l439,0l0,-25l-439,0l0,25Z" class="g8_5" />
<path d="M175,608l439,0l0,-24l-439,0l0,24Z" class="g8_5" />
<path d="M69,559l2,0l0,-4l-2,0l0,4Z" class="g3_5" />
<path d="M71,558l95,0l0,-3l-95,0l0,3Z" class="g3_5" />
<path d="M166,559l2,0l0,-4l-2,0l0,4Z" class="g3_5" />
<path d="M168,559l453,0l0,-4l-453,0l0,4Z" class="g1_5" />
<path d="M168.5,559.5l453,0" class="g9_5" />
<path d="M621,559l2,0l0,-4l-2,0l0,4Z" class="g3_5" />
<path d="M623,558l117,0l0,-3l-117,0l0,3Z" class="g3_5" />
<path d="M740,559l2,0l0,-4l-2,0l0,4Z" class="g3_5" />
<path d="M742,558l95,0l0,-3l-95,0l0,3Z" class="g3_5" />
<path d="M837,559l3,0l0,-4l-3,0l0,4Z" class="g3_5" />
<path d="M69,608l2,0l0,-49l-2,0l0,49Z" class="g3_5" />
<path d="M166,608l2,0l0,-49l-2,0l0,49Z" class="g3_5" />
<path d="M621,608l2,0l0,-49l-2,0l0,49Z" class="g3_5" />
<path d="M740,608l2,0l0,-49l-2,0l0,49Z" class="g3_5" />
<path d="M837,608l3,0l0,-49l-3,0l0,49Z" class="g3_5" />
<g clip-path="url(#c7_5)">
<path d="M168,643l453,0l0,-31l-453,0l0,31Z" class="g8_5" />
</g>
<path d="M175,643l439,0l0,-31l-439,0l0,31Z" class="g8_5" />
<path d="M69,612l2,0l0,-4l-2,0l0,4Z" class="g3_5" />
<path d="M166,612l2,0l0,-4l-2,0l0,4Z" class="g3_5" />
<path d="M168,612l453,0l0,-4l-453,0l0,4Z" class="g1_5" />
<path d="M168.5,612.5l453,0" class="g9_5" />
<path d="M621,612l2,0l0,-4l-2,0l0,4Z" class="g3_5" />
<path d="M623,611l117,0l0,-3l-117,0l0,3Z" class="g3_5" />
<path d="M740,612l2,0l0,-4l-2,0l0,4Z" class="g3_5" />
<path d="M742,611l95,0l0,-3l-95,0l0,3Z" class="g3_5" />
<path d="M837,612l3,0l0,-4l-3,0l0,4Z" class="g3_5" />
<path d="M69,643l2,0l0,-31l-2,0l0,31Z" class="g3_5" />
<path d="M166,643l2,0l0,-31l-2,0l0,31Z" class="g3_5" />
<path d="M621,643l2,0l0,-31l-2,0l0,31Z" class="g3_5" />
<path d="M740,643l2,0l0,-31l-2,0l0,31Z" class="g3_5" />
<path d="M837,643l3,0l0,-31l-3,0l0,31Z" class="g3_5" />
<g clip-path="url(#c8_5)">
<path d="M168,677l453,0l0,-31l-453,0l0,31Z" class="g2_5" />
</g>
<path d="M175,677l439,0l0,-31l-439,0l0,31Z" class="g2_5" />
<path d="M69,646l2,0l0,-3l-2,0l0,3Z" class="g3_5" />
<path d="M71,645l95,0l0,-2l-95,0l0,2Z" class="g3_5" />
<path d="M166,646l2,0l0,-3l-2,0l0,3Z" class="g3_5" />
<path d="M168,646l453,0l0,-3l-453,0l0,3Z" class="g1_5" />
<path d="M168.5,646.5l453,0" class="g10_5" />
<path d="M621,646l2,0l0,-3l-2,0l0,3Z" class="g3_5" />
<path d="M623,645l117,0l0,-2l-117,0l0,2Z" class="g3_5" />
<path d="M740,646l2,0l0,-3l-2,0l0,3Z" class="g3_5" />
<path d="M742,645l95,0l0,-2l-95,0l0,2Z" class="g3_5" />
<path d="M837,646l3,0l0,-3l-3,0l0,3Z" class="g3_5" />
<path d="M69,677l2,0l0,-31l-2,0l0,31Z" class="g3_5" />
<path d="M166,677l2,0l0,-31l-2,0l0,31Z" class="g3_5" />
<path d="M621,677l2,0l0,-31l-2,0l0,31Z" class="g3_5" />
<path d="M740,677l2,0l0,-31l-2,0l0,31Z" class="g3_5" />
<path d="M837,677l3,0l0,-31l-3,0l0,31Z" class="g3_5" />
<g clip-path="url(#c9_5)">
<path d="M168,730l453,0l0,-50l-453,0l0,50Z" class="g4_5" />
</g>
<path d="M175,705l439,0l0,-25l-439,0l0,25Z" class="g4_5" />
<path d="M175,730l439,0l0,-25l-439,0l0,25Z" class="g4_5" />
<path d="M69,680l2,0l0,-3l-2,0l0,3Z" class="g3_5" />
<path d="M71,679l95,0l0,-2l-95,0l0,2Z" class="g3_5" />
<path d="M166,680l2,0l0,-3l-2,0l0,3Z" class="g3_5" />
<path d="M168,680l453,0l0,-3l-453,0l0,3Z" class="g1_5" />
<path d="M168.5,680.5l453,0" class="g5_5" />
<path d="M621,680l2,0l0,-3l-2,0l0,3Z" class="g3_5" />
<path d="M623,679l117,0l0,-2l-117,0l0,2Z" class="g3_5" />
<path d="M740,680l2,0l0,-3l-2,0l0,3Z" class="g3_5" />
<path d="M742,679l95,0l0,-2l-95,0l0,2Z" class="g3_5" />
<path d="M837,680l3,0l0,-3l-3,0l0,3Z" class="g3_5" />
<path d="M69,730l2,0l0,-50l-2,0l0,50Z" class="g3_5" />
<path d="M166,730l2,0l0,-50l-2,0l0,50Z" class="g3_5" />
<path d="M621,730l2,0l0,-50l-2,0l0,50Z" class="g3_5" />
<path d="M740,730l2,0l0,-50l-2,0l0,50Z" class="g3_5" />
<path d="M837,730l3,0l0,-50l-3,0l0,50Z" class="g3_5" />
<g clip-path="url(#c10_5)">
<path d="M168,783l453,0l0,-50l-453,0l0,50Z" class="g8_5" />
</g>
<path d="M175,758l439,0l0,-25l-439,0l0,25Z" class="g8_5" />
<path d="M175,783l439,0l0,-25l-439,0l0,25Z" class="g8_5" />
<path d="M69,733l2,0l0,-3l-2,0l0,3Z" class="g3_5" />
<path d="M71,732l95,0l0,-2l-95,0l0,2Z" class="g3_5" />
<path d="M166,733l2,0l0,-3l-2,0l0,3Z" class="g3_5" />
<path d="M168,733l453,0l0,-3l-453,0l0,3Z" class="g1_5" />
<path d="M168.5,733.5l453,0" class="g9_5" />
<path d="M621,733l2,0l0,-3l-2,0l0,3Z" class="g3_5" />
<path d="M623,732l117,0l0,-2l-117,0l0,2Z" class="g3_5" />
<path d="M740,733l2,0l0,-3l-2,0l0,3Z" class="g3_5" />
<path d="M742,732l95,0l0,-2l-95,0l0,2Z" class="g3_5" />
<path d="M837,733l3,0l0,-3l-3,0l0,3Z" class="g3_5" />
<path d="M69,783l2,0l0,-50l-2,0l0,50Z" class="g3_5" />
<path d="M166,783l2,0l0,-50l-2,0l0,50Z" class="g3_5" />
<path d="M621,783l2,0l0,-50l-2,0l0,50Z" class="g3_5" />
<path d="M740,783l2,0l0,-50l-2,0l0,50Z" class="g3_5" />
<path d="M837,783l3,0l0,-50l-3,0l0,50Z" class="g3_5" />
<g clip-path="url(#c11_5)">
<path d="M168,833l453,0l0,-47l-453,0l0,47Z" class="g4_5" />
</g>
<path d="M175,811l439,0l0,-25l-439,0l0,25Z" class="g4_5" />
<path d="M175,833l439,0l0,-22l-439,0l0,22Z" class="g4_5" />
<path d="M69,786l2,0l0,-3l-2,0l0,3Z" class="g3_5" />
<path d="M71,785l95,0l0,-2l-95,0l0,2Z" class="g3_5" />
<path d="M166,786l2,0l0,-3l-2,0l0,3Z" class="g3_5" />
<path d="M168,786l453,0l0,-3l-453,0l0,3Z" class="g1_5" />
<path d="M168.5,786.5l453,0" class="g5_5" />
<path d="M621,786l2,0l0,-3l-2,0l0,3Z" class="g3_5" />
<path d="M623,785l117,0l0,-2l-117,0l0,2Z" class="g3_5" />
<path d="M740,786l2,0l0,-3l-2,0l0,3Z" class="g3_5" />
<path d="M742,785l95,0l0,-2l-95,0l0,2Z" class="g3_5" />
<path d="M837,786l3,0l0,-3l-3,0l0,3Z" class="g3_5" />
<path d="M69,833l2,0l0,-47l-2,0l0,47Z" class="g3_5" />
<path d="M166,833l2,0l0,-47l-2,0l0,47Z" class="g3_5" />
<path d="M621,833l2,0l0,-47l-2,0l0,47Z" class="g3_5" />
<path d="M740,833l2,0l0,-47l-2,0l0,47Z" class="g3_5" />
<path d="M837,833l3,0l0,-47l-3,0l0,47Z" class="g3_5" />
<g clip-path="url(#c12_5)">
<path d="M168,872l453,0l0,-36l-453,0l0,36Z" class="g8_5" />
</g>
<path d="M175,854l439,0l0,-18l-439,0l0,18Z" class="g8_5" />
<path d="M175,872l439,0l0,-18l-439,0l0,18Z" class="g8_5" />
<path d="M69,836l2,0l0,-3l-2,0l0,3Z" class="g3_5" />
<path d="M166,836l2,0l0,-3l-2,0l0,3Z" class="g3_5" />
<path d="M168,836l453,0l0,-3l-453,0l0,3Z" class="g1_5" />
<path d="M168.5,836.5l453,0" class="g9_5" />
<path d="M621,836l2,0l0,-3l-2,0l0,3Z" class="g3_5" />
<path d="M623,835l117,0l0,-2l-117,0l0,2Z" class="g3_5" />
<path d="M740,836l2,0l0,-3l-2,0l0,3Z" class="g3_5" />
<path d="M742,835l95,0l0,-2l-95,0l0,2Z" class="g3_5" />
<path d="M837,836l3,0l0,-3l-3,0l0,3Z" class="g3_5" />
<path d="M69,872l2,0l0,-36l-2,0l0,36Z" class="g3_5" />
<path d="M166,872l2,0l0,-36l-2,0l0,36Z" class="g3_5" />
<path d="M621,872l2,0l0,-36l-2,0l0,36Z" class="g3_5" />
<path d="M740,872l2,0l0,-36l-2,0l0,36Z" class="g3_5" />
<path d="M837,872l3,0l0,-36l-3,0l0,36Z" class="g3_5" />
<g clip-path="url(#c13_5)">
<path d="M168,907l453,0l0,-31l-453,0l0,31Z" class="g4_5" />
</g>
<path d="M175,907l439,0l0,-31l-439,0l0,31Z" class="g4_5" />
<path d="M69,876l2,0l0,-4l-2,0l0,4Z" class="g3_5" />
<path d="M71,874l95,0l0,-2l-95,0l0,2Z" class="g3_5" />
<path d="M166,876l2,0l0,-4l-2,0l0,4Z" class="g3_5" />
<path d="M168,876l453,0l0,-4l-453,0l0,4Z" class="g1_5" />
<path d="M168.5,876.5l453,0" class="g5_5" />
<path d="M621,876l2,0l0,-4l-2,0l0,4Z" class="g3_5" />
<path d="M623,874l117,0l0,-2l-117,0l0,2Z" class="g3_5" />
<path d="M740,876l2,0l0,-4l-2,0l0,4Z" class="g3_5" />
<path d="M742,874l95,0l0,-2l-95,0l0,2Z" class="g3_5" />
<path d="M837,876l3,0l0,-4l-3,0l0,4Z" class="g3_5" />
<path d="M69,907l2,0l0,-31l-2,0l0,31Z" class="g3_5" />
<path d="M166,907l2,0l0,-31l-2,0l0,31Z" class="g3_5" />
<path d="M621,907l2,0l0,-31l-2,0l0,31Z" class="g3_5" />
<path d="M740,907l2,0l0,-31l-2,0l0,31Z" class="g3_5" />
<path d="M837,907l3,0l0,-31l-3,0l0,31Z" class="g3_5" />
<g clip-path="url(#c14_5)">
<path d="M168,959l453,0l0,-49l-453,0l0,49Z" class="g4_5" />
</g>
<path d="M175,935l439,0l0,-25l-439,0l0,25Z" class="g4_5" />
<path d="M175,959l439,0l0,-24l-439,0l0,24Z" class="g4_5" />
<path d="M69,910l2,0l0,-3l-2,0l0,3Z" class="g3_5" />
<path d="M166,910l2,0l0,-3l-2,0l0,3Z" class="g3_5" />
<path d="M168,910l453,0l0,-3l-453,0l0,3Z" class="g1_5" />
<path d="M168.5,910.5l453,0" class="g5_5" />
<path d="M621,910l2,0l0,-3l-2,0l0,3Z" class="g3_5" />
<path d="M623,909l117,0l0,-2l-117,0l0,2Z" class="g3_5" />
<path d="M740,910l2,0l0,-3l-2,0l0,3Z" class="g3_5" />
<path d="M742,909l95,0l0,-2l-95,0l0,2Z" class="g3_5" />
<path d="M837,910l3,0l0,-3l-3,0l0,3Z" class="g3_5" />
<path d="M69,959l2,0l0,-49l-2,0l0,49Z" class="g3_5" />
<path d="M166,959l2,0l0,-49l-2,0l0,49Z" class="g3_5" />
<path d="M621,959l2,0l0,-49l-2,0l0,49Z" class="g3_5" />
<path d="M740,959l2,0l0,-49l-2,0l0,49Z" class="g3_5" />
<path d="M837,959l3,0l0,-49l-3,0l0,49Z" class="g3_5" />
<g clip-path="url(#c15_5)">
<path d="M168,994l453,0l0,-31l-453,0l0,31Z" class="g11_5" />
</g>
<path d="M175,994l439,0l0,-31l-439,0l0,31Z" class="g11_5" />
<path d="M69,963l2,0l0,-4l-2,0l0,4Z" class="g3_5" />
<path d="M71,962l95,0l0,-3l-95,0l0,3Z" class="g3_5" />
<path d="M166,963l2,0l0,-4l-2,0l0,4Z" class="g3_5" />
<path d="M168,963l453,0l0,-4l-453,0l0,4Z" class="g1_5" />
<path d="M168.5,963.5l453,0" class="g12_5" />
<path d="M621,963l2,0l0,-4l-2,0l0,4Z" class="g3_5" />
<path d="M623,962l117,0l0,-3l-117,0l0,3Z" class="g3_5" />
<path d="M740,963l2,0l0,-4l-2,0l0,4Z" class="g3_5" />
<path d="M742,962l95,0l0,-3l-95,0l0,3Z" class="g3_5" />
<path d="M837,963l3,0l0,-4l-3,0l0,4Z" class="g3_5" />
<path d="M69,994l2,0l0,-31l-2,0l0,31Z" class="g3_5" />
<path d="M166,994l2,0l0,-31l-2,0l0,31Z" class="g3_5" />
<path d="M621,994l2,0l0,-31l-2,0l0,31Z" class="g3_5" />
<path d="M740,994l2,0l0,-31l-2,0l0,31Z" class="g3_5" />
<path d="M837,994l3,0l0,-31l-3,0l0,31Z" class="g3_5" />
<g clip-path="url(#c16_5)">
<path d="M168,1047l453,0l0,-50l-453,0l0,50Z" class="g8_5" />
</g>
<path d="M175,1022l439,0l0,-25l-439,0l0,25Z" class="g8_5" />
<path d="M175,1047l439,0l0,-25l-439,0l0,25Z" class="g8_5" />
<path d="M69,997l2,0l0,-3l-2,0l0,3Z" class="g3_5" />
<path d="M166,997l2,0l0,-3l-2,0l0,3Z" class="g3_5" />
<path d="M168,997l453,0l0,-3l-453,0l0,3Z" class="g1_5" />
<path d="M168.5,997.5l453,0" class="g9_5" />
<path d="M621,997l2,0l0,-3l-2,0l0,3Z" class="g3_5" />
<path d="M740,997l2,0l0,-3l-2,0l0,3Z" class="g3_5" />
<path d="M742,996l95,0l0,-2l-95,0l0,2Z" class="g3_5" />
<path d="M837,997l3,0l0,-3l-3,0l0,3Z" class="g3_5" />
<path d="M69,1047l2,0l0,-50l-2,0l0,50Z" class="g3_5" />
<path d="M166,1047l2,0l0,-50l-2,0l0,50Z" class="g3_5" />
<path d="M621,1047l2,0l0,-50l-2,0l0,50Z" class="g3_5" />
<path d="M740,1047l2,0l0,-50l-2,0l0,50Z" class="g3_5" />
<path d="M837,1047l3,0l0,-50l-3,0l0,50Z" class="g3_5" />
<g clip-path="url(#c17_5)">
<path d="M168,1081l453,0l0,-31l-453,0l0,31Z" class="g2_5" />
</g>
<path d="M175,1081l439,0l0,-31l-439,0l0,31Z" class="g2_5" />
<path d="M69,1050l2,0l0,-3l-2,0l0,3Z" class="g3_5" />
<path d="M166,1050l2,0l0,-3l-2,0l0,3Z" class="g3_5" />
<path d="M168,1050l453,0l0,-3l-453,0l0,3Z" class="g1_5" />
<path d="M168.5,1050.5l453,0" class="g10_5" />
<path d="M621,1050l2,0l0,-3l-2,0l0,3Z" class="g3_5" />
<path d="M740,1050l2,0l0,-3l-2,0l0,3Z" class="g3_5" />
<path d="M742,1049l95,0l0,-2l-95,0l0,2Z" class="g3_5" />
<path d="M837,1050l3,0l0,-3l-3,0l0,3Z" class="g3_5" />
<path d="M69,1081l2,0l0,-31l-2,0l0,31Z" class="g3_5" />
<path d="M166,1081l2,0l0,-31l-2,0l0,31Z" class="g3_5" />
<path d="M621,1081l2,0l0,-31l-2,0l0,31Z" class="g3_5" />
<path d="M740,1081l2,0l0,-31l-2,0l0,31Z" class="g3_5" />
<path d="M837,1081l3,0l0,-31l-3,0l0,31Z" class="g3_5" />
<g clip-path="url(#c18_5)">
<path d="M168,1134l453,0l0,-50l-453,0l0,50Z" class="g4_5" />
</g>
<path d="M175,1109l439,0l0,-25l-439,0l0,25Z" class="g4_5" />
<path d="M175,1134l439,0l0,-25l-439,0l0,25Z" class="g4_5" />
<path d="M69,1085l2,0l0,-4l-2,0l0,4Z" class="g3_5" />
<path d="M71,1083l95,0l0,-2l-95,0l0,2Z" class="g3_5" />
<path d="M166,1085l2,0l0,-4l-2,0l0,4Z" class="g3_5" />
<path d="M168,1084l453,0l0,-3l-453,0l0,3Z" class="g1_5" />
<path d="M168.5,1085.5l453,0" class="g5_5" />
<path d="M621,1085l2,0l0,-4l-2,0l0,4Z" class="g3_5" />
<path d="M623,1083l117,0l0,-2l-117,0l0,2Z" class="g3_5" />
<path d="M740,1085l2,0l0,-4l-2,0l0,4Z" class="g3_5" />
<path d="M742,1083l95,0l0,-2l-95,0l0,2Z" class="g3_5" />
<path d="M837,1085l3,0l0,-4l-3,0l0,4Z" class="g3_5" />
<path d="M69,1134l2,0l0,-49l-2,0l0,49Z" class="g3_5" />
<path d="M166,1134l2,0l0,-49l-2,0l0,49Z" class="g3_5" />
<path d="M621,1134l2,0l0,-49l-2,0l0,49Z" class="g3_5" />
<path d="M740,1134l2,0l0,-49l-2,0l0,49Z" class="g3_5" />
<path d="M837,1134l3,0l0,-49l-3,0l0,49Z" class="g3_5" />
<g clip-path="url(#c19_5)">
<path d="M168,1168l453,0l0,-31l-453,0l0,31Z" class="g2_5" />
</g>
<path d="M175,1168l439,0l0,-31l-439,0l0,31Z" class="g2_5" />
<path d="M69,1137l2,0l0,-3l-2,0l0,3Z" class="g3_5" />
<path d="M71,1136l95,0l0,-2l-95,0l0,2Z" class="g3_5" />
<path d="M166,1137l2,0l0,-3l-2,0l0,3Z" class="g3_5" />
<path d="M168,1137l453,0l0,-3l-453,0l0,3Z" class="g1_5" />
<path d="M168.5,1137.5l453,0" class="g10_5" />
<path d="M621,1137l2,0l0,-3l-2,0l0,3Z" class="g3_5" />
<path d="M623,1136l117,0l0,-2l-117,0l0,2Z" class="g3_5" />
<path d="M740,1137l2,0l0,-3l-2,0l0,3Z" class="g3_5" />
<path d="M742,1136l95,0l0,-2l-95,0l0,2Z" class="g3_5" />
<path d="M837,1137l3,0l0,-3l-3,0l0,3Z" class="g3_5" />
<path d="M69,1168l2,0l0,-31l-2,0l0,31Z" class="g3_5" />
<path d="M166,1168l2,0l0,-31l-2,0l0,31Z" class="g3_5" />
<path d="M621,1168l2,0l0,-31l-2,0l0,31Z" class="g3_5" />
<path d="M740,1168l2,0l0,-31l-2,0l0,31Z" class="g3_5" />
<path d="M837,1168l3,0l0,-31l-3,0l0,31Z" class="g3_5" />
<g clip-path="url(#c20_5)">
<path d="M168,1203l453,0l0,-31l-453,0l0,31Z" class="g2_5" />
</g>
<path d="M175,1203l439,0l0,-31l-439,0l0,31Z" class="g2_5" />
<path d="M69,1172l2,0l0,-4l-2,0l0,4Z" class="g3_5" />
<path d="M71,1171l95,0l0,-3l-95,0l0,3Z" class="g3_5" />
<path d="M166,1172l2,0l0,-4l-2,0l0,4Z" class="g3_5" />
<path d="M168,1172l453,0l0,-4l-453,0l0,4Z" class="g1_5" />
<path d="M168.5,1172.5l453,0" class="g10_5" />
<path d="M621,1172l2,0l0,-4l-2,0l0,4Z" class="g3_5" />
<path d="M623,1171l117,0l0,-3l-117,0l0,3Z" class="g3_5" />
<path d="M740,1172l2,0l0,-4l-2,0l0,4Z" class="g3_5" />
<path d="M742,1171l95,0l0,-3l-95,0l0,3Z" class="g3_5" />
<path d="M837,1172l3,0l0,-4l-3,0l0,4Z" class="g3_5" />
<path d="M69,1203l2,0l0,-31l-2,0l0,31Z" class="g3_5" />
<path d="M166,1203l2,0l0,-31l-2,0l0,31Z" class="g3_5" />
<path d="M621,1203l2,0l0,-31l-2,0l0,31Z" class="g3_5" />
<path d="M740,1203l2,0l0,-31l-2,0l0,31Z" class="g3_5" />
<path d="M837,1203l3,0l0,-31l-3,0l0,31Z" class="g3_5" />
<g clip-path="url(#c21_5)">
<path d="M168,1256l453,0l0,-50l-453,0l0,50Z" class="g4_5" />
</g>
<path d="M175,1231l439,0l0,-25l-439,0l0,25Z" class="g4_5" />
<path d="M175,1256l439,0l0,-25l-439,0l0,25Z" class="g4_5" />
<path d="M69,1206l2,0l0,-3l-2,0l0,3Z" class="g3_5" />
<path d="M166,1206l2,0l0,-3l-2,0l0,3Z" class="g3_5" />
<path d="M168,1206l453,0l0,-3l-453,0l0,3Z" class="g1_5" />
<path d="M168.5,1206.5l453,0" class="g5_5" />
<path d="M621,1206l2,0l0,-3l-2,0l0,3Z" class="g3_5" />
<path d="M740,1206l2,0l0,-3l-2,0l0,3Z" class="g3_5" />
<path d="M742,1205l95,0l0,-2l-95,0l0,2Z" class="g3_5" />
<path d="M837,1206l3,0l0,-3l-3,0l0,3Z" class="g3_5" />
<path d="M69,1256l2,0l0,-50l-2,0l0,50Z" class="g3_5" />
<path d="M166,1256l2,0l0,-50l-2,0l0,50Z" class="g3_5" />
<path d="M621,1256l2,0l0,-50l-2,0l0,50Z" class="g3_5" />
<path d="M740,1256l2,0l0,-50l-2,0l0,50Z" class="g3_5" />
<path d="M837,1256l3,0l0,-50l-3,0l0,50Z" class="g3_5" />
<g clip-path="url(#c22_5)">
<path d="M168,1290l453,0l0,-31l-453,0l0,31Z" class="g2_5" />
</g>
<path d="M175,1290l439,0l0,-31l-439,0l0,31Z" class="g2_5" />
<path d="M69,1259l2,0l0,-3l-2,0l0,3Z" class="g3_5" />
<path d="M71,1258l95,0l0,-2l-95,0l0,2Z" class="g3_5" />
<path d="M166,1259l2,0l0,-3l-2,0l0,3Z" class="g3_5" />
<path d="M168,1259l453,0l0,-3l-453,0l0,3Z" class="g1_5" />
<path d="M168.5,1259.5l453,0" class="g10_5" />
<path d="M621,1259l2,0l0,-3l-2,0l0,3Z" class="g3_5" />
<path d="M623,1258l117,0l0,-2l-117,0l0,2Z" class="g3_5" />
<path d="M740,1259l2,0l0,-3l-2,0l0,3Z" class="g3_5" />
<path d="M742,1258l95,0l0,-2l-95,0l0,2Z" class="g3_5" />
<path d="M837,1259l3,0l0,-3l-3,0l0,3Z" class="g3_5" />
<path d="M69,1290l2,0l0,-31l-2,0l0,31Z" class="g3_5" />
<path d="M166,1290l2,0l0,-31l-2,0l0,31Z" class="g3_5" />
<path d="M621,1290l2,0l0,-31l-2,0l0,31Z" class="g3_5" />
<path d="M740,1290l2,0l0,-31l-2,0l0,31Z" class="g3_5" />
<path d="M837,1290l3,0l0,-31l-3,0l0,31Z" class="g3_5" />
<g clip-path="url(#c23_5)">
<path d="M168,1324l453,0l0,-31l-453,0l0,31Z" class="g4_5" />
</g>
<path d="M175,1324l439,0l0,-31l-439,0l0,31Z" class="g4_5" />
<path d="M69,1293l2,0l0,-3l-2,0l0,3Z" class="g3_5" />
<path d="M166,1293l2,0l0,-3l-2,0l0,3Z" class="g3_5" />
<path d="M168,1293l453,0l0,-3l-453,0l0,3Z" class="g1_5" />
<path d="M168.5,1293.5l453,0" class="g5_5" />
<path d="M621,1293l2,0l0,-3l-2,0l0,3Z" class="g3_5" />
<path d="M740,1293l2,0l0,-3l-2,0l0,3Z" class="g3_5" />
<path d="M742,1292l95,0l0,-2l-95,0l0,2Z" class="g3_5" />
<path d="M837,1293l3,0l0,-3l-3,0l0,3Z" class="g3_5" />
<path d="M69,1324l2,0l0,-31l-2,0l0,31Z" class="g3_5" />
<path d="M166,1324l2,0l0,-31l-2,0l0,31Z" class="g3_5" />
<path d="M621,1324l2,0l0,-31l-2,0l0,31Z" class="g3_5" />
<path d="M740,1324l2,0l0,-31l-2,0l0,31Z" class="g3_5" />
<path d="M837,1324l3,0l0,-31l-3,0l0,31Z" class="g3_5" />
<g clip-path="url(#c24_5)">
<path d="M168,1396l453,0l0,-68l-453,0l0,68Z" class="g4_5" />
</g>
<path d="M175,1352l439,0l0,-24l-439,0l0,24Z" class="g4_5" />
<path d="M175,1371l439,0l0,-19l-439,0l0,19Z" class="g4_5" />
<path d="M175,1396l439,0l0,-25l-439,0l0,25Z" class="g4_5" />
<path d="M69,1328l2,0l0,-4l-2,0l0,4Z" class="g3_5" />
<path d="M166,1328l2,0l0,-4l-2,0l0,4Z" class="g3_5" />
<path d="M168,1328l453,0l0,-4l-453,0l0,4Z" class="g1_5" />
<path d="M168.5,1328.5l453,0" class="g5_5" />
<path d="M621,1328l2,0l0,-4l-2,0l0,4Z" class="g3_5" />
<path d="M740,1328l2,0l0,-4l-2,0l0,4Z" class="g3_5" />
<path d="M742,1326l95,0l0,-2l-95,0l0,2Z" class="g3_5" />
<path d="M837,1328l3,0l0,-4l-3,0l0,4Z" class="g3_5" />
<path d="M69,1398l2,0l0,-70l-2,0l0,70Z" class="g3_5" />
<path d="M69,1398l97,0l0,-2l-97,0l0,2Z" class="g3_5" />
<path d="M166,1398l2,0l0,-70l-2,0l0,70Z" class="g3_5" />
<path d="M166,1398l2,0l0,-2l-2,0l0,2Z" class="g3_5" />
<path d="M168,1399l453,0l0,-3l-453,0l0,3Z" class="g1_5" />
<path d="M621,1398l2,0l0,-70l-2,0l0,70Z" class="g3_5" />
<path d="M621,1398l119,0l0,-2l-119,0l0,2Z" class="g3_5" />
<path d="M740,1398l2,0l0,-70l-2,0l0,70Z" class="g3_5" />
<path d="M742,1398l95,0l0,-2l-95,0l0,2Z" class="g3_5" />
<path d="M837,1398l3,0l0,-70l-3,0l0,70Z" class="g3_5" />
<path d="M837,1398l3,0l0,-2l-3,0l0,2Z" class="g3_5" />
</svg>