<?xml version="1.0" encoding="UTF-8" standalone="no"?>
<!DOCTYPE svg PUBLIC "-//W3C//DTD SVG 1.1//EN"
"http://www.w3.org/Graphics/SVG/1.1/DTD/svg11.dtd">
<svg version="1.1" xmlns="http://www.w3.org/2000/svg" xmlns:xlink="http://www.w3.org/1999/xlink">
<defs>
<style type="text/css"><![CDATA[
.g1_5{
fill: none;
stroke: #000000;
stroke-width: 1;
stroke-linecap: butt;
stroke-linejoin: miter;
}
]]></style>
</defs>
<path d="M49.5,177.5l0,-1" class="g1_5" />
<path d="M49.5,177.5l0,-1" class="g1_5" />
<path d="M50.5,177.5l834,0" class="g1_5" />
<path d="M884.5,177.5l0,-1" class="g1_5" />
<path d="M884.5,177.5l0,-1" class="g1_5" />
<path d="M49.5,242.5l0,-65" class="g1_5" />
<path d="M884.5,242.5l0,-65" class="g1_5" />
<path d="M49.5,243.5l0,-1" class="g1_5" />
<path d="M50.5,243.5l138,0" class="g1_5" />
<path d="M188.5,243.5l0,-1" class="g1_5" />
<path d="M189.5,243.5l695,0" class="g1_5" />
<path d="M884.5,243.5l0,-1" class="g1_5" />
<path d="M49.5,308.5l0,-65" class="g1_5" />
<path d="M188.5,308.5l0,-65" class="g1_5" />
<path d="M884.5,308.5l0,-65" class="g1_5" />
<path d="M49.5,309.5l0,-1" class="g1_5" />
<path d="M188.5,309.5l0,-1" class="g1_5" />
<path d="M189.5,309.5l113,0" class="g1_5" />
<path d="M302.5,309.5l0,-1" class="g1_5" />
<path d="M303.5,309.5l62,0" class="g1_5" />
<path d="M365.5,309.5l0,-1" class="g1_5" />
<path d="M366.5,309.5l104,0" class="g1_5" />
<path d="M470.5,309.5l0,-1" class="g1_5" />
<path d="M470.5,309.5l103,0" class="g1_5" />
<path d="M573.5,309.5l0,-1" class="g1_5" />
<path d="M574.5,309.5l102,0" class="g1_5" />
<path d="M676.5,309.5l0,-1" class="g1_5" />
<path d="M676.5,309.5l74,0" class="g1_5" />
<path d="M750.5,309.5l0,-1" class="g1_5" />
<path d="M751.5,309.5l63,0" class="g1_5" />
<path d="M814.5,309.5l0,-1" class="g1_5" />
<path d="M815.5,309.5l69,0" class="g1_5" />
<path d="M884.5,309.5l0,-1" class="g1_5" />
<path d="M49.5,374.5l0,-65" class="g1_5" />
<path d="M188.5,374.5l0,-65" class="g1_5" />
<path d="M302.5,374.5l0,-65" class="g1_5" />
<path d="M365.5,374.5l0,-65" class="g1_5" />
<path d="M470.5,374.5l0,-65" class="g1_5" />
<path d="M573.5,374.5l0,-65" class="g1_5" />
<path d="M676.5,374.5l0,-65" class="g1_5" />
<path d="M750.5,374.5l0,-65" class="g1_5" />
<path d="M814.5,374.5l0,-65" class="g1_5" />
<path d="M884.5,374.5l0,-65" class="g1_5" />
<path d="M50.5,374.5l138,0" class="g1_5" />
<path d="M189.5,374.5l113,0" class="g1_5" />
<path d="M303.5,374.5l11,0" class="g1_5" />
<path d="M315.5,374.5l50,0" class="g1_5" />
<path d="M366.5,374.5l104,0" class="g1_5" />
<path d="M470.5,374.5l103,0" class="g1_5" />
<path d="M574.5,374.5l5,0" class="g1_5" />
<path d="M579.5,374.5l97,0" class="g1_5" />
<path d="M676.5,374.5l74,0" class="g1_5" />
<path d="M751.5,374.5l16,0" class="g1_5" />
<path d="M768.5,374.5l17,0" class="g1_5" />
<path d="M786.5,374.5l18,0" class="g1_5" />
<path d="M805.5,374.5l9,0" class="g1_5" />
<path d="M815.5,374.5l7,0" class="g1_5" />
<path d="M823.5,374.5l20,0" class="g1_5" />
<path d="M844.5,374.5l19,0" class="g1_5" />
<path d="M864.5,374.5l20,0" class="g1_5" />
<path d="M49.5,440.5l0,-66" class="g1_5" />
<path d="M314.5,440.5l0,-66" class="g1_5" />
<path d="M579.5,440.5l0,-66" class="g1_5" />
<path d="M767.5,440.5l0,-66" class="g1_5" />
<path d="M785.5,440.5l0,-66" class="g1_5" />
<path d="M804.5,440.5l0,-66" class="g1_5" />
<path d="M822.5,440.5l0,-66" class="g1_5" />
<path d="M843.5,440.5l0,-66" class="g1_5" />
<path d="M863.5,440.5l0,-66" class="g1_5" />
<path d="M884.5,440.5l0,-66" class="g1_5" />
<path d="M579.5,440.5l188,0" class="g1_5" />
<path d="M768.5,440.5l17,0" class="g1_5" />
<path d="M786.5,440.5l18,0" class="g1_5" />
<path d="M805.5,440.5l17,0" class="g1_5" />
<path d="M823.5,440.5l20,0" class="g1_5" />
<path d="M844.5,440.5l19,0" class="g1_5" />
<path d="M864.5,440.5l20,0" class="g1_5" />
<path d="M49.5,505.5l0,-65" class="g1_5" />
<path d="M314.5,505.5l0,-65" class="g1_5" />
<path d="M579.5,505.5l0,-65" class="g1_5" />
<path d="M767.5,505.5l0,-65" class="g1_5" />
<path d="M785.5,505.5l0,-65" class="g1_5" />
<path d="M804.5,505.5l0,-65" class="g1_5" />
<path d="M822.5,505.5l0,-65" class="g1_5" />
<path d="M843.5,505.5l0,-65" class="g1_5" />
<path d="M863.5,505.5l0,-65" class="g1_5" />
<path d="M884.5,505.5l0,-65" class="g1_5" />
<path d="M49.5,506.5l0,-1" class="g1_5" />
<path d="M50.5,506.5l264,0" class="g1_5" />
<path d="M314.5,506.5l0,-1" class="g1_5" />
<path d="M315.5,506.5l264,0" class="g1_5" />
<path d="M579.5,506.5l0,-1" class="g1_5" />
<path d="M579.5,506.5l188,0" class="g1_5" />
<path d="M767.5,506.5l0,-1" class="g1_5" />
<path d="M768.5,506.5l17,0" class="g1_5" />
<path d="M785.5,506.5l0,-1" class="g1_5" />
<path d="M786.5,506.5l18,0" class="g1_5" />
<path d="M804.5,506.5l0,-1" class="g1_5" />
<path d="M805.5,506.5l17,0" class="g1_5" />
<path d="M822.5,506.5l0,-1" class="g1_5" />
<path d="M823.5,506.5l20,0" class="g1_5" />
<path d="M843.5,506.5l0,-1" class="g1_5" />
<path d="M844.5,506.5l19,0" class="g1_5" />
<path d="M863.5,506.5l0,-1" class="g1_5" />
<path d="M864.5,506.5l20,0" class="g1_5" />
<path d="M884.5,506.5l0,-1" class="g1_5" />
<path d="M49.5,571.5l0,-65" class="g1_5" />
<path d="M884.5,571.5l0,-65" class="g1_5" />
<path d="M49.5,572.5l0,-1" class="g1_5" />
<path d="M50.5,572.5l310,0" class="g1_5" />
<path d="M360.5,572.5l0,-1" class="g1_5" />
<path d="M361.5,572.5l112,0" class="g1_5" />
<path d="M473.5,572.5l0,-1" class="g1_5" />
<path d="M474.5,572.5l132,0" class="g1_5" />
<path d="M606.5,572.5l0,-1" class="g1_5" />
<path d="M606.5,572.5l123,0" class="g1_5" />
<path d="M729.5,572.5l0,-1" class="g1_5" />
<path d="M730.5,572.5l154,0" class="g1_5" />
<path d="M884.5,572.5l0,-1" class="g1_5" />
<path d="M49.5,637.5l0,-65" class="g1_5" />
<path d="M360.5,637.5l0,-65" class="g1_5" />
<path d="M473.5,637.5l0,-65" class="g1_5" />
<path d="M606.5,637.5l0,-65" class="g1_5" />
<path d="M729.5,637.5l0,-65" class="g1_5" />
<path d="M884.5,637.5l0,-65" class="g1_5" />
<path d="M50.5,637.5l310,0" class="g1_5" />
<path d="M361.5,637.5l112,0" class="g1_5" />
<path d="M474.5,637.5l132,0" class="g1_5" />
<path d="M606.5,637.5l123,0" class="g1_5" />
<path d="M730.5,637.5l154,0" class="g1_5" />
<path d="M49.5,703.5l0,-66" class="g1_5" />
<path d="M360.5,703.5l0,-66" class="g1_5" />
<path d="M473.5,703.5l0,-66" class="g1_5" />
<path d="M606.5,703.5l0,-66" class="g1_5" />
<path d="M729.5,703.5l0,-66" class="g1_5" />
<path d="M884.5,703.5l0,-66" class="g1_5" />
<path d="M50.5,703.5l310,0" class="g1_5" />
<path d="M361.5,703.5l112,0" class="g1_5" />
<path d="M474.5,703.5l132,0" class="g1_5" />
<path d="M606.5,703.5l123,0" class="g1_5" />
<path d="M730.5,703.5l154,0" class="g1_5" />
<path d="M49.5,768.5l0,-65" class="g1_5" />
<path d="M360.5,768.5l0,-65" class="g1_5" />
<path d="M884.5,768.5l0,-65" class="g1_5" />
<path d="M49.5,769.5l0,-1" class="g1_5" />
<path d="M50.5,769.5l310,0" class="g1_5" />
<path d="M360.5,769.5l0,-1" class="g1_5" />
<path d="M361.5,769.5l523,0" class="g1_5" />
<path d="M884.5,769.5l0,-1" class="g1_5" />
<path d="M49.5,834.5l0,-65" class="g1_5" />
<path d="M360.5,834.5l0,-65" class="g1_5" />
<path d="M884.5,834.5l0,-65" class="g1_5" />
<path d="M49.5,835.5l0,-1" class="g1_5" />
<path d="M50.5,835.5l310,0" class="g1_5" />
<path d="M360.5,835.5l0,-1" class="g1_5" />
<path d="M361.5,835.5l523,0" class="g1_5" />
<path d="M884.5,835.5l0,-1" class="g1_5" />
<path d="M49.5,900.5l0,-65" class="g1_5" />
<path d="M360.5,900.5l0,-65" class="g1_5" />
<path d="M884.5,900.5l0,-65" class="g1_5" />
<path d="M49.5,901.5l0,-1" class="g1_5" />
<path d="M50.5,901.5l310,0" class="g1_5" />
<path d="M360.5,901.5l0,-1" class="g1_5" />
<path d="M361.5,901.5l523,0" class="g1_5" />
<path d="M884.5,901.5l0,-1" class="g1_5" />
<path d="M49.5,966.5l0,-65" class="g1_5" />
<path d="M360.5,966.5l0,-65" class="g1_5" />
<path d="M884.5,966.5l0,-65" class="g1_5" />
<path d="M50.5,966.5l310,0" class="g1_5" />
<path d="M361.5,966.5l523,0" class="g1_5" />
<path d="M49.5,1035.5l0,-69" class="g1_5" />
<path d="M360.5,1035.5l0,-69" class="g1_5" />
<path d="M884.5,1035.5l0,-69" class="g1_5" />
<path d="M49.5,1036.5l0,-1" class="g1_5" />
<path d="M50.5,1036.5l310,0" class="g1_5" />
<path d="M360.5,1036.5l0,-1" class="g1_5" />
<path d="M361.5,1036.5l523,0" class="g1_5" />
<path d="M884.5,1036.5l0,-1" class="g1_5" />
<path d="M49.5,1101.5l0,-65" class="g1_5" />
<path d="M360.5,1101.5l0,-65" class="g1_5" />
<path d="M884.5,1101.5l0,-65" class="g1_5" />
<path d="M50.5,1101.5l310,0" class="g1_5" />
<path d="M361.5,1101.5l523,0" class="g1_5" />
<path d="M49.5,1166.5l0,-65" class="g1_5" />
<path d="M360.5,1166.5l0,-65" class="g1_5" />
<path d="M884.5,1166.5l0,-65" class="g1_5" />
<path d="M49.5,1167.5l0,-1" class="g1_5" />
<path d="M50.5,1167.5l310,0" class="g1_5" />
<path d="M360.5,1167.5l0,-1" class="g1_5" />
<path d="M361.5,1167.5l523,0" class="g1_5" />
<path d="M884.5,1167.5l0,-1" class="g1_5" />
<path d="M49.5,1232.5l0,-65" class="g1_5" />
<path d="M49.5,1233.5l0,-1" class="g1_5" />
<path d="M49.5,1233.5l0,-1" class="g1_5" />
<path d="M50.5,1233.5l310,0" class="g1_5" />
<path d="M360.5,1232.5l0,-65" class="g1_5" />
<path d="M360.5,1233.5l0,-1" class="g1_5" />
<path d="M361.5,1233.5l523,0" class="g1_5" />
<path d="M884.5,1232.5l0,-65" class="g1_5" />
<path d="M884.5,1233.5l0,-1" class="g1_5" />
<path d="M884.5,1233.5l0,-1" class="g1_5" />
</svg>