<?xml version="1.0" encoding="UTF-8" standalone="no"?>
<!DOCTYPE svg PUBLIC "-//W3C//DTD SVG 1.1//EN"
"http://www.w3.org/Graphics/SVG/1.1/DTD/svg11.dtd">
<svg version="1.1" xmlns="http://www.w3.org/2000/svg" xmlns:xlink="http://www.w3.org/1999/xlink">
<defs>
<style type="text/css"><![CDATA[
.g1_4{
fill: none;
stroke: #000000;
stroke-width: 1;
stroke-linecap: butt;
stroke-linejoin: miter;
}
]]></style>
</defs>
<path d="M32.5,261.5l34,0" class="g1_4" />
<path d="M66.5,261.5l1,0" class="g1_4" />
<path d="M67.5,261.5l112,0" class="g1_4" />
<path d="M179.5,261.5l1,0" class="g1_4" />
<path d="M180.5,261.5l229,0" class="g1_4" />
<path d="M409.5,261.5l114,0" class="g1_4" />
<path d="M523.5,261.5l94,0" class="g1_4" />
<path d="M617.5,261.5l1,0" class="g1_4" />
<path d="M618.5,261.5l215,0" class="g1_4" />
<path d="M833.5,261.5l184,0" class="g1_4" />
<path d="M1017.5,261.5l1,0" class="g1_4" />
<path d="M1018.5,261.5l84,0" class="g1_4" />
<path d="M1102.5,261.5l91,0" class="g1_4" />
<path d="M1193.5,261.5l1,0" class="g1_4" />
<path d="M1194.5,261.5l299,0" class="g1_4" />
<path d="M1493.5,261.5l1,0" class="g1_4" />
<path d="M1493.5,261.5l1,0" class="g1_4" />
<path d="M32.5,261.5l0,96" class="g1_4" />
<path d="M66.5,261.5l0,96" class="g1_4" />
<path d="M179.5,261.5l0,96" class="g1_4" />
<path d="M409.5,261.5l0,96" class="g1_4" />
<path d="M523.5,261.5l0,96" class="g1_4" />
<path d="M617.5,261.5l0,96" class="g1_4" />
<path d="M833.5,261.5l0,96" class="g1_4" />
<path d="M1017.5,261.5l0,96" class="g1_4" />
<path d="M1102.5,261.5l0,96" class="g1_4" />
<path d="M1193.5,261.5l0,96" class="g1_4" />
<path d="M1493.5,261.5l0,96" class="g1_4" />
<path d="M32.5,357.5l34,0" class="g1_4" />
<path d="M66.5,357.5l1,0" class="g1_4" />
<path d="M67.5,357.5l112,0" class="g1_4" />
<path d="M179.5,357.5l1,0" class="g1_4" />
<path d="M180.5,357.5l229,0" class="g1_4" />
<path d="M409.5,357.5l114,0" class="g1_4" />
<path d="M523.5,357.5l94,0" class="g1_4" />
<path d="M617.5,357.5l1,0" class="g1_4" />
<path d="M618.5,357.5l215,0" class="g1_4" />
<path d="M833.5,357.5l184,0" class="g1_4" />
<path d="M1017.5,357.5l1,0" class="g1_4" />
<path d="M1018.5,357.5l84,0" class="g1_4" />
<path d="M1102.5,357.5l91,0" class="g1_4" />
<path d="M1193.5,357.5l1,0" class="g1_4" />
<path d="M1194.5,357.5l299,0" class="g1_4" />
<path d="M1493.5,357.5l1,0" class="g1_4" />
<path d="M32.5,358.5l0,31" class="g1_4" />
<path d="M66.5,358.5l0,31" class="g1_4" />
<path d="M179.5,358.5l0,31" class="g1_4" />
<path d="M409.5,358.5l0,31" class="g1_4" />
<path d="M523.5,358.5l0,31" class="g1_4" />
<path d="M617.5,358.5l0,31" class="g1_4" />
<path d="M833.5,358.5l0,31" class="g1_4" />
<path d="M1017.5,358.5l0,31" class="g1_4" />
<path d="M1102.5,358.5l0,31" class="g1_4" />
<path d="M1193.5,358.5l0,31" class="g1_4" />
<path d="M1493.5,358.5l0,31" class="g1_4" />
<path d="M32.5,389.5l34,0" class="g1_4" />
<path d="M66.5,389.5l1,0" class="g1_4" />
<path d="M67.5,389.5l112,0" class="g1_4" />
<path d="M179.5,389.5l1,0" class="g1_4" />
<path d="M180.5,389.5l229,0" class="g1_4" />
<path d="M409.5,389.5l114,0" class="g1_4" />
<path d="M523.5,389.5l94,0" class="g1_4" />
<path d="M617.5,389.5l1,0" class="g1_4" />
<path d="M618.5,389.5l215,0" class="g1_4" />
<path d="M833.5,389.5l184,0" class="g1_4" />
<path d="M1017.5,389.5l1,0" class="g1_4" />
<path d="M1018.5,389.5l84,0" class="g1_4" />
<path d="M1102.5,389.5l91,0" class="g1_4" />
<path d="M1193.5,389.5l1,0" class="g1_4" />
<path d="M1194.5,389.5l299,0" class="g1_4" />
<path d="M1493.5,389.5l1,0" class="g1_4" />
<path d="M32.5,390.5l0,32" class="g1_4" />
<path d="M66.5,390.5l0,32" class="g1_4" />
<path d="M179.5,390.5l0,32" class="g1_4" />
<path d="M409.5,390.5l0,32" class="g1_4" />
<path d="M523.5,390.5l0,32" class="g1_4" />
<path d="M617.5,390.5l0,32" class="g1_4" />
<path d="M833.5,390.5l0,32" class="g1_4" />
<path d="M1017.5,390.5l0,32" class="g1_4" />
<path d="M1102.5,390.5l0,32" class="g1_4" />
<path d="M1193.5,390.5l0,32" class="g1_4" />
<path d="M1493.5,390.5l0,32" class="g1_4" />
<path d="M32.5,422.5l34,0" class="g1_4" />
<path d="M66.5,422.5l1,0" class="g1_4" />
<path d="M67.5,422.5l112,0" class="g1_4" />
<path d="M179.5,422.5l1,0" class="g1_4" />
<path d="M180.5,422.5l229,0" class="g1_4" />
<path d="M409.5,422.5l114,0" class="g1_4" />
<path d="M523.5,422.5l94,0" class="g1_4" />
<path d="M617.5,422.5l1,0" class="g1_4" />
<path d="M618.5,422.5l215,0" class="g1_4" />
<path d="M833.5,422.5l184,0" class="g1_4" />
<path d="M1017.5,422.5l1,0" class="g1_4" />
<path d="M1018.5,422.5l84,0" class="g1_4" />
<path d="M1102.5,422.5l91,0" class="g1_4" />
<path d="M1193.5,422.5l1,0" class="g1_4" />
<path d="M1194.5,422.5l299,0" class="g1_4" />
<path d="M1493.5,422.5l1,0" class="g1_4" />
<path d="M32.5,422.5l0,32" class="g1_4" />
<path d="M66.5,422.5l0,32" class="g1_4" />
<path d="M179.5,422.5l0,32" class="g1_4" />
<path d="M409.5,422.5l0,32" class="g1_4" />
<path d="M523.5,422.5l0,32" class="g1_4" />
<path d="M617.5,422.5l0,32" class="g1_4" />
<path d="M833.5,422.5l0,32" class="g1_4" />
<path d="M1017.5,422.5l0,32" class="g1_4" />
<path d="M1102.5,422.5l0,32" class="g1_4" />
<path d="M1193.5,422.5l0,32" class="g1_4" />
<path d="M1493.5,422.5l0,32" class="g1_4" />
<path d="M32.5,454.5l34,0" class="g1_4" />
<path d="M66.5,454.5l1,0" class="g1_4" />
<path d="M67.5,454.5l112,0" class="g1_4" />
<path d="M179.5,454.5l1,0" class="g1_4" />
<path d="M180.5,454.5l229,0" class="g1_4" />
<path d="M409.5,454.5l114,0" class="g1_4" />
<path d="M523.5,454.5l94,0" class="g1_4" />
<path d="M617.5,454.5l1,0" class="g1_4" />
<path d="M618.5,454.5l215,0" class="g1_4" />
<path d="M833.5,454.5l184,0" class="g1_4" />
<path d="M1017.5,454.5l1,0" class="g1_4" />
<path d="M1018.5,454.5l84,0" class="g1_4" />
<path d="M1102.5,454.5l91,0" class="g1_4" />
<path d="M1193.5,454.5l1,0" class="g1_4" />
<path d="M1194.5,454.5l299,0" class="g1_4" />
<path d="M1493.5,454.5l1,0" class="g1_4" />
<path d="M32.5,455.5l0,31" class="g1_4" />
<path d="M66.5,455.5l0,31" class="g1_4" />
<path d="M179.5,455.5l0,31" class="g1_4" />
<path d="M409.5,455.5l0,31" class="g1_4" />
<path d="M523.5,455.5l0,31" class="g1_4" />
<path d="M617.5,455.5l0,31" class="g1_4" />
<path d="M833.5,455.5l0,31" class="g1_4" />
<path d="M1017.5,455.5l0,31" class="g1_4" />
<path d="M1102.5,455.5l0,31" class="g1_4" />
<path d="M1193.5,455.5l0,31" class="g1_4" />
<path d="M1493.5,455.5l0,31" class="g1_4" />
<path d="M32.5,486.5l34,0" class="g1_4" />
<path d="M66.5,486.5l1,0" class="g1_4" />
<path d="M67.5,486.5l112,0" class="g1_4" />
<path d="M179.5,486.5l1,0" class="g1_4" />
<path d="M180.5,486.5l229,0" class="g1_4" />
<path d="M409.5,486.5l114,0" class="g1_4" />
<path d="M523.5,486.5l94,0" class="g1_4" />
<path d="M617.5,486.5l1,0" class="g1_4" />
<path d="M618.5,486.5l215,0" class="g1_4" />
<path d="M833.5,486.5l184,0" class="g1_4" />
<path d="M1017.5,486.5l1,0" class="g1_4" />
<path d="M1018.5,486.5l84,0" class="g1_4" />
<path d="M1102.5,486.5l91,0" class="g1_4" />
<path d="M1193.5,486.5l1,0" class="g1_4" />
<path d="M1194.5,486.5l299,0" class="g1_4" />
<path d="M1493.5,486.5l1,0" class="g1_4" />
<path d="M32.5,487.5l0,32" class="g1_4" />
<path d="M66.5,487.5l0,32" class="g1_4" />
<path d="M179.5,487.5l0,32" class="g1_4" />
<path d="M409.5,487.5l0,32" class="g1_4" />
<path d="M523.5,487.5l0,32" class="g1_4" />
<path d="M617.5,487.5l0,32" class="g1_4" />
<path d="M833.5,487.5l0,32" class="g1_4" />
<path d="M1017.5,487.5l0,32" class="g1_4" />
<path d="M1102.5,487.5l0,32" class="g1_4" />
<path d="M1193.5,487.5l0,32" class="g1_4" />
<path d="M1493.5,487.5l0,32" class="g1_4" />
<path d="M32.5,519.5l34,0" class="g1_4" />
<path d="M66.5,519.5l1,0" class="g1_4" />
<path d="M67.5,519.5l112,0" class="g1_4" />
<path d="M179.5,519.5l1,0" class="g1_4" />
<path d="M180.5,519.5l229,0" class="g1_4" />
<path d="M409.5,519.5l114,0" class="g1_4" />
<path d="M523.5,519.5l94,0" class="g1_4" />
<path d="M617.5,519.5l1,0" class="g1_4" />
<path d="M618.5,519.5l215,0" class="g1_4" />
<path d="M833.5,519.5l184,0" class="g1_4" />
<path d="M1017.5,519.5l1,0" class="g1_4" />
<path d="M1018.5,519.5l84,0" class="g1_4" />
<path d="M1102.5,519.5l91,0" class="g1_4" />
<path d="M1193.5,519.5l1,0" class="g1_4" />
<path d="M1194.5,519.5l299,0" class="g1_4" />
<path d="M1493.5,519.5l1,0" class="g1_4" />
<path d="M32.5,520.5l0,31" class="g1_4" />
<path d="M66.5,520.5l0,31" class="g1_4" />
<path d="M179.5,520.5l0,31" class="g1_4" />
<path d="M409.5,520.5l0,31" class="g1_4" />
<path d="M523.5,520.5l0,31" class="g1_4" />
<path d="M617.5,520.5l0,31" class="g1_4" />
<path d="M833.5,520.5l0,31" class="g1_4" />
<path d="M1017.5,520.5l0,31" class="g1_4" />
<path d="M1102.5,520.5l0,31" class="g1_4" />
<path d="M1193.5,520.5l0,31" class="g1_4" />
<path d="M1493.5,520.5l0,31" class="g1_4" />
<path d="M32.5,551.5l34,0" class="g1_4" />
<path d="M66.5,551.5l1,0" class="g1_4" />
<path d="M67.5,551.5l112,0" class="g1_4" />
<path d="M179.5,551.5l1,0" class="g1_4" />
<path d="M180.5,551.5l229,0" class="g1_4" />
<path d="M409.5,551.5l114,0" class="g1_4" />
<path d="M523.5,551.5l94,0" class="g1_4" />
<path d="M617.5,551.5l1,0" class="g1_4" />
<path d="M618.5,551.5l215,0" class="g1_4" />
<path d="M833.5,551.5l184,0" class="g1_4" />
<path d="M1017.5,551.5l1,0" class="g1_4" />
<path d="M1018.5,551.5l84,0" class="g1_4" />
<path d="M1102.5,551.5l91,0" class="g1_4" />
<path d="M1193.5,551.5l1,0" class="g1_4" />
<path d="M1194.5,551.5l299,0" class="g1_4" />
<path d="M1493.5,551.5l1,0" class="g1_4" />
<path d="M32.5,552.5l0,32" class="g1_4" />
<path d="M66.5,552.5l0,32" class="g1_4" />
<path d="M179.5,552.5l0,32" class="g1_4" />
<path d="M409.5,552.5l0,32" class="g1_4" />
<path d="M523.5,552.5l0,32" class="g1_4" />
<path d="M617.5,552.5l0,32" class="g1_4" />
<path d="M833.5,552.5l0,32" class="g1_4" />
<path d="M1017.5,552.5l0,32" class="g1_4" />
<path d="M1102.5,552.5l0,32" class="g1_4" />
<path d="M1193.5,552.5l0,32" class="g1_4" />
<path d="M1493.5,552.5l0,32" class="g1_4" />
<path d="M32.5,584.5l34,0" class="g1_4" />
<path d="M66.5,584.5l1,0" class="g1_4" />
<path d="M67.5,584.5l112,0" class="g1_4" />
<path d="M179.5,584.5l1,0" class="g1_4" />
<path d="M180.5,584.5l229,0" class="g1_4" />
<path d="M409.5,584.5l114,0" class="g1_4" />
<path d="M523.5,584.5l94,0" class="g1_4" />
<path d="M617.5,584.5l1,0" class="g1_4" />
<path d="M618.5,584.5l215,0" class="g1_4" />
<path d="M833.5,584.5l184,0" class="g1_4" />
<path d="M1017.5,584.5l1,0" class="g1_4" />
<path d="M1018.5,584.5l84,0" class="g1_4" />
<path d="M1102.5,584.5l91,0" class="g1_4" />
<path d="M1193.5,584.5l1,0" class="g1_4" />
<path d="M1194.5,584.5l299,0" class="g1_4" />
<path d="M1493.5,584.5l1,0" class="g1_4" />
<path d="M32.5,584.5l0,32" class="g1_4" />
<path d="M66.5,584.5l0,32" class="g1_4" />
<path d="M179.5,584.5l0,32" class="g1_4" />
<path d="M409.5,584.5l0,32" class="g1_4" />
<path d="M523.5,584.5l0,32" class="g1_4" />
<path d="M617.5,584.5l0,32" class="g1_4" />
<path d="M833.5,584.5l0,32" class="g1_4" />
<path d="M1017.5,584.5l0,32" class="g1_4" />
<path d="M1102.5,584.5l0,32" class="g1_4" />
<path d="M1193.5,584.5l0,32" class="g1_4" />
<path d="M1493.5,584.5l0,32" class="g1_4" />
<path d="M32.5,616.5l34,0" class="g1_4" />
<path d="M66.5,616.5l1,0" class="g1_4" />
<path d="M67.5,616.5l112,0" class="g1_4" />
<path d="M179.5,616.5l1,0" class="g1_4" />
<path d="M180.5,616.5l229,0" class="g1_4" />
<path d="M409.5,616.5l114,0" class="g1_4" />
<path d="M523.5,616.5l94,0" class="g1_4" />
<path d="M617.5,616.5l1,0" class="g1_4" />
<path d="M618.5,616.5l215,0" class="g1_4" />
<path d="M833.5,616.5l184,0" class="g1_4" />
<path d="M1017.5,616.5l1,0" class="g1_4" />
<path d="M1018.5,616.5l84,0" class="g1_4" />
<path d="M1102.5,616.5l91,0" class="g1_4" />
<path d="M1193.5,616.5l1,0" class="g1_4" />
<path d="M1194.5,616.5l299,0" class="g1_4" />
<path d="M1493.5,616.5l1,0" class="g1_4" />
<path d="M32.5,617.5l0,31" class="g1_4" />
<path d="M66.5,617.5l0,31" class="g1_4" />
<path d="M179.5,617.5l0,31" class="g1_4" />
<path d="M409.5,617.5l0,31" class="g1_4" />
<path d="M523.5,617.5l0,31" class="g1_4" />
<path d="M617.5,617.5l0,31" class="g1_4" />
<path d="M833.5,617.5l0,31" class="g1_4" />
<path d="M1017.5,617.5l0,31" class="g1_4" />
<path d="M1102.5,617.5l0,31" class="g1_4" />
<path d="M1193.5,617.5l0,31" class="g1_4" />
<path d="M1493.5,617.5l0,31" class="g1_4" />
<path d="M32.5,648.5l34,0" class="g1_4" />
<path d="M66.5,648.5l1,0" class="g1_4" />
<path d="M67.5,648.5l112,0" class="g1_4" />
<path d="M179.5,648.5l1,0" class="g1_4" />
<path d="M180.5,648.5l229,0" class="g1_4" />
<path d="M409.5,648.5l114,0" class="g1_4" />
<path d="M523.5,648.5l94,0" class="g1_4" />
<path d="M617.5,648.5l1,0" class="g1_4" />
<path d="M618.5,648.5l215,0" class="g1_4" />
<path d="M833.5,648.5l184,0" class="g1_4" />
<path d="M1017.5,648.5l1,0" class="g1_4" />
<path d="M1018.5,648.5l84,0" class="g1_4" />
<path d="M1102.5,648.5l91,0" class="g1_4" />
<path d="M1193.5,648.5l1,0" class="g1_4" />
<path d="M1194.5,648.5l299,0" class="g1_4" />
<path d="M1493.5,648.5l1,0" class="g1_4" />
<path d="M32.5,649.5l0,32" class="g1_4" />
<path d="M32.5,681.5l34,0" class="g1_4" />
<path d="M66.5,649.5l0,32" class="g1_4" />
<path d="M66.5,681.5l1,0" class="g1_4" />
<path d="M67.5,681.5l112,0" class="g1_4" />
<path d="M179.5,649.5l0,32" class="g1_4" />
<path d="M179.5,681.5l1,0" class="g1_4" />
<path d="M180.5,681.5l229,0" class="g1_4" />
<path d="M409.5,649.5l0,32" class="g1_4" />
<path d="M409.5,681.5l114,0" class="g1_4" />
<path d="M523.5,649.5l0,32" class="g1_4" />
<path d="M523.5,681.5l94,0" class="g1_4" />
<path d="M617.5,649.5l0,32" class="g1_4" />
<path d="M617.5,681.5l1,0" class="g1_4" />
<path d="M618.5,681.5l215,0" class="g1_4" />
<path d="M833.5,649.5l0,32" class="g1_4" />
<path d="M833.5,681.5l184,0" class="g1_4" />
<path d="M1017.5,649.5l0,32" class="g1_4" />
<path d="M1017.5,681.5l1,0" class="g1_4" />
<path d="M1018.5,681.5l84,0" class="g1_4" />
<path d="M1102.5,649.5l0,32" class="g1_4" />
<path d="M1102.5,681.5l91,0" class="g1_4" />
<path d="M1193.5,649.5l0,32" class="g1_4" />
<path d="M1193.5,681.5l1,0" class="g1_4" />
<path d="M1194.5,681.5l299,0" class="g1_4" />
<path d="M1493.5,649.5l0,32" class="g1_4" />
<path d="M1493.5,681.5l1,0" class="g1_4" />
<path d="M1493.5,681.5l1,0" class="g1_4" />
</svg>