<?xml version="1.0" encoding="UTF-8" standalone="no"?>
<!DOCTYPE svg PUBLIC "-//W3C//DTD SVG 1.1//EN"
"http://www.w3.org/Graphics/SVG/1.1/DTD/svg11.dtd">
<svg version="1.1" xmlns="http://www.w3.org/2000/svg" xmlns:xlink="http://www.w3.org/1999/xlink">
<defs>
<style type="text/css"><![CDATA[
.g1_7{
fill: none;
stroke: #000000;
stroke-width: 1;
stroke-linecap: butt;
stroke-linejoin: miter;
}
]]></style>
</defs>
<image x="443" y="71" width="49" height="59" xlink:href="img/1.png" />
<path d="M98.5,189.5l738,0" class="g1_7" />
<path d="M757.5,626.5l77,0" class="g1_7" />
<path d="M92.5,635.5l0,-1" class="g1_7" />
<path d="M92.5,635.5l750,0" class="g1_7" />
<path d="M841.5,635.5l0,-1" class="g1_7" />
<path d="M92.5,666.5l0,-31" class="g1_7" />
<path d="M841.5,666.5l0,-31" class="g1_7" />
<path d="M92.5,667.5l750,0" class="g1_7" />
<path d="M92.5,699.5l0,-32" class="g1_7" />
<path d="M467.5,699.5l0,-32" class="g1_7" />
<path d="M841.5,699.5l0,-32" class="g1_7" />
<path d="M92.5,700.5l0,-1" class="g1_7" />
<path d="M467.5,700.5l375,0" class="g1_7" />
<path d="M92.5,731.5l0,-31" class="g1_7" />
<path d="M467.5,731.5l0,-31" class="g1_7" />
<path d="M841.5,731.5l0,-31" class="g1_7" />
<path d="M92.5,732.5l750,0" class="g1_7" />
<path d="M92.5,764.5l0,-32" class="g1_7" />
<path d="M467.5,764.5l0,-32" class="g1_7" />
<path d="M841.5,764.5l0,-32" class="g1_7" />
<path d="M467.5,764.5l375,0" class="g1_7" />
<path d="M92.5,796.5l0,-32" class="g1_7" />
<path d="M467.5,796.5l0,-32" class="g1_7" />
<path d="M841.5,796.5l0,-32" class="g1_7" />
<path d="M92.5,797.5l750,0" class="g1_7" />
<path d="M92.5,829.5l0,-32" class="g1_7" />
<path d="M467.5,829.5l0,-32" class="g1_7" />
<path d="M841.5,829.5l0,-32" class="g1_7" />
<path d="M467.5,829.5l375,0" class="g1_7" />
<path d="M92.5,875.5l0,-46" class="g1_7" />
<path d="M467.5,875.5l0,-46" class="g1_7" />
<path d="M841.5,875.5l0,-46" class="g1_7" />
<path d="M92.5,876.5l0,-1" class="g1_7" />
<path d="M467.5,876.5l375,0" class="g1_7" />
<path d="M92.5,907.5l0,-31" class="g1_7" />
<path d="M467.5,907.5l0,-31" class="g1_7" />
<path d="M841.5,907.5l0,-31" class="g1_7" />
<path d="M92.5,908.5l750,0" class="g1_7" />
<path d="M92.5,940.5l0,-32" class="g1_7" />
<path d="M467.5,940.5l0,-32" class="g1_7" />
<path d="M841.5,940.5l0,-32" class="g1_7" />
<path d="M467.5,940.5l375,0" class="g1_7" />
<path d="M92.5,972.5l0,-32" class="g1_7" />
<path d="M467.5,972.5l0,-32" class="g1_7" />
<path d="M841.5,972.5l0,-32" class="g1_7" />
<path d="M92.5,973.5l0,-1" class="g1_7" />
<path d="M467.5,973.5l375,0" class="g1_7" />
<path d="M92.5,1005.5l0,-32" class="g1_7" />
<path d="M467.5,1005.5l0,-32" class="g1_7" />
<path d="M841.5,1005.5l0,-32" class="g1_7" />
<path d="M467.5,1005.5l375,0" class="g1_7" />
<path d="M92.5,1037.5l0,-32" class="g1_7" />
<path d="M467.5,1037.5l0,-32" class="g1_7" />
<path d="M841.5,1037.5l0,-32" class="g1_7" />
<path d="M92.5,1038.5l0,-1" class="g1_7" />
<path d="M467.5,1038.5l375,0" class="g1_7" />
<path d="M92.5,1070.5l0,-32" class="g1_7" />
<path d="M92.5,1070.5l375,0" class="g1_7" />
<path d="M467.5,1070.5l0,-32" class="g1_7" />
<path d="M468.5,1070.5l373,0" class="g1_7" />
<path d="M841.5,1070.5l0,-32" class="g1_7" />
</svg>