<?xml version="1.0" encoding="UTF-8" standalone="no"?>
<!DOCTYPE svg PUBLIC "-//W3C//DTD SVG 1.1//EN"
"http://www.w3.org/Graphics/SVG/1.1/DTD/svg11.dtd">
<svg version="1.1" xmlns="http://www.w3.org/2000/svg" xmlns:xlink="http://www.w3.org/1999/xlink">
<defs>
<style type="text/css"><![CDATA[
.g1_6{
fill: none;
stroke: #000000;
stroke-width: 1;
stroke-linecap: butt;
stroke-linejoin: miter;
}
]]></style>
</defs>
<path d="M49.5,177.5l0,-1" class="g1_6" />
<path d="M49.5,177.5l0,-1" class="g1_6" />
<path d="M50.5,177.5l834,0" class="g1_6" />
<path d="M884.5,177.5l0,-1" class="g1_6" />
<path d="M884.5,177.5l0,-1" class="g1_6" />
<path d="M49.5,242.5l0,-65" class="g1_6" />
<path d="M884.5,242.5l0,-65" class="g1_6" />
<path d="M49.5,243.5l0,-1" class="g1_6" />
<path d="M50.5,243.5l138,0" class="g1_6" />
<path d="M188.5,243.5l0,-1" class="g1_6" />
<path d="M189.5,243.5l695,0" class="g1_6" />
<path d="M884.5,243.5l0,-1" class="g1_6" />
<path d="M49.5,308.5l0,-65" class="g1_6" />
<path d="M188.5,308.5l0,-65" class="g1_6" />
<path d="M884.5,308.5l0,-65" class="g1_6" />
<path d="M49.5,309.5l0,-1" class="g1_6" />
<path d="M188.5,309.5l0,-1" class="g1_6" />
<path d="M189.5,309.5l113,0" class="g1_6" />
<path d="M302.5,309.5l0,-1" class="g1_6" />
<path d="M303.5,309.5l62,0" class="g1_6" />
<path d="M365.5,309.5l0,-1" class="g1_6" />
<path d="M366.5,309.5l104,0" class="g1_6" />
<path d="M470.5,309.5l0,-1" class="g1_6" />
<path d="M470.5,309.5l103,0" class="g1_6" />
<path d="M573.5,309.5l0,-1" class="g1_6" />
<path d="M574.5,309.5l101,0" class="g1_6" />
<path d="M675.5,309.5l0,-1" class="g1_6" />
<path d="M676.5,309.5l74,0" class="g1_6" />
<path d="M750.5,309.5l0,-1" class="g1_6" />
<path d="M751.5,309.5l63,0" class="g1_6" />
<path d="M814.5,309.5l0,-1" class="g1_6" />
<path d="M815.5,309.5l69,0" class="g1_6" />
<path d="M884.5,309.5l0,-1" class="g1_6" />
<path d="M49.5,374.5l0,-65" class="g1_6" />
<path d="M188.5,374.5l0,-65" class="g1_6" />
<path d="M302.5,374.5l0,-65" class="g1_6" />
<path d="M365.5,374.5l0,-65" class="g1_6" />
<path d="M470.5,374.5l0,-65" class="g1_6" />
<path d="M573.5,374.5l0,-65" class="g1_6" />
<path d="M675.5,374.5l0,-65" class="g1_6" />
<path d="M750.5,374.5l0,-65" class="g1_6" />
<path d="M814.5,374.5l0,-65" class="g1_6" />
<path d="M884.5,374.5l0,-65" class="g1_6" />
<path d="M50.5,374.5l138,0" class="g1_6" />
<path d="M189.5,374.5l113,0" class="g1_6" />
<path d="M303.5,374.5l11,0" class="g1_6" />
<path d="M315.5,374.5l50,0" class="g1_6" />
<path d="M366.5,374.5l104,0" class="g1_6" />
<path d="M470.5,374.5l103,0" class="g1_6" />
<path d="M574.5,374.5l5,0" class="g1_6" />
<path d="M579.5,374.5l96,0" class="g1_6" />
<path d="M676.5,374.5l74,0" class="g1_6" />
<path d="M751.5,374.5l16,0" class="g1_6" />
<path d="M768.5,374.5l17,0" class="g1_6" />
<path d="M786.5,374.5l18,0" class="g1_6" />
<path d="M805.5,374.5l9,0" class="g1_6" />
<path d="M815.5,374.5l7,0" class="g1_6" />
<path d="M823.5,374.5l20,0" class="g1_6" />
<path d="M844.5,374.5l19,0" class="g1_6" />
<path d="M864.5,374.5l20,0" class="g1_6" />
<path d="M49.5,440.5l0,-66" class="g1_6" />
<path d="M314.5,440.5l0,-66" class="g1_6" />
<path d="M579.5,440.5l0,-66" class="g1_6" />
<path d="M767.5,440.5l0,-66" class="g1_6" />
<path d="M785.5,440.5l0,-66" class="g1_6" />
<path d="M804.5,440.5l0,-66" class="g1_6" />
<path d="M822.5,440.5l0,-66" class="g1_6" />
<path d="M843.5,440.5l0,-66" class="g1_6" />
<path d="M863.5,440.5l0,-66" class="g1_6" />
<path d="M884.5,440.5l0,-66" class="g1_6" />
<path d="M579.5,440.5l188,0" class="g1_6" />
<path d="M768.5,440.5l17,0" class="g1_6" />
<path d="M786.5,440.5l18,0" class="g1_6" />
<path d="M805.5,440.5l17,0" class="g1_6" />
<path d="M823.5,440.5l20,0" class="g1_6" />
<path d="M844.5,440.5l19,0" class="g1_6" />
<path d="M864.5,440.5l20,0" class="g1_6" />
<path d="M49.5,505.5l0,-65" class="g1_6" />
<path d="M314.5,505.5l0,-65" class="g1_6" />
<path d="M579.5,505.5l0,-65" class="g1_6" />
<path d="M767.5,505.5l0,-65" class="g1_6" />
<path d="M785.5,505.5l0,-65" class="g1_6" />
<path d="M804.5,505.5l0,-65" class="g1_6" />
<path d="M822.5,505.5l0,-65" class="g1_6" />
<path d="M843.5,505.5l0,-65" class="g1_6" />
<path d="M863.5,505.5l0,-65" class="g1_6" />
<path d="M884.5,505.5l0,-65" class="g1_6" />
<path d="M49.5,506.5l0,-1" class="g1_6" />
<path d="M50.5,506.5l263,0" class="g1_6" />
<path d="M313.5,506.5l0,-1" class="g1_6" />
<path d="M314.5,506.5l0,-1" class="g1_6" />
<path d="M314.5,506.5l0,-1" class="g1_6" />
<path d="M315.5,506.5l264,0" class="g1_6" />
<path d="M579.5,506.5l0,-1" class="g1_6" />
<path d="M579.5,506.5l188,0" class="g1_6" />
<path d="M767.5,506.5l0,-1" class="g1_6" />
<path d="M768.5,506.5l17,0" class="g1_6" />
<path d="M785.5,506.5l0,-1" class="g1_6" />
<path d="M786.5,506.5l18,0" class="g1_6" />
<path d="M804.5,506.5l0,-1" class="g1_6" />
<path d="M805.5,506.5l17,0" class="g1_6" />
<path d="M822.5,506.5l0,-1" class="g1_6" />
<path d="M823.5,506.5l20,0" class="g1_6" />
<path d="M843.5,506.5l0,-1" class="g1_6" />
<path d="M844.5,506.5l19,0" class="g1_6" />
<path d="M863.5,506.5l0,-1" class="g1_6" />
<path d="M864.5,506.5l20,0" class="g1_6" />
<path d="M884.5,506.5l0,-1" class="g1_6" />
<path d="M49.5,574.5l0,-68" class="g1_6" />
<path d="M313.5,574.5l0,-68" class="g1_6" />
<path d="M884.5,574.5l0,-68" class="g1_6" />
<path d="M49.5,575.5l0,-1" class="g1_6" />
<path d="M50.5,575.5l263,0" class="g1_6" />
<path d="M313.5,575.5l0,-1" class="g1_6" />
<path d="M314.5,575.5l570,0" class="g1_6" />
<path d="M884.5,575.5l0,-1" class="g1_6" />
<path d="M49.5,640.5l0,-65" class="g1_6" />
<path d="M49.5,641.5l0,-1" class="g1_6" />
<path d="M49.5,641.5l0,-1" class="g1_6" />
<path d="M50.5,641.5l263,0" class="g1_6" />
<path d="M313.5,640.5l0,-65" class="g1_6" />
<path d="M313.5,641.5l0,-1" class="g1_6" />
<path d="M314.5,641.5l570,0" class="g1_6" />
<path d="M884.5,640.5l0,-65" class="g1_6" />
<path d="M884.5,641.5l0,-1" class="g1_6" />
<path d="M884.5,641.5l0,-1" class="g1_6" />
</svg>