<?xml version="1.0" encoding="UTF-8" standalone="no"?>
<!DOCTYPE svg PUBLIC "-//W3C//DTD SVG 1.1//EN"
"http://www.w3.org/Graphics/SVG/1.1/DTD/svg11.dtd">
<svg version="1.1" xmlns="http://www.w3.org/2000/svg" xmlns:xlink="http://www.w3.org/1999/xlink">
<defs>
<style type="text/css"><![CDATA[
.g2_16{
fill: none;
stroke: #231F20;
stroke-width: 2;
stroke-linecap: round;
stroke-linejoin: miter;
stroke-miterlimit: 4;
stroke-dasharray: 1,5;
}
.g7_16{
fill: #E7E8E9;
}
.g16_16{
fill: #FECD65;
}
.g9_16{
fill: #FFFFFF;
}
.g10_16{
fill: #EE1D23;
}
.g1_16{
fill: #00AEEF;
stroke: #231F20;
stroke-width: 2;
stroke-linecap: butt;
stroke-linejoin: miter;
stroke-miterlimit: 4;
}
.g6_16{
fill: none;
stroke: #231F20;
stroke-width: 1;
stroke-linecap: butt;
stroke-linejoin: miter;
stroke-miterlimit: 4;
stroke-dasharray: 5,5;
}
.g12_16{
fill: #00A54F;
}
.g4_16{
fill: #BAE5FA;
stroke: #636366;
stroke-width: 1;
stroke-linecap: butt;
stroke-linejoin: miter;
stroke-miterlimit: 4;
}
.g15_16{
fill: none;
stroke: #FFFFFF;
stroke-width: 1;
stroke-linecap: round;
stroke-linejoin: miter;
stroke-miterlimit: 4;
}
.g5_16{
fill: none;
stroke: #636366;
stroke-width: 1;
stroke-linecap: round;
stroke-linejoin: miter;
stroke-miterlimit: 4;
}
.g14_16{
fill: #FAB886;
}
.g11_16{
fill: none;
stroke: #231F20;
stroke-width: 1;
stroke-linecap: round;
stroke-linejoin: miter;
stroke-miterlimit: 4;
}
.g3_16{
fill: #231F20;
}
.g8_16{
fill: none;
stroke: #231F20;
stroke-width: 1;
stroke-linecap: butt;
stroke-linejoin: miter;
stroke-miterlimit: 4;
}
.g13_16{
fill: #0089D0;
}
]]></style>
</defs>
<path d="M551,67l332,0l0,-16L551,51l0,16Z" class="g1_16" />
<image x="567" y="198" width="195" height="29" xlink:href="img/1.png" />
<path d="M904,300L56,300l0,-52l848,0l0,52Z" class="g1_16" />
<path d="M415,1114l489,0" class="g2_16" />
<path d="M337,1144l567,0" class="g2_16" />
<path d="M254,1175l650,0" class="g2_16" />
<path d="M76,1205l828,0" class="g2_16" />
<path d="M69,1109l-8,0l0,-7l8,0l0,7Z" class="g3_16" />
<path d="M69,1140l-8,0l0,-8l8,0l0,8Z" class="g3_16" />
<path d="M724.5,509.5l180,0l0,42l-180,0l0,-42Z" class="g4_16" />
<path d="M724.5,551.5l180,0l0,27l-180,0l0,-27Z" class="g5_16" />
<path d="M724.5,578.5l180,0l0,26l-180,0l0,-26Z" class="g5_16" />
<path d="M724.5,604.5l180,0l0,27l-180,0l0,-27Z" class="g5_16" />
<path d="M724.5,631.5l180,0l0,27l-180,0l0,-27Z" class="g5_16" />
<path d="M724.5,658.5l180,0l0,27l-180,0l0,-27Z" class="g5_16" />
<path d="M724.5,685.5l180,0l0,26l-180,0l0,-26Z" class="g5_16" />
<path d="M724.5,711.5l180,0l0,27l-180,0l0,-27Z" class="g5_16" />
<path d="M724.5,738.5l180,0l0,27l-180,0l0,-27Z" class="g5_16" />
<path d="M724.5,765.5l180,0l0,27l-180,0l0,-27Z" class="g5_16" />
<path d="M724.5,792.5l180,0l0,26l-180,0l0,-26Z" class="g5_16" />
<path d="M724.5,818.5l180,0l0,27l-180,0l0,-27Z" class="g5_16" />
<path d="M724.5,845.5l180,0l0,27l-180,0l0,-27Z" class="g5_16" />
<path d="M724.5,872.5l180,0l0,27l-180,0l0,-27Z" class="g5_16" />
<path d="M724.5,899.5l180,0l0,26l-180,0l0,-26Z" class="g5_16" />
<path d="M724.5,925.5l180,0l0,27l-180,0l0,-27Z" class="g5_16" />
<path d="M724.5,952.5l180,0l0,27l-180,0l0,-27Z" class="g5_16" />
<path d="M724.5,979.5l180,0l0,27l-180,0l0,-27Z" class="g5_16" />
<path d="M724.5,1006.5l180,0l0,26l-180,0l0,-26Z" class="g5_16" />
<path d="M724.5,1032.5l180,0l0,27l-180,0l0,-27Z" class="g5_16" />
<path d="M724.5,1059.5l180,0l0,27l-180,0l0,-27Z" class="g5_16" />
<path d="M545.5,509.5l179,0l0,42l-179,0l0,-42Z" class="g4_16" />
<path d="M545.5,551.5l179,0l0,27l-179,0l0,-27Z" class="g5_16" />
<path d="M545.5,578.5l179,0l0,26l-179,0l0,-26Z" class="g5_16" />
<path d="M545.5,604.5l179,0l0,27l-179,0l0,-27Z" class="g5_16" />
<path d="M545.5,631.5l179,0l0,27l-179,0l0,-27Z" class="g5_16" />
<path d="M545.5,658.5l179,0l0,27l-179,0l0,-27Z" class="g5_16" />
<path d="M545.5,685.5l179,0l0,26l-179,0l0,-26Z" class="g5_16" />
<path d="M545.5,711.5l179,0l0,27l-179,0l0,-27Z" class="g5_16" />
<path d="M545.5,738.5l179,0l0,27l-179,0l0,-27Z" class="g5_16" />
<path d="M545.5,765.5l179,0l0,27l-179,0l0,-27Z" class="g5_16" />
<path d="M545.5,792.5l179,0l0,26l-179,0l0,-26Z" class="g5_16" />
<path d="M545.5,818.5l179,0l0,27l-179,0l0,-27Z" class="g5_16" />
<path d="M545.5,845.5l179,0l0,27l-179,0l0,-27Z" class="g5_16" />
<path d="M545.5,872.5l179,0l0,27l-179,0l0,-27Z" class="g5_16" />
<path d="M545.5,899.5l179,0l0,26l-179,0l0,-26Z" class="g5_16" />
<path d="M545.5,925.5l179,0l0,27l-179,0l0,-27Z" class="g5_16" />
<path d="M545.5,952.5l179,0l0,27l-179,0l0,-27Z" class="g5_16" />
<path d="M545.5,979.5l179,0l0,27l-179,0l0,-27Z" class="g5_16" />
<path d="M545.5,1006.5l179,0l0,26l-179,0l0,-26Z" class="g5_16" />
<path d="M545.5,1032.5l179,0l0,27l-179,0l0,-27Z" class="g5_16" />
<path d="M545.5,1059.5l179,0l0,27l-179,0l0,-27Z" class="g5_16" />
<path d="M56.5,509.5l244,0l0,42l-244,0l0,-42Z" class="g4_16" />
<path d="M300.5,509.5l245,0l0,42l-245,0l0,-42Z" class="g4_16" />
<path d="M56.5,551.5l244,0l0,27l-244,0l0,-27Z" class="g5_16" />
<path d="M300.5,551.5l245,0l0,27l-245,0l0,-27Z" class="g5_16" />
<path d="M56.5,578.5l244,0l0,26l-244,0l0,-26Z" class="g5_16" />
<path d="M300.5,578.5l245,0l0,26l-245,0l0,-26Z" class="g5_16" />
<path d="M56.5,604.5l244,0l0,27l-244,0l0,-27Z" class="g5_16" />
<path d="M300.5,604.5l245,0l0,27l-245,0l0,-27Z" class="g5_16" />
<path d="M56.5,631.5l244,0l0,27l-244,0l0,-27Z" class="g5_16" />
<path d="M300.5,631.5l245,0l0,27l-245,0l0,-27Z" class="g5_16" />
<path d="M56.5,658.5l244,0l0,27l-244,0l0,-27Z" class="g5_16" />
<path d="M300.5,658.5l245,0l0,27l-245,0l0,-27Z" class="g5_16" />
<path d="M56.5,685.5l244,0l0,26l-244,0l0,-26Z" class="g5_16" />
<path d="M300.5,685.5l245,0l0,26l-245,0l0,-26Z" class="g5_16" />
<path d="M56.5,711.5l244,0l0,27l-244,0l0,-27Z" class="g5_16" />
<path d="M300.5,711.5l245,0l0,27l-245,0l0,-27Z" class="g5_16" />
<path d="M56.5,738.5l244,0l0,27l-244,0l0,-27Z" class="g5_16" />
<path d="M300.5,738.5l245,0l0,27l-245,0l0,-27Z" class="g5_16" />
<path d="M56.5,765.5l244,0l0,27l-244,0l0,-27Z" class="g5_16" />
<path d="M300.5,765.5l245,0l0,27l-245,0l0,-27Z" class="g5_16" />
<path d="M56.5,792.5l244,0l0,26l-244,0l0,-26Z" class="g5_16" />
<path d="M300.5,792.5l245,0l0,26l-245,0l0,-26Z" class="g5_16" />
<path d="M56.5,818.5l244,0l0,27l-244,0l0,-27Z" class="g5_16" />
<path d="M300.5,818.5l245,0l0,27l-245,0l0,-27Z" class="g5_16" />
<path d="M56.5,845.5l244,0l0,27l-244,0l0,-27Z" class="g5_16" />
<path d="M300.5,845.5l245,0l0,27l-245,0l0,-27Z" class="g5_16" />
<path d="M56.5,872.5l244,0l0,27l-244,0l0,-27Z" class="g5_16" />
<path d="M300.5,872.5l245,0l0,27l-245,0l0,-27Z" class="g5_16" />
<path d="M56.5,899.5l244,0l0,26l-244,0l0,-26Z" class="g5_16" />
<path d="M300.5,899.5l245,0l0,26l-245,0l0,-26Z" class="g5_16" />
<path d="M56.5,925.5l244,0l0,27l-244,0l0,-27Z" class="g5_16" />
<path d="M300.5,925.5l245,0l0,27l-245,0l0,-27Z" class="g5_16" />
<path d="M56.5,952.5l244,0l0,27l-244,0l0,-27Z" class="g5_16" />
<path d="M300.5,952.5l245,0l0,27l-245,0l0,-27Z" class="g5_16" />
<path d="M56.5,979.5l244,0l0,27l-244,0l0,-27Z" class="g5_16" />
<path d="M300.5,979.5l245,0l0,27l-245,0l0,-27Z" class="g5_16" />
<path d="M56.5,1006.5l244,0l0,26l-244,0l0,-26Z" class="g5_16" />
<path d="M300.5,1006.5l245,0l0,26l-245,0l0,-26Z" class="g5_16" />
<path d="M56.5,1032.5l244,0l0,27l-244,0l0,-27Z" class="g5_16" />
<path d="M300.5,1032.5l245,0l0,27l-245,0l0,-27Z" class="g5_16" />
<path d="M56.5,1059.5l244,0l0,27l-244,0l0,-27Z" class="g5_16" />
<path d="M300.5,1059.5l245,0l0,27l-245,0l0,-27Z" class="g5_16" />
<path d="M25.5,0.5l0,1540" class="g6_16" />
<path d="M500,1315l285,0" class="g2_16" />
<path d="M497.9,1408.1c0,-1.2,0.9,-2.1,2.1,-2.1l31.7,0c1.2,0,2.2,0.9,2.2,2.1l0,22.7c0,1.1,-1,2.1,-2.2,2.1l-31.7,0c-1.2,0,-2.1,-1,-2.1,-2.1Z" class="g7_16" />
<path d="M497.9,1408.1c0,-1.2,0.9,-2.1,2.1,-2.1l31.7,0c1.2,0,2.2,0.9,2.2,2.1l0,22.7c0,1.1,-1,2.1,-2.2,2.1l-31.7,0c-1.2,0,-2.1,-1,-2.1,-2.1l0,-22.7Z" class="g8_16" />
<path d="M533.9,1408.1c0,-1.2,1,-2.1,2.2,-2.1l31.7,0c1.2,0,2.1,0.9,2.1,2.1l0,22.7c0,1.1,-0.9,2.1,-2.1,2.1l-31.7,0c-1.2,0,-2.2,-1,-2.2,-2.1Z" class="g7_16" />
<path d="M533.9,1408.1c0,-1.2,1,-2.1,2.2,-2.1l31.7,0c1.2,0,2.1,0.9,2.1,2.1l0,22.7c0,1.1,-0.9,2.1,-2.1,2.1l-31.7,0c-1.2,0,-2.2,-1,-2.2,-2.1l0,-22.7Z" class="g8_16" />
<path d="M569.9,1408.1c0,-1.2,1,-2.1,2.2,-2.1l31.7,0c1.2,0,2.2,0.9,2.2,2.1l0,22.7c0,1.1,-1,2.1,-2.2,2.1l-31.7,0c-1.2,0,-2.2,-1,-2.2,-2.1Z" class="g7_16" />
<path d="M569.9,1408.1c0,-1.2,1,-2.1,2.2,-2.1l31.7,0c1.2,0,2.2,0.9,2.2,2.1l0,22.7c0,1.1,-1,2.1,-2.2,2.1l-31.7,0c-1.2,0,-2.2,-1,-2.2,-2.1l0,-22.7Z" class="g8_16" />
<path d="M606,1408.1c0,-1.2,0.9,-2.1,2.1,-2.1l31.7,0c1.2,0,2.2,0.9,2.2,2.1l0,22.7c0,1.1,-1,2.1,-2.2,2.1l-31.7,0c-1.2,0,-2.1,-1,-2.1,-2.1Z" class="g7_16" />
<path d="M606,1408.1c0,-1.2,0.9,-2.1,2.1,-2.1l31.7,0c1.2,0,2.2,0.9,2.2,2.1l0,22.7c0,1.1,-1,2.1,-2.2,2.1l-31.7,0c-1.2,0,-2.1,-1,-2.1,-2.1l0,-22.7Z" class="g8_16" />
<path d="M642,1408.1c0,-1.2,1,-2.1,2.1,-2.1l31.7,0c1.2,0,2.2,0.9,2.2,2.1l0,22.7c0,1.1,-1,2.1,-2.2,2.1l-31.7,0c-1.1,0,-2.1,-1,-2.1,-2.1Z" class="g7_16" />
<path d="M642,1408.1c0,-1.2,1,-2.1,2.1,-2.1l31.7,0c1.2,0,2.2,0.9,2.2,2.1l0,22.7c0,1.1,-1,2.1,-2.2,2.1l-31.7,0c-1.1,0,-2.1,-1,-2.1,-2.1l0,-22.7Z" class="g8_16" />
<path d="M678,1408.1c0,-1.2,1,-2.1,2.2,-2.1l31.7,0c1.2,0,2.1,0.9,2.1,2.1l0,22.7c0,1.1,-0.9,2.1,-2.1,2.1l-31.7,0c-1.2,0,-2.2,-1,-2.2,-2.1Z" class="g7_16" />
<path d="M678,1408.1c0,-1.2,1,-2.1,2.2,-2.1l31.7,0c1.2,0,2.1,0.9,2.1,2.1l0,22.7c0,1.1,-0.9,2.1,-2.1,2.1l-31.7,0c-1.2,0,-2.2,-1,-2.2,-2.1l0,-22.7Z" class="g8_16" />
<path d="M714,1408.1c0,-1.2,1,-2.1,2.2,-2.1l31.7,0c1.2,0,2.2,0.9,2.2,2.1l0,22.7c0,1.1,-1,2.1,-2.2,2.1l-31.7,0c-1.2,0,-2.2,-1,-2.2,-2.1Z" class="g7_16" />
<path d="M714,1408.1c0,-1.2,1,-2.1,2.2,-2.1l31.7,0c1.2,0,2.2,0.9,2.2,2.1l0,22.7c0,1.1,-1,2.1,-2.2,2.1l-31.7,0c-1.2,0,-2.2,-1,-2.2,-2.1l0,-22.7Z" class="g8_16" />
<path d="M750.1,1408.1c0,-1.2,0.9,-2.1,2.1,-2.1l31.7,0c1.2,0,2.2,0.9,2.2,2.1l0,22.7c0,1.1,-1,2.1,-2.2,2.1l-31.7,0c-1.2,0,-2.1,-1,-2.1,-2.1Z" class="g7_16" />
<path d="M750.1,1408.1c0,-1.2,0.9,-2.1,2.1,-2.1l31.7,0c1.2,0,2.2,0.9,2.2,2.1l0,22.7c0,1.1,-1,2.1,-2.2,2.1l-31.7,0c-1.2,0,-2.1,-1,-2.1,-2.1l0,-22.7Z" class="g8_16" />
<path d="M435.7,1345.7c0,-1.2,0.9,-2.1,2.1,-2.1l22.6,0c1.2,0,2.1,0.9,2.1,2.1l0,23.5c0,1.2,-0.9,2.2,-2.1,2.2l-22.6,0c-1.2,0,-2.1,-1,-2.1,-2.2Z" class="g9_16" />
<path d="M435.7,1345.7c0,-1.2,0.9,-2.1,2.1,-2.1l22.6,0c1.2,0,2.1,0.9,2.1,2.1l0,23.5c0,1.2,-0.9,2.2,-2.1,2.2l-22.6,0c-1.2,0,-2.1,-1,-2.1,-2.2l0,-23.5Z" class="g8_16" />
<path d="M462.5,1345.7c0,-1.2,1,-2.1,2.2,-2.1l22.5,0c1.2,0,2.2,0.9,2.2,2.1l0,23.5c0,1.2,-1,2.2,-2.2,2.2l-22.5,0c-1.2,0,-2.2,-1,-2.2,-2.2Z" class="g9_16" />
<path d="M462.5,1345.7c0,-1.2,1,-2.1,2.2,-2.1l22.5,0c1.2,0,2.2,0.9,2.2,2.1l0,23.5c0,1.2,-1,2.2,-2.2,2.2l-22.5,0c-1.2,0,-2.2,-1,-2.2,-2.2l0,-23.5Z" class="g8_16" />
<path d="M489.4,1345.7c0,-1.2,1,-2.1,2.2,-2.1l22.5,0c1.2,0,2.2,0.9,2.2,2.1l0,23.5c0,1.2,-1,2.2,-2.2,2.2l-22.5,0c-1.2,0,-2.2,-1,-2.2,-2.2Z" class="g9_16" />
<path d="M489.4,1345.7c0,-1.2,1,-2.1,2.2,-2.1l22.5,0c1.2,0,2.2,0.9,2.2,2.1l0,23.5c0,1.2,-1,2.2,-2.2,2.2l-22.5,0c-1.2,0,-2.2,-1,-2.2,-2.2l0,-23.5Z" class="g8_16" />
<path d="M516.3,1345.7c0,-1.2,1,-2.1,2.2,-2.1l22.5,0c1.2,0,2.2,0.9,2.2,2.1l0,23.5c0,1.2,-1,2.2,-2.2,2.2l-22.5,0c-1.2,0,-2.2,-1,-2.2,-2.2Z" class="g9_16" />
<path d="M516.3,1345.7c0,-1.2,1,-2.1,2.2,-2.1l22.5,0c1.2,0,2.2,0.9,2.2,2.1l0,23.5c0,1.2,-1,2.2,-2.2,2.2l-22.5,0c-1.2,0,-2.2,-1,-2.2,-2.2l0,-23.5Z" class="g8_16" />
<path d="M543.2,1345.7c0,-1.2,0.9,-2.1,2.1,-2.1l22.6,0c1.2,0,2.2,0.9,2.2,2.1l0,23.5c0,1.2,-1,2.2,-2.2,2.2l-22.6,0c-1.2,0,-2.1,-1,-2.1,-2.2Z" class="g9_16" />
<path d="M543.2,1345.7c0,-1.2,0.9,-2.1,2.1,-2.1l22.6,0c1.2,0,2.2,0.9,2.2,2.1l0,23.5c0,1.2,-1,2.2,-2.2,2.2l-22.6,0c-1.2,0,-2.1,-1,-2.1,-2.2l0,-23.5Z" class="g8_16" />
<path d="M570.1,1345.7c0,-1.2,0.9,-2.1,2.1,-2.1l22.6,0c1.2,0,2.1,0.9,2.1,2.1l0,23.5c0,1.2,-0.9,2.2,-2.1,2.2l-22.6,0c-1.2,0,-2.1,-1,-2.1,-2.2Z" class="g9_16" />
<path d="M570.1,1345.7c0,-1.2,0.9,-2.1,2.1,-2.1l22.6,0c1.2,0,2.1,0.9,2.1,2.1l0,23.5c0,1.2,-0.9,2.2,-2.1,2.2l-22.6,0c-1.2,0,-2.1,-1,-2.1,-2.2l0,-23.5Z" class="g8_16" />
<path d="M596.9,1345.7c0,-1.2,1,-2.1,2.2,-2.1l22.6,0c1.1,0,2.1,0.9,2.1,2.1l0,23.5c0,1.2,-1,2.2,-2.1,2.2l-22.6,0c-1.2,0,-2.2,-1,-2.2,-2.2Z" class="g9_16" />
<path d="M596.9,1345.7c0,-1.2,1,-2.1,2.2,-2.1l22.6,0c1.1,0,2.1,0.9,2.1,2.1l0,23.5c0,1.2,-1,2.2,-2.1,2.2l-22.6,0c-1.2,0,-2.2,-1,-2.2,-2.2l0,-23.5Z" class="g8_16" />
<path d="M623.8,1345.7c0,-1.2,1,-2.1,2.2,-2.1l22.5,0c1.2,0,2.2,0.9,2.2,2.1l0,23.5c0,1.2,-1,2.2,-2.2,2.2l-22.5,0c-1.2,0,-2.2,-1,-2.2,-2.2Z" class="g9_16" />
<path d="M623.8,1345.7c0,-1.2,1,-2.1,2.2,-2.1l22.5,0c1.2,0,2.2,0.9,2.2,2.1l0,23.5c0,1.2,-1,2.2,-2.2,2.2l-22.5,0c-1.2,0,-2.2,-1,-2.2,-2.2l0,-23.5Z" class="g8_16" />
<path d="M650.7,1345.7c0,-1.2,1,-2.1,2.2,-2.1l22.5,0c1.2,0,2.2,0.9,2.2,2.1l0,23.5c0,1.2,-1,2.2,-2.2,2.2l-22.5,0c-1.2,0,-2.2,-1,-2.2,-2.2Z" class="g9_16" />
<path d="M650.7,1345.7c0,-1.2,1,-2.1,2.2,-2.1l22.5,0c1.2,0,2.2,0.9,2.2,2.1l0,23.5c0,1.2,-1,2.2,-2.2,2.2l-22.5,0c-1.2,0,-2.2,-1,-2.2,-2.2l0,-23.5Z" class="g8_16" />
<path d="M677.6,1345.7c0,-1.2,1,-2.1,2.1,-2.1l22.6,0c1.2,0,2.2,0.9,2.2,2.1l0,23.5c0,1.2,-1,2.2,-2.2,2.2l-22.6,0c-1.1,0,-2.1,-1,-2.1,-2.2Z" class="g9_16" />
<path d="M677.6,1345.7c0,-1.2,1,-2.1,2.1,-2.1l22.6,0c1.2,0,2.2,0.9,2.2,2.1l0,23.5c0,1.2,-1,2.2,-2.2,2.2l-22.6,0c-1.1,0,-2.1,-1,-2.1,-2.2l0,-23.5Z" class="g8_16" />
<path d="M704.5,1345.7c0,-1.2,0.9,-2.1,2.1,-2.1l22.6,0c1.2,0,2.1,0.9,2.1,2.1l0,23.5c0,1.2,-0.9,2.2,-2.1,2.2l-22.6,0c-1.2,0,-2.1,-1,-2.1,-2.2Z" class="g9_16" />
<path d="M704.5,1345.7c0,-1.2,0.9,-2.1,2.1,-2.1l22.6,0c1.2,0,2.1,0.9,2.1,2.1l0,23.5c0,1.2,-0.9,2.2,-2.1,2.2l-22.6,0c-1.2,0,-2.1,-1,-2.1,-2.2l0,-23.5Z" class="g8_16" />
<path d="M731.3,1345.7c0,-1.2,1,-2.1,2.2,-2.1l22.6,0c1.1,0,2.1,0.9,2.1,2.1l0,23.5c0,1.2,-1,2.2,-2.1,2.2l-22.6,0c-1.2,0,-2.2,-1,-2.2,-2.2Z" class="g9_16" />
<path d="M731.3,1345.7c0,-1.2,1,-2.1,2.2,-2.1l22.6,0c1.1,0,2.1,0.9,2.1,2.1l0,23.5c0,1.2,-1,2.2,-2.1,2.2l-22.6,0c-1.2,0,-2.2,-1,-2.2,-2.2l0,-23.5Z" class="g8_16" />
<path d="M758.2,1345.7c0,-1.2,1,-2.1,2.2,-2.1l22.5,0c1.2,0,2.2,0.9,2.2,2.1l0,23.5c0,1.2,-1,2.2,-2.2,2.2l-22.5,0c-1.2,0,-2.2,-1,-2.2,-2.2Z" class="g9_16" />
<path d="M758.2,1345.7c0,-1.2,1,-2.1,2.2,-2.1l22.5,0c1.2,0,2.2,0.9,2.2,2.1l0,23.5c0,1.2,-1,2.2,-2.2,2.2l-22.5,0c-1.2,0,-2.2,-1,-2.2,-2.2l0,-23.5Z" class="g8_16" />
<path d="M435.7,1373.6c0,-1.2,0.9,-2.2,2.1,-2.2l22.6,0c1.2,0,2.1,1,2.1,2.2l0,23.4c0,1.2,-0.9,2.2,-2.1,2.2l-22.6,0c-1.2,0,-2.1,-1,-2.1,-2.2Z" class="g9_16" />
<path d="M435.7,1373.6c0,-1.2,0.9,-2.2,2.1,-2.2l22.6,0c1.2,0,2.1,1,2.1,2.2l0,23.4c0,1.2,-0.9,2.2,-2.1,2.2l-22.6,0c-1.2,0,-2.1,-1,-2.1,-2.2l0,-23.4Z" class="g8_16" />
<path d="M462.5,1373.6c0,-1.2,1,-2.2,2.2,-2.2l22.5,0c1.2,0,2.2,1,2.2,2.2l0,23.4c0,1.2,-1,2.2,-2.2,2.2l-22.5,0c-1.2,0,-2.2,-1,-2.2,-2.2Z" class="g9_16" />
<path d="M462.5,1373.6c0,-1.2,1,-2.2,2.2,-2.2l22.5,0c1.2,0,2.2,1,2.2,2.2l0,23.4c0,1.2,-1,2.2,-2.2,2.2l-22.5,0c-1.2,0,-2.2,-1,-2.2,-2.2l0,-23.4Z" class="g8_16" />
<path d="M489.4,1373.6c0,-1.2,1,-2.2,2.2,-2.2l22.5,0c1.2,0,2.2,1,2.2,2.2l0,23.4c0,1.2,-1,2.2,-2.2,2.2l-22.5,0c-1.2,0,-2.2,-1,-2.2,-2.2Z" class="g9_16" />
<path d="M489.4,1373.6c0,-1.2,1,-2.2,2.2,-2.2l22.5,0c1.2,0,2.2,1,2.2,2.2l0,23.4c0,1.2,-1,2.2,-2.2,2.2l-22.5,0c-1.2,0,-2.2,-1,-2.2,-2.2l0,-23.4Z" class="g8_16" />
<path d="M516.3,1373.6c0,-1.2,1,-2.2,2.2,-2.2l22.5,0c1.2,0,2.2,1,2.2,2.2l0,23.4c0,1.2,-1,2.2,-2.2,2.2l-22.5,0c-1.2,0,-2.2,-1,-2.2,-2.2Z" class="g9_16" />
<path d="M516.3,1373.6c0,-1.2,1,-2.2,2.2,-2.2l22.5,0c1.2,0,2.2,1,2.2,2.2l0,23.4c0,1.2,-1,2.2,-2.2,2.2l-22.5,0c-1.2,0,-2.2,-1,-2.2,-2.2l0,-23.4Z" class="g8_16" />
<path d="M543.2,1373.6c0,-1.2,0.9,-2.2,2.1,-2.2l22.6,0c1.2,0,2.2,1,2.2,2.2l0,23.4c0,1.2,-1,2.2,-2.2,2.2l-22.6,0c-1.2,0,-2.1,-1,-2.1,-2.2Z" class="g9_16" />
<path d="M543.2,1373.6c0,-1.2,0.9,-2.2,2.1,-2.2l22.6,0c1.2,0,2.2,1,2.2,2.2l0,23.4c0,1.2,-1,2.2,-2.2,2.2l-22.6,0c-1.2,0,-2.1,-1,-2.1,-2.2l0,-23.4Z" class="g8_16" />
<path d="M570.1,1373.6c0,-1.2,0.9,-2.2,2.1,-2.2l22.6,0c1.2,0,2.1,1,2.1,2.2l0,23.4c0,1.2,-0.9,2.2,-2.1,2.2l-22.6,0c-1.2,0,-2.1,-1,-2.1,-2.2Z" class="g9_16" />
<path d="M570.1,1373.6c0,-1.2,0.9,-2.2,2.1,-2.2l22.6,0c1.2,0,2.1,1,2.1,2.2l0,23.4c0,1.2,-0.9,2.2,-2.1,2.2l-22.6,0c-1.2,0,-2.1,-1,-2.1,-2.2l0,-23.4Z" class="g8_16" />
<path d="M596.9,1373.6c0,-1.2,1,-2.2,2.2,-2.2l22.6,0c1.1,0,2.1,1,2.1,2.2l0,23.4c0,1.2,-1,2.2,-2.1,2.2l-22.6,0c-1.2,0,-2.2,-1,-2.2,-2.2Z" class="g9_16" />
<path d="M596.9,1373.6c0,-1.2,1,-2.2,2.2,-2.2l22.6,0c1.1,0,2.1,1,2.1,2.2l0,23.4c0,1.2,-1,2.2,-2.1,2.2l-22.6,0c-1.2,0,-2.2,-1,-2.2,-2.2l0,-23.4Z" class="g8_16" />
<path d="M623.8,1373.6c0,-1.2,1,-2.2,2.2,-2.2l22.5,0c1.2,0,2.2,1,2.2,2.2l0,23.4c0,1.2,-1,2.2,-2.2,2.2l-22.5,0c-1.2,0,-2.2,-1,-2.2,-2.2Z" class="g9_16" />
<path d="M623.8,1373.6c0,-1.2,1,-2.2,2.2,-2.2l22.5,0c1.2,0,2.2,1,2.2,2.2l0,23.4c0,1.2,-1,2.2,-2.2,2.2l-22.5,0c-1.2,0,-2.2,-1,-2.2,-2.2l0,-23.4Z" class="g8_16" />
<path d="M650.7,1373.6c0,-1.2,1,-2.2,2.2,-2.2l22.5,0c1.2,0,2.2,1,2.2,2.2l0,23.4c0,1.2,-1,2.2,-2.2,2.2l-22.5,0c-1.2,0,-2.2,-1,-2.2,-2.2Z" class="g9_16" />
<path d="M650.7,1373.6c0,-1.2,1,-2.2,2.2,-2.2l22.5,0c1.2,0,2.2,1,2.2,2.2l0,23.4c0,1.2,-1,2.2,-2.2,2.2l-22.5,0c-1.2,0,-2.2,-1,-2.2,-2.2l0,-23.4Z" class="g8_16" />
<path d="M677.6,1373.6c0,-1.2,1,-2.2,2.1,-2.2l22.6,0c1.2,0,2.2,1,2.2,2.2l0,23.4c0,1.2,-1,2.2,-2.2,2.2l-22.6,0c-1.1,0,-2.1,-1,-2.1,-2.2Z" class="g9_16" />
<path d="M677.6,1373.6c0,-1.2,1,-2.2,2.1,-2.2l22.6,0c1.2,0,2.2,1,2.2,2.2l0,23.4c0,1.2,-1,2.2,-2.2,2.2l-22.6,0c-1.1,0,-2.1,-1,-2.1,-2.2l0,-23.4Z" class="g8_16" />
<path d="M704.5,1373.6c0,-1.2,0.9,-2.2,2.1,-2.2l22.6,0c1.2,0,2.1,1,2.1,2.2l0,23.4c0,1.2,-0.9,2.2,-2.1,2.2l-22.6,0c-1.2,0,-2.1,-1,-2.1,-2.2Z" class="g9_16" />
<path d="M704.5,1373.6c0,-1.2,0.9,-2.2,2.1,-2.2l22.6,0c1.2,0,2.1,1,2.1,2.2l0,23.4c0,1.2,-0.9,2.2,-2.1,2.2l-22.6,0c-1.2,0,-2.1,-1,-2.1,-2.2l0,-23.4Z" class="g8_16" />
<path d="M731.3,1373.6c0,-1.2,1,-2.2,2.2,-2.2l22.6,0c1.1,0,2.1,1,2.1,2.2l0,23.4c0,1.2,-1,2.2,-2.1,2.2l-22.6,0c-1.2,0,-2.2,-1,-2.2,-2.2Z" class="g9_16" />
<path d="M731.3,1373.6c0,-1.2,1,-2.2,2.2,-2.2l22.6,0c1.1,0,2.1,1,2.1,2.2l0,23.4c0,1.2,-1,2.2,-2.1,2.2l-22.6,0c-1.2,0,-2.2,-1,-2.2,-2.2l0,-23.4Z" class="g8_16" />
<path d="M758.2,1373.6c0,-1.2,1,-2.2,2.2,-2.2l22.5,0c1.2,0,2.2,1,2.2,2.2l0,23.4c0,1.2,-1,2.2,-2.2,2.2l-22.5,0c-1.2,0,-2.2,-1,-2.2,-2.2Z" class="g9_16" />
<path d="M758.2,1373.6c0,-1.2,1,-2.2,2.2,-2.2l22.5,0c1.2,0,2.2,1,2.2,2.2l0,23.4c0,1.2,-1,2.2,-2.2,2.2l-22.5,0c-1.2,0,-2.2,-1,-2.2,-2.2l0,-23.4Z" class="g8_16" />
<path d="M131,1315l285,0" class="g2_16" />
<path d="M128.9,1408.1c0,-1.2,1,-2.1,2.1,-2.1l31.7,0c1.2,0,2.2,0.9,2.2,2.1l0,22.7c0,1.1,-1,2.1,-2.2,2.1l-31.7,0c-1.1,0,-2.1,-1,-2.1,-2.1Z" class="g7_16" />
<path d="M128.9,1408.1c0,-1.2,1,-2.1,2.1,-2.1l31.7,0c1.2,0,2.2,0.9,2.2,2.1l0,22.7c0,1.1,-1,2.1,-2.2,2.1l-31.7,0c-1.1,0,-2.1,-1,-2.1,-2.1l0,-22.7Z" class="g8_16" />
<path d="M164.9,1408.1c0,-1.2,1,-2.1,2.2,-2.1l31.7,0c1.2,0,2.1,0.9,2.1,2.1l0,22.7c0,1.1,-0.9,2.1,-2.1,2.1l-31.7,0c-1.2,0,-2.2,-1,-2.2,-2.1Z" class="g7_16" />
<path d="M164.9,1408.1c0,-1.2,1,-2.1,2.2,-2.1l31.7,0c1.2,0,2.1,0.9,2.1,2.1l0,22.7c0,1.1,-0.9,2.1,-2.1,2.1l-31.7,0c-1.2,0,-2.2,-1,-2.2,-2.1l0,-22.7Z" class="g8_16" />
<path d="M200.9,1408.1c0,-1.2,1,-2.1,2.2,-2.1l31.7,0c1.2,0,2.2,0.9,2.2,2.1l0,22.7c0,1.1,-1,2.1,-2.2,2.1l-31.7,0c-1.2,0,-2.2,-1,-2.2,-2.1Z" class="g7_16" />
<path d="M200.9,1408.1c0,-1.2,1,-2.1,2.2,-2.1l31.7,0c1.2,0,2.2,0.9,2.2,2.1l0,22.7c0,1.1,-1,2.1,-2.2,2.1l-31.7,0c-1.2,0,-2.2,-1,-2.2,-2.1l0,-22.7Z" class="g8_16" />
<path d="M237,1408.1c0,-1.2,0.9,-2.1,2.1,-2.1l31.7,0c1.2,0,2.2,0.9,2.2,2.1l0,22.7c0,1.1,-1,2.1,-2.2,2.1l-31.7,0c-1.2,0,-2.1,-1,-2.1,-2.1Z" class="g7_16" />
<path d="M237,1408.1c0,-1.2,0.9,-2.1,2.1,-2.1l31.7,0c1.2,0,2.2,0.9,2.2,2.1l0,22.7c0,1.1,-1,2.1,-2.2,2.1l-31.7,0c-1.2,0,-2.1,-1,-2.1,-2.1l0,-22.7Z" class="g8_16" />
<path d="M273,1408.1c0,-1.2,1,-2.1,2.1,-2.1l31.7,0c1.2,0,2.2,0.9,2.2,2.1l0,22.7c0,1.1,-1,2.1,-2.2,2.1l-31.7,0c-1.1,0,-2.1,-1,-2.1,-2.1Z" class="g7_16" />
<path d="M273,1408.1c0,-1.2,1,-2.1,2.1,-2.1l31.7,0c1.2,0,2.2,0.9,2.2,2.1l0,22.7c0,1.1,-1,2.1,-2.2,2.1l-31.7,0c-1.1,0,-2.1,-1,-2.1,-2.1l0,-22.7Z" class="g8_16" />
<path d="M309,1408.1c0,-1.2,1,-2.1,2.2,-2.1l31.7,0c1.2,0,2.1,0.9,2.1,2.1l0,22.7c0,1.1,-0.9,2.1,-2.1,2.1l-31.7,0c-1.2,0,-2.2,-1,-2.2,-2.1Z" class="g7_16" />
<path d="M309,1408.1c0,-1.2,1,-2.1,2.2,-2.1l31.7,0c1.2,0,2.1,0.9,2.1,2.1l0,22.7c0,1.1,-0.9,2.1,-2.1,2.1l-31.7,0c-1.2,0,-2.2,-1,-2.2,-2.1l0,-22.7Z" class="g8_16" />
<path d="M345,1408.1c0,-1.2,1,-2.1,2.2,-2.1l31.7,0c1.2,0,2.2,0.9,2.2,2.1l0,22.7c0,1.1,-1,2.1,-2.2,2.1l-31.7,0c-1.2,0,-2.2,-1,-2.2,-2.1Z" class="g7_16" />
<path d="M345,1408.1c0,-1.2,1,-2.1,2.2,-2.1l31.7,0c1.2,0,2.2,0.9,2.2,2.1l0,22.7c0,1.1,-1,2.1,-2.2,2.1l-31.7,0c-1.2,0,-2.2,-1,-2.2,-2.1l0,-22.7Z" class="g8_16" />
<path d="M381.1,1408.1c0,-1.2,0.9,-2.1,2.1,-2.1l31.7,0c1.2,0,2.2,0.9,2.2,2.1l0,22.7c0,1.1,-1,2.1,-2.2,2.1l-31.7,0c-1.2,0,-2.1,-1,-2.1,-2.1Z" class="g7_16" />
<path d="M381.1,1408.1c0,-1.2,0.9,-2.1,2.1,-2.1l31.7,0c1.2,0,2.2,0.9,2.2,2.1l0,22.7c0,1.1,-1,2.1,-2.2,2.1l-31.7,0c-1.2,0,-2.1,-1,-2.1,-2.1l0,-22.7Z" class="g8_16" />
<path d="M66.7,1345.7c0,-1.2,0.9,-2.1,2.1,-2.1l22.6,0c1.2,0,2.1,0.9,2.1,2.1l0,23.5c0,1.2,-0.9,2.2,-2.1,2.2l-22.6,0c-1.2,0,-2.1,-1,-2.1,-2.2Z" class="g9_16" />
<path d="M66.7,1345.7c0,-1.2,0.9,-2.1,2.1,-2.1l22.6,0c1.2,0,2.1,0.9,2.1,2.1l0,23.5c0,1.2,-0.9,2.2,-2.1,2.2l-22.6,0c-1.2,0,-2.1,-1,-2.1,-2.2l0,-23.5Z" class="g8_16" />
<path d="M93.5,1345.7c0,-1.2,1,-2.1,2.2,-2.1l22.6,0c1.1,0,2.1,0.9,2.1,2.1l0,23.5c0,1.2,-1,2.2,-2.1,2.2l-22.6,0c-1.2,0,-2.2,-1,-2.2,-2.2Z" class="g9_16" />
<path d="M93.5,1345.7c0,-1.2,1,-2.1,2.2,-2.1l22.6,0c1.1,0,2.1,0.9,2.1,2.1l0,23.5c0,1.2,-1,2.2,-2.1,2.2l-22.6,0c-1.2,0,-2.2,-1,-2.2,-2.2l0,-23.5Z" class="g8_16" />
<path d="M120.4,1345.7c0,-1.2,1,-2.1,2.2,-2.1l22.5,0c1.2,0,2.2,0.9,2.2,2.1l0,23.5c0,1.2,-1,2.2,-2.2,2.2l-22.5,0c-1.2,0,-2.2,-1,-2.2,-2.2Z" class="g9_16" />
<path d="M120.4,1345.7c0,-1.2,1,-2.1,2.2,-2.1l22.5,0c1.2,0,2.2,0.9,2.2,2.1l0,23.5c0,1.2,-1,2.2,-2.2,2.2l-22.5,0c-1.2,0,-2.2,-1,-2.2,-2.2l0,-23.5Z" class="g8_16" />
<path d="M147.3,1345.7c0,-1.2,1,-2.1,2.2,-2.1l22.5,0c1.2,0,2.2,0.9,2.2,2.1l0,23.5c0,1.2,-1,2.2,-2.2,2.2l-22.5,0c-1.2,0,-2.2,-1,-2.2,-2.2Z" class="g9_16" />
<path d="M147.3,1345.7c0,-1.2,1,-2.1,2.2,-2.1l22.5,0c1.2,0,2.2,0.9,2.2,2.1l0,23.5c0,1.2,-1,2.2,-2.2,2.2l-22.5,0c-1.2,0,-2.2,-1,-2.2,-2.2l0,-23.5Z" class="g8_16" />
<path d="M174.2,1345.7c0,-1.2,1,-2.1,2.1,-2.1l22.6,0c1.2,0,2.2,0.9,2.2,2.1l0,23.5c0,1.2,-1,2.2,-2.2,2.2l-22.6,0c-1.1,0,-2.1,-1,-2.1,-2.2Z" class="g9_16" />
<path d="M174.2,1345.7c0,-1.2,1,-2.1,2.1,-2.1l22.6,0c1.2,0,2.2,0.9,2.2,2.1l0,23.5c0,1.2,-1,2.2,-2.2,2.2l-22.6,0c-1.1,0,-2.1,-1,-2.1,-2.2l0,-23.5Z" class="g8_16" />
<path d="M201.1,1345.7c0,-1.2,0.9,-2.1,2.1,-2.1l22.6,0c1.2,0,2.1,0.9,2.1,2.1l0,23.5c0,1.2,-0.9,2.2,-2.1,2.2l-22.6,0c-1.2,0,-2.1,-1,-2.1,-2.2Z" class="g9_16" />
<path d="M201.1,1345.7c0,-1.2,0.9,-2.1,2.1,-2.1l22.6,0c1.2,0,2.1,0.9,2.1,2.1l0,23.5c0,1.2,-0.9,2.2,-2.1,2.2l-22.6,0c-1.2,0,-2.1,-1,-2.1,-2.2l0,-23.5Z" class="g8_16" />
<path d="M227.9,1345.7c0,-1.2,1,-2.1,2.2,-2.1l22.6,0c1.1,0,2.1,0.9,2.1,2.1l0,23.5c0,1.2,-1,2.2,-2.1,2.2l-22.6,0c-1.2,0,-2.2,-1,-2.2,-2.2Z" class="g9_16" />
<path d="M227.9,1345.7c0,-1.2,1,-2.1,2.2,-2.1l22.6,0c1.1,0,2.1,0.9,2.1,2.1l0,23.5c0,1.2,-1,2.2,-2.1,2.2l-22.6,0c-1.2,0,-2.2,-1,-2.2,-2.2l0,-23.5Z" class="g8_16" />
<path d="M254.8,1345.7c0,-1.2,1,-2.1,2.2,-2.1l22.5,0c1.2,0,2.2,0.9,2.2,2.1l0,23.5c0,1.2,-1,2.2,-2.2,2.2l-22.5,0c-1.2,0,-2.2,-1,-2.2,-2.2Z" class="g9_16" />
<path d="M254.8,1345.7c0,-1.2,1,-2.1,2.2,-2.1l22.5,0c1.2,0,2.2,0.9,2.2,2.1l0,23.5c0,1.2,-1,2.2,-2.2,2.2l-22.5,0c-1.2,0,-2.2,-1,-2.2,-2.2l0,-23.5Z" class="g8_16" />
<path d="M281.7,1345.7c0,-1.2,1,-2.1,2.2,-2.1l22.5,0c1.2,0,2.2,0.9,2.2,2.1l0,23.5c0,1.2,-1,2.2,-2.2,2.2l-22.5,0c-1.2,0,-2.2,-1,-2.2,-2.2Z" class="g9_16" />
<path d="M281.7,1345.7c0,-1.2,1,-2.1,2.2,-2.1l22.5,0c1.2,0,2.2,0.9,2.2,2.1l0,23.5c0,1.2,-1,2.2,-2.2,2.2l-22.5,0c-1.2,0,-2.2,-1,-2.2,-2.2l0,-23.5Z" class="g8_16" />
<path d="M308.6,1345.7c0,-1.2,1,-2.1,2.1,-2.1l22.6,0c1.2,0,2.2,0.9,2.2,2.1l0,23.5c0,1.2,-1,2.2,-2.2,2.2l-22.6,0c-1.1,0,-2.1,-1,-2.1,-2.2Z" class="g9_16" />
<path d="M308.6,1345.7c0,-1.2,1,-2.1,2.1,-2.1l22.6,0c1.2,0,2.2,0.9,2.2,2.1l0,23.5c0,1.2,-1,2.2,-2.2,2.2l-22.6,0c-1.1,0,-2.1,-1,-2.1,-2.2l0,-23.5Z" class="g8_16" />
<path d="M335.5,1345.7c0,-1.2,0.9,-2.1,2.1,-2.1l22.6,0c1.2,0,2.1,0.9,2.1,2.1l0,23.5c0,1.2,-0.9,2.2,-2.1,2.2l-22.6,0c-1.2,0,-2.1,-1,-2.1,-2.2Z" class="g9_16" />
<path d="M335.5,1345.7c0,-1.2,0.9,-2.1,2.1,-2.1l22.6,0c1.2,0,2.1,0.9,2.1,2.1l0,23.5c0,1.2,-0.9,2.2,-2.1,2.2l-22.6,0c-1.2,0,-2.1,-1,-2.1,-2.2l0,-23.5Z" class="g8_16" />
<path d="M362.3,1345.7c0,-1.2,1,-2.1,2.2,-2.1l22.6,0c1.1,0,2.1,0.9,2.1,2.1l0,23.5c0,1.2,-1,2.2,-2.1,2.2l-22.6,0c-1.2,0,-2.2,-1,-2.2,-2.2Z" class="g9_16" />
<path d="M362.3,1345.7c0,-1.2,1,-2.1,2.2,-2.1l22.6,0c1.1,0,2.1,0.9,2.1,2.1l0,23.5c0,1.2,-1,2.2,-2.1,2.2l-22.6,0c-1.2,0,-2.2,-1,-2.2,-2.2l0,-23.5Z" class="g8_16" />
<path d="M389.2,1345.7c0,-1.2,1,-2.1,2.2,-2.1l22.5,0c1.2,0,2.2,0.9,2.2,2.1l0,23.5c0,1.2,-1,2.2,-2.2,2.2l-22.5,0c-1.2,0,-2.2,-1,-2.2,-2.2Z" class="g9_16" />
<path d="M389.2,1345.7c0,-1.2,1,-2.1,2.2,-2.1l22.5,0c1.2,0,2.2,0.9,2.2,2.1l0,23.5c0,1.2,-1,2.2,-2.2,2.2l-22.5,0c-1.2,0,-2.2,-1,-2.2,-2.2l0,-23.5Z" class="g8_16" />
<path d="M66.7,1373.6c0,-1.2,0.9,-2.2,2.1,-2.2l22.6,0c1.2,0,2.1,1,2.1,2.2l0,23.4c0,1.2,-0.9,2.2,-2.1,2.2l-22.6,0c-1.2,0,-2.1,-1,-2.1,-2.2Z" class="g9_16" />
<path d="M66.7,1373.6c0,-1.2,0.9,-2.2,2.1,-2.2l22.6,0c1.2,0,2.1,1,2.1,2.2l0,23.4c0,1.2,-0.9,2.2,-2.1,2.2l-22.6,0c-1.2,0,-2.1,-1,-2.1,-2.2l0,-23.4Z" class="g8_16" />
<path d="M93.5,1373.6c0,-1.2,1,-2.2,2.2,-2.2l22.6,0c1.1,0,2.1,1,2.1,2.2l0,23.4c0,1.2,-1,2.2,-2.1,2.2l-22.6,0c-1.2,0,-2.2,-1,-2.2,-2.2Z" class="g9_16" />
<path d="M93.5,1373.6c0,-1.2,1,-2.2,2.2,-2.2l22.6,0c1.1,0,2.1,1,2.1,2.2l0,23.4c0,1.2,-1,2.2,-2.1,2.2l-22.6,0c-1.2,0,-2.2,-1,-2.2,-2.2l0,-23.4Z" class="g8_16" />
<path d="M120.4,1373.6c0,-1.2,1,-2.2,2.2,-2.2l22.5,0c1.2,0,2.2,1,2.2,2.2l0,23.4c0,1.2,-1,2.2,-2.2,2.2l-22.5,0c-1.2,0,-2.2,-1,-2.2,-2.2Z" class="g9_16" />
<path d="M120.4,1373.6c0,-1.2,1,-2.2,2.2,-2.2l22.5,0c1.2,0,2.2,1,2.2,2.2l0,23.4c0,1.2,-1,2.2,-2.2,2.2l-22.5,0c-1.2,0,-2.2,-1,-2.2,-2.2l0,-23.4Z" class="g8_16" />
<path d="M147.3,1373.6c0,-1.2,1,-2.2,2.2,-2.2l22.5,0c1.2,0,2.2,1,2.2,2.2l0,23.4c0,1.2,-1,2.2,-2.2,2.2l-22.5,0c-1.2,0,-2.2,-1,-2.2,-2.2Z" class="g9_16" />
<path d="M147.3,1373.6c0,-1.2,1,-2.2,2.2,-2.2l22.5,0c1.2,0,2.2,1,2.2,2.2l0,23.4c0,1.2,-1,2.2,-2.2,2.2l-22.5,0c-1.2,0,-2.2,-1,-2.2,-2.2l0,-23.4Z" class="g8_16" />
<path d="M174.2,1373.6c0,-1.2,1,-2.2,2.1,-2.2l22.6,0c1.2,0,2.2,1,2.2,2.2l0,23.4c0,1.2,-1,2.2,-2.2,2.2l-22.6,0c-1.1,0,-2.1,-1,-2.1,-2.2Z" class="g9_16" />
<path d="M174.2,1373.6c0,-1.2,1,-2.2,2.1,-2.2l22.6,0c1.2,0,2.2,1,2.2,2.2l0,23.4c0,1.2,-1,2.2,-2.2,2.2l-22.6,0c-1.1,0,-2.1,-1,-2.1,-2.2l0,-23.4Z" class="g8_16" />
<path d="M201.1,1373.6c0,-1.2,0.9,-2.2,2.1,-2.2l22.6,0c1.2,0,2.1,1,2.1,2.2l0,23.4c0,1.2,-0.9,2.2,-2.1,2.2l-22.6,0c-1.2,0,-2.1,-1,-2.1,-2.2Z" class="g9_16" />
<path d="M201.1,1373.6c0,-1.2,0.9,-2.2,2.1,-2.2l22.6,0c1.2,0,2.1,1,2.1,2.2l0,23.4c0,1.2,-0.9,2.2,-2.1,2.2l-22.6,0c-1.2,0,-2.1,-1,-2.1,-2.2l0,-23.4Z" class="g8_16" />
<path d="M227.9,1373.6c0,-1.2,1,-2.2,2.2,-2.2l22.6,0c1.1,0,2.1,1,2.1,2.2l0,23.4c0,1.2,-1,2.2,-2.1,2.2l-22.6,0c-1.2,0,-2.2,-1,-2.2,-2.2Z" class="g9_16" />
<path d="M227.9,1373.6c0,-1.2,1,-2.2,2.2,-2.2l22.6,0c1.1,0,2.1,1,2.1,2.2l0,23.4c0,1.2,-1,2.2,-2.1,2.2l-22.6,0c-1.2,0,-2.2,-1,-2.2,-2.2l0,-23.4Z" class="g8_16" />
<path d="M254.8,1373.6c0,-1.2,1,-2.2,2.2,-2.2l22.5,0c1.2,0,2.2,1,2.2,2.2l0,23.4c0,1.2,-1,2.2,-2.2,2.2l-22.5,0c-1.2,0,-2.2,-1,-2.2,-2.2Z" class="g9_16" />
<path d="M254.8,1373.6c0,-1.2,1,-2.2,2.2,-2.2l22.5,0c1.2,0,2.2,1,2.2,2.2l0,23.4c0,1.2,-1,2.2,-2.2,2.2l-22.5,0c-1.2,0,-2.2,-1,-2.2,-2.2l0,-23.4Z" class="g8_16" />
<path d="M281.7,1373.6c0,-1.2,1,-2.2,2.2,-2.2l22.5,0c1.2,0,2.2,1,2.2,2.2l0,23.4c0,1.2,-1,2.2,-2.2,2.2l-22.5,0c-1.2,0,-2.2,-1,-2.2,-2.2Z" class="g9_16" />
<path d="M281.7,1373.6c0,-1.2,1,-2.2,2.2,-2.2l22.5,0c1.2,0,2.2,1,2.2,2.2l0,23.4c0,1.2,-1,2.2,-2.2,2.2l-22.5,0c-1.2,0,-2.2,-1,-2.2,-2.2l0,-23.4Z" class="g8_16" />
<path d="M308.6,1373.6c0,-1.2,1,-2.2,2.1,-2.2l22.6,0c1.2,0,2.2,1,2.2,2.2l0,23.4c0,1.2,-1,2.2,-2.2,2.2l-22.6,0c-1.1,0,-2.1,-1,-2.1,-2.2Z" class="g9_16" />
<path d="M308.6,1373.6c0,-1.2,1,-2.2,2.1,-2.2l22.6,0c1.2,0,2.2,1,2.2,2.2l0,23.4c0,1.2,-1,2.2,-2.2,2.2l-22.6,0c-1.1,0,-2.1,-1,-2.1,-2.2l0,-23.4Z" class="g8_16" />
<path d="M335.5,1373.6c0,-1.2,0.9,-2.2,2.1,-2.2l22.6,0c1.2,0,2.1,1,2.1,2.2l0,23.4c0,1.2,-0.9,2.2,-2.1,2.2l-22.6,0c-1.2,0,-2.1,-1,-2.1,-2.2Z" class="g9_16" />
<path d="M335.5,1373.6c0,-1.2,0.9,-2.2,2.1,-2.2l22.6,0c1.2,0,2.1,1,2.1,2.2l0,23.4c0,1.2,-0.9,2.2,-2.1,2.2l-22.6,0c-1.2,0,-2.1,-1,-2.1,-2.2l0,-23.4Z" class="g8_16" />
<path d="M362.3,1373.6c0,-1.2,1,-2.2,2.2,-2.2l22.6,0c1.1,0,2.1,1,2.1,2.2l0,23.4c0,1.2,-1,2.2,-2.1,2.2l-22.6,0c-1.2,0,-2.2,-1,-2.2,-2.2Z" class="g9_16" />
<path d="M362.3,1373.6c0,-1.2,1,-2.2,2.2,-2.2l22.6,0c1.1,0,2.1,1,2.1,2.2l0,23.4c0,1.2,-1,2.2,-2.1,2.2l-22.6,0c-1.2,0,-2.2,-1,-2.2,-2.2l0,-23.4Z" class="g8_16" />
<path d="M389.2,1373.6c0,-1.2,1,-2.2,2.2,-2.2l22.5,0c1.2,0,2.2,1,2.2,2.2l0,23.4c0,1.2,-1,2.2,-2.2,2.2l-22.5,0c-1.2,0,-2.2,-1,-2.2,-2.2Z" class="g9_16" />
<path d="M389.2,1373.6c0,-1.2,1,-2.2,2.2,-2.2l22.5,0c1.2,0,2.2,1,2.2,2.2l0,23.4c0,1.2,-1,2.2,-2.2,2.2l-22.5,0c-1.2,0,-2.2,-1,-2.2,-2.2l0,-23.4Z" class="g8_16" />
<image x="804" y="1325" width="109" height="108" xlink:href="img/2.png" />
<path d="M75,1490.5c0,1.8,-1.5,3.3,-3.3,3.3l-11.8,0c-1.8,0,-3.3,-1.5,-3.3,-3.3l0,-11.8c0,-1.8,1.5,-3.3,3.3,-3.3l11.8,0c1.8,0,3.3,1.5,3.3,3.3Z" class="g10_16" />
<path d="M292.2,96.6l3,-1.8l8.4,-1.1l12,0l7.5,6.1l-7.8,8.2l-3,1.6l-3.3,0.9l-0.8,2l-1.1,0l-1.3,-2.1l-2.9,-0.7l-4.1,-2L293.2,99l-0.9,-2.2Z" class="g9_16" />
<path fill-rule="evenodd" d="M301.2,58.9c-0.1,0.1,-0.2,0.2,-0.4,0.2c-0.2,0,-0.4,0,-0.6,0c-0.2,0,-0.4,0.1,-0.5,0.3c-0.1,0.1,-0.3,0.3,-0.6,0.4c-0.2,0.1,-0.7,0.2,-1.2,0.1c0.5,0.3,0.7,0.4,1.1,0.4c0.3,0,0.6,-0.1,0.9,-0.2c0.3,-0.2,0.5,-0.2,0.8,-0.1c0.2,0,0.4,0,0.8,0.1l0.1,0l-0.1,0c-0.3,0,-2.5,1.3,-2.5,1.3c0.3,0,-0.3,0.3,-0.4,0.5c-0.1,-0.2,-0.1,-0.3,-0.1,-0.4c-0.1,-0.1,-0.1,-0.2,-0.2,-0.2c-0.4,0.5,-0.7,0.7,-1,1c-0.4,0.4,-0.7,0.7,-0.8,1.3c0,-0.1,-0.1,-0.3,-0.2,-0.5c0,-0.1,-0.1,-0.2,-0.2,-0.2c-0.3,0.5,-0.6,0.8,-0.9,1.1c-0.2,0.4,-0.5,0.7,-0.6,1.3c0,-0.2,-0.3,-0.6,-0.4,-0.7c-0.2,0.7,-0.6,1.2,-0.9,1.6c-0.3,0.5,-0.5,1,-0.3,1.9c0,0.3,0.1,0.9,0.1,1.1c-0.1,-0.4,-0.2,-0.8,-0.3,-1c-0.2,-0.4,-0.4,-0.6,-0.7,-0.6c-0.2,0.4,-0.4,0.7,-0.6,1.1c-0.2,0.4,-0.3,0.7,-0.3,1.2c-0.1,-0.1,-0.5,-0.3,-0.6,-0.3c0,0.7,-0.3,1.2,-0.5,1.7c-0.2,0.4,-0.2,1,0.4,1.8c0.2,0.2,-0.7,-0.7,-1,-0.7c-0.1,0.5,-0.6,1.8,-0.6,2.3c-0.1,-0.1,-0.4,-0.2,-0.4,-0.2c0,0.7,-0.1,1.3,-0.2,1.9c-0.2,0.9,0.6,1.7,0.3,1.3c-0.3,-0.4,-0.5,-0.5,-0.8,-0.5c0.1,0.8,0,1.2,-0.1,1.5c-0.2,0.3,-0.2,0.8,0.1,1.4C287.7,80,287,79.8,286.9,79.8c0.2,0.7,0.2,1.2,0.2,1.7c0.1,0.5,0.4,1,1,1.4c0.5,0.3,0.5,0.6,0,0.2c-0.4,-0.4,-0.9,-0.6,-1.2,-0.6c0.2,0.6,0.2,1.2,0.3,1.7c0,0.5,0.1,1,0.5,1.4c-0.2,-0.2,-1,-0.4,-1.2,-0.4c0.3,0.7,0.4,1.3,0.6,1.7c0.1,0.6,0.3,1,1,1.6c-0.2,-0.1,-1,-0.2,-1.1,-0.1c0.2,0.5,0.4,2,0.5,2.3c-0.1,0,-0.4,0.1,-0.5,0.1c0.4,0.6,1,2.3,1.6,2.7c-0.1,0,-0.6,0.1,-0.7,0.1c0.3,0.4,0.8,1.8,1,2.2c-0.1,0,-0.3,0.1,-0.4,0.1c0.4,0.4,0.6,0.9,0.9,1.2c0.2,0.5,0.4,0.8,0.9,1.1c-0.1,0,-0.6,0.1,-0.6,0.1c0.3,0.4,1.2,1.6,1.5,1.9c-0.1,0,-0.6,0.2,-0.7,0.3c0.6,0.3,0.8,0.7,1.1,1c0.3,0.3,0.6,0.7,1.1,0.8c-0.1,0,-0.6,0.2,-0.7,0.2c0.7,0.5,0.8,0.8,0.9,1.2c0,0.2,0.1,0.4,0.7,0.7c0,0,-0.2,0.1,-0.2,0.1c0.7,0.4,1,1,1.6,1.5c0.6,0.4,1.3,0.9,2.8,0.9c0.7,0.7,2,1.5,3.4,2.1c1.4,0.7,2.9,1.2,4.2,1.4c-0.6,-0.2,-1,-0.7,-1.3,-1c-3.1,-0.8,-5,-2.4,-5.3,-2.9c-0.1,-0.2,-0.4,-1.5,-0.4,-1.8l0,-0.1c0.9,0.8,1.9,1.5,2.9,2c1,0.6,2,1,3,1.2c0.1,0,0.2,-0.1,0.2,-0.1c0.3,-0.3,0.8,-0.5,1.5,-0.5c-3,-0.4,-5.4,-1.7,-7.2,-3.3c-2.2,-1.9,-3.7,-4.1,-4.6,-5.5c-0.1,-0.1,0.9,-0.6,2.1,-1c1.2,-0.4,4.3,-1.3,4.3,-1.3c0,0.3,0.2,0.5,0.5,0.6c0.2,0.1,0.4,0,0.4,-0.1c0.1,0.1,0.1,0.2,0.1,0.4c0,0.1,0.1,0.3,0.4,0.5c0.2,0.2,0.4,0.2,0.6,0.2c0.2,0,0.3,0,0.3,-0.1l0.1,0l-0.1,0c-0.1,0.2,0.2,0.4,0.5,0.6c0.4,0.1,0.9,0.2,1.2,0c0,0.1,0.1,0.3,0.2,0.3c0.2,0.1,0.4,0.1,0.5,0.2c0.1,0,0.3,0.1,0.5,0.1c0.3,0,0.6,0,0.8,-0.1l0,3.9c-0.1,0.8,0.5,1,0.7,1.1c1.2,0.1,1.1,-0.7,1.1,-1c0,-0.8,0.1,-4.1,0.1,-4c0.5,-0.1,0.7,-0.2,0.8,-0.3c0.1,-0.1,0.2,-0.2,0.4,-0.2c0.2,0,0.4,0,0.6,0c0.1,-0.1,0.3,-0.3,0.5,-0.5c0.3,0,0.6,0,0.8,-0.1c0.2,-0.1,0.4,-0.3,0.4,-0.5c0.3,0,0.6,0,0.9,-0.2c0.3,-0.2,0.5,-0.6,0.7,-1c0.6,0.1,5.9,2.7,6.8,2.9c-0.4,0.7,-1.7,2.8,-3.9,4.7c-1.8,1.7,-4.3,3.2,-7.3,3.7c0.6,0,1.2,0.1,1.6,0.6c0.9,-0.2,1.9,-0.6,2.8,-1.1c1,-0.5,1.9,-1.1,2.8,-1.8l-0.1,0.1c0,0.4,-0.2,1.4,-0.3,1.6c-0.3,0.7,-1.3,1.2,-2.4,1.7c-1,0.4,-2,0.8,-2.7,1c-0.3,0.8,-1.4,1.2,-1.5,1.2c0.8,-0.1,2.4,-0.7,4,-1.3c1.6,-0.8,3.2,-1.6,4.1,-2.3c0.9,0.1,1.5,-0.3,2.1,-0.7c0.6,-0.4,1.1,-0.9,1.8,-1.3c-0.1,-0.1,-0.3,-0.2,-0.4,-0.2c0.4,-0.2,0.7,-0.5,1,-0.8c0.3,-0.4,0.6,-0.7,1,-1c-0.1,0,-0.5,-0.2,-0.7,-0.2c0.7,-0.2,0.8,-0.4,0.8,-0.7c0.2,-0.3,0.3,-0.6,0.9,-1.1c0,0,-0.1,0,-0.2,-0.1l-0.1,0c0.5,-0.3,0.6,-0.6,0.8,-0.9c0.2,-0.4,0.4,-0.8,0.7,-1.2c-0.1,0,-0.6,-0.1,-0.7,-0.1c0.7,-0.3,1,-0.6,1.3,-1c0.2,-0.4,0.3,-0.8,0.8,-1.3c0,0,-0.4,-0.1,-0.6,-0.1c0.4,-0.3,0.5,-0.6,0.6,-1c0.2,-0.4,0.2,-0.9,0.6,-1.4c-0.2,-0.1,-0.7,0,-0.8,0c0.5,-0.2,0.8,-0.7,1,-1.1c0.2,-0.5,0.3,-1.1,0.7,-1.6C328,91.1,327.6,91,327.5,91c0.5,-0.5,0.5,-0.6,0.3,-1c-0.1,-0.2,-0.2,-0.7,0.2,-1.6c-0.1,-0.1,-0.6,-0.1,-0.7,0c0.4,-0.4,0.6,-0.9,0.8,-1.4c0.1,-0.4,-0.1,-1.1,0.2,-1.7c-0.3,0,-1.7,0.9,-1.4,0.7c0.7,-0.5,0.9,-1,1.1,-1.5c0.1,-0.6,-0.2,-1.2,0,-1.9c-0.3,-0.1,-0.7,0.2,-1.1,0.6c-0.5,0.4,-0.4,0.1,0,-0.1c0.6,-0.4,0.9,-0.9,1,-1.5C328,81,328,80.4,328.2,79.7c-0.1,0,-0.6,0.1,-0.7,0.1c0.1,-0.4,-0.2,-2,-0.2,-2.6c-0.4,0,-0.7,0.4,-1.1,0.8c-0.3,0.4,-0.3,0.1,0,-0.1c0.6,-0.7,0.6,-1.3,0.5,-1.9c0,-0.5,-0.2,-1.1,-0.2,-1.8c0,0,-0.3,0,-0.4,0.1c0,-0.4,-0.6,-1.6,-0.7,-2.1c-0.3,0.1,-1.1,1,-0.9,0.7c0.4,-0.7,0.4,-1.2,0.2,-1.7c-0.1,-0.5,-0.3,-1.1,-0.3,-1.8c-0.1,0,-0.6,0.3,-0.7,0.4c0,-0.5,-0.1,-0.8,-0.2,-1.2c-0.2,-0.3,-0.4,-0.7,-0.6,-1.2c-0.2,0.1,-0.6,0.3,-0.8,0.5c-0.2,0.3,-0.3,0.5,-0.2,0.8c0,-0.1,0.1,-0.8,0.1,-0.9c0,-0.9,-0.1,-1.4,-0.4,-1.9c-0.3,-0.4,-0.6,-0.8,-0.9,-1.5c-0.1,0.1,-0.5,0.8,-0.5,1c-0.2,-0.6,-0.4,-1,-0.6,-1.4c-0.2,-0.3,-0.5,-0.7,-0.8,-1.2c-0.2,0.1,-0.4,0.5,-0.4,1c-0.2,0.4,-0.3,0.5,-0.2,0.9c0,-0.1,0,0.1,0,0c0,-0.2,0,-0.4,0,-0.7c0.1,-0.9,-0.2,-1.4,-0.6,-1.8c-0.2,-0.2,-0.5,-0.4,-0.7,-0.6l0.2,0c0,0,-0.3,-0.2,-0.7,-0.4c0,0,-0.2,-0.2,-0.3,-0.1C315.4,60.6,314.4,60,314.3,60c-0.1,-0.1,0.8,-0.2,0.8,-0.2c-0.1,0,-0.7,-0.9,-0.8,-0.9l3.8,-0.7c-0.1,-0.1,-3.8,-0.7,-3.8,-0.7c0,0,0.1,-0.1,0.3,-0.1c0.1,-0.1,0.3,-0.2,0.5,-0.2c0.1,0,0.4,0,0.5,0c0.2,-0.1,0.4,-0.2,0.6,-0.4c0.1,-0.1,0.2,-0.2,0.5,-0.4c0.3,-0.1,0.6,-0.3,1.2,-0.2c-0.5,-0.3,-0.8,-0.3,-1,-0.3c-0.4,0,-0.6,0.1,-1,0.2c-0.3,0.2,-0.5,0.2,-0.8,0.2c-0.2,0,-0.5,-0.1,-0.9,0c0,0,3.1,-2,3.1,-2l-3.8,0.8c0.3,-0.4,0.6,-0.6,0.9,-0.7c0.3,-0.2,0.6,-0.3,0.8,-0.9c0,-0.1,0.2,-0.3,0.4,-0.4c0.1,-0.2,0.4,-0.4,0.7,-0.6c-0.3,0,-0.6,0,-1,0.2c-0.4,0.1,-0.7,0.5,-1.1,0.8c-0.1,0.1,-0.3,0.2,-0.7,0.3C313.3,53.9,313,54,312.8,54L315,51l-3.1,2c0,-0.4,0.3,-0.6,0.5,-0.8c0.1,-0.2,0.3,-0.4,0.4,-0.8c0,-0.2,0,-0.4,0,-0.7c0.1,-0.3,0.3,-0.7,0.6,-1c-0.3,0.1,-0.7,0.3,-0.9,0.6c-0.2,0.2,-0.4,0.6,-0.6,1.1c-0.1,0.2,-0.2,0.3,-0.5,0.5c-0.2,0.2,-0.5,0.3,-0.6,0.6c0,0,0.9,-3.7,0.9,-3.7L309.4,52c0,0,0,-0.1,0,-0.2c0.1,-0.1,0.1,-0.3,0.1,-0.5c0.1,-0.3,0.2,-0.5,0.2,-0.7l0,-0.5c-0.1,-0.3,-0.2,-0.5,-0.2,-0.8c0,-0.4,0,-0.7,0.2,-1.1C309.2,48.6,309,49,309,49.4c-0.1,0.4,0,0.8,-0.2,1.1c-0.1,0.2,-0.1,0.5,-0.2,0.7c-0.1,0.3,-0.2,0.5,-0.3,0.6L307.7,48L307,51.8c-0.2,-0.3,-0.3,-0.6,-0.3,-0.8c0,-0.3,0,-0.6,-0.1,-0.8c-0.2,-0.4,-0.4,-0.5,-0.6,-0.7c-0.2,-0.2,-0.3,-0.6,-0.3,-1.3c-0.1,0.2,-0.3,0.5,-0.3,0.8c0,0.3,0.1,0.7,0.4,1.5c0,0,0,0.3,0,0.6l0,0.9l-2,-3.2l0.8,3.7c-0.2,0,-0.4,-0.3,-0.6,-0.6c-0.1,-0.2,-0.3,-0.6,-0.4,-0.7C303.3,51,303,50.9,302.7,50.8c-0.3,-0.3,-0.5,-0.5,-0.7,-1.1c-0.1,0.4,-0.1,0.7,0.1,1c0.1,0.3,0.4,0.6,0.8,1c0.1,0.1,0.2,0.4,0.3,0.8c0.2,0.3,0.3,0.6,0.4,0.8L300.4,51c0,0,2.2,3.1,2.3,3.1c-0.4,0.1,-0.6,-0.2,-1,-0.4c-0.3,-0.3,-0.6,-0.5,-1.3,-0.5c-0.4,0,-0.8,-0.2,-1,-0.4c-0.2,-0.1,-0.3,-0.3,-0.3,-0.2c0.2,0.7,0.6,1,1,1.1c0.4,0.2,0.7,0.3,0.9,0.6c0.1,0,0.3,0.2,0.5,0.3c0.1,0.3,0.3,0.4,0.4,0.5l-3.7,-0.8l3.3,2c-0.3,0.1,-0.7,0,-1,-0.2c-0.4,0,-0.8,-0.1,-1.1,0c-0.6,0.3,-1,0.3,-1.3,0.3c-0.3,-0.1,-0.5,-0.3,-0.5,-0.3c0.3,0.5,0.6,0.7,0.9,0.7c0.3,0.1,0.6,0.1,0.9,0.1c0.3,0,0.6,0,0.9,0.2c0.3,0.1,0.6,0.2,0.9,0.3l-3.8,0.8Z" class="g3_16" />
<path fill-rule="evenodd" d="M306.7,109.4c0,0,-0.1,-0.1,-0.1,-0.2c0,0.1,0.1,0.2,0.1,0.2Z" class="g3_16" />
<path fill-rule="evenodd" d="M308.8,111.7c0,-0.1,0,-0.2,0,-0.2c0,0,-0.1,0.4,-0.1,0.4c0,0,0,-0.1,0.1,-0.2Z" class="g3_16" />
<path fill-rule="evenodd" d="M308.1,112.6c0.2,-0.1,0.3,-0.1,0.3,-0.2c-0.1,0.1,-0.3,0.2,-0.4,0.2c0,0,0.1,0,0.1,0Z" class="g3_16" />
<path fill-rule="evenodd" d="M327.4,87.1c-0.1,0.3,-0.2,0.6,-0.7,1.1c-0.3,0.1,-0.5,0.2,-0.6,0.3c-0.1,0.1,-0.1,0.2,-0.2,0.3c0.1,-0.2,0.2,-0.4,0.2,-0.5c0.1,-0.2,0.2,-0.3,0.4,-0.5c-0.2,0.1,-0.3,0.2,-0.4,0.3c-0.1,0.1,-0.2,0.2,-0.3,0.4c-0.1,-0.1,-0.2,-0.1,-0.3,-0.1c-0.1,-0.1,-0.2,-0.2,-0.3,-0.4C325,87.7,325,87.4,325,87.2c0,-0.3,0.1,-0.6,0.1,-0.9c0.1,0.3,0.4,0.5,0.6,0.8c0.2,0.2,0.3,0.4,0.4,0.6c0.1,-0.3,0.4,-0.8,0.7,-1.1c0.4,-0.4,0.7,-0.7,0.9,-0.7c-0.2,0.5,-0.2,0.9,-0.3,1.2m-1.2,2c0,0,0.1,-0.1,0.2,-0.1c0,-0.1,0.1,-0.2,0.2,-0.2c0,0,-0.1,0.1,-0.2,0.2c0,0,-0.1,0.1,-0.2,0.1m-0.4,0.3c0,0.1,0,0.1,0.1,0.1c0,0.1,0,0.1,0,0.1l0,0.1l0,0.1c0,-0.1,-0.1,-0.1,-0.1,-0.2c0,0,0,-0.1,0,-0.2M327.4,89c-0.2,0.5,-0.2,0.8,-0.2,1.1c-0.1,0.4,-0.3,0.7,-0.6,1c-0.4,0.1,-0.5,0.2,-0.5,0.2c-0.1,0.1,-0.1,0.2,-0.2,0.2c0,-0.1,0.1,-0.3,0.1,-0.4c0.1,-0.2,0.2,-0.3,0.3,-0.4c-0.1,0,-0.2,0.1,-0.3,0.2c-0.1,0.1,-0.2,0.2,-0.3,0.4c0,-0.1,-0.2,-0.1,-0.3,-0.2c-0.1,-0.1,-0.2,-0.3,-0.3,-0.5c-0.2,-0.4,-0.2,-0.7,-0.2,-0.9c0,-0.3,0,-0.6,0,-1c0.2,0.4,0.4,0.7,0.6,1c0.2,0.3,0.4,0.6,0.4,0.8c0.1,-0.4,0.4,-0.7,0.7,-1c0.3,-0.3,0.6,-0.5,0.8,-0.5m-0.7,3.5c-0.1,0.3,-0.2,0.6,-0.7,0.8c-0.3,0,-0.5,0.1,-0.6,0.2c-0.1,0,-0.1,0.1,-0.2,0.2c0.1,-0.2,0.2,-0.4,0.2,-0.5c0.1,-0.1,0.3,-0.2,0.4,-0.3c-0.1,0,-0.3,0.1,-0.4,0.1c-0.1,0.1,-0.2,0.2,-0.3,0.3c0,-0.1,-0.1,-0.1,-0.2,-0.2c-0.1,-0.1,-0.2,-0.2,-0.3,-0.6c-0.2,-0.3,-0.2,-0.6,-0.1,-0.9c0,-0.2,0.1,-0.4,0.1,-0.8c0.2,0.4,0.4,0.7,0.6,1c0.1,0.3,0.2,0.6,0.2,0.9c0.2,-0.4,0.5,-0.7,0.9,-1c0.3,-0.2,0.7,-0.3,0.9,-0.3c-0.3,0.5,-0.4,0.8,-0.5,1.1m-1.5,1.7c0,0,0.1,-0.1,0.2,-0.2c0.1,0,0.2,0,0.3,-0.1C325.6,94,325.5,94,325.4,94c-0.1,0.1,-0.1,0.2,-0.2,0.2m0.7,1c-0.1,0.3,-0.4,0.6,-0.8,0.8c-0.3,0,-0.5,0,-0.6,0.1c-0.1,0.1,-0.1,0.1,-0.2,0.2c0.1,-0.2,0.2,-0.3,0.3,-0.4c0.1,-0.1,0.2,-0.3,0.3,-0.4c-0.2,0.1,-0.3,0.1,-0.4,0.2c-0.1,0.1,-0.2,0.2,-0.3,0.3c0,-0.1,-0.1,-0.1,-0.2,-0.2c-0.1,-0.1,-0.2,-0.3,-0.3,-0.6c-0.2,-0.4,-0.1,-0.6,-0.1,-0.9c0.1,-0.2,0.1,-0.5,0.2,-0.8c0.1,0.3,0.3,0.7,0.5,1c0.1,0.3,0.2,0.6,0.2,0.8c0.2,-0.3,0.6,-0.6,0.9,-0.8c0.4,-0.3,0.7,-0.5,0.9,-0.4c-0.3,0.4,-0.3,0.8,-0.4,1.1M325,97.5c-0.2,0.2,-0.4,0.4,-0.9,0.6c-0.4,0,-0.5,0,-0.6,0c-0.1,0.1,-0.2,0.1,-0.3,0.2c0.1,-0.1,0.2,-0.3,0.3,-0.4c0.1,-0.1,0.3,-0.2,0.5,-0.3c-0.2,0.1,-0.4,0.1,-0.5,0.1c-0.1,0.1,-0.2,0.2,-0.4,0.2c0,0,-0.1,-0.1,-0.2,-0.2c-0.1,-0.1,-0.1,-0.2,-0.2,-0.6c0,-0.3,0,-0.6,0.1,-0.8c0.1,-0.2,0.2,-0.4,0.3,-0.8c0.1,0.4,0.3,0.7,0.4,1c0.1,0.4,0.1,0.6,0.1,0.9c0.2,-0.3,0.7,-0.6,1,-0.7c0.5,-0.2,0.8,-0.3,1,-0.2c-0.3,0.3,-0.5,0.6,-0.6,1m-1.2,2.3c-0.2,0.3,-0.4,0.5,-0.9,0.7c-0.3,0,-0.5,0,-0.6,0c-0.1,0.1,-0.2,0.2,-0.3,0.2c0.1,-0.1,0.2,-0.2,0.3,-0.4c0.2,-0.1,0.3,-0.2,0.4,-0.3c-0.1,0.1,-0.2,0.1,-0.4,0.1c-0.1,0.1,-0.2,0.2,-0.3,0.3c-0.1,-0.1,-0.2,-0.2,-0.3,-0.2c0,-0.1,-0.2,-0.3,-0.2,-0.6c-0.1,-0.4,0,-0.6,0,-0.9c0.2,-0.2,0.3,-0.4,0.4,-0.8c0.1,0.4,0.2,0.7,0.3,1.1c0.1,0.3,0.3,0.5,0.2,0.8c0.2,-0.3,0.6,-0.6,1.1,-0.7c0.3,-0.3,0.8,-0.4,0.9,-0.3c-0.3,0.4,-0.4,0.7,-0.6,1m-1.3,2c-0.3,0.3,-0.6,0.5,-1.1,0.6c-0.4,-0.1,-0.5,0,-0.7,0c-0.1,0,-0.2,0.1,-0.3,0.1c0.1,-0.2,0.1,-0.3,0,-0.4c-0.1,-0.2,-0.2,-0.3,-0.2,-0.7c-0.1,-0.4,0,-0.6,0.2,-0.8c0.1,-0.3,0.3,-0.4,0.4,-0.7c0.1,0.4,0.2,0.8,0.3,1.2c0,0.2,0,0.4,-0.1,0.6c0.3,-0.2,0.7,-0.4,1,-0.6c0.6,-0.1,1.1,-0.2,1.3,-0.1c-0.5,0.3,-0.6,0.6,-0.8,0.8m-1.4,2.1c-0.2,0.3,-0.5,0.5,-1.1,0.6c-0.3,0,-0.5,0,-0.6,0.1c-0.1,0,-0.2,0,-0.3,0.1c0.2,-0.1,0.3,-0.2,0.4,-0.3c0.2,-0.2,0.3,-0.3,0.4,-0.3c-0.1,0,-0.2,0,-0.4,0.1c-0.1,0,-0.3,0.1,-0.4,0.2c-0.1,-0.1,-0.1,-0.2,-0.2,-0.3c-0.1,-0.1,-0.1,-0.2,-0.1,-0.5c-0.1,-0.4,0,-0.6,0.2,-0.8c0.1,-0.2,0.3,-0.4,0.4,-0.7c0.1,0.3,0.2,0.6,0.2,1c0.1,0.3,0.1,0.6,0.1,0.7c0.2,-0.2,0.7,-0.4,1.2,-0.6c0.4,-0.1,0.9,-0.2,1,-0.1c-0.4,0.3,-0.6,0.6,-0.8,0.8m-1.8,1.8c-0.3,0.2,-0.6,0.4,-1.2,0.4c-0.3,-0.1,-0.5,0,-0.7,0.1c-0.2,0.1,-0.3,0.2,-0.4,0.3c0,-0.2,0.1,-0.3,0.3,-0.4c0.1,-0.2,0.2,-0.3,0.3,-0.4c-0.1,0.1,-0.3,0.1,-0.4,0.2c-0.1,0.1,-0.2,0.1,-0.3,0.2l0,-0.5c0,-0.1,0,-0.3,0.1,-0.6c0,-0.3,0.2,-0.5,0.3,-0.7c0.2,-0.2,0.5,-0.4,0.6,-0.6c0,0.3,0,0.6,0.1,0.9c0,0.3,0,0.6,-0.1,0.8c0.2,-0.2,0.8,-0.4,1.3,-0.5c0.5,-0.1,0.9,-0.1,1.1,0c-0.5,0.3,-0.8,0.6,-1,0.8m0.1,-8.8c-1.2,-0.2,-2.9,-0.7,-4.7,-1.9c0.2,-0.2,0.3,-0.5,0.3,-0.8c0.1,-0.4,0.1,-0.8,0,-1.1c-0.1,-0.2,-0.1,-0.2,-0.1,-0.2c0,0.1,-0.1,0.3,-0.1,0.4c-0.2,0.4,-0.4,0.7,-0.5,0.9c-0.2,0.1,-0.3,0.2,-0.5,0.3c-0.6,-0.5,-0.9,-0.8,-1.2,-1c-0.4,-0.3,-0.8,-0.5,-1.5,-0.9c-0.5,-0.3,-0.8,-0.5,-1,-0.7c-0.2,-0.2,-0.4,-0.4,-0.6,-0.5c-0.5,0.2,-1.1,0.6,-1.7,0.8c-0.6,0.1,-1.2,0.2,-1.6,0c-0.3,-0.2,-0.1,-0.3,0.2,-0.6c0.4,-0.2,0.8,-0.5,1.1,-0.9c0.3,-0.3,0.5,-0.6,0.8,-0.7c0.3,-0.1,0.7,-0.1,1,0c0.8,0.1,1.4,0.4,2,0.7c0.7,0.2,1.4,0.6,2.6,1.1c1.3,0.1,2.5,0.4,3.7,0.7c1.2,0.3,2.4,0.6,3.8,1c0.2,0,0.5,0.1,0.7,0.1c0.3,0,0.6,0,0.7,0.1c-0.1,0.5,-0.3,1,-0.6,1.5c-0.2,0.5,-0.4,1,-0.8,1.8c0,0,-0.8,0.1,-2,-0.1m-6.6,-1.5l-0.1,0.3c-0.2,0.1,-0.3,0.2,-0.4,0.1c-0.1,0,-0.3,-0.2,-0.5,-0.5c-0.5,-0.7,-1,-1,-1.5,-1.2c-0.4,-0.2,-0.7,-0.4,-0.8,-0.9c-0.2,0.1,-0.2,0.2,-0.2,0.4c0,0.1,0.1,0.3,0.1,0.4c0.4,0.5,0.8,0.7,1.2,1c0.3,0.3,0.6,0.6,0.9,1.2c-0.1,0.1,-0.3,0.2,-0.4,0.3c-0.1,0,-0.3,0,-0.4,-0.1C310,95.7,309.4,95.3,309.1,95c-0.4,-0.3,-0.6,-0.5,-0.4,-0.8c-0.1,0,-0.2,0,-0.3,0.1c0,0.2,-0.1,0.3,0,0.4c0.1,0.5,0.4,0.8,0.7,1.2c0.4,0.3,0.7,0.5,0.9,1c-0.1,0.3,-0.5,0.4,-0.9,0.1c-0.4,-0.3,-0.9,-0.9,-1.2,-1.7l0,-0.1c-0.2,0.2,-0.3,0.4,-0.2,0.6c0,0.2,0.1,0.5,0.6,1.1c0.1,0.2,0.2,0.4,0.2,0.6c-0.1,0.1,-0.2,0.2,-0.6,0.1c0.1,0.1,0,0,-0.1,0c0,0,-0.1,0,0,0l0.1,0c0,0,-0.1,-0.1,-0.1,-0.1c0.1,-0.8,-0.1,-1.1,-0.5,-1.3c-0.3,-0.1,-0.6,0,-0.7,0c0.1,-0.3,-0.1,-0.6,-0.3,-0.8c-0.3,-0.2,-0.8,-0.2,-1.2,-0.1c0.1,-0.2,-0.2,-0.5,-0.5,-0.6c-0.4,-0.2,-1,-0.2,-1.6,0c-0.1,-0.2,-0.5,-0.4,-0.9,-0.4c-0.5,0,-1,0.2,-1.6,0.9c-0.9,0.1,-2.3,0.5,-3.6,0.9c-1.2,0.3,-2.5,0.6,-3.5,0.1c0,0,-0.4,-0.8,-0.7,-1.6c-0.2,-0.8,-0.6,-1.6,-0.6,-1.7c1.2,-0.1,3,-0.2,4.8,-0.4c1.8,-0.2,3.6,-0.5,4.5,-0.9c0.7,-0.4,1.7,-0.8,2.6,-1c0.9,-0.2,1.8,-0.2,2.1,0c0,0.2,-0.3,0.6,-0.5,0.9c-0.2,0.4,-0.4,0.7,-0.1,0.9c0.5,0.5,1.2,0.6,1.8,0.6c0.7,-0.1,1.4,-0.3,1.9,-0.7c0.6,0.6,1.4,0.9,2,1.3c0.7,0.4,1.3,0.8,1.7,1.6Zm-6.1,2.3c-0.2,0.2,-0.5,0.3,-0.7,0.4C305.8,98,305.6,98,305.5,97.8c0,-0.1,0.1,-0.3,0.7,-0.8c0,0,0.1,-0.1,0.3,-0.1c0.2,-0.1,0.4,0,0.5,0.4c0,0.1,-0.1,0.3,-0.3,0.4M305.2,97c-0.4,0.3,-0.7,0.5,-0.8,0.5c-0.1,0.1,-0.2,0.1,-0.3,0.1c-0.1,0,-0.1,-0.1,-0.2,-0.2c0,-0.1,0,-0.2,0,-0.3c0,0,0.1,-0.1,0.2,-0.1c-0.2,0,-0.1,0,0,-0.1c0.1,-0.1,0.3,-0.2,0.4,-0.3l0,-0.1l0.1,-0.1c0.2,-0.2,0.4,-0.3,0.6,-0.4c0.2,-0.1,0.4,0,0.5,0.3c0.1,0.2,-0.2,0.5,-0.5,0.7M303,96.8c-0.2,0,-0.3,0.1,-0.3,0.1c-0.2,-0.1,-0.3,-0.1,-0.3,-0.2c-0.1,-0.1,0,-0.3,0.1,-0.5c0.2,-0.1,0.3,-0.3,0.4,-0.4c0,0,0.1,-0.1,0.2,-0.2c0,0,0.1,0,0.1,0l0.1,-0.1l0.2,-0.1l0.4,0c0,0,0,0.1,0.1,0.2c0,0.1,-0.2,0.4,-0.4,0.7c-0.3,0.2,-0.5,0.5,-0.6,0.5m-1,-1.3c-0.1,0.2,-0.3,0.4,-0.4,0.4c-0.1,0.1,-0.2,0,-0.3,-0.1c-0.1,-0.1,-0.2,-0.3,-0.1,-0.3l0.1,-0.2l0.2,-0.2c0.1,0,0.3,-0.1,0.4,-0.1c0.1,-0.1,0.2,-0.1,0.3,0c0,0.1,-0.1,0.3,-0.2,0.5m-7.4,4.7c0.1,0.2,0.2,0.4,0.2,0.8c0,0.2,-0.1,0.4,-0.2,0.5c0,0.1,-0.1,0.2,-0.1,0.3c-0.1,-0.1,-0.3,-0.2,-0.4,-0.2c-0.1,0,-0.3,0,-0.5,-0.1c0.2,0.1,0.4,0.2,0.5,0.3c0.1,0,0.2,0.1,0.4,0.3c-0.1,0,-0.2,-0.1,-0.3,-0.2c-0.1,0,-0.3,0,-0.6,0c-0.6,0,-0.8,-0.2,-1,-0.4c-0.3,-0.3,-0.5,-0.6,-0.8,-0.9c0.1,0,0.5,0,0.9,0.1c0.5,0.1,0.9,0.3,1.2,0.5c-0.1,-0.1,0,-0.4,0.1,-0.7c0,-0.3,0.1,-0.7,0.1,-1c0.2,0.3,0.3,0.5,0.5,0.7m0.7,2.5c0.1,-0.3,0.2,-0.6,0.2,-1c0.2,0.4,0.3,0.6,0.5,0.8c0.1,0.2,0.2,0.4,0.1,0.8c0,0.2,0,0.4,-0.1,0.5c-0.1,0.1,-0.1,0.1,-0.2,0.2c-0.1,-0.1,-0.3,-0.1,-0.4,-0.2c-0.1,0,-0.3,0,-0.4,-0.1c0.1,0.1,0.3,0.2,0.4,0.3c0.1,0.1,0.3,0.2,0.4,0.3c-0.1,-0.1,-0.3,-0.2,-0.6,-0.2c-0.2,-0.1,-0.6,-0.2,-0.9,-0.2c-0.6,-0.1,-0.7,-0.2,-0.8,-0.5c0,-0.2,0,-0.4,-0.5,-0.7c0.2,-0.1,0.6,0,1.1,0.2c0.4,0.1,0.9,0.3,1.1,0.6c0,-0.2,0,-0.5,0.1,-0.8m1.7,1.7c0,-0.3,0,-0.6,0,-1c0.2,0.3,0.4,0.5,0.6,0.7c0.1,0.1,0.3,0.4,0.4,0.7c0,0.3,0,0.6,0,0.7c0.1,0.2,0.1,0.4,0.1,0.6c0,-0.1,-0.1,-0.2,-0.3,-0.3c-0.1,0,-0.2,-0.1,-0.3,-0.1c0.1,0,0.2,0.1,0.3,0.3c0.1,0.1,0.2,0.2,0.3,0.3c-0.1,0,-0.3,-0.1,-0.4,-0.2c-0.1,-0.1,-0.3,-0.1,-0.5,0c-0.7,-0.1,-1.1,-0.3,-1.4,-0.6c-0.3,-0.2,-0.6,-0.6,-1.1,-0.8c0.2,-0.1,0.6,-0.1,1.1,0c0.4,0.1,1,0.2,1.2,0.4c-0.1,-0.1,-0.1,-0.4,0,-0.7m-5.7,-4.9C291.1,99.3,291,99,290.7,98.6c0.2,-0.1,0.5,0,1,0.2c0.4,0.2,0.9,0.4,1.1,0.7c-0.1,-0.2,0,-0.5,0.1,-0.8c0.1,-0.3,0.3,-0.6,0.4,-1c0.1,0.4,0.2,0.6,0.3,0.8c0.1,0.2,0.1,0.5,0,0.8c0,0.3,-0.1,0.5,-0.2,0.6c0,0.1,-0.1,0.1,-0.2,0.2C293.1,100,293,99.9,292.8,99.9c-0.1,-0.1,-0.2,-0.1,-0.3,-0.2c0.1,0.1,0.2,0.2,0.3,0.3c0.1,0.1,0.2,0.2,0.4,0.4c-0.2,-0.1,-0.2,-0.2,-0.3,-0.2c-0.1,0,-0.3,-0.1,-0.6,-0.1c-0.5,-0.1,-0.8,-0.3,-1,-0.6m-1,-2.3c-0.2,-0.2,-0.4,-0.5,-0.7,-0.9c0.1,-0.1,0.6,0,1,0.1c0.4,0.2,0.8,0.4,1.1,0.7c-0.1,-0.2,0,-0.6,0.1,-0.9c0.1,-0.3,0.2,-0.6,0.3,-1c0.1,0.3,0.2,0.6,0.3,0.8c0.1,0.2,0.2,0.4,0.1,0.9c0,0.2,-0.1,0.4,-0.2,0.5c-0.1,0.1,-0.2,0.2,-0.2,0.2c-0.1,-0.1,-0.2,-0.2,-0.4,-0.2c-0.2,-0.1,-0.3,-0.1,-0.5,-0.2c0.2,0.1,0.3,0.2,0.5,0.3c0.1,0.1,0.2,0.3,0.3,0.4l0.1,0l0,0.1c-0.1,-0.1,-0.2,-0.1,-0.3,-0.2c-0.1,0,-0.3,-0.1,-0.6,0c-0.5,-0.2,-0.8,-0.3,-0.9,-0.6M289.4,95c-0.2,-0.3,-0.3,-0.6,-0.6,-1c0.2,-0.1,0.6,0,1,0.3c0.4,0.2,0.7,0.5,0.9,0.8c0,-0.3,0.2,-0.5,0.3,-0.8c0.1,-0.4,0.3,-0.7,0.5,-1c0,0.3,0.1,0.6,0.2,0.8c0,0.3,0,0.5,-0.1,0.9c-0.1,0.2,-0.2,0.4,-0.3,0.5c0,0.1,-0.1,0.1,-0.2,0.1c0,-0.1,-0.1,-0.1,-0.1,-0.2c-0.1,-0.1,-0.2,-0.2,-0.3,-0.3c0.1,0.2,0.2,0.3,0.2,0.4c0,0.2,0.1,0.4,0.1,0.6c-0.1,-0.1,-0.2,-0.2,-0.3,-0.2c-0.1,-0.1,-0.2,-0.1,-0.5,-0.1c-0.5,-0.3,-0.7,-0.5,-0.8,-0.8m-1,-2.8c-0.2,-0.2,-0.3,-0.6,-0.5,-1c0.1,0,0.6,0.1,0.9,0.3c0.4,0.2,0.8,0.5,0.9,0.8c0,-0.2,0.2,-0.4,0.4,-0.8c0.1,-0.3,0.3,-0.7,0.4,-1c0,0.4,0.1,0.6,0.2,0.9c0,0.2,0,0.5,-0.1,0.9c-0.1,0.3,-0.2,0.5,-0.3,0.6c-0.1,0,-0.2,0.1,-0.2,0.2C290,93,289.9,92.9,289.9,92.8c-0.1,-0.1,-0.2,-0.2,-0.3,-0.3c0.1,0.1,0.1,0.2,0.2,0.3l0,0.4c-0.1,-0.1,-0.1,-0.1,-0.2,-0.1C289.5,93,289.4,93,289.3,93c-0.5,-0.2,-0.7,-0.5,-0.9,-0.8m0.3,-2.8c0.2,0.3,0.5,0.6,0.6,0.9c0.1,-0.3,0.2,-0.5,0.4,-0.8c0.2,-0.3,0.5,-0.6,0.7,-1c-0.1,0.4,0,0.6,0,0.9c0,0.3,-0.1,0.5,-0.2,0.9c-0.2,0.3,-0.3,0.4,-0.4,0.5c-0.1,0.1,-0.2,0.1,-0.3,0.1c0,-0.1,0,-0.2,-0.1,-0.3c0,-0.1,-0.1,-0.1,-0.2,-0.2c0.1,0.1,0.1,0.2,0.1,0.4c0.1,0.1,0,0.4,0.1,0.5c-0.1,-0.1,-0.1,-0.1,-0.2,-0.2C289.1,91,289,90.9,288.7,90.8c-0.4,-0.2,-0.5,-0.5,-0.6,-0.8c0,-0.2,0,-0.5,-0.2,-1c0.2,0,0.5,0.1,0.8,0.4m-0.8,-2c-0.1,-0.2,-0.1,-0.5,-0.3,-1.4c0.2,0,0.5,0.3,0.8,0.5c0.3,0.3,0.6,0.7,0.7,1c0,-0.2,0.2,-0.4,0.4,-0.6c0.2,-0.3,0.4,-0.5,0.6,-0.8c0,0.4,0.1,0.6,0.1,0.8c0,0.3,0,0.6,-0.2,0.9c-0.1,0.3,-0.3,0.4,-0.4,0.4c-0.1,0,-0.2,0,-0.2,0.1c0,-0.1,-0.1,-0.2,-0.1,-0.3c-0.1,-0.1,-0.2,-0.3,-0.2,-0.4c0,0.1,0,0.3,0,0.4C289,88.1,289,88.3,289,88.4c-0.1,-0.1,-0.1,-0.1,-0.1,-0.2c0,-0.1,-0.1,-0.1,-0.3,-0.2c-0.5,-0.4,-0.6,-0.4,-0.7,-0.6m1.2,-0.6c-0.1,-0.1,-0.2,-0.3,-0.3,-0.5c-0.2,-0.2,-0.3,-0.4,-0.6,-0.5c0.3,0.1,0.5,0.3,0.6,0.5c0.1,0.1,0.2,0.3,0.3,0.4l0,0.1Zm-1.4,-3.5c0.2,0,0.5,0.2,0.8,0.6c0.3,0.3,0.5,0.7,0.6,1.1c0,-0.2,0.3,-0.4,0.5,-0.6c0.2,-0.2,0.5,-0.4,0.7,-0.7c0,0.4,0,0.6,0,0.8c0,0.3,-0.1,0.5,-0.4,0.8c-0.1,0.3,-0.3,0.3,-0.4,0.4c-0.1,0,-0.2,0,-0.2,0c-0.1,-0.1,-0.2,-0.2,-0.3,-0.4c-0.1,-0.1,-0.2,-0.2,-0.3,-0.3c0.1,0.1,0.2,0.3,0.2,0.5c0.1,0.1,0.1,0.3,0.2,0.5C289,85.9,289,85.8,288.9,85.7c-0.1,-0.1,-0.2,-0.2,-0.4,-0.4c-0.5,-0.4,-0.6,-0.7,-0.6,-1c-0.1,-0.3,-0.1,-0.6,-0.2,-1m1.6,-0.6c-0.1,-0.1,-0.2,-0.2,-0.3,-0.3c-0.1,-0.2,-0.2,-0.3,-0.3,-0.4c0.1,0.1,0.2,0.3,0.2,0.5c0.1,0.1,0.1,0.3,0.1,0.4c0,0,0,-0.1,-0.1,-0.2c-0.1,-0.1,-0.2,-0.2,-0.5,-0.3c-0.4,-0.5,-0.5,-0.7,-0.5,-1c-0.1,-0.3,-0.1,-0.6,-0.2,-1.1c0.2,0.1,0.5,0.3,0.8,0.6c0.3,0.4,0.5,0.8,0.6,1.1c0,-0.2,0.3,-0.4,0.5,-0.6c0.2,-0.2,0.5,-0.4,0.8,-0.7c-0.1,0.3,-0.1,0.6,-0.1,0.9c0,0.2,-0.1,0.4,-0.4,0.7c-0.1,0.2,-0.3,0.3,-0.4,0.3c-0.1,0.1,-0.2,0.1,-0.2,0.1m-1.2,-3.8c0.1,-0.3,0.2,-0.7,0.1,-1.1c0.2,0,0.5,0.3,0.7,0.7c0.2,0.4,0.4,0.9,0.4,1.2c0,-0.2,0.3,-0.3,0.5,-0.5c0.4,-0.2,0.7,-0.4,0.9,-0.6c-0.1,0.3,-0.1,0.6,-0.2,0.8c-0.1,0.3,-0.2,0.5,-0.4,0.7c-0.3,0.2,-0.4,0.3,-0.6,0.3l-0.2,0c-0.1,-0.1,-0.2,-0.2,-0.2,-0.3C289,80,288.9,79.8,288.8,79.7c0.1,0.1,0.1,0.3,0.2,0.5l0,0.4c-0.1,-0.1,-0.1,-0.1,-0.1,-0.2c-0.1,-0.1,-0.2,-0.2,-0.4,-0.4c-0.3,-0.5,-0.4,-0.8,-0.4,-1.1m1.2,-1.6c-0.4,-0.4,-0.4,-0.7,-0.4,-1c0,-0.3,0.1,-0.7,0.1,-1.1c0.2,0,0.4,0.3,0.6,0.7c0.2,0.4,0.4,0.9,0.4,1.2c0.1,-0.2,0.3,-0.4,0.6,-0.6c0.3,-0.2,0.6,-0.3,0.9,-0.6c-0.1,0.3,-0.2,0.6,-0.2,0.9c-0.1,0.2,-0.2,0.4,-0.5,0.6c-0.2,0.3,-0.4,0.4,-0.5,0.4c-0.1,0.1,-0.2,0.1,-0.2,0.1c-0.1,-0.1,-0.2,-0.2,-0.3,-0.4c0,-0.2,-0.1,-0.3,-0.2,-0.4c0.1,0.1,0.1,0.3,0.1,0.4c0,0.2,0,0.3,0,0.5c-0.1,-0.1,0,-0.2,-0.1,-0.3c0,-0.1,-0.1,-0.2,-0.3,-0.4m0.3,-3.1c0.1,-0.3,0.3,-0.7,0.3,-1.1c0.2,0,0.4,0.3,0.5,0.8c0.1,0.4,0.2,0.8,0.1,1.1c0.2,-0.1,0.5,-0.2,0.8,-0.4c0.3,-0.1,0.7,-0.3,1,-0.5c-0.2,0.4,-0.3,0.6,-0.4,0.8c-0.1,0.3,-0.3,0.5,-0.6,0.7c-0.3,0.1,-0.4,0.2,-0.6,0.2l-0.3,0c0,-0.2,0,-0.3,-0.1,-0.4c0,-0.1,-0.1,-0.2,-0.1,-0.4l0,0.5c0,0.1,0,0.3,-0.1,0.5c0,-0.2,0,-0.2,0,-0.3c-0.1,-0.1,-0.2,-0.2,-0.4,-0.4c-0.2,-0.5,-0.2,-0.8,-0.1,-1.1m1.3,-1.7c-0.2,-0.4,-0.2,-0.7,-0.1,-1c0.1,-0.4,0.3,-0.7,0.3,-1.2c0.2,0.1,0.3,0.4,0.4,0.8c0.2,0.4,0.3,0.9,0.2,1.2c0.2,-0.1,0.4,-0.3,0.8,-0.5c0.3,-0.1,0.6,-0.3,1,-0.5c-0.2,0.3,-0.3,0.6,-0.5,0.8c-0.1,0.2,-0.2,0.4,-0.5,0.7C292.2,73,292,73,291.9,73c-0.1,0.1,-0.2,0,-0.3,0.1c-0.1,-0.2,-0.1,-0.3,-0.1,-0.5c-0.1,-0.1,-0.1,-0.2,-0.2,-0.3c0,0.1,0.1,0.3,0,0.4c0,0.2,0,0.4,0,0.5c0,-0.1,0,-0.1,-0.1,-0.2c0,-0.1,-0.1,-0.3,-0.3,-0.5m1,-3.1c0.1,-0.3,0.3,-0.5,0.5,-1c0.1,0,0.3,0.4,0.3,0.8c0.1,0.4,0,0.9,-0.1,1.2c0.2,-0.2,0.5,-0.3,0.8,-0.4c0.4,-0.1,0.8,-0.2,1.1,-0.4c-0.2,0.3,-0.4,0.5,-0.5,0.7c-0.2,0.3,-0.4,0.5,-0.7,0.6c-0.4,0.2,-0.5,0.2,-0.6,0.2c-0.2,0,-0.2,0,-0.4,0l0,-0.4c0,-0.1,0,-0.2,-0.1,-0.4c0,0.2,0,0.3,0,0.5c-0.1,0.1,-0.1,0.3,-0.2,0.5L292,71c0,-0.1,0,-0.3,-0.2,-0.5c-0.1,-0.5,-0.1,-0.8,0.1,-1.1m1.8,-2.8c0.1,-0.3,0.3,-0.5,0.5,-1c0.1,0.2,0.2,0.6,0.2,1.1c0,0.4,-0.1,0.9,-0.2,1.2c0.2,-0.1,0.4,-0.2,0.8,-0.2c0.2,0,0.6,0,0.9,0c-0.2,0.2,-0.4,0.4,-0.6,0.6c-0.1,0.2,-0.3,0.3,-0.7,0.4c-0.2,0.1,-0.4,0.1,-0.5,0c-0.1,0,-0.2,-0.1,-0.3,-0.1c0.1,-0.1,0.1,-0.3,0.1,-0.4l0,-0.5c0,0.2,-0.1,0.3,-0.1,0.5c-0.1,0.2,-0.2,0.3,-0.3,0.5c0.1,-0.1,0.1,-0.2,0.1,-0.3c0,-0.2,0,-0.4,-0.1,-0.6c0,-0.7,0.1,-0.9,0.2,-1.2m1.4,-0.8c0,-0.6,0.1,-0.9,0.3,-1.1c0.1,-0.2,0.4,-0.4,0.6,-0.9c0.1,0.2,0.1,0.6,0.1,1c0,0.5,-0.1,1,-0.3,1.2c0.2,-0.1,0.4,-0.1,0.8,0c0.3,0,0.6,0,1,0c-0.3,0.2,-0.5,0.4,-0.7,0.6c-0.2,0.1,-0.4,0.2,-0.8,0.3c-0.3,0,-0.4,0,-0.6,-0.1c-0.1,-0.1,-0.1,-0.1,-0.2,-0.1l0.1,-0.5l0.1,-0.3c-0.1,0.1,-0.2,0.3,-0.3,0.4c0,0.1,-0.1,0.2,-0.1,0.3c0,-0.1,0,-0.2,0,-0.3c0.1,-0.1,0,-0.3,0,-0.5M297,64.2c0,-0.6,0.3,-0.9,0.5,-1.1c0.2,-0.2,0.5,-0.4,0.8,-0.8c0.1,0.1,0,0.5,-0.1,0.9c-0.1,0.5,-0.2,1,-0.5,1.3c0.3,-0.1,0.5,-0.1,0.8,-0.1c0.4,0.1,0.7,0.1,1.1,0.2c-0.4,0.1,-0.5,0.3,-0.7,0.5c-0.3,0.1,-0.5,0.2,-0.8,0.2c-0.3,0,-0.5,0,-0.6,-0.1c-0.1,0,-0.1,-0.1,-0.2,-0.1c0,-0.2,0.1,-0.3,0.1,-0.5c0,-0.1,0,-0.2,0.1,-0.4c-0.1,0.2,-0.2,0.3,-0.2,0.4c-0.1,0.2,-0.3,0.3,-0.3,0.5c0,-0.1,0,-0.3,0,-0.4c0.1,-0.1,0.1,-0.2,0,-0.5m1.6,-0.8c0.1,-0.1,0.1,-0.3,0.1,-0.6c0.1,-0.5,0.3,-0.7,0.6,-0.9c0.3,-0.2,0.6,-0.4,1,-0.7c0,0.2,0,0.5,-0.3,1c-0.1,0.4,-0.3,0.8,-0.6,1c0.2,0,0.5,0,0.8,0.1c0.3,0.2,0.7,0.3,1,0.3c-0.3,0.1,-0.5,0.3,-0.7,0.4c-0.3,0.1,-0.5,0.2,-0.9,0.1C299.3,64,299.1,64,299.1,63.9c-0.1,-0.1,-0.2,-0.2,-0.3,-0.2c0.1,-0.1,0.2,-0.2,0.2,-0.4c0.1,-0.1,0.1,-0.3,0.1,-0.4c0,0.1,-0.1,0.3,-0.2,0.4c-0.1,0.1,-0.3,0.3,-0.4,0.4c0,-0.1,0.1,-0.2,0.1,-0.3M301,62c0.1,-0.1,0.1,-0.2,0.2,-0.5c0.2,-0.7,0.5,-0.9,0.9,-1c0.3,-0.2,0.7,-0.2,1.1,-0.6c0.1,0.2,-0.1,0.6,-0.4,1c-0.3,0.5,-0.7,0.9,-1.1,1.1c0.2,0,0.5,0.1,0.7,0.2c0.3,0.2,0.6,0.4,0.9,0.5c-0.3,0,-0.6,0.1,-0.9,0.2c-0.2,0.1,-0.4,0.1,-0.8,0c-0.2,-0.1,-0.3,-0.2,-0.4,-0.3c-0.1,-0.1,-0.1,-0.2,-0.1,-0.2c0.1,-0.1,0.2,-0.2,0.2,-0.4c0.1,-0.1,0.2,-0.2,0.3,-0.4c-0.1,0.1,-0.3,0.3,-0.4,0.4c-0.1,0.1,-0.3,0.2,-0.5,0.3c0.1,-0.1,0.2,-0.2,0.3,-0.3m2.5,-0.8c0.1,-0.1,0.2,-0.3,0.3,-0.6c0.3,-0.5,0.6,-0.6,0.9,-0.7c0.3,-0.1,0.6,-0.2,1.1,-0.4c0,0.2,-0.2,0.5,-0.5,0.9c-0.4,0.3,-0.7,0.7,-1,0.8c0.2,0,0.4,0.2,0.6,0.3c0.3,0.2,0.6,0.4,0.8,0.6c-0.3,0,-0.5,0.1,-0.8,0.1c-0.2,0.1,-0.5,0.1,-0.8,-0.1c-0.3,-0.1,-0.4,-0.2,-0.4,-0.3c-0.1,-0.1,-0.1,-0.2,-0.2,-0.3c0.2,-0.1,0.3,-0.2,0.4,-0.3c0,-0.1,0.1,-0.3,0.2,-0.4c-0.1,0.1,-0.2,0.3,-0.4,0.4c-0.1,0.1,-0.3,0.1,-0.5,0.2c0.1,-0.1,0.2,-0.1,0.3,-0.2M306,60.8c0.1,-0.1,0.2,-0.2,0.3,-0.5c0.3,-0.5,0.6,-0.6,0.9,-0.7c0.3,-0.1,0.6,-0.2,1.1,-0.4c0,0.1,-0.3,0.5,-0.6,0.9c-0.3,0.4,-0.7,0.7,-1,0.8c0.2,0,0.4,0.2,0.7,0.4c0.3,0.2,0.5,0.4,0.8,0.7c-0.4,-0.1,-0.6,0,-0.9,0c-0.2,0,-0.4,0,-0.8,-0.2c-0.2,-0.2,-0.3,-0.3,-0.4,-0.4c0,-0.1,0,-0.2,-0.1,-0.2c0.1,-0.1,0.2,-0.2,0.3,-0.3c0.1,-0.1,0.2,-0.2,0.3,-0.4c-0.1,0.1,-0.2,0.2,-0.4,0.3c-0.1,0.1,-0.3,0.1,-0.5,0.2c0.1,-0.1,0.2,-0.1,0.3,-0.2M308.6,60c0.5,-0.3,0.7,-0.4,1,-0.4c0.4,-0.1,0.7,0,1.2,-0.1c0,0.2,-0.4,0.5,-0.8,0.8c-0.4,0.2,-0.7,0.4,-1,0.4c0.2,0.1,0.3,0.2,0.5,0.4c0.2,0.3,0.5,0.6,0.8,1C310,62,309.7,62,309.5,61.9c-0.2,0,-0.5,0,-0.8,-0.3c-0.3,-0.3,-0.3,-0.5,-0.4,-0.6c0,-0.2,0,-0.3,-0.3,-0.3c0.1,-0.1,0.2,-0.1,0.3,-0.2c0.1,-0.1,0.2,-0.2,0.3,-0.5m2.7,0.2c0.2,-0.2,0.4,-0.5,0.8,-0.5c0.4,0,0.8,0.1,1,0.2c0.2,0.1,0.5,0.2,0.8,0.1c0.1,0.1,-1,0.7,-1.7,0.9c-0.7,0.2,-1.5,0.3,-1.7,-0.1c0.2,0,0.3,0,0.5,0c0.1,0,0.2,-0.1,0.4,-0.2c-0.1,0.1,-0.3,0.1,-0.4,0.1c-0.1,0,-0.2,0,-0.3,-0.1c0.2,-0.1,0.4,-0.3,0.6,-0.4m2.1,2.1c-0.2,0,-0.4,0.1,-0.8,0.3c-0.4,0,-0.9,-0.2,-1.2,-0.4c-0.3,-0.1,-0.5,-0.4,-0.4,-0.5l0.1,0l0.1,0c0.2,0.2,0.5,0.2,0.8,0.3c0.3,0,0.6,0,0.8,-0.1c-0.2,0,-0.3,0,-0.5,0c-0.1,-0.1,-0.3,-0.2,-0.4,-0.2c0.1,-0.1,0.3,-0.1,0.5,-0.2c0.2,-0.1,0.4,-0.1,0.7,-0.2c0.4,0,0.5,0.2,0.5,0.4c0.2,0.2,0.2,0.4,0.4,0.5c-0.2,-0.1,-0.4,0,-0.6,0.1m0.7,-1.6c0.4,0.3,0.7,0.4,1,0.6c0.3,0.1,0.5,0.3,0.7,0.9l0,0.3l0,0.2c-0.1,-0.1,-0.2,-0.2,-0.2,-0.3c-0.1,-0.1,-0.2,-0.2,-0.2,-0.3c0.1,0.3,0.1,0.5,0.1,0.6c0.1,0.2,0.1,0.2,0.2,0.4c0,0,-0.1,0.1,-0.1,0.2c-0.1,0,-0.2,0.2,-0.6,0.2c-0.6,0.1,-0.8,0,-1,-0.2c-0.2,-0.1,-0.4,-0.2,-0.8,-0.3c0.4,-0.1,0.7,-0.2,1,-0.3c0.4,-0.1,0.7,-0.1,0.9,-0.1c-0.3,-0.3,-0.5,-0.6,-0.8,-1.1c-0.1,-0.3,-0.2,-0.7,-0.2,-0.8m2.2,3.3c0.3,0,0.6,-0.1,0.8,0c-0.2,-0.2,-0.4,-0.8,-0.5,-1.2c-0.1,-0.4,-0.1,-0.8,0,-1c0.3,0.4,0.5,0.6,0.8,0.9c0.2,0.2,0.4,0.5,0.4,1c0,0.3,0,0.5,0,0.7c0,0.1,0.1,0.1,0.1,0.2c-0.1,-0.1,-0.3,-0.2,-0.3,-0.4c-0.1,-0.1,-0.2,-0.3,-0.2,-0.4c0,0.1,0,0.2,0,0.4c0,0.2,0.1,0.3,0.1,0.4c0,0.1,-0.1,0.1,-0.2,0.2c-0.1,0,-0.2,0.1,-0.6,0.1c-0.3,0,-0.5,-0.1,-0.8,-0.3c-0.2,-0.1,-0.3,-0.3,-0.7,-0.4c0.4,0,0.7,-0.2,1.1,-0.2m2,1.9c0.4,0,0.6,0,0.8,0.1c-0.2,-0.3,-0.3,-0.8,-0.3,-1.2c-0.1,-0.4,0,-0.8,0.1,-1c0.2,0.5,0.5,0.7,0.6,0.8c0.2,0.2,0.3,0.5,0.3,1.1c-0.1,0.3,-0.1,0.5,0,0.6c0,0.1,0,0.2,0,0.4c-0.1,-0.2,-0.1,-0.4,-0.2,-0.5c-0.1,-0.2,-0.2,-0.3,-0.2,-0.5l0,0.5c0.1,0.1,0.1,0.3,0.2,0.4c-0.1,0.1,-0.2,0.1,-0.3,0.2c-0.1,0,-0.3,0.1,-0.5,0.1c-0.4,-0.1,-0.6,-0.2,-0.8,-0.4c-0.2,-0.2,-0.4,-0.3,-0.7,-0.5c0.3,0,0.7,-0.1,1,-0.1m2.4,1.8c-0.1,-0.3,-0.2,-0.8,-0.2,-1.3c0,-0.4,0.1,-0.8,0.2,-0.9c0.2,0.5,0.4,0.7,0.5,0.9c0.2,0.3,0.2,0.6,0.2,1.2c-0.1,0.3,-0.1,0.4,-0.1,0.6c0,0.1,0.1,0.2,0.1,0.3c-0.1,-0.1,-0.2,-0.3,-0.2,-0.5c-0.1,-0.2,-0.1,-0.3,-0.2,-0.5l0,0.5c0,0.2,0.1,0.3,0.1,0.4c-0.1,0.1,-0.1,0.1,-0.2,0.2c-0.2,0,-0.3,0,-0.6,0c-0.4,-0.1,-0.6,-0.3,-0.7,-0.5c-0.2,-0.2,-0.3,-0.4,-0.6,-0.6c0.3,0,0.7,0,0.9,0.1c0.4,0,0.6,0,0.8,0.1m1.8,1.5c0,-0.3,0.3,0.3,0.5,0.3c0.1,0.5,-0.1,-0.5,0.1,-0.2c0.1,0.3,0.2,0.6,0,1.1c-0.1,0.2,-0.2,0.3,-0.2,0.4c0,0.1,0,0.2,0,0.3c-0.1,-0.1,-0.1,-0.3,-0.1,-0.4c-0.1,-0.2,-0.1,-0.4,-0.1,-0.5c0,0.1,-0.1,0.3,-0.1,0.4c0,0.1,0,0.2,0,0.4l-0.3,0c-0.2,0,-0.3,0,-0.6,-0.2c-0.4,-0.2,-0.6,-0.3,-0.8,-0.6c-0.1,-0.2,-0.3,-0.4,-0.5,-0.7c0.3,0.1,0.7,0.3,1.1,0.4c0.3,0.1,0.6,0.2,0.8,0.4c-0.1,-0.4,0.1,-0.7,0.2,-1.1m1.3,1c0.1,0.5,0.3,0.8,0.4,1.2c0.1,0.3,0.1,0.6,-0.1,1.1c-0.3,0.1,-0.4,0.2,-0.4,0.4c0,0.1,0,0.2,0,0.3c-0.1,-0.2,-0.1,-0.3,-0.1,-0.5c0,-0.2,0,-0.3,0,-0.5c0,0.1,-0.1,0.2,-0.1,0.4c-0.1,0.1,-0.1,0.3,-0.1,0.4L323,73c-0.1,-0.1,-0.3,-0.1,-0.5,-0.3C322.1,72.5,322,72.3,321.9,72c-0.1,-0.2,-0.2,-0.5,-0.4,-0.8c0.3,0.2,0.7,0.4,1,0.5c0.3,0.2,0.6,0.4,0.8,0.5c-0.2,-0.3,0,-0.8,0.1,-1.2c0.1,-0.4,0.3,-0.7,0.4,-0.8m0.8,4.8c-0.1,-0.3,0,-0.8,0.1,-1.2c0.2,-0.4,0.4,-0.7,0.5,-0.8c0.1,0.5,0.2,0.8,0.3,1.1c0.2,0.3,0.2,0.6,-0.1,1.1c-0.2,0.2,-0.3,0.3,-0.3,0.4c0,0.1,0,0.2,0,0.4C325,75.8,325,75.6,325,75.5c0,-0.2,0,-0.3,0,-0.5c0,0.1,-0.1,0.3,-0.1,0.4c-0.1,0.1,-0.2,0.2,-0.2,0.3c0,0,-0.1,0.1,-0.3,0c-0.1,0,-0.2,0,-0.5,-0.2c-0.4,-0.2,-0.5,-0.4,-0.6,-0.6c-0.2,-0.3,-0.3,-0.5,-0.5,-0.8c0.3,0.2,0.7,0.3,1.1,0.5c0.3,0.1,0.6,0.2,0.7,0.4m1.5,0.1c0,0.5,0.1,0.9,0.1,1.2c0.1,0.3,0,0.6,-0.3,1c-0.2,0.2,-0.3,0.4,-0.4,0.5c0,0,0,0.1,-0.1,0.2l0,-0.4c0,-0.2,0.1,-0.4,0.1,-0.5c0,0.1,-0.1,0.2,-0.2,0.3c0,0.2,-0.1,0.3,-0.1,0.4c-0.1,0,-0.2,0,-0.3,0c-0.2,-0.1,-0.3,-0.1,-0.6,-0.4C324.1,77.2,324,77,323.8,76.7c0,-0.2,0,-0.5,-0.2,-0.8c0.3,0.2,0.6,0.4,0.9,0.6c0.3,0.2,0.6,0.4,0.7,0.6c0,-0.4,0.1,-0.8,0.3,-1.3c0.3,-0.3,0.5,-0.6,0.6,-0.7m-17.5,9.8l15.7,0c0,0.2,-0.1,1.7,-0.3,3.2c-0.2,1.4,-0.5,3.2,-0.9,4.6c-1.6,0,-3.1,-0.5,-4.5,-0.9c-1.5,-0.4,-2.9,-0.9,-4.2,-0.8c-0.8,-0.2,-1.7,-0.7,-2.7,-1.1c-0.9,-0.5,-2.1,-0.9,-3.2,-0.8ZM322.8,73.4c0,0.1,0.1,0.1,0.2,0.2c0,0.1,0.1,0.1,0.2,0.1c-0.1,0,-0.2,0,-0.2,0c-0.1,-0.1,-0.1,-0.1,-0.2,-0.1c0,-0.1,0,-0.1,0,-0.1ZM291,87.4c-0.1,-1.4,0,-2.5,0,-2.5c-0.1,0,15.8,-0.1,15.8,-0.1c0,0,0.1,4.9,0.1,5c-0.4,-0.1,-1.1,-0.1,-1.6,-0.1c-0.5,0,-1,0,-1.6,0c-1.5,0.3,-2,0.8,-3.3,1.2c-1.4,0.5,-3.6,0.8,-8.6,1c-0.5,-1.6,-0.7,-3.2,-0.8,-4.5m-0.4,7l-0.1,-0.1c0,-0.4,0,-0.6,0.1,-0.8c0.1,-0.3,0.3,-0.6,0.5,-1.2c0,0.1,0,0.2,0.1,0.2c0,0.2,0,0.2,0,0.3c-0.1,0.2,-0.3,0.5,-0.5,0.8c-0.1,0.3,-0.1,0.6,-0.1,0.8M303.9,70.5c0.3,0.6,1,0.9,1,0.9c-1.6,1.6,-2.4,3.1,-2.4,3.2c0,-0.1,-1.1,1.3,-0.4,3.5c0.4,1.1,2.1,1.3,2.6,1.3c1.3,0,2.2,0.1,2.2,0.1l0,4.6L291,84c0,0,0.4,-18.1,14.5,-21.1c1.3,-0.2,6,-0.7,9.9,2.3c0.1,0.1,0.1,0.2,0.1,0.3l0.1,0c8.4,5.8,8.7,18.5,8.7,18.5l-15.7,0.1l0,-0.5l0,-4.1c0,0,1.6,0.2,3,0.1c1.2,-0.1,1.8,0,2.2,-1c0.3,-0.9,0.8,-1.5,0.2,-2.3c-0.1,-0.1,-0.6,-0.6,-1.2,-2.2c-0.7,-1.8,0.3,-6.3,-5.1,-6.8c-0.8,0.1,-1.2,0.1,-1.7,0.3c-1.9,0.7,-2.3,2.1,-2.1,2.9m20.5,23.4c-0.1,-0.3,-0.3,-0.6,-0.5,-0.9c0,0,0.1,-0.1,0.1,-0.2c0,-0.1,0,-0.2,0.1,-0.3l0,0.1c0.1,0.6,0.3,0.9,0.4,1.2c0.1,0.2,0.2,0.5,0.1,0.9c0,-0.2,-0.1,-0.5,-0.2,-0.8m1.5,-14.1c0.1,-0.3,0.2,-0.8,0.4,-1.2c0.2,-0.4,0.5,-0.7,0.6,-0.7c0,0.5,0.1,0.8,0.1,1.1c0.1,0.3,0,0.6,-0.3,1.1c-0.2,0.2,-0.3,0.3,-0.4,0.4c-0.1,0.1,-0.1,0.2,-0.1,0.3c0,-0.2,0,-0.3,0,-0.5c0,-0.1,0.1,-0.3,0.2,-0.5c-0.2,0.2,-0.2,0.3,-0.3,0.4c-0.1,0.1,0.3,-0.7,0.3,-0.6c-0.2,0,-0.6,1,-0.7,0.9c-0.2,0,-0.4,0,-0.6,-0.2c-0.3,-0.3,-0.4,-0.5,-0.5,-0.7c0,-0.3,-0.1,-0.6,-0.2,-0.9c0.3,0.2,0.6,0.5,0.9,0.6c0.3,0.2,0.6,0.4,0.6,0.5m1.6,0.6c-0.2,0.5,-0.1,0.7,-0.2,1c0,0.3,-0.1,0.6,-0.5,1.1c-0.3,0.1,-0.4,0.2,-0.5,0.3c-0.1,0.1,-0.1,0.2,-0.2,0.3c0.1,-0.2,0.1,-0.4,0.1,-0.5c0.1,-0.2,0.2,-0.4,0.3,-0.5c-0.1,0.1,-0.3,0.3,-0.3,0.4c-0.1,0.1,-0.2,0.2,-0.3,0.3c0,0,-0.1,0,-0.2,-0.1c-0.2,0,-0.3,-0.1,-0.5,-0.3c-0.2,-0.3,-0.3,-0.5,-0.3,-0.8c0,-0.3,0,-0.5,-0.1,-0.8c0.2,0.2,0.5,0.4,0.7,0.6c0.3,0.3,0.5,0.5,0.6,0.7c0,-0.4,0.3,-0.8,0.6,-1.2c0.2,-0.4,0.6,-0.4,0.8,-0.5M326.2,85c0.2,-0.3,0.4,-0.8,0.7,-1.2c0.3,-0.4,0.5,-0.7,0.7,-0.7c-0.1,0.5,-0.1,0.9,-0.1,1.2c0,0.3,-0.1,0.6,-0.6,1.1c-0.2,0.2,-0.3,0.3,-0.4,0.4c-0.1,0.1,-0.1,0.1,-0.2,0.2c0.1,-0.1,0.1,-0.3,0.2,-0.4c0,-0.2,0.1,-0.4,0.2,-0.5c-0.1,0.1,-0.2,0.2,-0.3,0.3c-0.2,0.2,-0.2,0.3,-0.3,0.4c-0.1,0,-0.2,0,-0.3,0c-0.1,-0.1,-0.3,-0.2,-0.4,-0.4c-0.2,-0.3,-0.3,-0.5,-0.3,-0.8c0,-0.2,0,-0.5,-0.1,-0.9c0.2,0.3,0.5,0.5,0.8,0.7c0.2,0.2,0.4,0.4,0.4,0.6Z" class="g9_16" />
<path fill-rule="evenodd" d="M307.3,112.6c0.2,0,0.2,0,0.3,0c-0.2,0,-0.4,-0.1,-0.5,-0.1c0.1,0,0.1,0.1,0.2,0.1Z" class="g3_16" />
<path d="M307.5,112.5l0,-1" class="g11_16" />
<path fill-rule="evenodd" d="M288.9,80.4c0,0.1,0,0.1,0.1,0.2l0,-0.4c-0.1,-0.2,-0.1,-0.4,-0.2,-0.5c0.1,0.1,0.2,0.3,0.3,0.4c0,0.1,0.1,0.2,0.2,0.3l0.2,0c0.2,0,0.3,-0.1,0.6,-0.3c0.2,-0.2,0.3,-0.4,0.4,-0.7c0.1,-0.2,0.1,-0.5,0.2,-0.8c-0.2,0.2,-0.5,0.4,-0.9,0.6c-0.2,0.2,-0.5,0.3,-0.5,0.5c0,-0.3,-0.2,-0.8,-0.4,-1.2c-0.2,-0.4,-0.5,-0.7,-0.7,-0.7c0.1,0.4,0,0.8,-0.1,1.1c0,0.3,0.1,0.6,0.4,1.1c0.2,0.2,0.3,0.3,0.4,0.4Z" class="g12_16" />
<path fill-rule="evenodd" d="M289.9,82.3c0.3,-0.3,0.4,-0.5,0.4,-0.7c0,-0.3,0,-0.6,0.1,-0.9c-0.3,0.3,-0.6,0.5,-0.8,0.7c-0.2,0.2,-0.5,0.4,-0.5,0.6c-0.1,-0.3,-0.3,-0.7,-0.6,-1.1c-0.3,-0.3,-0.6,-0.5,-0.8,-0.6c0.1,0.5,0.1,0.8,0.2,1.1c0,0.3,0.1,0.5,0.5,1c0.3,0.1,0.4,0.2,0.5,0.3c0.1,0.1,0.1,0.2,0.1,0.2c0,-0.1,0,-0.3,-0.1,-0.4c0,-0.2,-0.1,-0.4,-0.2,-0.5c0.1,0.1,0.2,0.2,0.3,0.4c0.1,0.1,0.2,0.2,0.3,0.3c0,0,0.1,0,0.2,-0.1c0.1,0,0.3,-0.1,0.4,-0.3Z" class="g12_16" />
<path fill-rule="evenodd" d="M290,75.7c0,0.1,0.1,0.4,0.2,0.5c0,-0.2,0,-0.6,0,-0.7l0,-0.5c0,0.2,0.1,0.3,0.1,0.4c0.1,0.1,0.1,0.2,0.1,0.4l0.3,0c0.2,0,0.3,-0.1,0.6,-0.2c0.3,-0.2,0.5,-0.4,0.6,-0.7c0.1,-0.2,0.2,-0.4,0.4,-0.8c-0.3,0.2,-0.7,0.4,-1,0.5c-0.3,0.2,-0.6,0.3,-0.8,0.4c0.1,-0.3,0,-0.7,-0.1,-1.1c-0.1,-0.5,-0.3,-0.8,-0.5,-0.8c0,0.4,-0.2,0.8,-0.3,1.1c-0.1,0.3,-0.1,0.6,0.1,1.1c0.2,0.2,0.2,0.3,0.3,0.4Z" class="g12_16" />
<path fill-rule="evenodd" d="M289.7,78c0,-0.2,0,-0.3,0,-0.5c0,-0.1,0,-0.3,-0.1,-0.4c0.1,0.1,0.2,0.2,0.2,0.4c0.1,0.2,0.2,0.3,0.3,0.4c0,0,0.1,0,0.2,-0.1c0.1,0,0.3,-0.1,0.5,-0.4c0.3,-0.2,0.5,-0.3,0.5,-0.6c0.1,-0.2,0.1,-0.6,0.2,-0.9c-0.3,0.3,-0.6,0.4,-0.9,0.6c-0.3,0.2,-0.5,0.4,-0.6,0.6c0,-0.3,-0.2,-0.8,-0.4,-1.2c-0.2,-0.4,-0.4,-0.7,-0.6,-0.7c0,0.4,-0.1,0.8,-0.1,1.1c0,0.3,-0.1,0.7,0.2,1.1c0.1,0.2,0.3,0.3,0.3,0.4c0,0.1,0.2,0.1,0.3,0.2Z" class="g12_16" />
<path fill-rule="evenodd" d="M305.9,67.7c0.5,-0.3,1,-0.3,1.9,-0.3c5.7,1.1,3.9,4.9,4.9,6.5c0,0,0.3,0.9,0.4,1c0.4,0.7,0.9,2.7,0.7,3.3c-0.3,1,-0.8,1.3,-2,1.3c-1.4,0.1,-3.2,0,-3.2,0l0,4.6L324.3,84c0,0,-0.2,-12.7,-8.6,-18.5c0,0,-0.2,-0.2,-0.3,-0.3c-3.9,-3,-8.6,-2.6,-9.9,-2.4C291.4,65.8,291,84,291,84l15.9,0.1l0,-4.6c0,0,-0.9,-0.1,-2.2,-0.1c-0.5,0,-1.9,-0.5,-2.5,-1.3c-0.5,-0.9,-0.9,-3,3,-6.7c0,0,-1,-0.3,-1.3,-0.9c-0.2,-0.8,0.3,-2.2,2,-2.8Z" class="g13_16" />
<path fill-rule="evenodd" d="M311.2,93.6c-0.6,-0.4,-1.4,-0.7,-2,-1.3c-0.5,0.4,-1.2,0.6,-1.9,0.7c-0.6,0,-1.3,-0.1,-1.8,-0.6c-0.3,-0.2,-0.1,-0.5,0.1,-0.9c0.2,-0.3,0.5,-0.7,0.5,-0.9c-0.3,-0.2,-1.2,-0.2,-2.1,0c-0.9,0.2,-1.9,0.6,-2.6,1c-0.9,0.4,-2.7,0.7,-4.5,0.9c-1.8,0.2,-3.6,0.3,-4.8,0.4c0,0.1,0.4,0.9,0.6,1.7c0.3,0.8,0.7,1.6,0.7,1.6c1,0.5,2.3,0.2,3.5,-0.1c1.3,-0.4,2.7,-0.8,3.6,-0.9c0.6,-0.7,1.1,-0.9,1.6,-0.9c0.4,0,0.8,0.2,0.9,0.4c0.6,-0.2,1.2,-0.2,1.6,0c0.3,0.1,0.6,0.4,0.5,0.6c0.4,-0.1,0.9,-0.1,1.2,0.1c0.2,0.2,0.4,0.5,0.3,0.8c0.1,0,0.4,-0.1,0.7,0c0.4,0.2,0.6,0.5,0.5,1.3c0,0,0.1,0.1,0.1,0.1c0.4,0.1,0.5,0,0.6,-0.1c0,-0.2,-0.1,-0.4,-0.2,-0.6c-0.5,-0.6,-0.6,-0.9,-0.6,-1.1c-0.1,-0.2,0,-0.4,0.2,-0.6l0,0.1c0.3,0.8,0.8,1.4,1.2,1.7c0.4,0.3,0.8,0.2,0.9,-0.1c-0.2,-0.5,-0.5,-0.7,-0.9,-1c-0.3,-0.4,-0.6,-0.7,-0.7,-1.2c-0.1,-0.1,0,-0.2,0,-0.4c0.1,-0.1,0.2,-0.1,0.3,-0.1c-0.2,0.3,0,0.5,0.4,0.8c0.3,0.3,0.9,0.7,1.6,1.4c0.1,0.1,0.3,0.1,0.4,0.1c0.1,-0.1,0.3,-0.2,0.4,-0.3c-0.3,-0.6,-0.6,-0.9,-0.9,-1.2c-0.4,-0.3,-0.8,-0.5,-1.2,-1c0,-0.1,-0.1,-0.3,-0.1,-0.4c0,-0.2,0,-0.3,0.2,-0.4c0.1,0.5,0.4,0.7,0.8,0.9c0.5,0.2,1,0.5,1.5,1.2c0.2,0.3,0.4,0.5,0.5,0.5c0.1,0.1,0.2,0,0.4,-0.1l0.1,-0.3l0.1,-0.2c-0.4,-0.8,-1,-1.2,-1.7,-1.6Z" class="g14_16" />
<path fill-rule="evenodd" d="M307.8,97.6c-0.1,0,0,0,0,0c0.1,0,0.2,0.1,0.1,0Z" class="g14_16" />
<path fill-rule="evenodd" d="M305.7,96.3C305.6,96,305.4,95.9,305.2,96c-0.2,0.1,-0.4,0.2,-0.6,0.4l-0.1,0.1l0,0.1c-0.1,0.1,-0.3,0.2,-0.4,0.3c-0.1,0.1,-0.2,0.1,0,0.1c-0.1,0,-0.2,0.1,-0.2,0.1c0,0.1,0,0.2,0,0.3c0.1,0.1,0.1,0.2,0.2,0.2c0.1,0,0.2,0,0.3,-0.1c0.1,0,0.4,-0.2,0.8,-0.5c0.3,-0.2,0.6,-0.5,0.5,-0.7Z" class="g14_16" />
<path fill-rule="evenodd" d="M304,95.6c-0.1,-0.1,-0.1,-0.2,-0.1,-0.2l-0.5,0l-0.1,0.1l-0.1,0.1c0,0,-0.1,0,-0.1,0c-0.1,0.1,-0.2,0.2,-0.2,0.2c-0.1,0.1,-0.2,0.3,-0.4,0.4c-0.1,0.2,-0.2,0.4,-0.1,0.5c0,0.1,0.1,0.1,0.3,0.2c0,0,0.1,-0.1,0.3,-0.1c0.1,0,0.3,-0.3,0.6,-0.5C303.8,96,304,95.7,304,95.6Z" class="g14_16" />
<path fill-rule="evenodd" d="M306.5,96.9c-0.2,0,-0.3,0.1,-0.3,0.1c-0.6,0.5,-0.7,0.7,-0.7,0.8c0.1,0.2,0.3,0.2,0.5,0.3c0.2,-0.1,0.5,-0.2,0.7,-0.4c0.2,-0.1,0.3,-0.3,0.3,-0.4c-0.1,-0.4,-0.3,-0.5,-0.5,-0.4Z" class="g14_16" />
<path fill-rule="evenodd" d="M301.9,95c-0.1,0,-0.3,0.1,-0.4,0.1l-0.2,0.2l-0.1,0.2c-0.1,0,0,0.2,0.1,0.3c0.1,0.1,0.2,0.2,0.3,0.1c0.1,0,0.2,-0.2,0.4,-0.4c0.1,-0.2,0.2,-0.4,0.2,-0.5c-0.1,-0.1,-0.2,-0.1,-0.3,0Z" class="g14_16" />
<path fill-rule="evenodd" d="M321.4,97c0.4,-0.8,0.6,-1.3,0.8,-1.8c0.3,-0.5,0.5,-1,0.6,-1.5c-0.1,-0.1,-0.4,-0.1,-0.7,-0.1c-0.2,0,-0.5,-0.1,-0.7,-0.1c-1.4,-0.4,-2.6,-0.7,-3.8,-1c-1.2,-0.3,-2.4,-0.6,-3.7,-0.7c-1.2,-0.5,-1.9,-0.9,-2.6,-1.1c-0.6,-0.3,-1.2,-0.5,-2,-0.7c-0.3,-0.1,-0.7,-0.1,-1,0c-0.3,0.2,-0.5,0.4,-0.8,0.7c-0.3,0.4,-0.7,0.7,-1.1,0.9c-0.3,0.3,-0.5,0.4,-0.2,0.6c0.4,0.2,1,0.1,1.6,0c0.6,-0.2,1.2,-0.6,1.7,-0.8c0.2,0.1,0.4,0.3,0.6,0.5c0.2,0.2,0.5,0.4,1,0.7c0.7,0.4,1.1,0.6,1.5,0.9c0.3,0.2,0.6,0.5,1.2,1c0.2,-0.1,0.3,-0.2,0.5,-0.3c0.1,-0.2,0.3,-0.5,0.5,-0.9c0,-0.1,0.1,-0.3,0.1,-0.4l0.1,0.2c0.1,0.3,0.1,0.7,0,1.1c0,0.3,-0.1,0.6,-0.3,0.8c1.8,1.2,3.5,1.7,4.7,1.9c1.2,0.2,2,0.1,2,0.1Z" class="g14_16" />
<path fill-rule="evenodd" d="M288.8,86.3c-0.1,-0.2,-0.3,-0.4,-0.6,-0.5c0.3,0.1,0.4,0.3,0.6,0.5c0.1,0.2,0.2,0.4,0.3,0.5l0,-0.1c-0.1,-0.1,-0.2,-0.3,-0.3,-0.4Z" class="g3_16" />
<path fill-rule="evenodd" d="M291.2,92.8c0,-0.1,0,-0.1,0,-0.3c-0.1,0,-0.1,-0.1,-0.1,-0.2c-0.2,0.6,-0.4,0.9,-0.5,1.2c-0.1,0.2,-0.1,0.4,-0.1,0.8l0.1,0.1c0,-0.2,0,-0.5,0.1,-0.8c0.2,-0.3,0.4,-0.6,0.5,-0.8Z" class="g3_16" />
<path fill-rule="evenodd" d="M294.1,102.9c-0.5,-0.2,-0.9,-0.3,-1.1,-0.2c0.5,0.3,0.5,0.5,0.5,0.7c0.1,0.3,0.2,0.4,0.8,0.5c0.3,0,0.7,0.1,0.9,0.2c0.3,0,0.5,0.1,0.6,0.2c-0.1,-0.1,-0.3,-0.2,-0.4,-0.3c-0.1,-0.1,-0.3,-0.2,-0.4,-0.3c0.1,0.1,0.2,0.1,0.4,0.2c0.1,0,0.3,0,0.4,0.1c0.1,-0.1,0.1,-0.1,0.2,-0.2c0.1,-0.1,0.1,-0.3,0.1,-0.5c0.1,-0.4,0,-0.6,-0.1,-0.8c-0.2,-0.2,-0.3,-0.4,-0.5,-0.8c0,0.4,-0.1,0.7,-0.2,1c-0.1,0.3,-0.1,0.6,-0.1,0.8c-0.2,-0.3,-0.7,-0.5,-1.1,-0.6Z" class="g12_16" />
<path fill-rule="evenodd" d="M295.8,104.7c-0.5,-0.1,-0.9,-0.1,-1.1,0c0.5,0.2,0.8,0.6,1.1,0.8c0.3,0.3,0.7,0.5,1.4,0.6c0.2,-0.1,0.4,-0.1,0.5,0c0.1,0.1,0.2,0.2,0.4,0.2c-0.1,-0.1,-0.2,-0.2,-0.3,-0.3c-0.1,-0.2,-0.2,-0.3,-0.3,-0.3c0.1,0,0.2,0.1,0.3,0.1c0.1,0.1,0.3,0.4,0.4,0.4c0,-0.1,-0.1,-0.5,-0.2,-0.7c0,-0.1,-0.1,-0.4,-0.1,-0.7c0,-0.3,-0.2,-0.6,-0.3,-0.7c-0.2,-0.2,-0.4,-0.4,-0.6,-0.7c0,0.4,0,0.7,0,1c-0.1,0.3,-0.1,0.6,0,0.7c-0.2,-0.2,-0.8,-0.3,-1.2,-0.4Z" class="g12_16" />
<path fill-rule="evenodd" d="M292.9,100.2c0.1,0,0.1,0.1,0.3,0.2c-0.2,-0.2,-0.3,-0.3,-0.4,-0.4c-0.1,-0.1,-0.2,-0.2,-0.3,-0.3c0.1,0.1,0.2,0.1,0.3,0.2c0.2,0,0.3,0.1,0.4,0.2c0.1,-0.1,0.2,-0.1,0.2,-0.2c0.1,-0.1,0.2,-0.2,0.3,-0.6c0.1,-0.3,0,-0.6,-0.1,-0.8c-0.1,-0.2,-0.2,-0.5,-0.3,-0.8c-0.1,0.3,-0.3,0.6,-0.4,0.9c-0.1,0.4,-0.2,0.7,-0.1,0.9c-0.2,-0.3,-0.7,-0.5,-1.1,-0.7c-0.5,-0.2,-0.9,-0.3,-1.1,-0.3c0.4,0.4,0.5,0.8,0.7,1c0.2,0.3,0.5,0.5,1,0.6c0.3,0,0.5,0.1,0.6,0.1Z" class="g12_16" />
<path fill-rule="evenodd" d="M294,100.5c-0.1,0.3,-0.2,0.6,-0.1,0.7c-0.3,-0.2,-0.7,-0.4,-1.2,-0.5c-0.4,-0.1,-0.8,-0.1,-0.9,-0.1c0.3,0.3,0.5,0.6,0.8,0.9c0.2,0.2,0.4,0.4,1,0.4c0.3,0,0.5,0,0.6,0c0.1,0.1,0.2,0.2,0.3,0.2c-0.2,-0.2,-0.3,-0.3,-0.4,-0.3c-0.1,-0.1,-0.3,-0.2,-0.5,-0.3c0.2,0.1,0.4,0.1,0.5,0.1c0.1,0,0.3,0.2,0.5,0.2c0,-0.1,0,-0.2,0,-0.3c0.1,-0.1,0.2,-0.3,0.2,-0.5c0,-0.4,-0.1,-0.6,-0.2,-0.8c-0.2,-0.2,-0.3,-0.4,-0.5,-0.7c-0.1,0.3,-0.1,0.7,-0.1,1Z" class="g12_16" />
<path fill-rule="evenodd" d="M290.2,95.8c0.3,0,0.4,0,0.5,0.1c0.1,0,0.2,0.1,0.3,0.2c0,-0.2,-0.1,-0.4,-0.1,-0.6c0,-0.1,-0.1,-0.2,-0.2,-0.4c0.1,0.1,0.2,0.2,0.3,0.3c0,0.1,0.1,0.4,0.2,0.5c0.1,-0.1,0.1,-0.3,0.1,-0.4c0.1,-0.1,0.2,-0.3,0.3,-0.5c0.1,-0.4,0.2,-0.7,0.1,-0.9c0,-0.3,-0.2,-0.5,-0.2,-0.8c-0.2,0.3,-0.4,0.6,-0.5,1c-0.1,0.3,-0.3,0.5,-0.3,0.8c-0.2,-0.3,-0.5,-0.6,-0.9,-0.8C289.4,94,289,93.9,288.8,94c0.3,0.4,0.4,0.7,0.6,1c0.1,0.3,0.3,0.5,0.8,0.8Z" class="g12_16" />
<path fill-rule="evenodd" d="M291.8,97.8c0.1,0.1,0.2,0.1,0.3,0.2l0,-0.1l-0.1,0c-0.1,-0.1,-0.2,-0.3,-0.3,-0.4c-0.2,-0.1,-0.3,-0.2,-0.5,-0.3c0.2,0.1,0.3,0.1,0.5,0.2c0.2,0,0.3,0.1,0.4,0.2c0,0,0.1,-0.1,0.2,-0.2c0.1,-0.1,0.2,-0.3,0.2,-0.5c0.1,-0.5,0,-0.7,-0.1,-0.9c-0.1,-0.2,-0.2,-0.5,-0.3,-0.8c-0.1,0.4,-0.2,0.7,-0.3,1c-0.1,0.3,-0.2,0.7,-0.1,0.9c-0.3,-0.3,-0.7,-0.5,-1.1,-0.7c-0.4,-0.1,-0.9,-0.2,-1,-0.1c0.3,0.4,0.5,0.7,0.7,0.9c0.1,0.3,0.4,0.4,0.9,0.6c0.3,-0.1,0.5,0,0.6,0Z" class="g12_16" />
<path fill-rule="evenodd" d="M288.7,90.8c0.3,0.1,0.4,0.2,0.5,0.3c0.1,0.1,0.1,0.1,0.2,0.2c-0.1,-0.1,0,-0.4,-0.1,-0.5c0,-0.2,0,-0.3,-0.1,-0.4c0.1,0.1,0.2,0.1,0.2,0.2c0.1,0.1,0.1,0.2,0.1,0.3c0.1,0,0.2,0,0.3,-0.1c0.1,-0.1,0.2,-0.2,0.4,-0.5c0.1,-0.4,0.2,-0.6,0.2,-0.9c0,-0.3,-0.1,-0.5,0,-0.9c-0.2,0.4,-0.6,0.7,-0.8,1c-0.2,0.3,-0.2,0.5,-0.3,0.8c-0.1,-0.3,-0.4,-0.6,-0.6,-0.9C288.4,89.1,288.1,89,287.9,89c0.2,0.5,0.1,0.8,0.2,1.1c0,0.3,0.2,0.5,0.6,0.7Z" class="g12_16" />
<path fill-rule="evenodd" d="M289.5,93.1c0.1,0,0.2,0,0.3,0.1l0,-0.4c-0.1,-0.1,-0.1,-0.2,-0.2,-0.3c0.1,0.1,0.2,0.2,0.3,0.3c0,0.1,0.1,0.2,0.2,0.3c0,-0.1,0.1,-0.2,0.2,-0.2c0.1,-0.1,0.2,-0.2,0.4,-0.6c0.1,-0.4,0,-0.7,0,-0.9c-0.1,-0.3,-0.2,-0.5,-0.2,-0.9c-0.1,0.3,-0.3,0.7,-0.4,1c-0.2,0.4,-0.4,0.6,-0.4,0.8c-0.1,-0.3,-0.5,-0.6,-0.9,-0.8c-0.3,-0.2,-0.8,-0.3,-0.9,-0.3c0.2,0.4,0.3,0.8,0.5,1c0.2,0.3,0.4,0.6,0.9,0.8c0.1,0,0.2,0.1,0.2,0.1Z" class="g12_16" />
<path fill-rule="evenodd" d="M288.9,88.2c0,0.1,0,0.1,0.1,0.2c0,-0.1,0.1,-0.3,0.1,-0.4c0,0.1,0.3,0.2,0.3,0.3c0,-0.1,0.1,-0.1,0.2,-0.1c0.1,0,0.3,-0.1,0.4,-0.4c0.2,-0.3,0.2,-0.6,0.2,-0.9c0,-0.2,-0.1,-0.4,-0.1,-0.8c-0.2,0.3,-0.4,0.5,-0.6,0.8c-0.2,0.2,-0.4,0.4,-0.4,0.6c-0.1,-0.3,-0.4,-0.7,-0.7,-1c-0.3,-0.2,-0.8,-0.6,-1,-0.6c0.2,0.9,0.4,1.3,0.5,1.5c0.1,0.2,0.2,0.3,0.6,0.6c0.2,0.1,0.4,0.1,0.4,0.2Z" class="g12_16" />
<path fill-rule="evenodd" d="M288.5,85.3c0.2,0.2,0.3,0.3,0.4,0.4c0.1,0.1,0.1,0.2,0.2,0.3C289,85.8,289,85.6,288.9,85.5c0,-0.2,-0.1,-0.4,-0.2,-0.5c0.1,0.1,0.2,0.2,0.3,0.3c0.1,0.2,0.2,0.3,0.3,0.4c0,0,0.1,0,0.2,0c0.1,-0.1,0.3,-0.1,0.4,-0.4c0.3,-0.3,0.4,-0.5,0.4,-0.8c0,-0.2,0,-0.4,0,-0.8c-0.2,0.3,-0.6,0.5,-0.8,0.7c-0.3,0.2,-0.4,0.4,-0.4,0.6c-0.1,-0.3,-0.3,-0.8,-0.5,-1.1c-0.4,-0.4,-0.8,-0.7,-0.9,-0.7c0.1,0.5,0.1,0.9,0.1,1.2c0.1,0.3,0.2,0.5,0.7,0.9Z" class="g12_16" />
<path fill-rule="evenodd" d="M323,73.7c0,0,0.1,0,0.2,0c-0.1,0,-0.2,0,-0.2,-0.1c-0.1,-0.1,-0.2,-0.1,-0.2,-0.2l0,0.1l0,0.1c0.1,0,0.1,0,0.2,0.1Z" class="g3_16" />
<path fill-rule="evenodd" d="M324.6,94.7c0.1,-0.4,0,-0.7,-0.1,-0.9c-0.1,-0.3,-0.3,-0.6,-0.4,-1.2l0,-0.1C324,92.6,324,92.7,324,92.8c0,0.1,-0.1,0.2,-0.1,0.2c0.2,0.3,0.4,0.6,0.5,0.9c0.1,0.3,0.2,0.6,0.2,0.8Z" class="g3_16" />
<path fill-rule="evenodd" d="M325.4,94c-0.1,0.1,-0.2,0.2,-0.2,0.2c0.1,0,0.1,-0.1,0.2,-0.2c0.1,0,0.2,0,0.3,-0.1C325.6,94,325.5,94,325.4,94Z" class="g3_16" />
<path fill-rule="evenodd" d="M325.9,89.7l0,-0.1l0,-0.1c-0.1,0,-0.1,0,-0.1,-0.1c0,0.1,0,0.2,0,0.2c0,0.1,0.1,0.1,0.1,0.2Z" class="g3_16" />
<path fill-rule="evenodd" d="M326.4,89c-0.1,0,-0.2,0.1,-0.2,0.1c0.1,0,0.2,-0.1,0.2,-0.1c0.1,-0.1,0.2,-0.2,0.2,-0.2c-0.1,0,-0.2,0.1,-0.2,0.2Z" class="g3_16" />
<path fill-rule="evenodd" d="M322,101.1c-0.3,0.2,-0.7,0.4,-1,0.6c0.1,-0.2,0.1,-0.4,0.1,-0.6c-0.1,-0.4,-0.2,-0.8,-0.3,-1.2c-0.1,0.3,-0.3,0.4,-0.4,0.7c-0.2,0.2,-0.4,0.5,-0.4,0.9c0,0.4,0.3,0.4,0.4,0.6c0.1,0.1,0.1,0.2,0,0.4c0.1,0,0.2,-0.1,0.3,-0.1c0.2,0,0.3,-0.1,0.7,0c0.5,-0.1,0.8,-0.1,1,-0.3c0.3,-0.3,0.4,-0.8,0.9,-1.1c-0.2,-0.1,-0.7,0,-1.3,0.1Z" class="g12_16" />
<path fill-rule="evenodd" d="M292,71l0,0.3c0.1,-0.2,0.1,-0.4,0.2,-0.5c0,-0.2,0,-0.3,0,-0.5c0.1,0.2,0.1,0.3,0.1,0.4l0,0.4c0.2,0,0.2,0,0.4,0c0.1,0,0.3,0,0.6,-0.1c0.3,-0.2,0.5,-0.4,0.7,-0.7c0.1,-0.2,0.3,-0.5,0.6,-0.8c-0.3,0.2,-0.8,0.4,-1.2,0.5c-0.3,0.1,-0.6,0.2,-0.8,0.4c0.1,-0.3,0.2,-0.8,0.1,-1.2c0,-0.4,-0.2,-0.8,-0.3,-0.8c-0.2,0.5,-0.4,0.7,-0.5,1c-0.2,0.3,-0.2,0.6,-0.1,1.1c0.2,0.2,0.2,0.4,0.2,0.5Z" class="g12_16" />
<path fill-rule="evenodd" d="M291.3,73.2c0,-0.1,0,-0.3,0,-0.5c0.1,-0.1,0,-0.3,0,-0.4c0.1,0.1,0.1,0.2,0.2,0.3c0,0.2,0,0.3,0.1,0.5c0.1,-0.1,0.2,0,0.3,-0.1c0.1,0,0.3,0,0.6,-0.2c0.3,-0.3,0.4,-0.5,0.5,-0.7c0.2,-0.2,0.3,-0.5,0.5,-0.8c-0.4,0.2,-0.7,0.4,-1,0.5c-0.4,0.2,-0.6,0.4,-0.8,0.5c0.1,-0.3,0,-0.8,-0.2,-1.2c-0.1,-0.4,-0.2,-0.7,-0.4,-0.8c0,0.5,-0.2,0.8,-0.3,1.2c-0.1,0.3,-0.1,0.6,0.1,1c0.2,0.2,0.3,0.4,0.3,0.5c0.1,0.1,0.1,0.1,0.1,0.2Z" class="g12_16" />
<path fill-rule="evenodd" d="M295.1,66.6c0,-0.1,0.1,-0.2,0.1,-0.3c0.1,-0.1,0.2,-0.1,0.3,-0.2l-0.1,0.1l-0.1,0.5c0.1,0,0.1,0,0.2,0.1c0.2,0.1,0.3,0.1,0.6,0.1c0.4,-0.1,0.6,-0.2,0.8,-0.3c0.2,-0.2,0.4,-0.4,0.7,-0.6c-0.4,0,-0.7,0,-1,0c-0.4,-0.1,-0.6,-0.1,-0.8,0c0.2,-0.3,0.3,-0.7,0.3,-1.2c0,-0.4,0,-0.8,-0.1,-1c-0.2,0.5,-0.5,0.7,-0.6,0.9c-0.2,0.2,-0.3,0.5,-0.3,1c0,0.3,0.1,0.5,0,0.6c0,0.1,0,0.2,0,0.3Z" class="g12_16" />
<path fill-rule="evenodd" d="M293.6,68.4c0,0.1,0,0.2,-0.1,0.3c0.1,-0.2,0.2,-0.3,0.3,-0.5c0,-0.2,0.1,-0.3,0.1,-0.5l0,0.5c0,0.1,0,0.3,-0.1,0.4c0.1,0,0.2,0.1,0.3,0.1c0.1,0.1,0.3,0.1,0.5,0c0.4,-0.1,0.6,-0.1,0.7,-0.3c0.2,-0.2,0.4,-0.5,0.6,-0.7c-0.3,0,-0.7,0,-0.9,0c-0.4,0,-0.6,0.1,-0.8,0.2c0.1,-0.3,0.2,-0.9,0.2,-1.3c0,-0.5,-0.1,-0.8,-0.2,-1c-0.2,0.5,-0.5,0.8,-0.6,1.1c-0.1,0.2,-0.1,0.4,-0.1,1.1c0.1,0.2,0.1,0.4,0.1,0.6Z" class="g12_16" />
<path fill-rule="evenodd" d="M298.9,63.3c0.1,-0.1,0.2,-0.3,0.2,-0.4c0,0.1,0,0.3,-0.1,0.4c0,0.2,-0.1,0.3,-0.2,0.4c0.1,0,0.2,0.1,0.3,0.2c0,0.1,0.2,0.1,0.5,0.2c0.4,0.1,0.6,0,0.9,-0.1c0.2,-0.1,0.4,-0.3,0.7,-0.4c-0.3,0,-0.7,-0.1,-1,-0.3c-0.3,-0.1,-0.6,-0.1,-0.8,-0.1c0.5,-0.3,0.5,-0.7,0.6,-1c0.3,-0.5,0.3,-0.8,0.3,-1c-0.4,0.3,-0.7,0.5,-1,0.7c-0.3,0.2,-0.5,0.4,-0.6,0.9c0,0.3,0,0.5,-0.1,0.6c0,0.1,-0.1,0.2,-0.1,0.3c0.1,-0.1,0.3,-0.3,0.4,-0.4Z" class="g12_16" />
<path fill-rule="evenodd" d="M297,65.1c0,-0.2,0.2,-0.3,0.3,-0.5c0,-0.1,0.1,-0.2,0.2,-0.4c-0.1,0.2,-0.1,0.3,-0.1,0.4c0,0.2,-0.1,0.3,-0.1,0.5c0.1,0,0.1,0.1,0.2,0.1c0.1,0.1,0.3,0.1,0.6,0.1c0.3,0,0.5,-0.1,0.8,-0.2c0.2,-0.2,0.3,-0.4,0.7,-0.5c-0.4,-0.1,-0.7,-0.1,-1.1,-0.2c-0.3,0,-0.5,0,-0.8,0.1c0.3,-0.3,0.4,-0.8,0.5,-1.3c0.1,-0.4,0.2,-0.8,0.1,-0.9c-0.3,0.4,-0.6,0.6,-0.8,0.8c-0.2,0.2,-0.5,0.5,-0.5,1.1c0.1,0.3,0.1,0.4,0,0.5c0,0.1,0,0.3,0,0.4Z" class="g12_16" />
<path fill-rule="evenodd" d="M304.1,60.8c-0.1,0.1,-0.2,0.3,-0.2,0.4c-0.1,0.1,-0.2,0.2,-0.4,0.3c0.1,0.1,0.1,0.2,0.2,0.3c0,0.1,0.1,0.2,0.3,0.3c0.5,0.2,0.5,0.2,0.9,0.1c0.3,0,0.5,-0.1,0.8,-0.1c-0.2,-0.2,-0.5,-0.4,-0.8,-0.6c-0.2,-0.1,-0.4,-0.3,-0.6,-0.3c0.3,-0.1,0.6,-0.5,1,-0.8c0.3,-0.4,0.5,-0.7,0.5,-0.9c-0.5,0.2,-0.9,0.3,-1.2,0.4c-0.2,0.1,-0.6,0.3,-0.9,0.8c-0.1,0.2,-0.1,0.4,-0.2,0.5c-0.1,0.1,-0.2,0.1,-0.3,0.2c0.2,-0.1,0.4,-0.1,0.5,-0.2c0.2,-0.1,0.3,-0.3,0.4,-0.4Z" class="g12_16" />
<path fill-rule="evenodd" d="M301.6,61.6c-0.1,0.2,-0.2,0.3,-0.3,0.4c0,0.2,-0.1,0.3,-0.2,0.4c0,0,0,0.1,0.1,0.2c0.1,0.1,0.2,0.2,0.4,0.3c0.4,0.1,0.6,0.1,0.9,0.1c0.2,-0.1,0.5,-0.3,0.8,-0.3c-0.3,-0.1,-0.6,-0.3,-0.9,-0.5C302.2,62.1,301.9,62,301.7,62c0.4,-0.2,1,-0.6,1.3,-1.2c0.2,-0.4,0.3,-0.7,0.2,-0.9c-0.4,0.4,-0.8,0.4,-1.1,0.5c-0.4,0.2,-0.8,0.4,-0.9,1.1c-0.1,0.3,-0.1,0.4,-0.2,0.5c-0.1,0.1,-0.2,0.2,-0.3,0.3c0.2,-0.1,0.4,-0.2,0.5,-0.3c0.1,-0.1,0.3,-0.3,0.4,-0.4Z" class="g12_16" />
<path fill-rule="evenodd" d="M308.3,61c0.1,0.1,0.1,0.3,0.4,0.6c0.3,0.3,0.6,0.3,0.8,0.3c0.2,0.1,0.5,0.1,0.8,0.2c-0.3,-0.4,-0.6,-0.7,-0.8,-1c-0.2,-0.2,-0.3,-0.3,-0.5,-0.4c0.3,0,0.6,-0.2,1,-0.4c0.4,-0.3,0.8,-0.6,0.8,-0.8c-0.5,0.1,-0.8,0,-1.2,0.1c-0.3,0,-0.5,0.1,-1,0.4c-0.2,0.3,-0.2,0.4,-0.3,0.5c-0.1,0.1,-0.2,0.1,-0.3,0.2c0.3,0,0.3,0.1,0.3,0.3Z" class="g12_16" />
<path fill-rule="evenodd" d="M306.2,60.8c0.1,0,0.3,-0.2,0.4,-0.3c-0.1,0.2,-0.2,0.3,-0.3,0.4c-0.1,0.1,-0.2,0.2,-0.3,0.3c0.1,0,0.1,0.1,0.1,0.2c0.1,0.1,0.2,0.2,0.4,0.4c0.4,0.2,0.6,0.2,0.9,0.2c0.2,0,0.4,-0.1,0.8,0c-0.3,-0.3,-0.5,-0.5,-0.8,-0.7c-0.3,-0.2,-0.5,-0.4,-0.7,-0.4c0.4,-0.1,0.7,-0.3,1,-0.8c0.3,-0.3,0.6,-0.8,0.6,-0.9c-0.5,0.2,-0.8,0.2,-1.2,0.4c-0.3,0.1,-0.5,0.2,-0.8,0.7c-0.1,0.3,-0.2,0.4,-0.3,0.5c-0.1,0.1,-0.2,0.1,-0.3,0.2c0.2,-0.1,0.4,-0.1,0.5,-0.2Z" class="g12_16" />
<path fill-rule="evenodd" d="M324.5,96.7c-0.4,0.1,-0.7,0.4,-0.9,0.7c0,-0.3,0,-0.5,-0.1,-0.9c-0.1,-0.3,-0.3,-0.6,-0.4,-1c-0.1,0.4,-0.2,0.6,-0.3,0.8c-0.1,0.2,-0.1,0.5,-0.1,0.8c0.1,0.4,0.1,0.5,0.2,0.6c0.1,0.1,0.2,0.2,0.2,0.2c0.2,0,0.3,-0.1,0.4,-0.2c0.1,0,0.3,0,0.5,-0.1c-0.2,0.1,-0.4,0.2,-0.5,0.3c-0.1,0.1,-0.2,0.3,-0.3,0.4c0.1,-0.1,0.2,-0.1,0.3,-0.2c0.1,0,0.2,-0.1,0.6,0c0.5,-0.2,0.8,-0.4,1,-0.6c0.2,-0.4,0.2,-0.7,0.5,-1c-0.2,-0.1,-0.7,-0.1,-1.1,0.2Z" class="g12_16" />
<path fill-rule="evenodd" d="M323.1,99c-0.4,0.1,-0.5,0.5,-0.7,0.8c0.1,-0.3,-0.1,-0.5,-0.2,-0.8c-0.1,-0.4,-0.2,-0.7,-0.3,-1.1c-0.1,0.4,-0.2,0.6,-0.4,0.8c0,0.3,-0.1,0.5,0,0.9c0,0.3,0.2,0.5,0.2,0.6c0.1,0,0.2,0.1,0.3,0.2c0.1,-0.1,0.2,-0.2,0.3,-0.3c0.2,0,0.3,0,0.4,-0.1c-0.1,0.1,-0.2,0.2,-0.4,0.3c-0.1,0.2,-0.2,0.3,-0.3,0.4c-0.3,0.1,-0.1,0.2,0.3,0c-0.4,0.1,0.8,-0.2,0.6,-0.2c0.5,-0.2,0.7,-0.4,0.9,-0.7c0.2,-0.3,0.3,-0.6,0.6,-1c-0.1,-0.1,-0.8,-0.1,-1.3,0.2Z" class="g12_16" />
<path fill-rule="evenodd" d="M320.9,103.2c-0.5,0.2,-1.2,0.3,-1.2,0.6c0,-0.1,0,-0.4,-0.1,-0.7c0,-0.4,-0.1,-0.9,-0.1,-1.3c-0.1,0.4,-0.4,0.8,-0.5,1c-0.2,0.2,-0.3,0.4,-0.2,0.8c0,0.3,0,0.5,0,0.6c0.1,0.1,0.2,0.1,0.3,0.2c0.1,-0.1,0.7,-0.3,0.8,-0.3c-0.1,0,-0.2,0.1,-0.4,0.3c-0.1,0.1,-0.2,0.2,-0.4,0.3c0.1,-0.1,0.2,-0.1,0.3,-0.1c0.1,-0.1,0.3,-0.1,0.6,-0.1c0.6,-0.1,1,-0.3,1.2,-0.6c0.2,-0.2,0.3,-0.5,0.7,-0.8c-0.1,-0.1,-0.6,0,-1,0.1Z" class="g12_16" />
<path fill-rule="evenodd" d="M319.2,104.9c-0.5,0.1,-1.1,0.3,-1.3,0.5c0.1,-0.2,0.1,-0.5,0.1,-0.8c-0.1,-0.3,-0.1,-0.6,-0.1,-0.9c-0.1,0.2,-0.4,0.4,-0.6,0.6c-0.1,0.2,-0.3,0.4,-0.3,0.7c-0.1,0.3,-0.1,0.5,-0.1,0.6l0,0.5c0.1,-0.1,0.2,-0.1,0.3,-0.2c0.1,-0.1,0.3,-0.1,0.4,-0.2c-0.1,0.1,-0.2,0.2,-0.3,0.4c-0.2,0.1,-0.3,0.2,-0.3,0.4c0.1,-0.1,0.1,-0.1,0.3,-0.2c0.2,-0.1,0.5,-0.3,0.8,-0.2c0.6,0,0.9,-0.2,1.2,-0.4c0.2,-0.2,0.5,-0.5,1,-0.8c-0.2,-0.1,-0.6,-0.1,-1.1,0Z" class="g12_16" />
<path fill-rule="evenodd" d="M325.4,94.5c-0.3,0.2,-0.7,0.5,-0.9,0.8c0,-0.2,0.1,-0.3,0.1,-0.6c0,-0.5,-0.7,-0.9,-0.8,-1.2c0,0.3,-0.1,0.6,-0.2,0.8c0,0.3,-0.1,0.5,0.1,0.9c0.1,0.3,0.2,0.5,0.3,0.6c0.1,0.1,0.2,0.1,0.2,0.2c0.1,-0.1,0.2,-0.2,0.3,-0.3c0.1,-0.1,0.2,-0.1,0.4,-0.2c-0.1,0.1,-0.2,0.3,-0.3,0.4c-0.1,0.1,-0.2,0.2,-0.3,0.4c0.1,-0.1,0.1,-0.1,0.2,-0.2C324.6,96,324.8,96,325.1,96c0.4,-0.2,0.7,-0.5,0.8,-0.8c0.1,-0.3,0.3,-0.8,0.6,-1.2c-0.1,0,-0.7,0.2,-1.1,0.5Z" class="g12_16" />
<path fill-rule="evenodd" d="M326.6,89.5c-0.3,0.3,-0.6,0.6,-0.7,1c0,-0.2,-0.2,-0.5,-0.4,-0.8c-0.2,-0.3,-0.4,-0.6,-0.6,-1c0,0.4,-0.2,0.7,-0.2,1c0,0.2,0.2,0.5,0.4,0.9c0.1,0.2,0.2,0.6,0.3,0.6c0.1,0.1,0.3,0,0.3,0.1c0.1,-0.2,0.2,-0.3,0.3,-0.4c0.1,-0.1,0.2,-0.2,0.3,-0.2c-0.1,0.1,-0.2,0.2,-0.3,0.4c0,0.1,-0.1,0.3,-0.1,0.4c0.1,0,0.1,-0.1,0.2,-0.2c0,0,0.1,-0.1,0.5,-0.2c0.3,-0.3,0.5,-0.6,0.6,-1c0,-0.3,0,-0.6,0.2,-1.1c-0.2,0,-0.5,0.2,-0.8,0.5Z" class="g12_16" />
<path fill-rule="evenodd" d="M326.1,91.8c-0.4,0.3,-0.5,0.5,-0.7,0.9c0,-0.3,0,-0.5,-0.2,-0.9c-0.1,-0.3,-0.4,-0.6,-0.6,-1c0,0.4,-0.1,0.6,-0.1,0.8c-0.1,0.3,-0.1,0.6,0.1,0.9c0.1,0.4,0.2,0.5,0.3,0.6c0.1,0.1,0.2,0.1,0.2,0.2c0.1,-0.1,0.2,-0.2,0.3,-0.3c0.1,0,0.3,-0.1,0.4,-0.1c-0.1,0.1,-0.3,0.2,-0.4,0.3c0,0.1,-0.1,0.3,-0.2,0.5c0.1,-0.1,0.1,-0.2,0.2,-0.2c0.1,-0.1,0.3,-0.2,0.6,-0.2c0.5,-0.2,0.6,-0.5,0.7,-0.8c0.1,-0.3,0.3,-0.8,0.6,-1.2c-0.2,0,-0.9,0.3,-1.2,0.5Z" class="g12_16" />
<path fill-rule="evenodd" d="M325,83.7c0.1,0.4,0.1,0.7,0.1,1c0,0.2,0,0.4,0.1,0.8c0.3,0.6,0.8,0.3,0.9,0.4c0.1,-0.2,0.1,-0.3,0.3,-0.5c0.1,-0.1,0.2,-0.2,0.3,-0.3c-0.1,0.1,-0.3,0.4,-0.3,0.6c-0.1,0.1,-0.2,0.3,-0.2,0.6c0.1,-0.2,0.3,-0.4,0.3,-0.5c-0.1,0.2,0.4,-0.3,0.4,-0.3c0.5,-0.5,0.6,-0.9,0.6,-1.3c0.1,-0.3,0,-0.7,0.2,-1.1c-0.2,0,-0.7,0.3,-0.9,0.7c-0.3,0.4,-0.4,0.9,-0.6,1.2c0,-0.2,-0.2,-0.3,-0.4,-0.6C325.5,84.2,325.2,84,325,83.7Z" class="g12_16" />
<path fill-rule="evenodd" d="M326.7,86.6c-0.3,0.4,-0.5,0.8,-0.6,1.1C326,87.5,325.9,87.3,325.7,87c-0.2,-0.2,-0.5,-0.4,-0.6,-0.7c0,0.3,-0.1,0.6,-0.1,0.9c0,0.2,-0.1,0.5,0.1,0.8c0.1,0.3,0.2,0.4,0.3,0.4c0.1,0.1,0.3,0.1,0.4,0.2c0.1,-0.2,0.2,-0.4,0.3,-0.5c0.1,-0.1,0.2,-0.2,0.4,-0.3c-0.2,0.2,-0.3,0.3,-0.4,0.5c0,0.1,-0.1,0.3,-0.2,0.5c0.1,-0.1,0.1,-0.2,0.2,-0.3c0.1,-0.1,0.3,-0.2,0.6,-0.3c0.5,-0.5,0.6,-0.7,0.7,-1.1c0.1,-0.3,0.1,-0.7,0.3,-1.2c-0.2,0,-0.7,0.4,-1,0.7Z" class="g12_16" />
<path fill-rule="evenodd" d="M324.4,78.7c0.1,0.3,0.2,0.6,0.2,0.9c0.1,0.2,0.2,0.6,0.5,0.8c0.2,0.2,0.4,0.3,0.6,0.4c0.1,0,0.1,-0.2,0.1,-0.2c0.1,-0.1,0.2,-0.3,0.3,-0.4c0.1,-0.1,-0.1,0.2,-0.1,0.1c0,0.2,0.2,-0.2,0.1,0c-0.1,0.2,0.1,0.5,0.1,0.7c0,-0.1,0,-0.4,0.1,-0.5c0.1,-0.1,0.2,-0.2,0.4,-0.4C327,79.6,327.1,79.3,327,79c0,-0.3,-0.1,-0.6,-0.1,-1.1c-0.1,0,-0.4,0.3,-0.6,0.7c-0.2,0.4,-0.4,0.8,-0.4,1.1c-0.1,-0.2,-0.3,-0.2,-0.6,-0.4c-0.3,-0.1,-0.6,-0.4,-0.9,-0.6Z" class="g12_16" />
<path fill-rule="evenodd" d="M326.7,80.9c-0.3,0.4,-0.6,0.8,-0.6,1.2c-0.1,-0.2,-0.3,-0.4,-0.6,-0.7C325.3,81.2,325,81,324.8,80.8c0.1,0.3,0.1,0.5,0.1,0.8c0,0.3,0.1,0.7,0.3,1c0.2,0.2,0.7,0.2,0.7,0.2c0.1,-0.1,0.3,-0.4,0.4,-0.5c-0.1,0.1,-0.2,0.7,-0.2,0.9c0.1,-0.2,0.4,-0.6,0.7,-0.7c0.4,-0.5,0.6,-0.8,0.7,-1.2c0,-0.3,0,-0.5,0.1,-1c-0.2,0,-0.7,0.2,-0.9,0.6Z" class="g12_16" />
<path fill-rule="evenodd" d="M322.8,74.1c0.2,0.3,0.3,0.5,0.5,0.8c0.1,0.2,0.2,0.4,0.6,0.6c0.3,0.2,0.4,0.2,0.5,0.2c0.2,0.1,0.3,0,0.3,0c0,-0.1,0.1,-0.2,0.2,-0.3c0,-0.1,0.1,-0.3,0.1,-0.4c0,0.2,0,0.3,0,0.5c0,0.1,0,0.5,0.1,0.6c0,-0.1,0,-0.4,0,-0.5c0,-0.1,0.1,-0.2,0.3,-0.4c0.3,-0.5,0.3,-0.9,0.2,-1.2c-0.1,-0.3,-0.3,-0.5,-0.4,-1c-0.1,0.1,-0.3,0.4,-0.5,0.8c-0.1,0.4,-0.2,0.9,-0.1,1.2c-0.1,-0.2,-0.4,-0.3,-0.7,-0.4c-0.4,-0.2,-0.8,-0.3,-1.1,-0.5Z" class="g12_16" />
<path fill-rule="evenodd" d="M325.2,77.1c-0.1,-0.2,-0.4,-0.4,-0.7,-0.6c-0.3,-0.2,-0.6,-0.4,-0.9,-0.6c0.2,0.3,0.2,0.6,0.2,0.8c0.2,0.3,0.3,0.5,0.5,0.7c0.3,0.3,0.4,0.3,0.6,0.4c0.1,0,0.2,0,0.3,0c0,-0.1,0.1,-0.2,0.1,-0.4c0.1,-0.1,0.2,-0.2,0.2,-0.3c0,0.1,-0.1,0.3,-0.1,0.5l0,0.4c0.1,-0.1,0.1,-0.2,0.1,-0.2c0.1,-0.1,0.2,-0.3,0.4,-0.5c0.3,-0.4,0.6,-0.7,0.5,-1c0,-0.3,-0.3,-0.7,-0.3,-1.2c-0.1,0.1,-0.4,0.3,-0.6,0.7c-0.5,0.9,-0.3,0.5,-0.3,1.3Z" class="g12_16" />
<path fill-rule="evenodd" d="M320.4,69.5c0.2,0.3,0.3,0.5,0.5,0.7c0.2,0.3,0.4,0.5,0.8,0.6c0.3,0.2,0.4,0.2,0.6,0.2c0.1,0,0.3,0.1,0.4,0.2c0,-0.2,-0.1,-0.4,-0.1,-0.5c0.1,-0.2,0,-0.3,0.1,-0.4c0,0.2,0,0.2,0,0.4c0.1,0.1,0.2,0.4,0.2,0.6l0,-0.4c0,-0.1,0.1,-0.3,0.4,-0.6c0.1,-0.5,0,-0.8,-0.2,-1.1c-0.1,-0.3,-0.3,-0.6,-0.4,-1.1c-0.2,0.1,-0.5,0.5,-0.5,1c-0.1,0.4,0,0.8,0.1,1.1c-0.2,-0.2,-0.5,-0.3,-0.9,-0.4c-0.3,-0.1,-1.1,-0.4,-1,-0.3Z" class="g12_16" />
<path fill-rule="evenodd" d="M323.3,72.2c-0.2,-0.1,-0.5,-0.3,-0.8,-0.5c-0.3,-0.1,-0.7,-0.3,-1,-0.5c0.2,0.3,0.3,0.6,0.4,0.8c0.1,0.3,0.2,0.5,0.6,0.7c0.2,0.2,0.4,0.2,0.5,0.3l0.4,0c0,-0.1,0,-0.3,0.1,-0.4c0,-0.2,0.1,-0.3,0.1,-0.4c0,0.2,0,0.3,0,0.5c0,0.2,0,0.3,0.1,0.5c0,-0.1,0,-0.2,0,-0.3c0,-0.2,0.1,-0.3,0.4,-0.4c0.2,-0.5,0.2,-0.9,0.1,-1.2C324.1,71,324,70.6,324,70.1c-0.2,0,-0.5,0.5,-0.7,0.9c-0.1,0.4,-0.2,0.9,0,1.2Z" class="g12_16" />
<path fill-rule="evenodd" d="M318,66.5c0.2,0.2,0.4,0.3,0.8,0.4c0.2,0,0.5,0,0.6,-0.1c0.1,0,0.1,-0.1,0.2,-0.1c0,-0.1,-0.1,-0.4,-0.2,-0.5l0,-0.5c0,0.2,0.1,0.3,0.2,0.5c0.1,0.1,0.1,0.3,0.2,0.5c0,-0.2,0,-0.3,0,-0.4c-0.1,-0.1,-0.1,-0.3,0,-0.6c0,-0.6,-0.1,-0.9,-0.3,-1.1c-0.1,-0.1,-0.4,-0.3,-0.6,-0.8c-0.1,0.2,-0.2,0.6,-0.1,1c0,0.4,0,0.9,0.3,1.2c-0.2,-0.1,-0.4,-0.1,-0.8,-0.1c-0.3,0,-0.7,0.1,-1,0.1c0.3,0.2,0.5,0.3,0.7,0.5Z" class="g12_16" />
<path fill-rule="evenodd" d="M319.6,68.1c0.1,0.2,0.3,0.4,0.7,0.5c0.3,0,0.4,0.1,0.6,0c0.1,0,0.1,-0.1,0.2,-0.2C321.1,68.3,321,68.2,321,68l0,-0.5c0.1,0.2,0.1,0.3,0.2,0.5c0,0.2,0.1,0.4,0.2,0.5c0,-0.1,-0.1,-0.2,-0.1,-0.3c0,-0.2,0,-0.3,0.1,-0.6c0,-0.6,0,-0.9,-0.2,-1.2c-0.1,-0.2,-0.3,-0.4,-0.5,-0.9c-0.1,0.1,-0.2,0.5,-0.2,0.9c0,0.5,0.1,1,0.2,1.3c-0.2,-0.1,-0.4,-0.1,-0.8,-0.1c-0.2,-0.1,-0.6,-0.1,-0.9,-0.1c0.3,0.2,0.4,0.4,0.6,0.6Z" class="g12_16" />
<path fill-rule="evenodd" d="M315.1,62.6c-0.2,0,-0.5,0,-0.9,0.1c-0.3,0.1,-0.6,0.2,-1,0.3c0.4,0.1,0.6,0.2,0.8,0.3c0.2,0.2,0.4,0.3,1,0.2c0.4,0,0.5,0,0.6,-0.2c0,0,0.1,-0.1,0.2,-0.2c-0.1,-0.1,-0.2,-0.2,-0.3,-0.4c0,-0.1,0,-0.3,-0.1,-0.6c0,0.1,0.1,0.2,0.2,0.3c0,0.1,0.1,0.2,0.2,0.3l0,-0.2c0,-0.1,0,-0.1,0.1,-0.3c-0.2,-0.5,-0.4,-0.8,-0.7,-1c-0.3,-0.1,-0.7,-0.2,-1.1,-0.5c0,0.1,0,0.6,0.2,0.9c0.2,0.4,0.5,0.7,0.8,1Z" class="g12_16" />
<path fill-rule="evenodd" d="M315.9,64.6c0.3,0.2,0.5,0.3,0.8,0.3c0.4,0,0.5,-0.1,0.6,-0.1c0.1,-0.1,0.2,-0.1,0.2,-0.2c0,-0.1,-0.1,-0.2,-0.1,-0.4c0,-0.2,0,-0.3,0,-0.4c0,0.1,0.1,0.3,0.2,0.4c0,0.2,0.2,0.3,0.3,0.4c0,-0.1,-0.1,-0.1,-0.1,-0.2c0,-0.2,0,-0.4,0,-0.7c0,-0.5,-0.2,-0.8,-0.4,-1c-0.3,-0.3,-0.5,-0.5,-0.8,-0.9c-0.1,0.2,-0.1,0.6,0,1c0.1,0.4,0.3,1,0.5,1.2c-0.2,-0.1,-0.6,-0.1,-0.9,0c-0.4,0,-0.6,0.2,-1,0.2c0.4,0.1,0.5,0.3,0.7,0.4Z" class="g12_16" />
<path fill-rule="evenodd" d="M311,60.7c0.1,0,0.3,0,0.4,-0.1c-0.2,0.1,-0.3,0.1,-0.4,0.2c-0.2,0,-0.3,0,-0.5,0c0.2,0.4,1,0.4,1.7,0.2c0.6,-0.2,1.8,-0.9,1.7,-1c-0.3,0.1,-0.6,-0.1,-0.7,-0.2c-0.3,-0.1,-0.7,-0.1,-1.1,-0.1c-0.4,0,-0.6,0.3,-0.8,0.5c-0.2,0.1,-0.4,0.3,-0.6,0.4c0.1,0.1,0.2,0.1,0.3,0.1Z" class="g12_16" />
<path fill-rule="evenodd" d="M313.6,61.7c0,-0.2,-0.1,-0.4,-0.5,-0.4c-0.3,0.1,-0.5,0.1,-0.7,0.2c-0.2,0.1,-0.4,0.1,-0.5,0.2c0.1,0,0.3,0.1,0.4,0.2c0.2,0,0.3,0,0.5,0C312.6,62,312.3,62,312,62c-0.3,-0.1,-0.5,-0.2,-0.7,-0.3c-0.1,0,-0.2,0,-0.2,0c-0.1,0,-0.1,0,-0.1,0c-0.1,0.1,0.1,0.4,0.4,0.5c0.3,0.2,0.8,0.4,1.2,0.4c0.4,-0.2,0.6,-0.2,0.8,-0.3c0.2,-0.1,0.4,-0.2,0.6,-0.1c-0.2,-0.1,-0.2,-0.3,-0.4,-0.5Z" class="g12_16" />
<path fill-rule="evenodd" d="M309.9,72.5c0,0,-0.1,0,-0.1,0l-0.1,0l0.1,0Z" class="g3_16" />
<path fill-rule="evenodd" d="M307.9,97.6l-0.1,0c-0.1,0,0,0,0,0c0.1,0,0.2,0.1,0.1,0Z" class="g3_16" />
<path fill-rule="evenodd" d="M290.1,83.2c-0.1,0.1,-0.2,0.2,-0.4,0.3c-0.1,0.1,-0.2,0.2,-0.3,0.3c0.1,-0.2,0.2,-0.3,0.3,-0.4c0.1,-0.1,0.2,-0.3,0.5,-0.5l0,0.2c0,0,-0.1,0.1,-0.1,0.1Z" class="g3_16" />
<path fill-rule="evenodd" d="M292.2,73.7c-0.1,0,-0.2,0.1,-0.3,0.1c-0.1,0.1,-0.3,0.1,-0.4,0.2c0.1,-0.1,0.2,-0.2,0.4,-0.3c0.1,0,0.2,-0.2,0.4,-0.3c0,0,0,0.1,0,0.1c0,0.1,-0.1,0.1,-0.1,0.2Z" class="g3_16" />
<path fill-rule="evenodd" d="M305,76.2c-0.4,0,-0.8,0.1,-1.1,0.3c-0.3,0.1,-0.7,0.3,-1.1,0.3c0,0,0.1,-0.5,0.3,-1.2c0.3,-0.7,0.8,-1.6,1.7,-2.6c0.3,-0.5,0.9,-0.9,1.5,-1.3c0.6,-0.3,1.3,-0.7,1.7,-0.9l-0.1,-0.1c-0.3,0,-1,0.1,-1.7,0.1c-0.7,0,-1.3,-0.1,-1.6,-0.5c0,-0.4,0.3,-0.9,0.8,-1.3c0.4,-0.4,1.1,-0.6,2,-0.7c0.5,0,1,0.1,1.3,0.2c0.5,0.1,0.8,0.4,1.2,0.6c0.5,0.3,0.8,0.7,1.1,1.1c0.2,0.5,0.4,0.9,0.4,1.5c-0.6,0.2,-0.9,0.4,-1.2,0.6c-0.2,0.1,-0.3,0.2,-0.3,0.2c0.1,0,0.2,0,0.3,0.1l0.4,0c0.2,0,0.4,0,0.5,0c0.1,0,0.3,0,0.4,-0.1l0,0.4l0,0.3c0,0,0.1,0,0.1,0c0,0,0,0.1,0,0.1c-0.8,0.4,-1.4,0.6,-1.7,0.8c-0.5,0.2,-0.7,0.3,-1.2,0.4c0,0,-0.2,0,-0.3,0c-0.1,0.1,-0.3,0.1,-0.3,0.1l0.1,0c0.1,0,0.3,0.1,0.5,0.1c0.2,0,0.5,0.1,0.6,0.1c0.3,0,0.8,-0.1,1.2,-0.2c0.4,-0.1,0.9,-0.3,1.2,-0.4c0,0.1,0,0.4,0.1,0.5c0,0.2,0.2,0.3,0.5,0.4l0,0.1c-1.1,0.5,-1.7,0.7,-2.2,0.9c-0.5,0.1,-0.7,0,-0.8,0l-0.7,-0.2l-0.8,-0.2c0.2,0.1,0.6,0.4,0.9,0.5c0.3,0.2,0.7,0.4,1,0.5c0.4,0.1,0.9,-0.1,1.4,-0.3c0.6,-0.1,1.1,-0.3,1.4,-0.5l0.2,0.5l0.1,0.5c-0.6,0,-1.2,0.4,-2,0.8c-0.7,0.3,-1.5,0.6,-2.4,0.3c-0.5,-0.4,-1,-0.8,-1.5,-1.2c-0.6,-0.3,-1.2,-0.6,-1.9,-0.6Z" class="g10_16" />
<path fill-rule="evenodd" d="M306.7,78.7l-1.5,0c-0.5,0,-0.9,0,-0.9,-0.1c-0.2,0,-0.6,-0.2,-1,-0.4C303,78,302.8,77.8,302.8,77.7c0.1,0,0.2,0,0.4,0c0.3,-0.1,0.6,-0.2,1.1,-0.4c0.6,-0.3,1.2,0,1.7,0.4c0.4,0.3,0.7,0.8,0.7,1Z" class="g10_16" />
<path fill-rule="evenodd" d="M314.8,60.1c0,0,0.1,0,0.1,0l0.1,0l-0.1,0c0,0,-0.1,0,-0.1,0Z" class="g9_16" />
<path d="M300.5,56.5l0,-1" class="g15_16" />
<path fill-rule="evenodd" d="M311.2,78.4c1,-0.5,1.4,-0.6,1.6,-0.7c0.2,0,0.1,0.1,0.1,0.1c0,0.1,-0.1,0.3,-0.2,0.6c-0.1,0.1,-0.3,0.3,-0.4,0.3l-0.9,0c-0.4,0,-0.9,0,-1.2,0c0.2,0,0.4,0,0.6,-0.1c0.1,0,0.3,-0.1,0.4,-0.2Z" class="g10_16" />
<path fill-rule="evenodd" d="M307.9,60.6c0.3,0,0.3,0,0.6,-0.1c0.1,0,0.3,-0.1,0.5,-0.1c-0.2,0.1,-0.3,0.2,-0.5,0.3c-0.1,0.1,-0.3,0.2,-0.5,0.2Z" class="g3_16" />
<path fill-rule="evenodd" d="M313.6,59.8l0.2,0c0.2,0,0.4,0,0.6,0.1c0.1,0.1,-0.2,0.1,0,0.1c0.3,0,0.8,0.1,1,0c0.2,0,0.5,-0.1,0.8,-0.1c0.3,0,0.6,0,1.1,0.3c-0.3,-0.4,-0.5,-0.6,-0.8,-0.7c-0.3,-0.1,-0.6,-0.2,-0.9,-0.2c-0.5,0,-0.8,-0.3,-1.2,-0.5Z" class="g3_16" />
<path fill-rule="evenodd" d="M301.3,59.4c0.9,-0.2,1.2,-0.8,1.2,-0.8l-2.4,-0.5l2.4,-0.6c0,0,-2.5,-1.1,-2.6,-1.1c0.1,0,2.4,0.2,2.8,0.1c0,0,-1.8,-1.2,-2.2,-1.5c0,0,2,0.6,2.6,0.7c0,0,-1.8,-1.9,-1.8,-2c0.3,0.1,2.2,1.2,2.4,1.2c-0.4,-0.5,-1.6,-2.3,-1.6,-2.3l2.3,1.6c0,-0.3,-0.9,-2.4,-1,-2.6c0.3,0.5,1.4,1.8,1.9,2l-0.6,-2.7l1.5,2.4c0.1,-0.2,0.1,-2.3,0,-2.9c0,0.4,0.8,2.4,1,2.7l0.5,-2.7c0,0,0.4,2.6,0.4,2.7c0.2,-0.3,1.1,-2.6,1.1,-2.6c0,0.5,-0.1,2.7,-0.1,2.8l1.7,-2.4l-0.7,2.8c0.1,-0.1,2,-2,2,-2c-0.2,0.2,-1.1,2,-1.2,2.5l2.4,-1.6l-1.6,2.3c0,0,0,0.1,0.1,0c0.2,0,2.4,-1,2.5,-1.2c-0.4,0.4,-1.6,1.4,-2.1,2.1l2.7,-0.6c0,0,-2.2,1.4,-2.3,1.4c0.1,0.1,2.8,0,3,0c-0.3,0.1,-2.5,0.8,-2.5,0.9l2.6,0.6c0,0,-2.3,0.4,-2.3,0.5c0,0.1,1,0.9,1.2,0.9c0.1,0,-1.1,0,-1.3,-0.2c-0.2,-0.2,-1,-0.3,-1.7,-0.1c0.1,0,0,-0.4,-0.1,-0.4C311,59,309.3,58.9,309,59.1c0,0,0,-0.4,0,-0.7c-0.7,0.3,-1.2,0.3,-1.5,0.4c-0.5,0,-0.8,0.1,-1.1,0.4c-0.1,0,0,-0.6,-0.1,-0.5c-0.6,0.2,-1.1,0.3,-1.6,0.4c-0.4,0.1,-0.8,0.2,-1,0.5c0,-0.1,-0.1,-0.6,-0.1,-0.6c-0.3,0.3,-0.5,0.3,-0.9,0.5c-0.6,0.2,-1.5,0,-1.4,-0.1Z" class="g16_16" />
<path fill-rule="evenodd" d="M311.3,57.4l-0.5,0c0,-0.3,-0.4,-0.4,-0.5,-0.4c0,0,0,0.1,0,0.2c0,0.1,0,0.2,-0.1,0.3c-0.1,0,-0.1,0.1,-0.2,0.2l-0.5,0c-0.1,-0.1,-0.2,-0.2,-0.2,-0.2c-0.1,-0.1,-0.1,-0.2,-0.1,-0.3l0,-0.1c0,-0.1,0,-0.1,0,-0.2l-0.4,0.4c0,0.1,-0.4,0,-0.4,0l0.5,-0.8c1.1,-0.1,1.7,0.1,2,0.3c0.3,0.3,0.4,0.6,0.4,0.6Z" class="g3_16" />
<path fill-rule="evenodd" d="M311.6,56.5l-0.3,0c-0.2,-0.3,-0.5,-0.4,-0.8,-0.5c-0.3,0,-0.6,0,-0.6,0l-1.5,0.1l0.2,-0.7l0.6,0c1.1,-0.1,1.7,0.2,2,0.5c0.3,0.3,0.4,0.6,0.4,0.6Z" class="g3_16" />
<path fill-rule="evenodd" d="M306.9,57.3c0,0,-0.5,0,-0.5,0L306.1,57c0,0,0,0.1,0,0.1c0,0.1,-0.1,0.2,-0.1,0.3c-0.2,0.1,-0.2,0.2,-0.3,0.2c-0.1,0,-0.4,0,-0.4,0c-0.1,0,-0.2,-0.1,-0.3,-0.2c-0.1,-0.1,-0.1,-0.3,-0.1,-0.4c0,0,0,-0.1,0,-0.1c-0.1,0,-0.2,0.1,-0.2,0.2c-0.1,0,-0.2,0.1,-0.3,0.2l-0.5,0c0,0,0.1,-0.2,0.5,-0.5c0.3,-0.3,0.9,-0.5,2,-0.3Z" class="g3_16" />
<path fill-rule="evenodd" d="M303.6,56.5c0,0,0.1,-0.4,0.4,-0.6c0.4,-0.3,1,-0.6,2.2,-0.5l0.5,0l0.1,0.7L306,56c0,0,-1,-0.1,-1.3,0c-0.3,0,-0.7,0.1,-0.8,0.4Z" class="g3_16" />
<path fill-rule="evenodd" d="M306.1,110.5l-0.3,-0.2c0,0,-0.1,0,-0.2,0.1c-0.5,0.1,-1.9,0.4,-2.7,0.5l-0.1,0c-0.9,0.2,-1.6,0.2,-1.6,0.2c-0.1,0.2,0.1,0.5,0.3,0.7c0.2,0.1,0.5,0.2,0.6,0.3l0.1,0c0.9,-0.2,3.5,-0.9,4.1,-1.1Z" class="g3_16" />
<path fill-rule="evenodd" d="M308.8,111c0.7,0.2,3.2,0.8,4.1,1c0.1,0,0.2,0,0.2,0.1c0,-0.1,0.3,-0.2,0.5,-0.4c0.3,-0.1,0.5,-0.4,0.4,-0.6c0,0,-0.7,-0.1,-1.7,-0.2l-0.1,0c-0.7,-0.1,-2.1,-0.4,-2.7,-0.5c-0.1,-0.1,-0.2,-0.1,-0.2,-0.1l-0.3,0.2Z" class="g3_16" />
<path fill-rule="evenodd" d="M309,111.1c0.1,-0.1,-0.1,-0.7,0.4,-0.7l0.1,0c0.1,-0.1,1.2,-0.4,1.5,-1.2c0,-0.1,0.1,-0.2,0.1,-0.3c0,-0.2,0,-0.3,0,-0.4c0,-0.1,0,-0.3,0,-0.4C311,108,311,107.8,310.9,107.7c-0.3,-0.4,-1,-0.6,-1.6,-0.6c-0.7,0,-1.4,0.1,-1.6,0.1l-0.1,0c-0.2,0,-0.9,-0.1,-1.6,-0.1c-1.1,0,-1.7,0.6,-1.7,0.6c-0.5,0.5,-0.2,1.5,-0.1,1.6c0.2,0.3,0.6,0.8,1.3,1c0,0,0.3,0,0.3,0.1c0,0,0.4,0,0.4,0.7c-0.4,0.7,-1,1.1,-1.8,1.4c-0.7,0.2,-1.6,0.3,-2.4,0.5c0,0,0.2,0.3,0.3,0.5c0.2,0.1,0.4,0.4,0.4,0.3c1.7,-0.4,2.7,-1,3.2,-1.5c0.6,-0.5,0.6,-0.8,0.6,-0.8l0.2,0.5c0,0,-0.2,0.5,-0.6,1c-0.5,0.5,-1.4,1.1,-2.9,1.3l0.5,0.2l0.5,0.2c0.7,0,1.2,-0.2,1.6,-0.5c0.5,-0.4,0.9,-0.9,1.3,-1.7c0.1,0,0.3,0.1,0.5,0.2l0.1,0c0.1,0,0.2,0,0.3,-0.1c0.1,0,0.3,-0.1,0.4,-0.2c0.3,0.8,0.7,1.3,1.2,1.7c0.4,0.4,1,0.6,1.6,0.7c0.2,-0.1,0.4,-0.2,0.5,-0.3c0.2,-0.1,0.2,-0.2,0.2,-0.2c-0.9,-0.1,-1.8,-0.7,-2.3,-1.3c-0.6,-0.5,-0.9,-1.1,-0.9,-1.1c0,0,0.1,-0.4,0.1,-0.4c0.1,0.3,0.6,0.8,1.3,1.3c0.7,0.6,1.6,1,2.3,1.1c0,0,0.1,-0.2,0.2,-0.4c0.1,-0.1,0.3,-0.3,0.3,-0.4c-0.6,0.1,-1.7,-0.4,-2.5,-0.9c-0.7,-0.5,-1.3,-1,-1.4,-1.1m0.9,-1.9c-0.3,0.2,-0.7,0.3,-0.8,0.4c0.1,-0.1,0.5,-0.4,0.4,-0.9c0,-0.1,0,-0.3,-0.1,-0.5c-0.1,-0.1,-0.2,-0.1,-0.3,-0.2c0,0,-0.2,-0.1,-0.1,-0.2c0.1,0,0.7,0,1.1,0.2c0.5,0.5,0.1,0.9,-0.2,1.2m-1.4,0.1c-0.1,0.2,-0.2,0.4,-0.2,0.4c-0.1,0,-0.1,0,-0.1,0.1c0.1,0,0,0,0,0c0,-0.1,0,-0.1,-0.1,-0.2c-0.1,0,-0.3,0,-0.5,0c-0.6,0,-0.7,0.1,-0.8,0.1c0,0.1,0,0.1,-0.1,0c0,0,-0.1,-0.1,-0.2,-0.3c0,0,0,-0.1,0,-0.2c-0.1,0,-0.1,-0.2,-0.1,-0.3c0,-0.1,0.2,-0.4,0.4,-0.5c0.2,-0.2,0.5,-0.2,0.7,-0.2c0.2,0,0.4,0,0.6,0.2c0.3,0.1,0.4,0.2,0.4,0.3c0.1,0.2,0.1,0.4,0,0.6m-0.4,1.6c0,0,-0.1,0.3,-0.1,0.5c-0.1,0.3,-0.2,0.6,-0.4,0.6c-0.3,0,-0.4,-0.3,-0.5,-0.6c0,-0.2,0,-0.5,0,-0.5c0,0,-0.1,-0.1,-0.1,-0.3c0.1,-0.1,0.2,-0.2,0.6,-0.3c0.3,0,0.4,0.2,0.5,0.3c0,0.2,0,0.3,0,0.3m-2.3,-1.3l0,0.1c-0.1,-0.1,-1.4,-0.8,-0.9,-1.6c0.1,0,0.1,0,0.2,0c0.4,-0.4,1,-0.2,1,-0.2c-0.9,0.6,-0.5,1.7,-0.3,1.7Z" class="g13_16" />
</svg>