<?xml version="1.0" encoding="UTF-8" standalone="no"?>
<!DOCTYPE svg PUBLIC "-//W3C//DTD SVG 1.1//EN"
"http://www.w3.org/Graphics/SVG/1.1/DTD/svg11.dtd">
<svg version="1.1" xmlns="http://www.w3.org/2000/svg" xmlns:xlink="http://www.w3.org/1999/xlink">
<defs>
<style type="text/css"><![CDATA[
.g7_17{
fill: #E7E8E9;
}
.g16_17{
fill: #FECD65;
}
.g10_17{
fill: #EE1D23;
}
.g6_17{
fill: none;
stroke: #231F20;
stroke-width: 2;
stroke-linecap: round;
stroke-linejoin: miter;
stroke-miterlimit: 4;
stroke-dasharray: 1,5;
}
.g9_17{
fill: #FFFFFF;
}
.g1_17{
fill: #00AEEF;
stroke: #231F20;
stroke-width: 2;
stroke-linecap: butt;
stroke-linejoin: miter;
stroke-miterlimit: 4;
}
.g5_17{
fill: none;
stroke: #231F20;
stroke-width: 1;
stroke-linecap: butt;
stroke-linejoin: miter;
stroke-miterlimit: 4;
stroke-dasharray: 5,5;
}
.g13_17{
fill: #0089D0;
}
.g4_17{
fill: none;
stroke: #636366;
stroke-width: 1;
stroke-linecap: round;
stroke-linejoin: miter;
stroke-miterlimit: 4;
}
.g15_17{
fill: none;
stroke: #FFFFFF;
stroke-width: 1;
stroke-linecap: round;
stroke-linejoin: miter;
stroke-miterlimit: 4;
}
.g11_17{
fill: none;
stroke: #231F20;
stroke-width: 1;
stroke-linecap: round;
stroke-linejoin: miter;
stroke-miterlimit: 4;
}
.g14_17{
fill: #FAB886;
}
.g12_17{
fill: #00A54F;
}
.g8_17{
fill: none;
stroke: #231F20;
stroke-width: 1;
stroke-linecap: butt;
stroke-linejoin: miter;
stroke-miterlimit: 4;
}
.g2_17{
fill: #231F20;
}
.g3_17{
fill: #BAE5FA;
stroke: #636366;
stroke-width: 1;
stroke-linecap: butt;
stroke-linejoin: miter;
stroke-miterlimit: 4;
}
]]></style>
</defs>
<path d="M555,67l329,0l0,-16L555,51l0,16Z" class="g1_17" />
<image x="570" y="198" width="195" height="29" xlink:href="img/1.png" />
<path d="M908,300L60,300l0,-52l848,0l0,52Z" class="g1_17" />
<path d="M72,1157l-7,0l0,-8l7,0l0,8Z" class="g2_17" />
<path d="M728.5,539.5l180,0l0,43l-180,0l0,-43Z" class="g3_17" />
<path d="M728.5,581.5l180,0l0,27l-180,0l0,-27Z" class="g4_17" />
<path d="M728.5,608.5l180,0l0,27l-180,0l0,-27Z" class="g4_17" />
<path d="M728.5,635.5l180,0l0,27l-180,0l0,-27Z" class="g4_17" />
<path d="M728.5,662.5l180,0l0,26l-180,0l0,-26Z" class="g4_17" />
<path d="M728.5,688.5l180,0l0,27l-180,0l0,-27Z" class="g4_17" />
<path d="M728.5,715.5l180,0l0,27l-180,0l0,-27Z" class="g4_17" />
<path d="M728.5,742.5l180,0l0,27l-180,0l0,-27Z" class="g4_17" />
<path d="M728.5,769.5l180,0l0,26l-180,0l0,-26Z" class="g4_17" />
<path d="M728.5,795.5l180,0l0,27l-180,0l0,-27Z" class="g4_17" />
<path d="M728.5,822.5l180,0l0,27l-180,0l0,-27Z" class="g4_17" />
<path d="M728.5,849.5l180,0l0,27l-180,0l0,-27Z" class="g4_17" />
<path d="M728.5,876.5l180,0l0,26l-180,0l0,-26Z" class="g4_17" />
<path d="M728.5,902.5l180,0l0,27l-180,0l0,-27Z" class="g4_17" />
<path d="M728.5,929.5l180,0l0,27l-180,0l0,-27Z" class="g4_17" />
<path d="M728.5,956.5l180,0l0,27l-180,0l0,-27Z" class="g4_17" />
<path d="M728.5,983.5l180,0l0,26l-180,0l0,-26Z" class="g4_17" />
<path d="M728.5,1009.5l180,0l0,27l-180,0l0,-27Z" class="g4_17" />
<path d="M728.5,1036.5l180,0l0,27l-180,0l0,-27Z" class="g4_17" />
<path d="M728.5,1063.5l180,0l0,27l-180,0l0,-27Z" class="g4_17" />
<path d="M728.5,1090.5l180,0l0,26l-180,0l0,-26Z" class="g4_17" />
<path d="M548.5,539.5l180,0l0,43l-180,0l0,-43Z" class="g3_17" />
<path d="M548.5,581.5l180,0l0,27l-180,0l0,-27Z" class="g4_17" />
<path d="M548.5,608.5l180,0l0,27l-180,0l0,-27Z" class="g4_17" />
<path d="M548.5,635.5l180,0l0,27l-180,0l0,-27Z" class="g4_17" />
<path d="M548.5,662.5l180,0l0,26l-180,0l0,-26Z" class="g4_17" />
<path d="M548.5,688.5l180,0l0,27l-180,0l0,-27Z" class="g4_17" />
<path d="M548.5,715.5l180,0l0,27l-180,0l0,-27Z" class="g4_17" />
<path d="M548.5,742.5l180,0l0,27l-180,0l0,-27Z" class="g4_17" />
<path d="M548.5,769.5l180,0l0,26l-180,0l0,-26Z" class="g4_17" />
<path d="M548.5,795.5l180,0l0,27l-180,0l0,-27Z" class="g4_17" />
<path d="M548.5,822.5l180,0l0,27l-180,0l0,-27Z" class="g4_17" />
<path d="M548.5,849.5l180,0l0,27l-180,0l0,-27Z" class="g4_17" />
<path d="M548.5,876.5l180,0l0,26l-180,0l0,-26Z" class="g4_17" />
<path d="M548.5,902.5l180,0l0,27l-180,0l0,-27Z" class="g4_17" />
<path d="M548.5,929.5l180,0l0,27l-180,0l0,-27Z" class="g4_17" />
<path d="M548.5,956.5l180,0l0,27l-180,0l0,-27Z" class="g4_17" />
<path d="M548.5,983.5l180,0l0,26l-180,0l0,-26Z" class="g4_17" />
<path d="M548.5,1009.5l180,0l0,27l-180,0l0,-27Z" class="g4_17" />
<path d="M548.5,1036.5l180,0l0,27l-180,0l0,-27Z" class="g4_17" />
<path d="M548.5,1063.5l180,0l0,27l-180,0l0,-27Z" class="g4_17" />
<path d="M548.5,1090.5l180,0l0,26l-180,0l0,-26Z" class="g4_17" />
<path d="M60.5,539.5l244,0l0,43l-244,0l0,-43Z" class="g3_17" />
<path d="M304.5,539.5l244,0l0,43l-244,0l0,-43Z" class="g3_17" />
<path d="M60.5,581.5l244,0l0,27l-244,0l0,-27Z" class="g4_17" />
<path d="M304.5,581.5l244,0l0,27l-244,0l0,-27Z" class="g4_17" />
<path d="M60.5,608.5l244,0l0,27l-244,0l0,-27Z" class="g4_17" />
<path d="M304.5,608.5l244,0l0,27l-244,0l0,-27Z" class="g4_17" />
<path d="M60.5,635.5l244,0l0,27l-244,0l0,-27Z" class="g4_17" />
<path d="M304.5,635.5l244,0l0,27l-244,0l0,-27Z" class="g4_17" />
<path d="M60.5,662.5l244,0l0,26l-244,0l0,-26Z" class="g4_17" />
<path d="M304.5,662.5l244,0l0,26l-244,0l0,-26Z" class="g4_17" />
<path d="M60.5,688.5l244,0l0,27l-244,0l0,-27Z" class="g4_17" />
<path d="M304.5,688.5l244,0l0,27l-244,0l0,-27Z" class="g4_17" />
<path d="M60.5,715.5l244,0l0,27l-244,0l0,-27Z" class="g4_17" />
<path d="M304.5,715.5l244,0l0,27l-244,0l0,-27Z" class="g4_17" />
<path d="M60.5,742.5l244,0l0,27l-244,0l0,-27Z" class="g4_17" />
<path d="M304.5,742.5l244,0l0,27l-244,0l0,-27Z" class="g4_17" />
<path d="M60.5,769.5l244,0l0,26l-244,0l0,-26Z" class="g4_17" />
<path d="M304.5,769.5l244,0l0,26l-244,0l0,-26Z" class="g4_17" />
<path d="M60.5,795.5l244,0l0,27l-244,0l0,-27Z" class="g4_17" />
<path d="M304.5,795.5l244,0l0,27l-244,0l0,-27Z" class="g4_17" />
<path d="M60.5,822.5l244,0l0,27l-244,0l0,-27Z" class="g4_17" />
<path d="M304.5,822.5l244,0l0,27l-244,0l0,-27Z" class="g4_17" />
<path d="M60.5,849.5l244,0l0,27l-244,0l0,-27Z" class="g4_17" />
<path d="M304.5,849.5l244,0l0,27l-244,0l0,-27Z" class="g4_17" />
<path d="M60.5,876.5l244,0l0,26l-244,0l0,-26Z" class="g4_17" />
<path d="M304.5,876.5l244,0l0,26l-244,0l0,-26Z" class="g4_17" />
<path d="M60.5,902.5l244,0l0,27l-244,0l0,-27Z" class="g4_17" />
<path d="M304.5,902.5l244,0l0,27l-244,0l0,-27Z" class="g4_17" />
<path d="M60.5,929.5l244,0l0,27l-244,0l0,-27Z" class="g4_17" />
<path d="M304.5,929.5l244,0l0,27l-244,0l0,-27Z" class="g4_17" />
<path d="M60.5,956.5l244,0l0,27l-244,0l0,-27Z" class="g4_17" />
<path d="M304.5,956.5l244,0l0,27l-244,0l0,-27Z" class="g4_17" />
<path d="M60.5,983.5l244,0l0,26l-244,0l0,-26Z" class="g4_17" />
<path d="M304.5,983.5l244,0l0,26l-244,0l0,-26Z" class="g4_17" />
<path d="M60.5,1009.5l244,0l0,27l-244,0l0,-27Z" class="g4_17" />
<path d="M304.5,1009.5l244,0l0,27l-244,0l0,-27Z" class="g4_17" />
<path d="M60.5,1036.5l244,0l0,27l-244,0l0,-27Z" class="g4_17" />
<path d="M304.5,1036.5l244,0l0,27l-244,0l0,-27Z" class="g4_17" />
<path d="M60.5,1063.5l244,0l0,27l-244,0l0,-27Z" class="g4_17" />
<path d="M304.5,1063.5l244,0l0,27l-244,0l0,-27Z" class="g4_17" />
<path d="M60.5,1090.5l244,0l0,26l-244,0l0,-26Z" class="g4_17" />
<path d="M304.5,1090.5l244,0l0,26l-244,0l0,-26Z" class="g4_17" />
<path d="M25.5,0.5l0,1540" class="g5_17" />
<path d="M500,1315l285,0" class="g6_17" />
<path d="M497.9,1408.1c0,-1.2,0.9,-2.1,2.1,-2.1l31.7,0c1.2,0,2.2,0.9,2.2,2.1l0,22.7c0,1.1,-1,2.1,-2.2,2.1l-31.7,0c-1.2,0,-2.1,-1,-2.1,-2.1Z" class="g7_17" />
<path d="M497.9,1408.1c0,-1.2,0.9,-2.1,2.1,-2.1l31.7,0c1.2,0,2.2,0.9,2.2,2.1l0,22.7c0,1.1,-1,2.1,-2.2,2.1l-31.7,0c-1.2,0,-2.1,-1,-2.1,-2.1l0,-22.7Z" class="g8_17" />
<path d="M533.9,1408.1c0,-1.2,1,-2.1,2.2,-2.1l31.7,0c1.2,0,2.1,0.9,2.1,2.1l0,22.7c0,1.1,-0.9,2.1,-2.1,2.1l-31.7,0c-1.2,0,-2.2,-1,-2.2,-2.1Z" class="g7_17" />
<path d="M533.9,1408.1c0,-1.2,1,-2.1,2.2,-2.1l31.7,0c1.2,0,2.1,0.9,2.1,2.1l0,22.7c0,1.1,-0.9,2.1,-2.1,2.1l-31.7,0c-1.2,0,-2.2,-1,-2.2,-2.1l0,-22.7Z" class="g8_17" />
<path d="M569.9,1408.1c0,-1.2,1,-2.1,2.2,-2.1l31.7,0c1.2,0,2.2,0.9,2.2,2.1l0,22.7c0,1.1,-1,2.1,-2.2,2.1l-31.7,0c-1.2,0,-2.2,-1,-2.2,-2.1Z" class="g7_17" />
<path d="M569.9,1408.1c0,-1.2,1,-2.1,2.2,-2.1l31.7,0c1.2,0,2.2,0.9,2.2,2.1l0,22.7c0,1.1,-1,2.1,-2.2,2.1l-31.7,0c-1.2,0,-2.2,-1,-2.2,-2.1l0,-22.7Z" class="g8_17" />
<path d="M606,1408.1c0,-1.2,0.9,-2.1,2.1,-2.1l31.7,0c1.2,0,2.2,0.9,2.2,2.1l0,22.7c0,1.1,-1,2.1,-2.2,2.1l-31.7,0c-1.2,0,-2.1,-1,-2.1,-2.1Z" class="g7_17" />
<path d="M606,1408.1c0,-1.2,0.9,-2.1,2.1,-2.1l31.7,0c1.2,0,2.2,0.9,2.2,2.1l0,22.7c0,1.1,-1,2.1,-2.2,2.1l-31.7,0c-1.2,0,-2.1,-1,-2.1,-2.1l0,-22.7Z" class="g8_17" />
<path d="M642,1408.1c0,-1.2,1,-2.1,2.1,-2.1l31.7,0c1.2,0,2.2,0.9,2.2,2.1l0,22.7c0,1.1,-1,2.1,-2.2,2.1l-31.7,0c-1.1,0,-2.1,-1,-2.1,-2.1Z" class="g7_17" />
<path d="M642,1408.1c0,-1.2,1,-2.1,2.1,-2.1l31.7,0c1.2,0,2.2,0.9,2.2,2.1l0,22.7c0,1.1,-1,2.1,-2.2,2.1l-31.7,0c-1.1,0,-2.1,-1,-2.1,-2.1l0,-22.7Z" class="g8_17" />
<path d="M678,1408.1c0,-1.2,1,-2.1,2.2,-2.1l31.7,0c1.2,0,2.1,0.9,2.1,2.1l0,22.7c0,1.1,-0.9,2.1,-2.1,2.1l-31.7,0c-1.2,0,-2.2,-1,-2.2,-2.1Z" class="g7_17" />
<path d="M678,1408.1c0,-1.2,1,-2.1,2.2,-2.1l31.7,0c1.2,0,2.1,0.9,2.1,2.1l0,22.7c0,1.1,-0.9,2.1,-2.1,2.1l-31.7,0c-1.2,0,-2.2,-1,-2.2,-2.1l0,-22.7Z" class="g8_17" />
<path d="M714,1408.1c0,-1.2,1,-2.1,2.2,-2.1l31.7,0c1.2,0,2.2,0.9,2.2,2.1l0,22.7c0,1.1,-1,2.1,-2.2,2.1l-31.7,0c-1.2,0,-2.2,-1,-2.2,-2.1Z" class="g7_17" />
<path d="M714,1408.1c0,-1.2,1,-2.1,2.2,-2.1l31.7,0c1.2,0,2.2,0.9,2.2,2.1l0,22.7c0,1.1,-1,2.1,-2.2,2.1l-31.7,0c-1.2,0,-2.2,-1,-2.2,-2.1l0,-22.7Z" class="g8_17" />
<path d="M750.1,1408.1c0,-1.2,0.9,-2.1,2.1,-2.1l31.7,0c1.2,0,2.2,0.9,2.2,2.1l0,22.7c0,1.1,-1,2.1,-2.2,2.1l-31.7,0c-1.2,0,-2.1,-1,-2.1,-2.1Z" class="g7_17" />
<path d="M750.1,1408.1c0,-1.2,0.9,-2.1,2.1,-2.1l31.7,0c1.2,0,2.2,0.9,2.2,2.1l0,22.7c0,1.1,-1,2.1,-2.2,2.1l-31.7,0c-1.2,0,-2.1,-1,-2.1,-2.1l0,-22.7Z" class="g8_17" />
<path d="M435.7,1345.7c0,-1.2,0.9,-2.1,2.1,-2.1l22.6,0c1.2,0,2.1,0.9,2.1,2.1l0,23.5c0,1.2,-0.9,2.2,-2.1,2.2l-22.6,0c-1.2,0,-2.1,-1,-2.1,-2.2Z" class="g9_17" />
<path d="M435.7,1345.7c0,-1.2,0.9,-2.1,2.1,-2.1l22.6,0c1.2,0,2.1,0.9,2.1,2.1l0,23.5c0,1.2,-0.9,2.2,-2.1,2.2l-22.6,0c-1.2,0,-2.1,-1,-2.1,-2.2l0,-23.5Z" class="g8_17" />
<path d="M462.5,1345.7c0,-1.2,1,-2.1,2.2,-2.1l22.5,0c1.2,0,2.2,0.9,2.2,2.1l0,23.5c0,1.2,-1,2.2,-2.2,2.2l-22.5,0c-1.2,0,-2.2,-1,-2.2,-2.2Z" class="g9_17" />
<path d="M462.5,1345.7c0,-1.2,1,-2.1,2.2,-2.1l22.5,0c1.2,0,2.2,0.9,2.2,2.1l0,23.5c0,1.2,-1,2.2,-2.2,2.2l-22.5,0c-1.2,0,-2.2,-1,-2.2,-2.2l0,-23.5Z" class="g8_17" />
<path d="M489.4,1345.7c0,-1.2,1,-2.1,2.2,-2.1l22.5,0c1.2,0,2.2,0.9,2.2,2.1l0,23.5c0,1.2,-1,2.2,-2.2,2.2l-22.5,0c-1.2,0,-2.2,-1,-2.2,-2.2Z" class="g9_17" />
<path d="M489.4,1345.7c0,-1.2,1,-2.1,2.2,-2.1l22.5,0c1.2,0,2.2,0.9,2.2,2.1l0,23.5c0,1.2,-1,2.2,-2.2,2.2l-22.5,0c-1.2,0,-2.2,-1,-2.2,-2.2l0,-23.5Z" class="g8_17" />
<path d="M516.3,1345.7c0,-1.2,1,-2.1,2.2,-2.1l22.5,0c1.2,0,2.2,0.9,2.2,2.1l0,23.5c0,1.2,-1,2.2,-2.2,2.2l-22.5,0c-1.2,0,-2.2,-1,-2.2,-2.2Z" class="g9_17" />
<path d="M516.3,1345.7c0,-1.2,1,-2.1,2.2,-2.1l22.5,0c1.2,0,2.2,0.9,2.2,2.1l0,23.5c0,1.2,-1,2.2,-2.2,2.2l-22.5,0c-1.2,0,-2.2,-1,-2.2,-2.2l0,-23.5Z" class="g8_17" />
<path d="M543.2,1345.7c0,-1.2,0.9,-2.1,2.1,-2.1l22.6,0c1.2,0,2.2,0.9,2.2,2.1l0,23.5c0,1.2,-1,2.2,-2.2,2.2l-22.6,0c-1.2,0,-2.1,-1,-2.1,-2.2Z" class="g9_17" />
<path d="M543.2,1345.7c0,-1.2,0.9,-2.1,2.1,-2.1l22.6,0c1.2,0,2.2,0.9,2.2,2.1l0,23.5c0,1.2,-1,2.2,-2.2,2.2l-22.6,0c-1.2,0,-2.1,-1,-2.1,-2.2l0,-23.5Z" class="g8_17" />
<path d="M570.1,1345.7c0,-1.2,0.9,-2.1,2.1,-2.1l22.6,0c1.2,0,2.1,0.9,2.1,2.1l0,23.5c0,1.2,-0.9,2.2,-2.1,2.2l-22.6,0c-1.2,0,-2.1,-1,-2.1,-2.2Z" class="g9_17" />
<path d="M570.1,1345.7c0,-1.2,0.9,-2.1,2.1,-2.1l22.6,0c1.2,0,2.1,0.9,2.1,2.1l0,23.5c0,1.2,-0.9,2.2,-2.1,2.2l-22.6,0c-1.2,0,-2.1,-1,-2.1,-2.2l0,-23.5Z" class="g8_17" />
<path d="M596.9,1345.7c0,-1.2,1,-2.1,2.2,-2.1l22.6,0c1.1,0,2.1,0.9,2.1,2.1l0,23.5c0,1.2,-1,2.2,-2.1,2.2l-22.6,0c-1.2,0,-2.2,-1,-2.2,-2.2Z" class="g9_17" />
<path d="M596.9,1345.7c0,-1.2,1,-2.1,2.2,-2.1l22.6,0c1.1,0,2.1,0.9,2.1,2.1l0,23.5c0,1.2,-1,2.2,-2.1,2.2l-22.6,0c-1.2,0,-2.2,-1,-2.2,-2.2l0,-23.5Z" class="g8_17" />
<path d="M623.8,1345.7c0,-1.2,1,-2.1,2.2,-2.1l22.5,0c1.2,0,2.2,0.9,2.2,2.1l0,23.5c0,1.2,-1,2.2,-2.2,2.2l-22.5,0c-1.2,0,-2.2,-1,-2.2,-2.2Z" class="g9_17" />
<path d="M623.8,1345.7c0,-1.2,1,-2.1,2.2,-2.1l22.5,0c1.2,0,2.2,0.9,2.2,2.1l0,23.5c0,1.2,-1,2.2,-2.2,2.2l-22.5,0c-1.2,0,-2.2,-1,-2.2,-2.2l0,-23.5Z" class="g8_17" />
<path d="M650.7,1345.7c0,-1.2,1,-2.1,2.2,-2.1l22.5,0c1.2,0,2.2,0.9,2.2,2.1l0,23.5c0,1.2,-1,2.2,-2.2,2.2l-22.5,0c-1.2,0,-2.2,-1,-2.2,-2.2Z" class="g9_17" />
<path d="M650.7,1345.7c0,-1.2,1,-2.1,2.2,-2.1l22.5,0c1.2,0,2.2,0.9,2.2,2.1l0,23.5c0,1.2,-1,2.2,-2.2,2.2l-22.5,0c-1.2,0,-2.2,-1,-2.2,-2.2l0,-23.5Z" class="g8_17" />
<path d="M677.6,1345.7c0,-1.2,1,-2.1,2.1,-2.1l22.6,0c1.2,0,2.2,0.9,2.2,2.1l0,23.5c0,1.2,-1,2.2,-2.2,2.2l-22.6,0c-1.1,0,-2.1,-1,-2.1,-2.2Z" class="g9_17" />
<path d="M677.6,1345.7c0,-1.2,1,-2.1,2.1,-2.1l22.6,0c1.2,0,2.2,0.9,2.2,2.1l0,23.5c0,1.2,-1,2.2,-2.2,2.2l-22.6,0c-1.1,0,-2.1,-1,-2.1,-2.2l0,-23.5Z" class="g8_17" />
<path d="M704.5,1345.7c0,-1.2,0.9,-2.1,2.1,-2.1l22.6,0c1.2,0,2.1,0.9,2.1,2.1l0,23.5c0,1.2,-0.9,2.2,-2.1,2.2l-22.6,0c-1.2,0,-2.1,-1,-2.1,-2.2Z" class="g9_17" />
<path d="M704.5,1345.7c0,-1.2,0.9,-2.1,2.1,-2.1l22.6,0c1.2,0,2.1,0.9,2.1,2.1l0,23.5c0,1.2,-0.9,2.2,-2.1,2.2l-22.6,0c-1.2,0,-2.1,-1,-2.1,-2.2l0,-23.5Z" class="g8_17" />
<path d="M731.3,1345.7c0,-1.2,1,-2.1,2.2,-2.1l22.6,0c1.1,0,2.1,0.9,2.1,2.1l0,23.5c0,1.2,-1,2.2,-2.1,2.2l-22.6,0c-1.2,0,-2.2,-1,-2.2,-2.2Z" class="g9_17" />
<path d="M731.3,1345.7c0,-1.2,1,-2.1,2.2,-2.1l22.6,0c1.1,0,2.1,0.9,2.1,2.1l0,23.5c0,1.2,-1,2.2,-2.1,2.2l-22.6,0c-1.2,0,-2.2,-1,-2.2,-2.2l0,-23.5Z" class="g8_17" />
<path d="M758.2,1345.7c0,-1.2,1,-2.1,2.2,-2.1l22.5,0c1.2,0,2.2,0.9,2.2,2.1l0,23.5c0,1.2,-1,2.2,-2.2,2.2l-22.5,0c-1.2,0,-2.2,-1,-2.2,-2.2Z" class="g9_17" />
<path d="M758.2,1345.7c0,-1.2,1,-2.1,2.2,-2.1l22.5,0c1.2,0,2.2,0.9,2.2,2.1l0,23.5c0,1.2,-1,2.2,-2.2,2.2l-22.5,0c-1.2,0,-2.2,-1,-2.2,-2.2l0,-23.5Z" class="g8_17" />
<path d="M435.7,1373.6c0,-1.2,0.9,-2.2,2.1,-2.2l22.6,0c1.2,0,2.1,1,2.1,2.2l0,23.4c0,1.2,-0.9,2.2,-2.1,2.2l-22.6,0c-1.2,0,-2.1,-1,-2.1,-2.2Z" class="g9_17" />
<path d="M435.7,1373.6c0,-1.2,0.9,-2.2,2.1,-2.2l22.6,0c1.2,0,2.1,1,2.1,2.2l0,23.4c0,1.2,-0.9,2.2,-2.1,2.2l-22.6,0c-1.2,0,-2.1,-1,-2.1,-2.2l0,-23.4Z" class="g8_17" />
<path d="M462.5,1373.6c0,-1.2,1,-2.2,2.2,-2.2l22.5,0c1.2,0,2.2,1,2.2,2.2l0,23.4c0,1.2,-1,2.2,-2.2,2.2l-22.5,0c-1.2,0,-2.2,-1,-2.2,-2.2Z" class="g9_17" />
<path d="M462.5,1373.6c0,-1.2,1,-2.2,2.2,-2.2l22.5,0c1.2,0,2.2,1,2.2,2.2l0,23.4c0,1.2,-1,2.2,-2.2,2.2l-22.5,0c-1.2,0,-2.2,-1,-2.2,-2.2l0,-23.4Z" class="g8_17" />
<path d="M489.4,1373.6c0,-1.2,1,-2.2,2.2,-2.2l22.5,0c1.2,0,2.2,1,2.2,2.2l0,23.4c0,1.2,-1,2.2,-2.2,2.2l-22.5,0c-1.2,0,-2.2,-1,-2.2,-2.2Z" class="g9_17" />
<path d="M489.4,1373.6c0,-1.2,1,-2.2,2.2,-2.2l22.5,0c1.2,0,2.2,1,2.2,2.2l0,23.4c0,1.2,-1,2.2,-2.2,2.2l-22.5,0c-1.2,0,-2.2,-1,-2.2,-2.2l0,-23.4Z" class="g8_17" />
<path d="M516.3,1373.6c0,-1.2,1,-2.2,2.2,-2.2l22.5,0c1.2,0,2.2,1,2.2,2.2l0,23.4c0,1.2,-1,2.2,-2.2,2.2l-22.5,0c-1.2,0,-2.2,-1,-2.2,-2.2Z" class="g9_17" />
<path d="M516.3,1373.6c0,-1.2,1,-2.2,2.2,-2.2l22.5,0c1.2,0,2.2,1,2.2,2.2l0,23.4c0,1.2,-1,2.2,-2.2,2.2l-22.5,0c-1.2,0,-2.2,-1,-2.2,-2.2l0,-23.4Z" class="g8_17" />
<path d="M543.2,1373.6c0,-1.2,0.9,-2.2,2.1,-2.2l22.6,0c1.2,0,2.2,1,2.2,2.2l0,23.4c0,1.2,-1,2.2,-2.2,2.2l-22.6,0c-1.2,0,-2.1,-1,-2.1,-2.2Z" class="g9_17" />
<path d="M543.2,1373.6c0,-1.2,0.9,-2.2,2.1,-2.2l22.6,0c1.2,0,2.2,1,2.2,2.2l0,23.4c0,1.2,-1,2.2,-2.2,2.2l-22.6,0c-1.2,0,-2.1,-1,-2.1,-2.2l0,-23.4Z" class="g8_17" />
<path d="M570.1,1373.6c0,-1.2,0.9,-2.2,2.1,-2.2l22.6,0c1.2,0,2.1,1,2.1,2.2l0,23.4c0,1.2,-0.9,2.2,-2.1,2.2l-22.6,0c-1.2,0,-2.1,-1,-2.1,-2.2Z" class="g9_17" />
<path d="M570.1,1373.6c0,-1.2,0.9,-2.2,2.1,-2.2l22.6,0c1.2,0,2.1,1,2.1,2.2l0,23.4c0,1.2,-0.9,2.2,-2.1,2.2l-22.6,0c-1.2,0,-2.1,-1,-2.1,-2.2l0,-23.4Z" class="g8_17" />
<path d="M596.9,1373.6c0,-1.2,1,-2.2,2.2,-2.2l22.6,0c1.1,0,2.1,1,2.1,2.2l0,23.4c0,1.2,-1,2.2,-2.1,2.2l-22.6,0c-1.2,0,-2.2,-1,-2.2,-2.2Z" class="g9_17" />
<path d="M596.9,1373.6c0,-1.2,1,-2.2,2.2,-2.2l22.6,0c1.1,0,2.1,1,2.1,2.2l0,23.4c0,1.2,-1,2.2,-2.1,2.2l-22.6,0c-1.2,0,-2.2,-1,-2.2,-2.2l0,-23.4Z" class="g8_17" />
<path d="M623.8,1373.6c0,-1.2,1,-2.2,2.2,-2.2l22.5,0c1.2,0,2.2,1,2.2,2.2l0,23.4c0,1.2,-1,2.2,-2.2,2.2l-22.5,0c-1.2,0,-2.2,-1,-2.2,-2.2Z" class="g9_17" />
<path d="M623.8,1373.6c0,-1.2,1,-2.2,2.2,-2.2l22.5,0c1.2,0,2.2,1,2.2,2.2l0,23.4c0,1.2,-1,2.2,-2.2,2.2l-22.5,0c-1.2,0,-2.2,-1,-2.2,-2.2l0,-23.4Z" class="g8_17" />
<path d="M650.7,1373.6c0,-1.2,1,-2.2,2.2,-2.2l22.5,0c1.2,0,2.2,1,2.2,2.2l0,23.4c0,1.2,-1,2.2,-2.2,2.2l-22.5,0c-1.2,0,-2.2,-1,-2.2,-2.2Z" class="g9_17" />
<path d="M650.7,1373.6c0,-1.2,1,-2.2,2.2,-2.2l22.5,0c1.2,0,2.2,1,2.2,2.2l0,23.4c0,1.2,-1,2.2,-2.2,2.2l-22.5,0c-1.2,0,-2.2,-1,-2.2,-2.2l0,-23.4Z" class="g8_17" />
<path d="M677.6,1373.6c0,-1.2,1,-2.2,2.1,-2.2l22.6,0c1.2,0,2.2,1,2.2,2.2l0,23.4c0,1.2,-1,2.2,-2.2,2.2l-22.6,0c-1.1,0,-2.1,-1,-2.1,-2.2Z" class="g9_17" />
<path d="M677.6,1373.6c0,-1.2,1,-2.2,2.1,-2.2l22.6,0c1.2,0,2.2,1,2.2,2.2l0,23.4c0,1.2,-1,2.2,-2.2,2.2l-22.6,0c-1.1,0,-2.1,-1,-2.1,-2.2l0,-23.4Z" class="g8_17" />
<path d="M704.5,1373.6c0,-1.2,0.9,-2.2,2.1,-2.2l22.6,0c1.2,0,2.1,1,2.1,2.2l0,23.4c0,1.2,-0.9,2.2,-2.1,2.2l-22.6,0c-1.2,0,-2.1,-1,-2.1,-2.2Z" class="g9_17" />
<path d="M704.5,1373.6c0,-1.2,0.9,-2.2,2.1,-2.2l22.6,0c1.2,0,2.1,1,2.1,2.2l0,23.4c0,1.2,-0.9,2.2,-2.1,2.2l-22.6,0c-1.2,0,-2.1,-1,-2.1,-2.2l0,-23.4Z" class="g8_17" />
<path d="M731.3,1373.6c0,-1.2,1,-2.2,2.2,-2.2l22.6,0c1.1,0,2.1,1,2.1,2.2l0,23.4c0,1.2,-1,2.2,-2.1,2.2l-22.6,0c-1.2,0,-2.2,-1,-2.2,-2.2Z" class="g9_17" />
<path d="M731.3,1373.6c0,-1.2,1,-2.2,2.2,-2.2l22.6,0c1.1,0,2.1,1,2.1,2.2l0,23.4c0,1.2,-1,2.2,-2.1,2.2l-22.6,0c-1.2,0,-2.2,-1,-2.2,-2.2l0,-23.4Z" class="g8_17" />
<path d="M758.2,1373.6c0,-1.2,1,-2.2,2.2,-2.2l22.5,0c1.2,0,2.2,1,2.2,2.2l0,23.4c0,1.2,-1,2.2,-2.2,2.2l-22.5,0c-1.2,0,-2.2,-1,-2.2,-2.2Z" class="g9_17" />
<path d="M758.2,1373.6c0,-1.2,1,-2.2,2.2,-2.2l22.5,0c1.2,0,2.2,1,2.2,2.2l0,23.4c0,1.2,-1,2.2,-2.2,2.2l-22.5,0c-1.2,0,-2.2,-1,-2.2,-2.2l0,-23.4Z" class="g8_17" />
<path d="M131,1315l285,0" class="g6_17" />
<path d="M128.9,1408.1c0,-1.2,1,-2.1,2.1,-2.1l31.7,0c1.2,0,2.2,0.9,2.2,2.1l0,22.7c0,1.1,-1,2.1,-2.2,2.1l-31.7,0c-1.1,0,-2.1,-1,-2.1,-2.1Z" class="g7_17" />
<path d="M128.9,1408.1c0,-1.2,1,-2.1,2.1,-2.1l31.7,0c1.2,0,2.2,0.9,2.2,2.1l0,22.7c0,1.1,-1,2.1,-2.2,2.1l-31.7,0c-1.1,0,-2.1,-1,-2.1,-2.1l0,-22.7Z" class="g8_17" />
<path d="M164.9,1408.1c0,-1.2,1,-2.1,2.2,-2.1l31.7,0c1.2,0,2.1,0.9,2.1,2.1l0,22.7c0,1.1,-0.9,2.1,-2.1,2.1l-31.7,0c-1.2,0,-2.2,-1,-2.2,-2.1Z" class="g7_17" />
<path d="M164.9,1408.1c0,-1.2,1,-2.1,2.2,-2.1l31.7,0c1.2,0,2.1,0.9,2.1,2.1l0,22.7c0,1.1,-0.9,2.1,-2.1,2.1l-31.7,0c-1.2,0,-2.2,-1,-2.2,-2.1l0,-22.7Z" class="g8_17" />
<path d="M200.9,1408.1c0,-1.2,1,-2.1,2.2,-2.1l31.7,0c1.2,0,2.2,0.9,2.2,2.1l0,22.7c0,1.1,-1,2.1,-2.2,2.1l-31.7,0c-1.2,0,-2.2,-1,-2.2,-2.1Z" class="g7_17" />
<path d="M200.9,1408.1c0,-1.2,1,-2.1,2.2,-2.1l31.7,0c1.2,0,2.2,0.9,2.2,2.1l0,22.7c0,1.1,-1,2.1,-2.2,2.1l-31.7,0c-1.2,0,-2.2,-1,-2.2,-2.1l0,-22.7Z" class="g8_17" />
<path d="M237,1408.1c0,-1.2,0.9,-2.1,2.1,-2.1l31.7,0c1.2,0,2.2,0.9,2.2,2.1l0,22.7c0,1.1,-1,2.1,-2.2,2.1l-31.7,0c-1.2,0,-2.1,-1,-2.1,-2.1Z" class="g7_17" />
<path d="M237,1408.1c0,-1.2,0.9,-2.1,2.1,-2.1l31.7,0c1.2,0,2.2,0.9,2.2,2.1l0,22.7c0,1.1,-1,2.1,-2.2,2.1l-31.7,0c-1.2,0,-2.1,-1,-2.1,-2.1l0,-22.7Z" class="g8_17" />
<path d="M273,1408.1c0,-1.2,1,-2.1,2.1,-2.1l31.7,0c1.2,0,2.2,0.9,2.2,2.1l0,22.7c0,1.1,-1,2.1,-2.2,2.1l-31.7,0c-1.1,0,-2.1,-1,-2.1,-2.1Z" class="g7_17" />
<path d="M273,1408.1c0,-1.2,1,-2.1,2.1,-2.1l31.7,0c1.2,0,2.2,0.9,2.2,2.1l0,22.7c0,1.1,-1,2.1,-2.2,2.1l-31.7,0c-1.1,0,-2.1,-1,-2.1,-2.1l0,-22.7Z" class="g8_17" />
<path d="M309,1408.1c0,-1.2,1,-2.1,2.2,-2.1l31.7,0c1.2,0,2.1,0.9,2.1,2.1l0,22.7c0,1.1,-0.9,2.1,-2.1,2.1l-31.7,0c-1.2,0,-2.2,-1,-2.2,-2.1Z" class="g7_17" />
<path d="M309,1408.1c0,-1.2,1,-2.1,2.2,-2.1l31.7,0c1.2,0,2.1,0.9,2.1,2.1l0,22.7c0,1.1,-0.9,2.1,-2.1,2.1l-31.7,0c-1.2,0,-2.2,-1,-2.2,-2.1l0,-22.7Z" class="g8_17" />
<path d="M345,1408.1c0,-1.2,1,-2.1,2.2,-2.1l31.7,0c1.2,0,2.2,0.9,2.2,2.1l0,22.7c0,1.1,-1,2.1,-2.2,2.1l-31.7,0c-1.2,0,-2.2,-1,-2.2,-2.1Z" class="g7_17" />
<path d="M345,1408.1c0,-1.2,1,-2.1,2.2,-2.1l31.7,0c1.2,0,2.2,0.9,2.2,2.1l0,22.7c0,1.1,-1,2.1,-2.2,2.1l-31.7,0c-1.2,0,-2.2,-1,-2.2,-2.1l0,-22.7Z" class="g8_17" />
<path d="M381.1,1408.1c0,-1.2,0.9,-2.1,2.1,-2.1l31.7,0c1.2,0,2.2,0.9,2.2,2.1l0,22.7c0,1.1,-1,2.1,-2.2,2.1l-31.7,0c-1.2,0,-2.1,-1,-2.1,-2.1Z" class="g7_17" />
<path d="M381.1,1408.1c0,-1.2,0.9,-2.1,2.1,-2.1l31.7,0c1.2,0,2.2,0.9,2.2,2.1l0,22.7c0,1.1,-1,2.1,-2.2,2.1l-31.7,0c-1.2,0,-2.1,-1,-2.1,-2.1l0,-22.7Z" class="g8_17" />
<path d="M66.7,1345.7c0,-1.2,0.9,-2.1,2.1,-2.1l22.6,0c1.2,0,2.1,0.9,2.1,2.1l0,23.5c0,1.2,-0.9,2.2,-2.1,2.2l-22.6,0c-1.2,0,-2.1,-1,-2.1,-2.2Z" class="g9_17" />
<path d="M66.7,1345.7c0,-1.2,0.9,-2.1,2.1,-2.1l22.6,0c1.2,0,2.1,0.9,2.1,2.1l0,23.5c0,1.2,-0.9,2.2,-2.1,2.2l-22.6,0c-1.2,0,-2.1,-1,-2.1,-2.2l0,-23.5Z" class="g8_17" />
<path d="M93.5,1345.7c0,-1.2,1,-2.1,2.2,-2.1l22.6,0c1.1,0,2.1,0.9,2.1,2.1l0,23.5c0,1.2,-1,2.2,-2.1,2.2l-22.6,0c-1.2,0,-2.2,-1,-2.2,-2.2Z" class="g9_17" />
<path d="M93.5,1345.7c0,-1.2,1,-2.1,2.2,-2.1l22.6,0c1.1,0,2.1,0.9,2.1,2.1l0,23.5c0,1.2,-1,2.2,-2.1,2.2l-22.6,0c-1.2,0,-2.2,-1,-2.2,-2.2l0,-23.5Z" class="g8_17" />
<path d="M120.4,1345.7c0,-1.2,1,-2.1,2.2,-2.1l22.5,0c1.2,0,2.2,0.9,2.2,2.1l0,23.5c0,1.2,-1,2.2,-2.2,2.2l-22.5,0c-1.2,0,-2.2,-1,-2.2,-2.2Z" class="g9_17" />
<path d="M120.4,1345.7c0,-1.2,1,-2.1,2.2,-2.1l22.5,0c1.2,0,2.2,0.9,2.2,2.1l0,23.5c0,1.2,-1,2.2,-2.2,2.2l-22.5,0c-1.2,0,-2.2,-1,-2.2,-2.2l0,-23.5Z" class="g8_17" />
<path d="M147.3,1345.7c0,-1.2,1,-2.1,2.2,-2.1l22.5,0c1.2,0,2.2,0.9,2.2,2.1l0,23.5c0,1.2,-1,2.2,-2.2,2.2l-22.5,0c-1.2,0,-2.2,-1,-2.2,-2.2Z" class="g9_17" />
<path d="M147.3,1345.7c0,-1.2,1,-2.1,2.2,-2.1l22.5,0c1.2,0,2.2,0.9,2.2,2.1l0,23.5c0,1.2,-1,2.2,-2.2,2.2l-22.5,0c-1.2,0,-2.2,-1,-2.2,-2.2l0,-23.5Z" class="g8_17" />
<path d="M174.2,1345.7c0,-1.2,1,-2.1,2.1,-2.1l22.6,0c1.2,0,2.2,0.9,2.2,2.1l0,23.5c0,1.2,-1,2.2,-2.2,2.2l-22.6,0c-1.1,0,-2.1,-1,-2.1,-2.2Z" class="g9_17" />
<path d="M174.2,1345.7c0,-1.2,1,-2.1,2.1,-2.1l22.6,0c1.2,0,2.2,0.9,2.2,2.1l0,23.5c0,1.2,-1,2.2,-2.2,2.2l-22.6,0c-1.1,0,-2.1,-1,-2.1,-2.2l0,-23.5Z" class="g8_17" />
<path d="M201.1,1345.7c0,-1.2,0.9,-2.1,2.1,-2.1l22.6,0c1.2,0,2.1,0.9,2.1,2.1l0,23.5c0,1.2,-0.9,2.2,-2.1,2.2l-22.6,0c-1.2,0,-2.1,-1,-2.1,-2.2Z" class="g9_17" />
<path d="M201.1,1345.7c0,-1.2,0.9,-2.1,2.1,-2.1l22.6,0c1.2,0,2.1,0.9,2.1,2.1l0,23.5c0,1.2,-0.9,2.2,-2.1,2.2l-22.6,0c-1.2,0,-2.1,-1,-2.1,-2.2l0,-23.5Z" class="g8_17" />
<path d="M227.9,1345.7c0,-1.2,1,-2.1,2.2,-2.1l22.6,0c1.1,0,2.1,0.9,2.1,2.1l0,23.5c0,1.2,-1,2.2,-2.1,2.2l-22.6,0c-1.2,0,-2.2,-1,-2.2,-2.2Z" class="g9_17" />
<path d="M227.9,1345.7c0,-1.2,1,-2.1,2.2,-2.1l22.6,0c1.1,0,2.1,0.9,2.1,2.1l0,23.5c0,1.2,-1,2.2,-2.1,2.2l-22.6,0c-1.2,0,-2.2,-1,-2.2,-2.2l0,-23.5Z" class="g8_17" />
<path d="M254.8,1345.7c0,-1.2,1,-2.1,2.2,-2.1l22.5,0c1.2,0,2.2,0.9,2.2,2.1l0,23.5c0,1.2,-1,2.2,-2.2,2.2l-22.5,0c-1.2,0,-2.2,-1,-2.2,-2.2Z" class="g9_17" />
<path d="M254.8,1345.7c0,-1.2,1,-2.1,2.2,-2.1l22.5,0c1.2,0,2.2,0.9,2.2,2.1l0,23.5c0,1.2,-1,2.2,-2.2,2.2l-22.5,0c-1.2,0,-2.2,-1,-2.2,-2.2l0,-23.5Z" class="g8_17" />
<path d="M281.7,1345.7c0,-1.2,1,-2.1,2.2,-2.1l22.5,0c1.2,0,2.2,0.9,2.2,2.1l0,23.5c0,1.2,-1,2.2,-2.2,2.2l-22.5,0c-1.2,0,-2.2,-1,-2.2,-2.2Z" class="g9_17" />
<path d="M281.7,1345.7c0,-1.2,1,-2.1,2.2,-2.1l22.5,0c1.2,0,2.2,0.9,2.2,2.1l0,23.5c0,1.2,-1,2.2,-2.2,2.2l-22.5,0c-1.2,0,-2.2,-1,-2.2,-2.2l0,-23.5Z" class="g8_17" />
<path d="M308.6,1345.7c0,-1.2,1,-2.1,2.1,-2.1l22.6,0c1.2,0,2.2,0.9,2.2,2.1l0,23.5c0,1.2,-1,2.2,-2.2,2.2l-22.6,0c-1.1,0,-2.1,-1,-2.1,-2.2Z" class="g9_17" />
<path d="M308.6,1345.7c0,-1.2,1,-2.1,2.1,-2.1l22.6,0c1.2,0,2.2,0.9,2.2,2.1l0,23.5c0,1.2,-1,2.2,-2.2,2.2l-22.6,0c-1.1,0,-2.1,-1,-2.1,-2.2l0,-23.5Z" class="g8_17" />
<path d="M335.5,1345.7c0,-1.2,0.9,-2.1,2.1,-2.1l22.6,0c1.2,0,2.1,0.9,2.1,2.1l0,23.5c0,1.2,-0.9,2.2,-2.1,2.2l-22.6,0c-1.2,0,-2.1,-1,-2.1,-2.2Z" class="g9_17" />
<path d="M335.5,1345.7c0,-1.2,0.9,-2.1,2.1,-2.1l22.6,0c1.2,0,2.1,0.9,2.1,2.1l0,23.5c0,1.2,-0.9,2.2,-2.1,2.2l-22.6,0c-1.2,0,-2.1,-1,-2.1,-2.2l0,-23.5Z" class="g8_17" />
<path d="M362.3,1345.7c0,-1.2,1,-2.1,2.2,-2.1l22.6,0c1.1,0,2.1,0.9,2.1,2.1l0,23.5c0,1.2,-1,2.2,-2.1,2.2l-22.6,0c-1.2,0,-2.2,-1,-2.2,-2.2Z" class="g9_17" />
<path d="M362.3,1345.7c0,-1.2,1,-2.1,2.2,-2.1l22.6,0c1.1,0,2.1,0.9,2.1,2.1l0,23.5c0,1.2,-1,2.2,-2.1,2.2l-22.6,0c-1.2,0,-2.2,-1,-2.2,-2.2l0,-23.5Z" class="g8_17" />
<path d="M389.2,1345.7c0,-1.2,1,-2.1,2.2,-2.1l22.5,0c1.2,0,2.2,0.9,2.2,2.1l0,23.5c0,1.2,-1,2.2,-2.2,2.2l-22.5,0c-1.2,0,-2.2,-1,-2.2,-2.2Z" class="g9_17" />
<path d="M389.2,1345.7c0,-1.2,1,-2.1,2.2,-2.1l22.5,0c1.2,0,2.2,0.9,2.2,2.1l0,23.5c0,1.2,-1,2.2,-2.2,2.2l-22.5,0c-1.2,0,-2.2,-1,-2.2,-2.2l0,-23.5Z" class="g8_17" />
<path d="M66.7,1373.6c0,-1.2,0.9,-2.2,2.1,-2.2l22.6,0c1.2,0,2.1,1,2.1,2.2l0,23.4c0,1.2,-0.9,2.2,-2.1,2.2l-22.6,0c-1.2,0,-2.1,-1,-2.1,-2.2Z" class="g9_17" />
<path d="M66.7,1373.6c0,-1.2,0.9,-2.2,2.1,-2.2l22.6,0c1.2,0,2.1,1,2.1,2.2l0,23.4c0,1.2,-0.9,2.2,-2.1,2.2l-22.6,0c-1.2,0,-2.1,-1,-2.1,-2.2l0,-23.4Z" class="g8_17" />
<path d="M93.5,1373.6c0,-1.2,1,-2.2,2.2,-2.2l22.6,0c1.1,0,2.1,1,2.1,2.2l0,23.4c0,1.2,-1,2.2,-2.1,2.2l-22.6,0c-1.2,0,-2.2,-1,-2.2,-2.2Z" class="g9_17" />
<path d="M93.5,1373.6c0,-1.2,1,-2.2,2.2,-2.2l22.6,0c1.1,0,2.1,1,2.1,2.2l0,23.4c0,1.2,-1,2.2,-2.1,2.2l-22.6,0c-1.2,0,-2.2,-1,-2.2,-2.2l0,-23.4Z" class="g8_17" />
<path d="M120.4,1373.6c0,-1.2,1,-2.2,2.2,-2.2l22.5,0c1.2,0,2.2,1,2.2,2.2l0,23.4c0,1.2,-1,2.2,-2.2,2.2l-22.5,0c-1.2,0,-2.2,-1,-2.2,-2.2Z" class="g9_17" />
<path d="M120.4,1373.6c0,-1.2,1,-2.2,2.2,-2.2l22.5,0c1.2,0,2.2,1,2.2,2.2l0,23.4c0,1.2,-1,2.2,-2.2,2.2l-22.5,0c-1.2,0,-2.2,-1,-2.2,-2.2l0,-23.4Z" class="g8_17" />
<path d="M147.3,1373.6c0,-1.2,1,-2.2,2.2,-2.2l22.5,0c1.2,0,2.2,1,2.2,2.2l0,23.4c0,1.2,-1,2.2,-2.2,2.2l-22.5,0c-1.2,0,-2.2,-1,-2.2,-2.2Z" class="g9_17" />
<path d="M147.3,1373.6c0,-1.2,1,-2.2,2.2,-2.2l22.5,0c1.2,0,2.2,1,2.2,2.2l0,23.4c0,1.2,-1,2.2,-2.2,2.2l-22.5,0c-1.2,0,-2.2,-1,-2.2,-2.2l0,-23.4Z" class="g8_17" />
<path d="M174.2,1373.6c0,-1.2,1,-2.2,2.1,-2.2l22.6,0c1.2,0,2.2,1,2.2,2.2l0,23.4c0,1.2,-1,2.2,-2.2,2.2l-22.6,0c-1.1,0,-2.1,-1,-2.1,-2.2Z" class="g9_17" />
<path d="M174.2,1373.6c0,-1.2,1,-2.2,2.1,-2.2l22.6,0c1.2,0,2.2,1,2.2,2.2l0,23.4c0,1.2,-1,2.2,-2.2,2.2l-22.6,0c-1.1,0,-2.1,-1,-2.1,-2.2l0,-23.4Z" class="g8_17" />
<path d="M201.1,1373.6c0,-1.2,0.9,-2.2,2.1,-2.2l22.6,0c1.2,0,2.1,1,2.1,2.2l0,23.4c0,1.2,-0.9,2.2,-2.1,2.2l-22.6,0c-1.2,0,-2.1,-1,-2.1,-2.2Z" class="g9_17" />
<path d="M201.1,1373.6c0,-1.2,0.9,-2.2,2.1,-2.2l22.6,0c1.2,0,2.1,1,2.1,2.2l0,23.4c0,1.2,-0.9,2.2,-2.1,2.2l-22.6,0c-1.2,0,-2.1,-1,-2.1,-2.2l0,-23.4Z" class="g8_17" />
<path d="M227.9,1373.6c0,-1.2,1,-2.2,2.2,-2.2l22.6,0c1.1,0,2.1,1,2.1,2.2l0,23.4c0,1.2,-1,2.2,-2.1,2.2l-22.6,0c-1.2,0,-2.2,-1,-2.2,-2.2Z" class="g9_17" />
<path d="M227.9,1373.6c0,-1.2,1,-2.2,2.2,-2.2l22.6,0c1.1,0,2.1,1,2.1,2.2l0,23.4c0,1.2,-1,2.2,-2.1,2.2l-22.6,0c-1.2,0,-2.2,-1,-2.2,-2.2l0,-23.4Z" class="g8_17" />
<path d="M254.8,1373.6c0,-1.2,1,-2.2,2.2,-2.2l22.5,0c1.2,0,2.2,1,2.2,2.2l0,23.4c0,1.2,-1,2.2,-2.2,2.2l-22.5,0c-1.2,0,-2.2,-1,-2.2,-2.2Z" class="g9_17" />
<path d="M254.8,1373.6c0,-1.2,1,-2.2,2.2,-2.2l22.5,0c1.2,0,2.2,1,2.2,2.2l0,23.4c0,1.2,-1,2.2,-2.2,2.2l-22.5,0c-1.2,0,-2.2,-1,-2.2,-2.2l0,-23.4Z" class="g8_17" />
<path d="M281.7,1373.6c0,-1.2,1,-2.2,2.2,-2.2l22.5,0c1.2,0,2.2,1,2.2,2.2l0,23.4c0,1.2,-1,2.2,-2.2,2.2l-22.5,0c-1.2,0,-2.2,-1,-2.2,-2.2Z" class="g9_17" />
<path d="M281.7,1373.6c0,-1.2,1,-2.2,2.2,-2.2l22.5,0c1.2,0,2.2,1,2.2,2.2l0,23.4c0,1.2,-1,2.2,-2.2,2.2l-22.5,0c-1.2,0,-2.2,-1,-2.2,-2.2l0,-23.4Z" class="g8_17" />
<path d="M308.6,1373.6c0,-1.2,1,-2.2,2.1,-2.2l22.6,0c1.2,0,2.2,1,2.2,2.2l0,23.4c0,1.2,-1,2.2,-2.2,2.2l-22.6,0c-1.1,0,-2.1,-1,-2.1,-2.2Z" class="g9_17" />
<path d="M308.6,1373.6c0,-1.2,1,-2.2,2.1,-2.2l22.6,0c1.2,0,2.2,1,2.2,2.2l0,23.4c0,1.2,-1,2.2,-2.2,2.2l-22.6,0c-1.1,0,-2.1,-1,-2.1,-2.2l0,-23.4Z" class="g8_17" />
<path d="M335.5,1373.6c0,-1.2,0.9,-2.2,2.1,-2.2l22.6,0c1.2,0,2.1,1,2.1,2.2l0,23.4c0,1.2,-0.9,2.2,-2.1,2.2l-22.6,0c-1.2,0,-2.1,-1,-2.1,-2.2Z" class="g9_17" />
<path d="M335.5,1373.6c0,-1.2,0.9,-2.2,2.1,-2.2l22.6,0c1.2,0,2.1,1,2.1,2.2l0,23.4c0,1.2,-0.9,2.2,-2.1,2.2l-22.6,0c-1.2,0,-2.1,-1,-2.1,-2.2l0,-23.4Z" class="g8_17" />
<path d="M362.3,1373.6c0,-1.2,1,-2.2,2.2,-2.2l22.6,0c1.1,0,2.1,1,2.1,2.2l0,23.4c0,1.2,-1,2.2,-2.1,2.2l-22.6,0c-1.2,0,-2.2,-1,-2.2,-2.2Z" class="g9_17" />
<path d="M362.3,1373.6c0,-1.2,1,-2.2,2.2,-2.2l22.6,0c1.1,0,2.1,1,2.1,2.2l0,23.4c0,1.2,-1,2.2,-2.1,2.2l-22.6,0c-1.2,0,-2.2,-1,-2.2,-2.2l0,-23.4Z" class="g8_17" />
<path d="M389.2,1373.6c0,-1.2,1,-2.2,2.2,-2.2l22.5,0c1.2,0,2.2,1,2.2,2.2l0,23.4c0,1.2,-1,2.2,-2.2,2.2l-22.5,0c-1.2,0,-2.2,-1,-2.2,-2.2Z" class="g9_17" />
<path d="M389.2,1373.6c0,-1.2,1,-2.2,2.2,-2.2l22.5,0c1.2,0,2.2,1,2.2,2.2l0,23.4c0,1.2,-1,2.2,-2.2,2.2l-22.5,0c-1.2,0,-2.2,-1,-2.2,-2.2l0,-23.4Z" class="g8_17" />
<image x="804" y="1325" width="109" height="108" xlink:href="img/2.png" />
<path d="M75,1490.5c0,1.8,-1.5,3.3,-3.3,3.3l-11.8,0c-1.8,0,-3.3,-1.5,-3.3,-3.3l0,-11.8c0,-1.8,1.5,-3.3,3.3,-3.3l11.8,0c1.8,0,3.3,1.5,3.3,3.3Z" class="g10_17" />
<path d="M293.7,96.6l3,-1.8l8.4,-1.1l12,0l7.6,6.1l-7.8,8.2l-3.1,1.6l-3.3,0.9l-0.8,2l-1.1,0l-1.2,-2.1l-3,-0.7l-4.1,-2L294.8,99l-1,-2.2Z" class="g9_17" />
<path fill-rule="evenodd" d="M302.7,58.9c-0.1,0.1,-0.2,0.2,-0.4,0.2c-0.2,0,-0.4,0,-0.6,0c-0.1,0,-0.3,0.1,-0.5,0.3c-0.1,0.1,-0.3,0.3,-0.5,0.4c-0.3,0.1,-0.7,0.2,-1.2,0.1c0.4,0.3,0.7,0.4,1,0.4c0.3,0,0.6,-0.1,1,-0.2c0.2,-0.2,0.4,-0.2,0.7,-0.1c0.3,0,0.4,0,0.9,0.1c-0.4,0,-2.6,1.3,-2.6,1.3c0.3,0,-0.3,0.3,-0.4,0.5c0,-0.2,0,-0.3,-0.1,-0.4c0,-0.1,-0.1,-0.2,-0.2,-0.2c-0.3,0.5,-0.7,0.7,-1,1c-0.3,0.4,-0.6,0.7,-0.8,1.3c0,-0.1,-0.1,-0.3,-0.1,-0.5c-0.1,-0.1,-0.1,-0.2,-0.2,-0.2c-0.4,0.5,-0.7,0.8,-0.9,1.1c-0.3,0.4,-0.5,0.7,-0.6,1.3c-0.1,-0.2,-0.3,-0.6,-0.5,-0.7c-0.2,0.7,-0.6,1.2,-0.9,1.6c-0.3,0.5,-0.4,1,-0.3,1.9c0.1,0.3,0.1,0.9,0.1,1.1c0,-0.4,-0.1,-0.8,-0.3,-1c-0.2,-0.4,-0.4,-0.6,-0.6,-0.6c-0.3,0.4,-0.5,0.7,-0.7,1.1c-0.1,0.4,-0.2,0.7,-0.3,1.2c-0.1,-0.1,-0.4,-0.3,-0.5,-0.3c-0.1,0.7,-0.4,1.2,-0.6,1.7c-0.1,0.4,-0.1,1,0.4,1.8c0.3,0.2,-0.7,-0.7,-1,-0.7c-0.1,0.5,-0.6,1.8,-0.5,2.3C290.3,74.6,290,74.5,290,74.5c0,0.7,-0.1,1.3,-0.2,1.9c-0.1,0.9,0.6,1.7,0.3,1.3c-0.3,-0.4,-0.4,-0.5,-0.8,-0.5c0.1,0.8,0,1.2,-0.1,1.5c-0.1,0.3,-0.1,0.8,0.1,1.4c-0.1,-0.1,-0.8,-0.3,-0.9,-0.3c0.2,0.7,0.2,1.2,0.2,1.7c0.2,0.5,0.4,1,1.1,1.4c0.4,0.3,0.4,0.6,0,0.2c-0.5,-0.4,-0.9,-0.6,-1.3,-0.6c0.2,0.6,0.2,1.2,0.3,1.7c0.1,0.5,0.2,1,0.5,1.4c-0.2,-0.2,-1,-0.4,-1.2,-0.4c0.3,0.7,0.4,1.3,0.6,1.7c0.1,0.6,0.4,1,1,1.6c-0.2,-0.1,-1,-0.2,-1.1,-0.1c0.2,0.5,0.4,2,0.6,2.3c-0.1,0,-0.5,0.1,-0.6,0.1c0.4,0.6,1.1,2.3,1.6,2.7c-0.1,0,-0.5,0.1,-0.7,0.1c0.3,0.4,0.8,1.8,1,2.2c-0.1,0,-0.3,0.1,-0.4,0.1c0.5,0.4,0.7,0.9,0.9,1.2c0.2,0.5,0.5,0.8,0.9,1.1c-0.1,0,-0.5,0.1,-0.6,0.1c0.3,0.4,1.2,1.6,1.6,1.9c-0.2,0,-0.7,0.2,-0.7,0.3c0.5,0.3,0.8,0.7,1,1c0.3,0.3,0.6,0.7,1.2,0.8c-0.2,0,-0.7,0.2,-0.7,0.2c0.6,0.5,0.7,0.8,0.8,1.2c0.1,0.2,0.2,0.4,0.8,0.7c-0.1,0,-0.3,0.1,-0.3,0.1c0.7,0.4,1.1,1,1.6,1.5c0.6,0.4,1.4,0.9,2.8,0.9c0.7,0.7,2,1.5,3.4,2.1c1.4,0.7,2.9,1.2,4.3,1.4c-0.7,-0.2,-1.1,-0.7,-1.3,-1c-3.2,-0.8,-5.1,-2.4,-5.4,-2.9c-0.1,-0.2,-0.3,-1.5,-0.4,-1.8l0,-0.1c0.9,0.8,1.9,1.5,2.9,2c1,0.6,2,1,3,1.2c0.1,0,0.2,-0.1,0.2,-0.1c0.3,-0.3,0.8,-0.5,1.5,-0.5c-2.9,-0.4,-5.4,-1.7,-7.2,-3.3c-2.2,-1.9,-3.7,-4.1,-4.6,-5.5c-0.1,-0.1,1,-0.6,2.2,-1c1.2,-0.4,4.2,-1.3,4.2,-1.3c0,0.3,0.3,0.5,0.5,0.6c0.2,0.1,0.5,0,0.4,-0.1c0.1,0.1,0.1,0.2,0.1,0.4c0.1,0.1,0.1,0.3,0.4,0.5c0.3,0.2,0.5,0.2,0.6,0.2c0.2,0,0.3,0,0.3,-0.1l0.1,0l-0.1,0c-0.1,0.2,0.2,0.4,0.5,0.6c0.4,0.1,0.9,0.2,1.3,0c-0.1,0.1,0,0.3,0.2,0.3c0.1,0.1,0.3,0.1,0.4,0.2c0.1,0,0.4,0.1,0.6,0.1c0.2,0,0.5,0,0.7,-0.1l0,3.9c0,0.8,0.6,1,0.7,1.1c1.2,0.1,1.1,-0.7,1.1,-1c0,-0.8,0.1,-4.1,0.1,-4c0.5,-0.1,0.7,-0.2,0.9,-0.3c0.1,-0.1,0.1,-0.2,0.3,-0.2c0.2,0,0.4,0,0.6,0c0.2,-0.1,0.3,-0.3,0.5,-0.5c0.3,0,0.6,0,0.8,-0.1c0.3,-0.1,0.4,-0.3,0.5,-0.5c0.2,0,0.5,0,0.8,-0.2c0.3,-0.2,0.6,-0.6,0.8,-1c0.5,0.1,5.8,2.7,6.8,2.9c-0.5,0.7,-1.8,2.8,-4,4.7c-1.8,1.7,-4.3,3.2,-7.3,3.7c0.6,0,1.3,0.1,1.6,0.6c1,-0.2,1.9,-0.6,2.8,-1.1c1,-0.5,1.9,-1.1,2.8,-1.8l-0.1,0.1c0,0.4,-0.2,1.4,-0.3,1.6c-0.3,0.7,-1.3,1.2,-2.4,1.7c-0.9,0.4,-2,0.8,-2.7,1c-0.3,0.8,-1.4,1.2,-1.5,1.2c0.8,-0.1,2.5,-0.7,4.1,-1.3c1.6,-0.8,3.2,-1.6,4,-2.3c0.9,0.1,1.6,-0.3,2.2,-0.7c0.5,-0.4,1,-0.9,1.7,-1.3c0,-0.1,-0.3,-0.2,-0.4,-0.2c0.4,-0.2,0.7,-0.5,1,-0.8c0.3,-0.4,0.6,-0.7,1,-1c0,0,-0.5,-0.2,-0.6,-0.2c0.6,-0.2,0.7,-0.4,0.8,-0.7c0.1,-0.3,0.2,-0.6,0.8,-1.1c0,0,-0.1,0,-0.1,-0.1c0,0,-0.1,0,-0.1,0c0.4,-0.3,0.6,-0.6,0.7,-0.9c0.2,-0.4,0.4,-0.8,0.8,-1.2c-0.1,0,-0.6,-0.1,-0.7,-0.1c0.6,-0.3,0.9,-0.6,1.2,-1c0.2,-0.4,0.4,-0.8,0.8,-1.3c0,0,-0.4,-0.1,-0.5,-0.1c0.3,-0.3,0.4,-0.6,0.5,-1c0.2,-0.4,0.3,-0.9,0.6,-1.4c-0.1,-0.1,-0.7,0,-0.8,0c0.6,-0.2,0.8,-0.7,1,-1.1c0.2,-0.5,0.4,-1.1,0.7,-1.6c-0.1,0,-0.4,-0.1,-0.5,-0.1c0.4,-0.5,0.4,-0.6,0.3,-1c-0.1,-0.2,-0.2,-0.7,0.1,-1.6c-0.1,-0.1,-0.6,-0.1,-0.7,0c0.5,-0.4,0.6,-0.9,0.8,-1.4c0.1,-0.4,-0.1,-1.1,0.3,-1.7c-0.4,0,-1.8,0.9,-1.5,0.7c0.8,-0.5,1,-1,1.1,-1.5c0.1,-0.6,-0.1,-1.2,0,-1.9c-0.3,-0.1,-0.7,0.2,-1.1,0.6c-0.5,0.4,-0.4,0.1,0,-0.1c0.7,-0.4,0.9,-0.9,1,-1.5c0.1,-0.6,0.1,-1.2,0.3,-1.9c-0.1,0,-0.5,0.1,-0.7,0.1c0.2,-0.4,-0.2,-2,-0.2,-2.6c-0.3,0,-0.7,0.4,-1,0.8c-0.4,0.4,-0.4,0.1,-0.1,-0.1c0.6,-0.7,0.7,-1.3,0.5,-1.9c0,-0.5,-0.2,-1.1,-0.2,-1.8c0,0,-0.3,0,-0.3,0.1C327.6,73.9,327,72.7,327,72.2c-0.4,0.1,-1.2,1,-1,0.7c0.4,-0.7,0.4,-1.2,0.3,-1.7c-0.1,-0.5,-0.3,-1.1,-0.4,-1.8c-0.1,0,-0.5,0.3,-0.6,0.4c0,-0.5,-0.1,-0.8,-0.3,-1.2c-0.2,-0.3,-0.4,-0.7,-0.5,-1.2c-0.3,0.1,-0.6,0.3,-0.8,0.5c-0.3,0.3,-0.4,0.5,-0.3,0.8c0,-0.1,0.1,-0.8,0.2,-0.9c0,-0.9,-0.2,-1.4,-0.5,-1.9c-0.2,-0.4,-0.6,-0.8,-0.9,-1.5c-0.1,0.1,-0.5,0.8,-0.5,1c-0.1,-0.6,-0.3,-1,-0.5,-1.4c-0.3,-0.3,-0.6,-0.7,-0.9,-1.2c-0.2,0.1,-0.4,0.5,-0.4,1c-0.1,0.4,-0.2,0.5,-0.2,0.9c0,-0.1,0.1,0.1,0,0c0,-0.2,0,-0.4,0.1,-0.7c0,-0.9,-0.2,-1.4,-0.7,-1.8c-0.2,-0.2,-0.5,-0.4,-0.7,-0.6l0.2,0c0,0,-0.3,-0.2,-0.7,-0.4c0,0,-0.2,-0.2,-0.3,-0.1C316.9,60.6,316,60,315.9,60c-0.2,-0.1,0.8,-0.2,0.7,-0.2c-0.1,0,-0.7,-0.9,-0.7,-0.9l3.7,-0.7c0,-0.1,-3.7,-0.7,-3.7,-0.7c0,0,0.1,-0.1,0.2,-0.1c0.1,-0.1,0.3,-0.2,0.5,-0.2c0.2,0,0.4,0,0.5,0c0.3,-0.1,0.5,-0.2,0.6,-0.4c0.1,-0.1,0.2,-0.2,0.5,-0.4c0.3,-0.1,0.7,-0.3,1.2,-0.2c-0.4,-0.3,-0.8,-0.3,-1,-0.3c-0.3,0,-0.6,0.1,-1,0.2c-0.3,0.2,-0.5,0.2,-0.7,0.2c-0.3,0,-0.6,-0.1,-1,0c0,0,3.1,-2,3.1,-2L315,55.1c0.3,-0.4,0.7,-0.6,1,-0.7c0.2,-0.2,0.6,-0.3,0.7,-0.9c0.1,-0.1,0.2,-0.3,0.4,-0.4c0.2,-0.2,0.4,-0.4,0.7,-0.6c-0.3,0,-0.6,0,-1,0.2c-0.3,0.1,-0.7,0.5,-1,0.8c-0.1,0.1,-0.4,0.2,-0.7,0.3c-0.3,0.1,-0.6,0.2,-0.8,0.2l2.3,-3l-3.2,2c0.1,-0.4,0.3,-0.6,0.5,-0.8c0.2,-0.2,0.4,-0.4,0.4,-0.8c0,-0.2,0,-0.4,0.1,-0.7c0.1,-0.3,0.2,-0.7,0.6,-1c-0.4,0.1,-0.7,0.3,-0.9,0.6c-0.3,0.2,-0.5,0.6,-0.6,1.1c-0.1,0.2,-0.3,0.3,-0.6,0.5c-0.2,0.2,-0.5,0.3,-0.6,0.6c0,0,0.9,-3.7,0.9,-3.7L310.9,52c0,0,0,-0.1,0.1,-0.2c0,-0.1,0,-0.3,0.1,-0.5c0.1,-0.3,0.1,-0.5,0.2,-0.7l0,-0.5c-0.1,-0.3,-0.2,-0.5,-0.3,-0.8c0,-0.4,0.1,-0.7,0.3,-1.1c-0.6,0.4,-0.8,0.8,-0.8,1.2c-0.1,0.4,0,0.8,-0.2,1.1c0,0.2,-0.1,0.5,-0.2,0.7c-0.1,0.3,-0.2,0.5,-0.3,0.6L309.2,48l-0.7,3.8c-0.2,-0.3,-0.3,-0.6,-0.3,-0.8c0,-0.3,0,-0.6,-0.1,-0.8c-0.1,-0.4,-0.3,-0.5,-0.6,-0.7c-0.1,-0.2,-0.3,-0.6,-0.3,-1.3C307.1,48.4,307,48.7,307,49c0,0.3,0,0.7,0.3,1.5c0.1,0,0.1,0.3,0,0.6l0,0.9l-2,-3.2l0.9,3.7c-0.3,0,-0.5,-0.3,-0.6,-0.6c-0.2,-0.2,-0.4,-0.6,-0.5,-0.7c-0.2,-0.2,-0.5,-0.3,-0.9,-0.4c-0.2,-0.3,-0.5,-0.5,-0.7,-1.1c-0.1,0.4,-0.1,0.7,0.1,1c0.2,0.3,0.4,0.6,0.8,1c0.1,0.1,0.3,0.4,0.4,0.8c0.1,0.3,0.2,0.6,0.3,0.8L301.9,51c0,0,2.2,3.1,2.3,3.1c-0.4,0.1,-0.6,-0.2,-0.9,-0.4c-0.4,-0.3,-0.7,-0.5,-1.4,-0.5c-0.4,0,-0.8,-0.2,-1,-0.4c-0.2,-0.1,-0.3,-0.3,-0.2,-0.2c0.2,0.7,0.5,1,0.9,1.1c0.4,0.2,0.8,0.3,0.9,0.6c0.1,0,0.3,0.2,0.5,0.3c0.2,0.3,0.3,0.4,0.4,0.5l-3.7,-0.8l3.3,2c-0.3,0.1,-0.6,0,-1,-0.2c-0.4,0,-0.8,-0.1,-1.1,0c-0.6,0.3,-1,0.3,-1.3,0.3c-0.3,-0.1,-0.4,-0.3,-0.5,-0.3c0.3,0.5,0.6,0.7,0.9,0.7c0.3,0.1,0.6,0.1,1,0.1c0.2,0,0.5,0,0.8,0.2c0.3,0.1,0.6,0.2,0.9,0.3l-3.8,0.8Z" class="g2_17" />
<path fill-rule="evenodd" d="M308.2,109.4c0,0,-0.1,-0.1,-0.1,-0.2c0,0.1,0.1,0.2,0.1,0.2Z" class="g2_17" />
<path fill-rule="evenodd" d="M310.3,111.7c0,-0.1,0.1,-0.2,0.1,-0.2c0,0,-0.1,0.4,-0.2,0.4c0.1,0,0.1,-0.1,0.1,-0.2Z" class="g2_17" />
<path fill-rule="evenodd" d="M309.7,112.6c0.1,-0.1,0.2,-0.1,0.2,-0.2c-0.1,0.1,-0.2,0.2,-0.4,0.2c0.1,0,0.1,0,0.2,0Z" class="g2_17" />
<path fill-rule="evenodd" d="M328.9,87.1c-0.1,0.3,-0.2,0.6,-0.7,1.1c-0.3,0.1,-0.4,0.2,-0.5,0.3c-0.1,0.1,-0.1,0.2,-0.3,0.3c0.1,-0.2,0.2,-0.4,0.3,-0.5c0.1,-0.2,0.1,-0.3,0.3,-0.5c-0.2,0.1,-0.3,0.2,-0.4,0.3c-0.1,0.1,-0.2,0.2,-0.3,0.4c-0.1,-0.1,-0.2,-0.1,-0.3,-0.1c-0.1,-0.1,-0.2,-0.2,-0.3,-0.4c-0.2,-0.3,-0.2,-0.6,-0.2,-0.8c0,-0.3,0.1,-0.6,0.1,-0.9c0.2,0.3,0.4,0.5,0.6,0.8c0.2,0.2,0.4,0.4,0.4,0.6c0.1,-0.3,0.4,-0.8,0.8,-1.1c0.3,-0.4,0.7,-0.7,0.8,-0.7c-0.2,0.5,-0.2,0.9,-0.3,1.2m-1.1,2c0,0,0,-0.1,0.1,-0.1c0,-0.1,0.1,-0.2,0.2,-0.2c0,0,-0.1,0.1,-0.2,0.2c0,0,-0.1,0.1,-0.1,0.1m-0.5,0.3c0,0.1,0,0.1,0.1,0.1c0,0.1,0,0.1,0,0.1l0,0.1l0,0.1c0,-0.1,-0.1,-0.1,-0.1,-0.2c0,0,0,-0.1,0,-0.2M328.9,89c-0.2,0.5,-0.2,0.8,-0.2,1.1c-0.1,0.4,-0.2,0.7,-0.6,1c-0.3,0.1,-0.4,0.2,-0.5,0.2c-0.1,0.1,-0.1,0.2,-0.2,0.2c0,-0.1,0.1,-0.3,0.2,-0.4c0.1,-0.2,0.1,-0.3,0.2,-0.4c-0.1,0,-0.2,0.1,-0.3,0.2c-0.1,0.1,-0.2,0.2,-0.3,0.4c0,-0.1,-0.1,-0.1,-0.2,-0.2c-0.1,-0.1,-0.2,-0.3,-0.4,-0.5c-0.2,-0.4,-0.2,-0.7,-0.2,-0.9c0,-0.3,0,-0.6,0,-1c0.2,0.4,0.4,0.7,0.6,1c0.2,0.3,0.4,0.6,0.4,0.8c0.2,-0.4,0.4,-0.7,0.7,-1c0.3,-0.3,0.6,-0.5,0.8,-0.5m-0.7,3.5c-0.1,0.3,-0.2,0.6,-0.7,0.8c-0.3,0,-0.4,0.1,-0.5,0.2c-0.1,0,-0.1,0.1,-0.2,0.2c0,-0.2,0.1,-0.4,0.2,-0.5c0.1,-0.1,0.2,-0.2,0.3,-0.3c-0.1,0,-0.2,0.1,-0.3,0.1c-0.2,0.1,-0.3,0.2,-0.4,0.3c0,-0.1,-0.1,-0.1,-0.2,-0.2c-0.1,-0.1,-0.2,-0.2,-0.3,-0.6C326,92.2,326,91.9,326,91.6c0.1,-0.2,0.2,-0.4,0.2,-0.8c0.1,0.4,0.3,0.7,0.5,1c0.2,0.3,0.3,0.6,0.3,0.9c0.1,-0.4,0.4,-0.7,0.8,-1c0.3,-0.2,0.7,-0.3,0.9,-0.3c-0.3,0.5,-0.3,0.8,-0.5,1.1m-1.5,1.7c0.1,0,0.2,-0.1,0.2,-0.2c0.1,0,0.2,0,0.3,-0.1C327.1,94,327,94,327,94c-0.1,0.1,-0.2,0.2,-0.3,0.2m0.7,1c-0.1,0.3,-0.3,0.6,-0.8,0.8c-0.3,0,-0.4,0,-0.5,0.1c-0.1,0.1,-0.1,0.1,-0.2,0.2c0,-0.2,0.1,-0.3,0.2,-0.4c0.1,-0.1,0.2,-0.3,0.3,-0.4c-0.1,0.1,-0.2,0.1,-0.3,0.2c-0.1,0.1,-0.2,0.2,-0.4,0.3c0,-0.1,-0.1,-0.1,-0.2,-0.2c-0.1,-0.1,-0.2,-0.3,-0.3,-0.6c-0.2,-0.4,-0.1,-0.6,0,-0.9c0,-0.2,0.1,-0.5,0.1,-0.8c0.1,0.3,0.3,0.7,0.5,1c0.2,0.3,0.3,0.6,0.3,0.8c0.1,-0.3,0.5,-0.6,0.9,-0.8c0.3,-0.3,0.7,-0.5,0.8,-0.4c-0.2,0.4,-0.3,0.8,-0.4,1.1m-0.9,2.3c-0.2,0.2,-0.4,0.4,-0.9,0.6c-0.3,0,-0.5,0,-0.6,0c-0.1,0.1,-0.2,0.1,-0.3,0.2c0.1,-0.1,0.2,-0.3,0.3,-0.4c0.2,-0.1,0.3,-0.2,0.5,-0.3c-0.2,0.1,-0.3,0.1,-0.5,0.1c-0.1,0.1,-0.2,0.2,-0.3,0.2c-0.1,0,-0.1,-0.1,-0.2,-0.2c-0.1,-0.1,-0.2,-0.2,-0.3,-0.6c0,-0.3,0,-0.6,0.2,-0.8c0.1,-0.2,0.2,-0.4,0.3,-0.8c0,0.4,0.2,0.7,0.3,1c0.1,0.4,0.2,0.6,0.2,0.9c0.2,-0.3,0.6,-0.6,1,-0.7c0.4,-0.2,0.8,-0.3,0.9,-0.2c-0.3,0.3,-0.5,0.6,-0.6,1m-1.2,2.3c-0.1,0.3,-0.4,0.5,-0.9,0.7c-0.3,0,-0.5,0,-0.6,0c-0.1,0.1,-0.1,0.2,-0.2,0.2c0.1,-0.1,0.2,-0.2,0.3,-0.4c0.1,-0.1,0.2,-0.2,0.3,-0.3c-0.1,0.1,-0.2,0.1,-0.4,0.1c-0.1,0.1,-0.2,0.2,-0.3,0.3c-0.1,-0.1,-0.2,-0.2,-0.3,-0.2c0,-0.1,-0.1,-0.3,-0.2,-0.6c0,-0.4,0,-0.6,0.1,-0.9c0.1,-0.2,0.2,-0.4,0.3,-0.8c0.1,0.4,0.3,0.7,0.4,1.1c0.1,0.3,0.2,0.5,0.1,0.8c0.2,-0.3,0.7,-0.6,1.1,-0.7c0.4,-0.3,0.8,-0.4,1,-0.3c-0.4,0.4,-0.5,0.7,-0.7,1m-1.3,2c-0.3,0.3,-0.6,0.5,-1.1,0.6c-0.4,-0.1,-0.5,0,-0.6,0c-0.1,0,-0.2,0.1,-0.4,0.1c0.2,-0.2,0.1,-0.3,0,-0.4c-0.1,-0.2,-0.2,-0.3,-0.2,-0.7c-0.1,-0.4,0,-0.6,0.2,-0.8c0.1,-0.3,0.3,-0.4,0.4,-0.7c0.1,0.4,0.2,0.8,0.3,1.2c0,0.2,0,0.4,-0.1,0.6c0.3,-0.2,0.7,-0.4,1.1,-0.6c0.5,-0.1,1,-0.2,1.2,-0.1c-0.4,0.3,-0.6,0.6,-0.8,0.8m-1.4,2.1c-0.2,0.3,-0.5,0.5,-1.1,0.6c-0.3,0,-0.4,0,-0.6,0.1c-0.1,0,-0.2,0,-0.3,0.1c0.2,-0.1,0.3,-0.2,0.5,-0.3c0.1,-0.2,0.2,-0.3,0.4,-0.3c-0.1,0,-0.3,0,-0.4,0.1c-0.2,0,-0.4,0.1,-0.5,0.2c0,-0.1,-0.1,-0.2,-0.2,-0.3c0,-0.1,-0.1,-0.2,-0.1,-0.5c-0.1,-0.4,0.1,-0.6,0.2,-0.8c0.1,-0.2,0.3,-0.4,0.4,-0.7c0.1,0.3,0.2,0.6,0.3,1c0,0.3,0.1,0.6,0,0.7c0.3,-0.2,0.8,-0.4,1.2,-0.6c0.5,-0.1,0.9,-0.2,1,-0.1c-0.4,0.3,-0.5,0.6,-0.8,0.8m-1.8,1.8c-0.3,0.2,-0.6,0.4,-1.2,0.4c-0.3,-0.1,-0.5,0,-0.7,0.1c-0.2,0.1,-0.3,0.2,-0.4,0.3c0,-0.2,0.1,-0.3,0.3,-0.4c0.1,-0.2,0.2,-0.3,0.3,-0.4c-0.1,0.1,-0.2,0.1,-0.4,0.2c-0.1,0.1,-0.2,0.1,-0.3,0.2l0,-0.5c0,-0.1,0,-0.3,0.1,-0.6c0,-0.3,0.2,-0.5,0.4,-0.7c0.2,-0.2,0.4,-0.4,0.5,-0.6c0,0.3,0,0.6,0.1,0.9c0,0.3,0,0.6,-0.1,0.8c0.3,-0.2,0.8,-0.4,1.3,-0.5c0.5,-0.1,0.9,-0.1,1.1,0c-0.5,0.3,-0.7,0.6,-1,0.8m0.1,-8.8c-1.2,-0.2,-2.8,-0.7,-4.7,-1.9c0.2,-0.2,0.3,-0.5,0.4,-0.8c0,-0.4,0,-0.8,-0.1,-1.1c0,-0.2,0,-0.2,-0.1,-0.2c0,0.1,-0.1,0.3,-0.1,0.4c-0.2,0.4,-0.3,0.7,-0.5,0.9c-0.1,0.1,-0.3,0.2,-0.5,0.3c-0.6,-0.5,-0.9,-0.8,-1.2,-1c-0.4,-0.3,-0.7,-0.5,-1.4,-0.9c-0.6,-0.3,-0.8,-0.5,-1.1,-0.7c-0.2,-0.2,-0.3,-0.4,-0.6,-0.5c-0.5,0.2,-1.1,0.6,-1.7,0.8c-0.6,0.1,-1.2,0.2,-1.5,0C307.4,92,307.6,91.9,308,91.6c0.3,-0.2,0.8,-0.5,1,-0.9c0.3,-0.3,0.5,-0.6,0.8,-0.7c0.4,-0.1,0.7,-0.1,1.1,0c0.7,0.1,1.3,0.4,1.9,0.7c0.7,0.2,1.5,0.6,2.6,1.1c1.3,0.1,2.5,0.4,3.7,0.7c1.2,0.3,2.4,0.6,3.8,1c0.2,0,0.5,0.1,0.8,0.1c0.2,0,0.5,0,0.7,0.1c-0.2,0.5,-0.4,1,-0.6,1.5c-0.2,0.5,-0.5,1,-0.9,1.8c0,0,-0.7,0.1,-2,-0.1m-6.6,-1.5l-0.1,0.3c-0.2,0.1,-0.3,0.2,-0.4,0.1c-0.1,0,-0.2,-0.2,-0.4,-0.5c-0.6,-0.7,-1.1,-1,-1.5,-1.2c-0.5,-0.2,-0.8,-0.4,-0.8,-0.9c-0.2,0.1,-0.2,0.2,-0.2,0.4c0,0.1,0.1,0.3,0.1,0.4c0.3,0.5,0.7,0.7,1.1,1c0.3,0.3,0.6,0.6,0.9,1.2c-0.1,0.1,-0.2,0.2,-0.3,0.3c-0.2,0,-0.4,0,-0.5,-0.1C311.5,95.7,311,95.3,310.6,95c-0.4,-0.3,-0.5,-0.5,-0.3,-0.8c-0.1,0,-0.2,0,-0.4,0.1c0,0.2,-0.1,0.3,0,0.4c0.1,0.5,0.4,0.8,0.7,1.2c0.4,0.3,0.7,0.5,0.9,1c-0.1,0.3,-0.4,0.4,-0.9,0.1c-0.4,-0.3,-0.9,-0.9,-1.2,-1.7l0,-0.1c-0.2,0.2,-0.3,0.4,-0.2,0.6c0,0.2,0.2,0.5,0.6,1.1c0.1,0.2,0.2,0.4,0.2,0.6c-0.1,0.1,-0.2,0.2,-0.5,0.1c0,0.1,0,0,-0.1,0c-0.1,0,-0.2,0,0,0l0.1,0c-0.1,0,-0.1,-0.1,-0.1,-0.1c0.1,-0.8,-0.2,-1.1,-0.5,-1.3c-0.3,-0.1,-0.7,0,-0.8,0c0.1,-0.3,0,-0.6,-0.3,-0.8c-0.3,-0.2,-0.7,-0.2,-1.2,-0.1c0.1,-0.2,-0.1,-0.5,-0.5,-0.6c-0.4,-0.2,-1,-0.2,-1.6,0c-0.1,-0.2,-0.4,-0.4,-0.9,-0.4c-0.4,0,-1,0.2,-1.6,0.9c-0.9,0.1,-2.3,0.5,-3.5,0.9c-1.3,0.3,-2.6,0.6,-3.6,0.1c0,0,-0.3,-0.8,-0.6,-1.6C294,93.8,293.7,93,293.7,92.9c1.1,-0.1,3,-0.2,4.7,-0.4c1.8,-0.2,3.6,-0.5,4.5,-0.9c0.7,-0.4,1.8,-0.8,2.7,-1c0.9,-0.2,1.7,-0.2,2,0c0,0.2,-0.3,0.6,-0.5,0.9c-0.2,0.4,-0.4,0.7,0,0.9c0.4,0.5,1.1,0.6,1.8,0.6c0.6,-0.1,1.3,-0.3,1.8,-0.7c0.6,0.6,1.4,0.9,2,1.3c0.7,0.4,1.4,0.8,1.7,1.6Zm-6.1,2.3c-0.2,0.2,-0.4,0.3,-0.7,0.4C307.3,98,307.1,98,307.1,97.8c-0.1,-0.1,0.1,-0.3,0.7,-0.8c0,0,0.1,-0.1,0.3,-0.1c0.1,-0.1,0.3,0,0.4,0.4c0.1,0.1,-0.1,0.3,-0.3,0.4M306.7,97c-0.3,0.3,-0.7,0.5,-0.8,0.5c-0.1,0.1,-0.2,0.1,-0.2,0.1c-0.1,0,-0.1,-0.1,-0.2,-0.2c-0.1,-0.1,-0.1,-0.2,-0.1,-0.3c0.1,0,0.1,-0.1,0.2,-0.1c-0.1,0,-0.1,0,0,-0.1c0.1,-0.1,0.3,-0.2,0.4,-0.3l0,-0.1l0.2,-0.1c0.1,-0.2,0.3,-0.3,0.5,-0.4c0.3,-0.1,0.4,0,0.6,0.3c0.1,0.2,-0.2,0.5,-0.6,0.7m-2.2,-0.2c-0.2,0,-0.3,0.1,-0.3,0.1c-0.1,-0.1,-0.2,-0.1,-0.3,-0.2c0,-0.1,0.1,-0.3,0.2,-0.5c0.1,-0.1,0.2,-0.3,0.3,-0.4c0,0,0.2,-0.1,0.2,-0.2c0.1,0,0.1,0,0.1,0l0.1,-0.1L305,95.4l0.4,0c0.1,0,0.1,0.1,0.1,0.2c0.1,0.1,-0.1,0.4,-0.4,0.7c-0.2,0.2,-0.5,0.5,-0.6,0.5m-1,-1.3c-0.1,0.2,-0.3,0.4,-0.4,0.4c-0.1,0.1,-0.2,0,-0.3,-0.1c-0.1,-0.1,-0.2,-0.3,-0.1,-0.3l0.1,-0.2L303,95.1c0.2,0,0.3,-0.1,0.4,-0.1c0.1,-0.1,0.2,-0.1,0.3,0c0.1,0.1,-0.1,0.3,-0.2,0.5m-7.4,4.7c0.1,0.2,0.2,0.4,0.2,0.8c0,0.2,0,0.4,-0.1,0.5c-0.1,0.1,-0.1,0.2,-0.2,0.3c-0.1,-0.1,-0.3,-0.2,-0.4,-0.2c-0.1,0,-0.3,0,-0.4,-0.1c0.1,0.1,0.3,0.2,0.4,0.3c0.1,0,0.3,0.1,0.4,0.3c-0.1,0,-0.2,-0.1,-0.3,-0.2c-0.1,0,-0.3,0,-0.6,0c-0.5,0,-0.8,-0.2,-1,-0.4c-0.3,-0.3,-0.4,-0.6,-0.8,-0.9c0.1,0,0.5,0,1,0.1c0.4,0.1,0.9,0.3,1.1,0.5c0,-0.1,0,-0.4,0.1,-0.7c0,-0.3,0.1,-0.7,0.1,-1c0.2,0.3,0.4,0.5,0.5,0.7m0.7,2.5c0.1,-0.3,0.2,-0.6,0.2,-1c0.2,0.4,0.3,0.6,0.5,0.8c0.1,0.2,0.2,0.4,0.2,0.8c0,0.2,-0.1,0.4,-0.1,0.5c-0.2,0.1,-0.2,0.1,-0.3,0.2c-0.1,-0.1,-0.2,-0.1,-0.4,-0.2c-0.1,0,-0.2,0,-0.4,-0.1c0.2,0.1,0.3,0.2,0.4,0.3c0.2,0.1,0.3,0.2,0.4,0.3c-0.1,-0.1,-0.3,-0.2,-0.5,-0.2c-0.3,-0.1,-0.6,-0.2,-0.9,-0.2c-0.6,-0.1,-0.7,-0.2,-0.9,-0.5c0,-0.2,0,-0.4,-0.4,-0.7c0.1,-0.1,0.6,0,1,0.2c0.5,0.1,0.9,0.3,1.2,0.6c-0.1,-0.2,0,-0.5,0,-0.8m1.7,1.7c0,-0.3,0.1,-0.6,0,-1c0.2,0.3,0.4,0.5,0.6,0.7c0.2,0.1,0.3,0.4,0.4,0.7c0,0.3,0,0.6,0,0.7c0.1,0.2,0.1,0.4,0.1,0.6c0,-0.1,-0.1,-0.2,-0.2,-0.3c-0.1,0,-0.3,-0.1,-0.4,-0.1c0.1,0,0.2,0.1,0.3,0.3c0.1,0.1,0.2,0.2,0.3,0.3c-0.1,0,-0.2,-0.1,-0.4,-0.2c-0.1,-0.1,-0.3,-0.1,-0.5,0c-0.7,-0.1,-1,-0.3,-1.4,-0.6c-0.3,-0.2,-0.6,-0.6,-1.1,-0.8c0.2,-0.1,0.6,-0.1,1.1,0c0.5,0.1,1,0.2,1.3,0.4c-0.1,-0.1,-0.1,-0.4,-0.1,-0.7m-5.6,-4.9c-0.3,-0.2,-0.4,-0.5,-0.7,-0.9c0.2,-0.1,0.6,0,1,0.2c0.4,0.2,0.9,0.4,1.1,0.7c0,-0.2,0.1,-0.5,0.2,-0.8c0.1,-0.3,0.2,-0.6,0.3,-1c0.1,0.4,0.2,0.6,0.3,0.8c0.1,0.2,0.2,0.5,0.1,0.8c-0.1,0.3,-0.2,0.5,-0.3,0.6c0,0.1,-0.1,0.1,-0.2,0.2c-0.1,-0.1,-0.2,-0.2,-0.3,-0.2c-0.1,-0.1,-0.3,-0.1,-0.4,-0.2c0.1,0.1,0.3,0.2,0.4,0.3c0.1,0.1,0.2,0.2,0.3,0.4c-0.1,-0.1,-0.2,-0.2,-0.3,-0.2c-0.1,0,-0.3,-0.1,-0.5,-0.1c-0.6,-0.1,-0.8,-0.3,-1,-0.6m-1.1,-2.3c-0.2,-0.2,-0.3,-0.5,-0.7,-0.9c0.2,-0.1,0.6,0,1,0.1c0.4,0.2,0.8,0.4,1.1,0.7c-0.1,-0.2,0,-0.6,0.1,-0.9c0.1,-0.3,0.3,-0.6,0.3,-1c0.1,0.3,0.2,0.6,0.3,0.8c0.1,0.2,0.2,0.4,0.1,0.9c0,0.2,-0.1,0.4,-0.2,0.5c0,0.1,-0.1,0.2,-0.1,0.2c-0.2,-0.1,-0.3,-0.2,-0.5,-0.2c-0.1,-0.1,-0.3,-0.1,-0.4,-0.2c0.1,0.1,0.3,0.2,0.4,0.3c0.1,0.1,0.2,0.3,0.4,0.4l0,0.1c-0.1,-0.1,-0.2,-0.1,-0.3,-0.2c-0.1,0,-0.2,-0.1,-0.5,0c-0.6,-0.2,-0.8,-0.3,-1,-0.6M290.9,95c-0.2,-0.3,-0.3,-0.6,-0.6,-1c0.2,-0.1,0.6,0,1,0.3c0.4,0.2,0.8,0.5,0.9,0.8c0,-0.3,0.2,-0.5,0.3,-0.8c0.1,-0.4,0.4,-0.7,0.5,-1c0,0.3,0.1,0.6,0.2,0.8c0,0.3,0,0.5,-0.1,0.9c-0.1,0.2,-0.1,0.4,-0.2,0.5c-0.1,0.1,-0.2,0.1,-0.3,0.1c0,-0.1,-0.1,-0.1,-0.1,-0.2c-0.1,-0.1,-0.2,-0.2,-0.3,-0.3c0.1,0.2,0.2,0.3,0.2,0.4c0,0.2,0.1,0.4,0.1,0.6c-0.1,-0.1,-0.2,-0.2,-0.2,-0.2c-0.1,-0.1,-0.3,-0.1,-0.6,-0.1C291.3,95.5,291,95.3,290.9,95m-1,-2.8c-0.1,-0.2,-0.2,-0.6,-0.5,-1c0.2,0,0.6,0.1,0.9,0.3c0.4,0.2,0.8,0.5,1,0.8c0,-0.2,0.1,-0.4,0.3,-0.8c0.1,-0.3,0.3,-0.7,0.5,-1c0,0.4,0.1,0.6,0.1,0.9c0.1,0.2,0.1,0.5,-0.1,0.9c-0.1,0.3,-0.2,0.5,-0.3,0.6c-0.1,0,-0.2,0.1,-0.2,0.2c-0.1,-0.1,-0.1,-0.2,-0.2,-0.3c0,-0.1,-0.1,-0.2,-0.2,-0.3c0,0.1,0.1,0.2,0.1,0.3l0,0.4c0,-0.1,-0.1,-0.1,-0.1,-0.1C291,93,290.9,93,290.8,93c-0.5,-0.2,-0.7,-0.5,-0.9,-0.8m0.3,-2.8c0.3,0.3,0.5,0.6,0.6,0.9c0.1,-0.3,0.2,-0.5,0.5,-0.8c0.2,-0.3,0.4,-0.6,0.6,-1c-0.1,0.4,0,0.6,0,0.9c0,0.3,-0.1,0.5,-0.2,0.9c-0.2,0.3,-0.3,0.4,-0.4,0.5c-0.1,0.1,-0.1,0.1,-0.3,0.1c0,-0.1,0,-0.2,-0.1,-0.3c0,-0.1,-0.1,-0.1,-0.2,-0.2c0.1,0.1,0.1,0.2,0.1,0.4c0.1,0.1,0,0.4,0.1,0.5c-0.1,-0.1,-0.1,-0.1,-0.2,-0.2c-0.1,-0.1,-0.2,-0.2,-0.4,-0.3c-0.5,-0.2,-0.6,-0.5,-0.6,-0.8c-0.1,-0.2,-0.1,-0.5,-0.3,-1c0.2,0,0.5,0.1,0.8,0.4m-0.8,-2c-0.1,-0.2,-0.1,-0.5,-0.3,-1.4c0.2,0,0.5,0.3,0.8,0.5c0.4,0.3,0.6,0.7,0.8,1c0,-0.2,0.1,-0.4,0.3,-0.6c0.2,-0.3,0.5,-0.5,0.6,-0.8c0,0.4,0.1,0.6,0.1,0.8c0,0.3,0,0.6,-0.2,0.9c-0.1,0.3,-0.2,0.4,-0.3,0.4c-0.2,0,-0.3,0,-0.3,0.1c0,-0.1,-0.1,-0.2,-0.1,-0.3c-0.1,-0.1,-0.1,-0.3,-0.2,-0.4c0.1,0.1,0,0.3,0,0.4c0,0.1,-0.1,0.3,-0.1,0.4c0,-0.1,0,-0.1,0,-0.2c-0.1,-0.1,-0.2,-0.1,-0.4,-0.2c-0.4,-0.4,-0.6,-0.4,-0.7,-0.6m1.2,-0.6c0,-0.1,-0.2,-0.3,-0.3,-0.5c-0.2,-0.2,-0.3,-0.4,-0.5,-0.5c0.2,0.1,0.5,0.3,0.5,0.5c0.2,0.1,0.3,0.3,0.3,0.4l0,0.1Zm-1.4,-3.5c0.2,0,0.5,0.2,0.8,0.6c0.3,0.3,0.6,0.7,0.6,1.1c0.1,-0.2,0.3,-0.4,0.5,-0.6c0.3,-0.2,0.5,-0.4,0.7,-0.7c0,0.4,0,0.6,0,0.8c0,0.3,-0.1,0.5,-0.3,0.8c-0.2,0.3,-0.3,0.3,-0.5,0.4c-0.1,0,-0.2,0,-0.2,0c-0.1,-0.1,-0.1,-0.2,-0.2,-0.4c-0.1,-0.1,-0.3,-0.2,-0.3,-0.3c0,0.1,0.1,0.3,0.2,0.5c0,0.1,0.1,0.3,0.1,0.5c-0.1,-0.1,-0.1,-0.2,-0.1,-0.3c-0.2,-0.1,-0.2,-0.2,-0.5,-0.4c-0.4,-0.4,-0.6,-0.7,-0.6,-1c-0.1,-0.3,-0.1,-0.6,-0.2,-1m1.6,-0.6c-0.1,-0.1,-0.2,-0.2,-0.2,-0.3c-0.1,-0.2,-0.3,-0.3,-0.3,-0.4c0,0.1,0.1,0.3,0.2,0.5c0,0.1,0.1,0.3,0.1,0.4c-0.1,0,-0.1,-0.1,-0.2,-0.2c-0.1,-0.1,-0.1,-0.2,-0.5,-0.3c-0.3,-0.5,-0.5,-0.7,-0.5,-1c-0.1,-0.3,-0.1,-0.6,-0.2,-1.1c0.2,0.1,0.5,0.3,0.8,0.6c0.3,0.4,0.6,0.8,0.6,1.1c0.1,-0.2,0.3,-0.4,0.6,-0.6c0.2,-0.2,0.4,-0.4,0.7,-0.7c-0.1,0.3,-0.1,0.6,-0.1,0.9c0,0.2,-0.1,0.4,-0.3,0.7c-0.2,0.2,-0.3,0.3,-0.5,0.3c-0.1,0.1,-0.2,0.1,-0.2,0.1m-1.1,-3.8c0,-0.3,0.1,-0.7,0.1,-1.1c0.1,0,0.4,0.3,0.6,0.7c0.2,0.4,0.4,0.9,0.4,1.2c0,-0.2,0.3,-0.3,0.6,-0.5c0.3,-0.2,0.6,-0.4,0.9,-0.6c-0.2,0.3,-0.2,0.6,-0.3,0.8c0,0.3,-0.2,0.5,-0.4,0.7c-0.2,0.2,-0.4,0.3,-0.6,0.3l-0.2,0c-0.1,-0.1,-0.1,-0.2,-0.2,-0.3c-0.1,-0.1,-0.1,-0.3,-0.3,-0.4c0.1,0.1,0.2,0.3,0.2,0.5l0,0.4c0,-0.1,0,-0.1,-0.1,-0.2C290.3,80.3,290.3,80.2,290,80c-0.3,-0.5,-0.3,-0.8,-0.3,-1.1m1.1,-1.6c-0.3,-0.4,-0.4,-0.7,-0.3,-1c0,-0.3,0.1,-0.7,0.1,-1.1c0.1,0,0.3,0.3,0.6,0.7c0.2,0.4,0.3,0.9,0.3,1.2c0.1,-0.2,0.3,-0.4,0.7,-0.6c0.2,-0.2,0.6,-0.3,0.8,-0.6c-0.1,0.3,-0.1,0.6,-0.2,0.9c0,0.2,-0.2,0.4,-0.5,0.6c-0.2,0.3,-0.3,0.4,-0.5,0.4c-0.1,0.1,-0.2,0.1,-0.2,0.1c-0.1,-0.1,-0.1,-0.2,-0.2,-0.4c-0.1,-0.2,-0.2,-0.3,-0.3,-0.4c0.1,0.1,0.1,0.3,0.1,0.4c0.1,0.2,0,0.3,0,0.5c0,-0.1,0,-0.2,0,-0.3c-0.1,-0.1,-0.2,-0.2,-0.4,-0.4m0.4,-3.1c0.1,-0.3,0.2,-0.7,0.3,-1.1c0.1,0,0.3,0.3,0.4,0.8c0.2,0.4,0.2,0.8,0.2,1.1c0.1,-0.1,0.4,-0.2,0.7,-0.4c0.3,-0.1,0.7,-0.3,1,-0.5c-0.2,0.4,-0.3,0.6,-0.4,0.8c-0.1,0.3,-0.3,0.5,-0.6,0.7c-0.3,0.1,-0.4,0.2,-0.6,0.2l-0.3,0c0,-0.2,0,-0.3,-0.1,-0.4c0,-0.1,-0.1,-0.2,-0.1,-0.4l0,0.5c0,0.1,0,0.3,-0.1,0.5c0,-0.2,0,-0.2,0,-0.3c-0.1,-0.1,-0.1,-0.2,-0.3,-0.4C291,74.8,291,74.5,291.2,74.2m1.2,-1.7c-0.2,-0.4,-0.2,-0.7,-0.1,-1c0.1,-0.4,0.3,-0.7,0.3,-1.2c0.2,0.1,0.4,0.4,0.5,0.8c0.1,0.4,0.2,0.9,0.1,1.2c0.2,-0.1,0.5,-0.3,0.8,-0.5c0.3,-0.1,0.6,-0.3,1,-0.5c-0.2,0.3,-0.3,0.6,-0.4,0.8c-0.1,0.2,-0.3,0.4,-0.6,0.7C293.7,73,293.6,73,293.4,73c-0.1,0.1,-0.2,0,-0.3,0.1c0,-0.2,0,-0.3,-0.1,-0.5c0,-0.1,-0.1,-0.2,-0.1,-0.3c0,0.1,0,0.3,0,0.4c0,0.2,0,0.4,-0.1,0.5c0,-0.1,0,-0.1,0,-0.2c0,-0.1,-0.2,-0.3,-0.4,-0.5m1,-3.1c0.2,-0.3,0.4,-0.5,0.5,-1c0.1,0,0.3,0.4,0.4,0.8c0,0.4,0,0.9,-0.2,1.2c0.2,-0.2,0.5,-0.3,0.8,-0.4c0.4,-0.1,0.8,-0.2,1.1,-0.4c-0.2,0.3,-0.4,0.5,-0.5,0.7c-0.1,0.3,-0.3,0.5,-0.7,0.6c-0.3,0.2,-0.5,0.2,-0.6,0.2c-0.2,0,-0.2,0,-0.3,0l0,-0.4c-0.1,-0.1,-0.1,-0.2,-0.1,-0.4c0,0.2,0,0.3,-0.1,0.5c0,0.1,-0.1,0.3,-0.1,0.5l0,-0.3c0,-0.1,-0.1,-0.3,-0.3,-0.5c-0.1,-0.5,-0.1,-0.8,0.1,-1.1m1.8,-2.8c0.2,-0.3,0.3,-0.5,0.5,-1c0.2,0.2,0.3,0.6,0.3,1.1c0,0.4,-0.1,0.9,-0.3,1.2c0.2,-0.1,0.5,-0.2,0.8,-0.2c0.3,0,0.6,0,0.9,0c-0.2,0.2,-0.4,0.4,-0.5,0.6c-0.2,0.2,-0.4,0.3,-0.8,0.4c-0.2,0.1,-0.4,0.1,-0.5,0c-0.1,0,-0.2,-0.1,-0.2,-0.1c0,-0.1,0,-0.3,0,-0.4l0,-0.5c0,0.2,0,0.3,-0.1,0.5c0,0.2,-0.1,0.3,-0.3,0.5c0.1,-0.1,0.1,-0.2,0.2,-0.3c0,-0.2,-0.1,-0.4,-0.2,-0.6c0,-0.7,0.1,-0.9,0.2,-1.2m1.4,-0.8c0.1,-0.6,0.2,-0.9,0.3,-1.1c0.2,-0.2,0.4,-0.4,0.7,-0.9c0.1,0.2,0.1,0.6,0.1,1c-0.1,0.5,-0.2,1,-0.4,1.2c0.2,-0.1,0.5,-0.1,0.8,0c0.3,0,0.6,0,1,0c-0.3,0.2,-0.5,0.4,-0.7,0.6c-0.1,0.1,-0.4,0.2,-0.7,0.3c-0.4,0,-0.5,0,-0.6,-0.1c-0.1,-0.1,-0.2,-0.1,-0.3,-0.1l0.1,-0.5L297,65.9c-0.1,0.1,-0.1,0.3,-0.2,0.4c-0.1,0.1,-0.1,0.2,-0.2,0.3c0.1,-0.1,0.1,-0.2,0.1,-0.3c0,-0.1,0,-0.3,-0.1,-0.5m1.9,-1.6c0.1,-0.6,0.3,-0.9,0.5,-1.1c0.2,-0.2,0.5,-0.4,0.8,-0.8c0.1,0.1,0.1,0.5,-0.1,0.9c-0.1,0.5,-0.2,1,-0.4,1.3c0.2,-0.1,0.4,-0.1,0.8,-0.1c0.3,0.1,0.7,0.1,1,0.2c-0.3,0.1,-0.5,0.3,-0.7,0.5c-0.2,0.1,-0.4,0.2,-0.8,0.2c-0.3,0,-0.4,0,-0.5,-0.1c-0.2,0,-0.2,-0.1,-0.3,-0.1c0,-0.2,0.1,-0.3,0.1,-0.5c0,-0.1,0,-0.2,0.1,-0.4c-0.1,0.2,-0.2,0.3,-0.2,0.4c-0.1,0.2,-0.2,0.3,-0.3,0.5c0,-0.1,0.1,-0.3,0.1,-0.4c0,-0.1,0,-0.2,-0.1,-0.5m1.7,-0.8c0,-0.1,0,-0.3,0,-0.6c0.1,-0.5,0.3,-0.7,0.6,-0.9c0.3,-0.2,0.6,-0.4,1,-0.7c0,0.2,0,0.5,-0.2,1c-0.2,0.4,-0.4,0.8,-0.7,1c0.2,0,0.5,0,0.8,0.1c0.3,0.2,0.7,0.3,1,0.3c-0.3,0.1,-0.5,0.3,-0.7,0.4c-0.3,0.1,-0.5,0.2,-0.9,0.1C300.8,64,300.7,64,300.6,63.9c-0.1,-0.1,-0.2,-0.2,-0.3,-0.2c0.1,-0.1,0.2,-0.2,0.2,-0.4c0.1,-0.1,0.2,-0.3,0.2,-0.4c-0.1,0.1,-0.2,0.3,-0.3,0.4c-0.1,0.1,-0.2,0.3,-0.4,0.4c0.1,-0.1,0.1,-0.2,0.2,-0.3M302.5,62c0.1,-0.1,0.1,-0.2,0.2,-0.5c0.2,-0.7,0.5,-0.9,0.9,-1c0.3,-0.2,0.7,-0.2,1.1,-0.6c0.1,0.2,0,0.6,-0.4,1c-0.3,0.5,-0.7,0.9,-1.1,1.1c0.2,0,0.5,0.1,0.8,0.2c0.2,0.2,0.5,0.4,0.8,0.5c-0.3,0,-0.6,0.1,-0.8,0.2c-0.2,0.1,-0.5,0.1,-0.8,0c-0.3,-0.1,-0.4,-0.2,-0.5,-0.3c-0.1,-0.1,-0.1,-0.2,-0.1,-0.2c0.1,-0.1,0.2,-0.2,0.2,-0.4c0.1,-0.1,0.3,-0.2,0.3,-0.4c-0.1,0.1,-0.3,0.3,-0.4,0.4c-0.1,0.1,-0.3,0.2,-0.4,0.3c0.1,-0.1,0.1,-0.2,0.2,-0.3M305,61.2c0.1,-0.1,0.2,-0.3,0.3,-0.6c0.3,-0.5,0.6,-0.6,0.9,-0.7c0.3,-0.1,0.6,-0.2,1.1,-0.4c0,0.2,-0.2,0.5,-0.5,0.9c-0.3,0.3,-0.7,0.7,-1,0.8c0.2,0,0.4,0.2,0.7,0.3c0.2,0.2,0.5,0.4,0.8,0.6c-0.3,0,-0.6,0.1,-0.9,0.1c-0.2,0.1,-0.5,0.1,-0.8,-0.1c-0.2,-0.1,-0.4,-0.2,-0.4,-0.3c-0.1,-0.1,-0.1,-0.2,-0.2,-0.3c0.2,-0.1,0.3,-0.2,0.4,-0.3c0.1,-0.1,0.2,-0.3,0.3,-0.4c-0.2,0.1,-0.3,0.3,-0.5,0.4c-0.1,0.1,-0.3,0.1,-0.4,0.2c0.1,-0.1,0.1,-0.1,0.2,-0.2m2.5,-0.4c0.1,-0.1,0.2,-0.2,0.3,-0.5c0.3,-0.5,0.6,-0.6,0.9,-0.7c0.3,-0.1,0.7,-0.2,1.1,-0.4c0,0.1,-0.2,0.5,-0.6,0.9c-0.3,0.4,-0.6,0.7,-1,0.8c0.2,0,0.5,0.2,0.7,0.4c0.3,0.2,0.6,0.4,0.8,0.7c-0.3,-0.1,-0.6,0,-0.8,0c-0.2,0,-0.5,0,-0.8,-0.2c-0.3,-0.2,-0.4,-0.3,-0.5,-0.4c0,-0.1,0,-0.2,-0.1,-0.2c0.1,-0.1,0.3,-0.2,0.4,-0.3c0.1,-0.1,0.2,-0.2,0.2,-0.4c-0.1,0.1,-0.2,0.2,-0.3,0.3c-0.2,0.1,-0.4,0.1,-0.5,0.2c0.1,-0.1,0.1,-0.1,0.2,-0.2M310.2,60c0.4,-0.3,0.7,-0.4,1,-0.4c0.3,-0.1,0.7,0,1.1,-0.1c0,0.2,-0.4,0.5,-0.8,0.8c-0.3,0.2,-0.7,0.4,-1,0.4c0.2,0.1,0.4,0.2,0.5,0.4c0.3,0.3,0.5,0.6,0.9,1C311.5,62,311.3,62,311,61.9c-0.2,0,-0.5,0,-0.7,-0.3c-0.4,-0.3,-0.4,-0.5,-0.5,-0.6c0,-0.2,0,-0.3,-0.3,-0.3c0.1,-0.1,0.2,-0.1,0.3,-0.2c0.1,-0.1,0.2,-0.2,0.4,-0.5m2.6,0.2c0.2,-0.2,0.5,-0.5,0.8,-0.5c0.5,0,0.9,0.1,1,0.2c0.2,0.1,0.6,0.2,0.8,0.1c0.1,0.1,-1,0.7,-1.7,0.9c-0.7,0.2,-1.5,0.3,-1.7,-0.1c0.2,0,0.3,0,0.5,0c0.1,0,0.3,-0.1,0.4,-0.2c-0.1,0.1,-0.2,0.1,-0.3,0.1c-0.2,0,-0.3,0,-0.4,-0.1c0.2,-0.1,0.4,-0.3,0.6,-0.4m2.2,2.1c-0.3,0,-0.5,0.1,-0.9,0.3c-0.4,0,-0.8,-0.2,-1.2,-0.4c-0.3,-0.1,-0.5,-0.4,-0.4,-0.5c0,0,0.1,0,0.1,0l0.1,0c0.2,0.2,0.5,0.2,0.8,0.3c0.3,0,0.6,0,0.8,-0.1c-0.1,0,-0.3,0,-0.5,0c-0.1,-0.1,-0.2,-0.2,-0.4,-0.2c0.2,-0.1,0.3,-0.1,0.5,-0.2c0.3,-0.1,0.5,-0.1,0.7,-0.2c0.4,0,0.5,0.2,0.6,0.4c0.1,0.2,0.1,0.4,0.4,0.5c-0.3,-0.1,-0.5,0,-0.6,0.1m0.7,-1.6c0.3,0.3,0.6,0.4,1,0.6c0.2,0.1,0.4,0.3,0.6,0.9l0,0.3l0,0.2c0,-0.1,-0.2,-0.2,-0.2,-0.3c-0.1,-0.1,-0.2,-0.2,-0.2,-0.3c0.1,0.3,0.1,0.5,0.1,0.6c0.1,0.2,0.1,0.2,0.2,0.4c0,0,-0.1,0.1,-0.1,0.2c-0.1,0,-0.2,0.2,-0.5,0.2c-0.6,0.1,-0.9,0,-1.1,-0.2c-0.2,-0.1,-0.4,-0.2,-0.8,-0.3c0.4,-0.1,0.7,-0.2,1.1,-0.3c0.3,-0.1,0.6,-0.1,0.8,-0.1c-0.3,-0.3,-0.5,-0.6,-0.7,-1.1c-0.2,-0.3,-0.3,-0.7,-0.2,-0.8m2.1,3.3c0.3,0,0.6,-0.1,0.8,0c-0.2,-0.2,-0.4,-0.8,-0.5,-1.2c-0.1,-0.4,-0.1,-0.8,0,-1c0.3,0.4,0.5,0.6,0.8,0.9c0.2,0.2,0.4,0.5,0.4,1c0,0.3,0,0.5,0,0.7c0,0.1,0.1,0.1,0.1,0.2c-0.1,-0.1,-0.2,-0.2,-0.3,-0.4C319,64.1,319,63.9,318.9,63.8c0,0.1,0,0.2,0.1,0.4c0,0.2,0,0.3,0.1,0.4c-0.1,0.1,-0.1,0.1,-0.2,0.2c-0.2,0,-0.3,0.1,-0.6,0.1c-0.4,0,-0.6,-0.1,-0.8,-0.3c-0.2,-0.1,-0.4,-0.3,-0.7,-0.4c0.3,0,0.7,-0.2,1,-0.2m2.1,1.9c0.3,0,0.6,0,0.7,0.1c-0.1,-0.3,-0.2,-0.8,-0.3,-1.2c-0.1,-0.4,0,-0.8,0.1,-1c0.3,0.5,0.5,0.7,0.7,0.8c0.1,0.2,0.2,0.5,0.3,1.1c-0.1,0.3,-0.1,0.5,-0.1,0.6c0,0.1,0.1,0.2,0.1,0.4c-0.1,-0.2,-0.2,-0.4,-0.3,-0.5c0,-0.2,-0.2,-0.3,-0.2,-0.5l0,0.5c0.1,0.1,0.1,0.3,0.2,0.4c-0.1,0.1,-0.2,0.1,-0.3,0.2c-0.1,0,-0.2,0.1,-0.5,0.1c-0.4,-0.1,-0.6,-0.2,-0.8,-0.4c-0.2,-0.2,-0.4,-0.3,-0.7,-0.5c0.4,0,0.8,-0.1,1.1,-0.1m2.4,1.8c-0.2,-0.3,-0.2,-0.8,-0.2,-1.3c0,-0.4,0,-0.8,0.1,-0.9c0.2,0.5,0.4,0.7,0.6,0.9c0.1,0.3,0.2,0.6,0.2,1.2c-0.1,0.3,-0.1,0.4,-0.1,0.6c0,0.1,0,0.2,0,0.3c-0.1,-0.1,-0.1,-0.3,-0.2,-0.5c-0.1,-0.2,-0.1,-0.3,-0.2,-0.5l0,0.5c0,0.2,0.1,0.3,0.1,0.4c-0.1,0.1,-0.1,0.1,-0.2,0.2c-0.1,0,-0.3,0,-0.6,0c-0.3,-0.1,-0.5,-0.3,-0.7,-0.5c-0.2,-0.2,-0.3,-0.4,-0.6,-0.6c0.3,0,0.7,0,1,0.1c0.3,0,0.6,0,0.8,0.1m1.7,1.5c0,-0.3,0.4,0.3,0.5,0.3c0.2,0.5,0,-0.5,0.1,-0.2c0.1,0.3,0.2,0.6,0.1,1.1c-0.2,0.2,-0.2,0.3,-0.2,0.4c-0.1,0.1,0,0.2,0,0.3c-0.1,-0.1,-0.2,-0.3,-0.2,-0.4c-0.1,-0.2,-0.1,-0.4,-0.1,-0.5c0,0.1,-0.1,0.3,-0.1,0.4c0,0.1,0,0.2,0,0.4l-0.3,0c-0.1,0,-0.3,0,-0.6,-0.2c-0.4,-0.2,-0.6,-0.3,-0.8,-0.6c-0.1,-0.2,-0.2,-0.4,-0.5,-0.7c0.4,0.1,0.7,0.3,1.1,0.4c0.3,0.1,0.7,0.2,0.8,0.4c-0.1,-0.4,0.1,-0.7,0.2,-1.1m1.4,1c0,0.5,0.2,0.8,0.3,1.2c0.1,0.3,0.1,0.6,-0.1,1.1c-0.2,0.1,-0.3,0.2,-0.3,0.4c-0.1,0.1,-0.1,0.2,-0.1,0.3c0,-0.2,-0.1,-0.3,-0.1,-0.5c0,-0.2,0,-0.3,0.1,-0.5c-0.1,0.1,-0.2,0.2,-0.2,0.4c-0.1,0.1,-0.1,0.3,-0.1,0.4l-0.3,0c-0.1,-0.1,-0.4,-0.1,-0.6,-0.3c-0.3,-0.2,-0.5,-0.4,-0.6,-0.7c-0.1,-0.2,-0.2,-0.5,-0.4,-0.8c0.3,0.2,0.7,0.4,1,0.5c0.4,0.2,0.6,0.4,0.8,0.5c-0.1,-0.3,0,-0.8,0.1,-1.2c0.1,-0.4,0.3,-0.7,0.5,-0.8m0.7,4.8c0,-0.3,0.1,-0.8,0.2,-1.2c0.1,-0.4,0.3,-0.7,0.5,-0.8c0,0.5,0.2,0.8,0.3,1.1c0.1,0.3,0.1,0.6,-0.1,1.1c-0.2,0.2,-0.4,0.3,-0.4,0.4c0,0.1,0,0.2,0,0.4c-0.1,-0.2,-0.1,-0.4,-0.1,-0.5c0,-0.2,0,-0.3,0,-0.5c0,0.1,-0.1,0.3,-0.1,0.4c-0.1,0.1,-0.1,0.2,-0.1,0.3c-0.1,0,-0.2,0.1,-0.3,0c-0.1,0,-0.3,0,-0.6,-0.2c-0.4,-0.2,-0.5,-0.4,-0.6,-0.6c-0.1,-0.3,-0.2,-0.5,-0.4,-0.8c0.3,0.2,0.6,0.3,1,0.5c0.3,0.1,0.6,0.2,0.7,0.4m1.6,0.1c0,0.5,0.1,0.9,0.1,1.2c0,0.3,0,0.6,-0.4,1c-0.2,0.2,-0.3,0.4,-0.3,0.5C327,77.8,327,77.9,327,78l0,-0.4c0,-0.2,0,-0.4,0.1,-0.5c-0.1,0.1,-0.2,0.2,-0.2,0.3c-0.1,0.2,-0.1,0.3,-0.2,0.4c-0.1,0,-0.2,0,-0.3,0c-0.1,-0.1,-0.3,-0.1,-0.5,-0.4c-0.3,-0.2,-0.4,-0.4,-0.5,-0.7c-0.1,-0.2,-0.1,-0.5,-0.2,-0.8c0.2,0.2,0.5,0.4,0.9,0.6c0.2,0.2,0.5,0.4,0.6,0.6c0,-0.4,0.2,-0.8,0.4,-1.3c0.2,-0.3,0.4,-0.6,0.6,-0.7m-17.6,9.8l15.7,0c0,0.2,-0.1,1.7,-0.3,3.2c-0.1,1.4,-0.5,3.2,-0.9,4.6c-1.5,0,-3.1,-0.5,-4.5,-0.9C318.6,91.4,317.3,90.9,316,91c-0.8,-0.2,-1.7,-0.7,-2.7,-1.1c-1,-0.5,-2.1,-0.9,-3.2,-0.8ZM324.3,73.4c0.1,0.1,0.2,0.1,0.2,0.2c0.1,0.1,0.2,0.1,0.2,0.1c0,0,-0.1,0,-0.2,0c0,-0.1,-0.1,-0.1,-0.1,-0.1c0,-0.1,-0.1,-0.1,-0.1,-0.1Zm-31.8,14c-0.1,-1.4,0,-2.5,0,-2.5c-0.1,0,15.8,-0.1,15.8,-0.1c0,0,0.1,4.9,0.1,5c-0.4,-0.1,-1,-0.1,-1.6,-0.1c-0.5,0,-1,0,-1.6,0c-1.4,0.3,-1.9,0.8,-3.3,1.2c-1.4,0.5,-3.6,0.8,-8.6,1c-0.4,-1.6,-0.7,-3.2,-0.8,-4.5m-0.4,7l0,-0.1c-0.1,-0.4,0,-0.6,0.1,-0.8c0.1,-0.3,0.2,-0.6,0.4,-1.2c0,0.1,0,0.2,0.1,0.2c0,0.2,0.1,0.2,0.1,0.3c-0.2,0.2,-0.4,0.5,-0.5,0.8c-0.1,0.3,-0.2,0.6,-0.2,0.8M305.5,70.5c0.2,0.6,1,0.9,1,0.9c-1.7,1.6,-2.4,3.1,-2.5,3.2c0.1,-0.1,-1.1,1.3,-0.4,3.5c0.4,1.1,2.1,1.3,2.6,1.3c1.3,0,2.2,0.1,2.2,0.1l0,4.6L292.5,84c0,0,0.4,-18.1,14.6,-21.1c1.2,-0.2,5.9,-0.7,9.8,2.3c0.1,0.1,0.1,0.2,0.1,0.3l0.1,0c8.4,5.8,8.8,18.5,8.8,18.5l-15.8,0.1l0,-0.5l0,-4.1c0,0,1.7,0.2,3,0.1c1.2,-0.1,1.9,0,2.2,-1c0.3,-0.9,0.8,-1.5,0.3,-2.3c-0.2,-0.1,-0.7,-0.6,-1.3,-2.2c-0.7,-1.8,0.3,-6.3,-5.1,-6.8c-0.8,0.1,-1.1,0.1,-1.7,0.3c-1.8,0.7,-2.3,2.1,-2,2.9m20.4,23.4c-0.1,-0.3,-0.3,-0.6,-0.5,-0.9c0,0,0.1,-0.1,0.1,-0.2c0,-0.1,0,-0.2,0.1,-0.3l0,0.1c0.1,0.6,0.4,0.9,0.5,1.2c0.1,0.2,0.1,0.5,0.1,0.9l-0.1,0c0.1,-0.2,0,-0.5,-0.2,-0.8m1.5,-14.1c0.1,-0.3,0.3,-0.8,0.4,-1.2c0.2,-0.4,0.5,-0.7,0.7,-0.7c-0.1,0.5,0,0.8,0.1,1.1c0,0.3,0,0.6,-0.4,1.1c-0.2,0.2,-0.3,0.3,-0.4,0.4c0,0.1,0,0.2,-0.1,0.3c0,-0.2,0,-0.3,0.1,-0.5c0,-0.1,0,-0.3,0.1,-0.5c-0.1,0.2,-0.2,0.3,-0.3,0.4c0,0.1,0.3,-0.7,0.3,-0.6c-0.1,0,-0.6,1,-0.7,0.9c-0.2,0,-0.3,0,-0.6,-0.2c-0.3,-0.3,-0.3,-0.5,-0.4,-0.7C326.1,79.3,326.1,79,326,78.7c0.2,0.2,0.5,0.5,0.9,0.6c0.2,0.2,0.5,0.4,0.5,0.5m1.6,0.6c-0.2,0.5,-0.1,0.7,-0.2,1c0,0.3,-0.1,0.6,-0.5,1.1c-0.3,0.1,-0.4,0.2,-0.5,0.3c0,0.1,-0.1,0.2,-0.1,0.3c0,-0.2,0,-0.4,0.1,-0.5c0,-0.2,0.1,-0.4,0.2,-0.5c-0.1,0.1,-0.2,0.3,-0.3,0.4c-0.1,0.1,-0.2,0.2,-0.3,0.3c0,0,-0.1,0,-0.2,-0.1c-0.1,0,-0.3,-0.1,-0.5,-0.3c-0.2,-0.3,-0.3,-0.5,-0.3,-0.8c0,-0.3,0,-0.5,-0.1,-0.8c0.2,0.2,0.6,0.4,0.8,0.6c0.2,0.3,0.5,0.5,0.5,0.7c0.1,-0.4,0.3,-0.8,0.6,-1.2c0.3,-0.4,0.6,-0.4,0.8,-0.5M327.8,85c0.1,-0.3,0.3,-0.8,0.6,-1.2c0.3,-0.4,0.5,-0.7,0.8,-0.7C329,83.6,329.1,84,329,84.3c0,0.3,-0.1,0.6,-0.5,1.1c-0.3,0.2,-0.4,0.3,-0.5,0.4c-0.1,0.1,-0.1,0.1,-0.2,0.2c0.1,-0.1,0.1,-0.3,0.2,-0.4c0,-0.2,0.1,-0.4,0.2,-0.5c-0.1,0.1,-0.2,0.2,-0.3,0.3c-0.1,0.2,-0.2,0.3,-0.3,0.4c0,0,-0.2,0,-0.3,0c-0.1,-0.1,-0.2,-0.2,-0.4,-0.4c-0.2,-0.3,-0.3,-0.5,-0.3,-0.8c0,-0.2,0,-0.5,-0.1,-0.9c0.3,0.3,0.5,0.5,0.8,0.7c0.2,0.2,0.4,0.4,0.5,0.6Z" class="g9_17" />
<path fill-rule="evenodd" d="M308.9,112.6c0.1,0,0.1,0,0.2,0c-0.2,0,-0.4,-0.1,-0.4,-0.1c0,0,0.1,0.1,0.2,0.1Z" class="g2_17" />
<path d="M309.5,112.5l0,-1" class="g11_17" />
<path fill-rule="evenodd" d="M290.4,80.4c0.1,0.1,0.1,0.1,0.1,0.2l0,-0.4c0,-0.2,-0.1,-0.4,-0.1,-0.5c0.1,0.1,0.1,0.3,0.2,0.4c0.1,0.1,0.1,0.2,0.2,0.3l0.2,0c0.2,0,0.4,-0.1,0.6,-0.3c0.2,-0.2,0.4,-0.4,0.4,-0.7c0.1,-0.2,0.1,-0.5,0.3,-0.8c-0.3,0.2,-0.6,0.4,-0.9,0.6c-0.3,0.2,-0.6,0.3,-0.6,0.5c0,-0.3,-0.2,-0.8,-0.4,-1.2c-0.2,-0.4,-0.5,-0.7,-0.6,-0.7c0,0.4,-0.1,0.8,-0.1,1.1c0,0.3,0,0.6,0.3,1.1c0.2,0.2,0.4,0.3,0.4,0.4Z" class="g12_17" />
<path fill-rule="evenodd" d="M291.5,82.3c0.2,-0.3,0.3,-0.5,0.3,-0.7c0,-0.3,0,-0.6,0.1,-0.9c-0.3,0.3,-0.5,0.5,-0.8,0.7c-0.2,0.2,-0.4,0.4,-0.5,0.6c0,-0.3,-0.3,-0.7,-0.6,-1.1c-0.3,-0.3,-0.6,-0.5,-0.8,-0.6c0.1,0.5,0.1,0.8,0.2,1.1c0,0.3,0.2,0.5,0.5,1c0.3,0.1,0.4,0.2,0.5,0.3c0.1,0.1,0.1,0.2,0.2,0.2c0,-0.1,-0.1,-0.3,-0.1,-0.4c-0.1,-0.2,-0.2,-0.4,-0.3,-0.5c0.1,0.1,0.3,0.2,0.4,0.4c0,0.1,0.1,0.2,0.2,0.3c0,0,0.1,0,0.2,-0.1c0.1,0,0.3,-0.1,0.5,-0.3Z" class="g12_17" />
<path fill-rule="evenodd" d="M291.5,75.7c0,0.1,0.1,0.4,0.2,0.5c0,-0.2,0,-0.6,0,-0.7l0,-0.5c0,0.2,0.1,0.3,0.1,0.4c0.1,0.1,0.1,0.2,0.1,0.4l0.3,0c0.2,0,0.3,-0.1,0.6,-0.2c0.3,-0.2,0.5,-0.4,0.6,-0.7c0.1,-0.2,0.2,-0.4,0.4,-0.8c-0.3,0.2,-0.7,0.4,-1,0.5c-0.3,0.2,-0.6,0.3,-0.7,0.4c0,-0.3,0,-0.7,-0.2,-1.1c-0.1,-0.5,-0.3,-0.8,-0.4,-0.8c-0.1,0.4,-0.2,0.8,-0.4,1.1c-0.1,0.3,-0.1,0.6,0.2,1.1c0.2,0.2,0.2,0.3,0.2,0.4Z" class="g12_17" />
<path fill-rule="evenodd" d="M291.2,78c0,-0.2,0.1,-0.3,0,-0.5c0,-0.1,0,-0.3,-0.1,-0.4c0.1,0.1,0.2,0.2,0.3,0.4c0.1,0.2,0.1,0.3,0.2,0.4c0,0,0.1,0,0.2,-0.1c0.2,0,0.3,-0.1,0.5,-0.4c0.3,-0.2,0.5,-0.3,0.6,-0.6c0.1,-0.2,0,-0.6,0.1,-0.9c-0.2,0.3,-0.6,0.4,-0.8,0.6c-0.4,0.2,-0.6,0.4,-0.7,0.6c0,-0.3,-0.1,-0.8,-0.3,-1.2c-0.3,-0.4,-0.5,-0.7,-0.6,-0.7c0,0.4,-0.1,0.8,-0.1,1.1c-0.1,0.3,-0.2,0.7,0.2,1.1c0,0.2,0.2,0.3,0.2,0.4c0,0.1,0.3,0.1,0.3,0.2Z" class="g12_17" />
<path fill-rule="evenodd" d="M307.4,67.7c0.6,-0.3,1,-0.3,2,-0.3c5.6,1.1,3.9,4.9,4.8,6.5c0,0,0.3,0.9,0.4,1c0.4,0.7,0.9,2.7,0.7,3.3c-0.2,1,-0.8,1.3,-2,1.3c-1.3,0.1,-3.2,0,-3.2,0l0,4.6L325.9,84c0,0,-0.3,-12.7,-8.6,-18.5c0,0,-0.3,-0.2,-0.4,-0.3c-3.9,-3,-8.6,-2.6,-9.8,-2.4C292.9,65.8,292.5,84,292.5,84l15.9,0.1l0,-4.6c0,0,-0.9,-0.1,-2.2,-0.1c-0.5,0,-1.9,-0.5,-2.4,-1.3c-0.6,-0.9,-1,-3,2.9,-6.7c0,0,-1,-0.3,-1.2,-0.9c-0.3,-0.8,0.2,-2.2,1.9,-2.8Z" class="g13_17" />
<path fill-rule="evenodd" d="M312.7,93.6c-0.6,-0.4,-1.4,-0.7,-2,-1.3c-0.5,0.4,-1.2,0.6,-1.8,0.7c-0.7,0,-1.4,-0.1,-1.8,-0.6c-0.4,-0.2,-0.2,-0.5,0,-0.9c0.2,-0.3,0.5,-0.7,0.5,-0.9c-0.3,-0.2,-1.1,-0.2,-2,0c-0.9,0.2,-2,0.6,-2.7,1c-0.9,0.4,-2.7,0.7,-4.5,0.9c-1.7,0.2,-3.6,0.3,-4.7,0.4c0,0.1,0.3,0.9,0.6,1.7c0.3,0.8,0.6,1.6,0.6,1.6c1,0.5,2.3,0.2,3.6,-0.1c1.2,-0.4,2.6,-0.8,3.5,-0.9c0.6,-0.7,1.2,-0.9,1.6,-0.9c0.5,0,0.8,0.2,0.9,0.4c0.6,-0.2,1.2,-0.2,1.6,0c0.4,0.1,0.6,0.4,0.5,0.6c0.5,-0.1,0.9,-0.1,1.2,0.1c0.3,0.2,0.4,0.5,0.3,0.8c0.1,0,0.5,-0.1,0.8,0c0.3,0.2,0.6,0.5,0.5,1.3c0,0,0,0.1,0.1,0.1c0.3,0.1,0.4,0,0.5,-0.1c0,-0.2,-0.1,-0.4,-0.2,-0.6c-0.4,-0.6,-0.6,-0.9,-0.6,-1.1c-0.1,-0.2,0,-0.4,0.2,-0.6l0,0.1c0.3,0.8,0.8,1.4,1.2,1.7c0.5,0.3,0.8,0.2,0.9,-0.1c-0.2,-0.5,-0.5,-0.7,-0.9,-1c-0.3,-0.4,-0.6,-0.7,-0.7,-1.2c-0.1,-0.1,0,-0.2,0,-0.4c0.1,-0.1,0.3,-0.1,0.4,-0.1c-0.3,0.3,-0.1,0.5,0.3,0.8c0.4,0.3,0.9,0.7,1.6,1.4c0.1,0.1,0.3,0.1,0.5,0.1c0.1,-0.1,0.2,-0.2,0.3,-0.3c-0.3,-0.6,-0.6,-0.9,-0.9,-1.2c-0.4,-0.3,-0.8,-0.5,-1.1,-1c0,-0.1,-0.1,-0.3,-0.1,-0.4c0,-0.2,0,-0.3,0.2,-0.4c0,0.5,0.3,0.7,0.8,0.9c0.4,0.2,0.9,0.5,1.5,1.2c0.2,0.3,0.3,0.5,0.4,0.5c0.1,0.1,0.2,0,0.4,-0.1l0.1,-0.3l0.1,-0.2c-0.3,-0.8,-1,-1.2,-1.7,-1.6Z" class="g14_17" />
<path fill-rule="evenodd" d="M309.4,97.6c-0.2,0,-0.1,0,0,0c0.1,0,0.1,0.1,0.1,0l-0.1,0Z" class="g14_17" />
<path fill-rule="evenodd" d="M307.3,96.3C307.1,96,307,95.9,306.7,96c-0.2,0.1,-0.4,0.2,-0.5,0.4L306,96.5l0,0.1c-0.1,0.1,-0.3,0.2,-0.4,0.3c-0.1,0.1,-0.1,0.1,0,0.1c-0.1,0,-0.1,0.1,-0.2,0.1c0,0.1,0,0.2,0.1,0.3c0.1,0.1,0.1,0.2,0.2,0.2c0,0,0.1,0,0.2,-0.1c0.1,0,0.5,-0.2,0.8,-0.5c0.4,-0.2,0.7,-0.5,0.6,-0.7Z" class="g14_17" />
<path fill-rule="evenodd" d="M305.5,95.6c0,-0.1,0,-0.2,-0.1,-0.2l-0.4,0l-0.2,0.1l-0.1,0.1l-0.1,0c0,0.1,-0.2,0.2,-0.2,0.2c-0.1,0.1,-0.2,0.3,-0.3,0.4c-0.1,0.2,-0.2,0.4,-0.2,0.5c0.1,0.1,0.2,0.1,0.3,0.2c0,0,0.1,-0.1,0.3,-0.1c0.1,0,0.4,-0.3,0.6,-0.5c0.3,-0.3,0.5,-0.6,0.4,-0.7Z" class="g14_17" />
<path fill-rule="evenodd" d="M308.1,96.9c-0.2,0,-0.3,0.1,-0.3,0.1c-0.6,0.5,-0.8,0.7,-0.7,0.8c0,0.2,0.2,0.2,0.4,0.3c0.3,-0.1,0.5,-0.2,0.7,-0.4c0.2,-0.1,0.4,-0.3,0.3,-0.4c-0.1,-0.4,-0.3,-0.5,-0.4,-0.4Z" class="g14_17" />
<path fill-rule="evenodd" d="M303.4,95c-0.1,0,-0.2,0.1,-0.4,0.1l-0.2,0.2l-0.1,0.2c-0.1,0,0,0.2,0.1,0.3c0.1,0.1,0.2,0.2,0.3,0.1c0.1,0,0.3,-0.2,0.4,-0.4c0.1,-0.2,0.3,-0.4,0.2,-0.5c-0.1,-0.1,-0.2,-0.1,-0.3,0Z" class="g14_17" />
<path fill-rule="evenodd" d="M322.9,97c0.4,-0.8,0.7,-1.3,0.9,-1.8c0.2,-0.5,0.4,-1,0.6,-1.5c-0.2,-0.1,-0.5,-0.1,-0.7,-0.1c-0.3,0,-0.6,-0.1,-0.8,-0.1c-1.4,-0.4,-2.6,-0.7,-3.8,-1c-1.2,-0.3,-2.4,-0.6,-3.7,-0.7c-1.1,-0.5,-1.9,-0.9,-2.6,-1.1c-0.6,-0.3,-1.2,-0.5,-2,-0.7c-0.3,-0.1,-0.6,-0.1,-1,0c-0.3,0.2,-0.5,0.4,-0.8,0.7c-0.2,0.4,-0.7,0.7,-1,0.9c-0.4,0.3,-0.6,0.4,-0.2,0.6c0.3,0.2,0.9,0.1,1.5,0c0.6,-0.2,1.2,-0.6,1.7,-0.8c0.3,0.1,0.4,0.3,0.6,0.5c0.3,0.2,0.5,0.4,1.1,0.7c0.7,0.4,1,0.6,1.4,0.9c0.3,0.2,0.6,0.5,1.2,1c0.2,-0.1,0.4,-0.2,0.5,-0.3c0.2,-0.2,0.3,-0.5,0.5,-0.9c0,-0.1,0.1,-0.3,0.1,-0.4c0.1,0,0.1,0,0.1,0.2c0.1,0.3,0.1,0.7,0.1,1.1c-0.1,0.3,-0.2,0.6,-0.4,0.8c1.9,1.2,3.5,1.7,4.7,1.9c1.3,0.2,2,0.1,2,0.1Z" class="g14_17" />
<path fill-rule="evenodd" d="M290.3,86.3c-0.1,-0.2,-0.3,-0.4,-0.5,-0.5c0.2,0.1,0.3,0.3,0.5,0.5c0.1,0.2,0.3,0.4,0.3,0.5l0,-0.1c0,-0.1,-0.1,-0.3,-0.3,-0.4Z" class="g2_17" />
<path fill-rule="evenodd" d="M292.8,92.8c0,-0.1,-0.1,-0.1,-0.1,-0.3c-0.1,0,-0.1,-0.1,-0.1,-0.2c-0.2,0.6,-0.3,0.9,-0.4,1.2c-0.1,0.2,-0.2,0.4,-0.1,0.8l0,0.1c0,-0.2,0.1,-0.5,0.2,-0.8c0.1,-0.3,0.3,-0.6,0.5,-0.8Z" class="g2_17" />
<path fill-rule="evenodd" d="M295.6,102.9c-0.4,-0.2,-0.9,-0.3,-1,-0.2c0.4,0.3,0.4,0.5,0.4,0.7c0.2,0.3,0.3,0.4,0.8,0.5c0.4,0,0.7,0.1,1,0.2c0.2,0,0.4,0.1,0.5,0.2c-0.1,-0.1,-0.2,-0.2,-0.4,-0.3c-0.1,-0.1,-0.2,-0.2,-0.4,-0.3c0.2,0.1,0.3,0.1,0.4,0.2c0.1,0,0.3,0,0.4,0.1c0.1,-0.1,0.1,-0.1,0.3,-0.2c0,-0.1,0.1,-0.3,0.1,-0.5c0,-0.4,-0.1,-0.6,-0.2,-0.8c-0.2,-0.2,-0.3,-0.4,-0.5,-0.8c0,0.4,-0.1,0.7,-0.2,1c0,0.3,-0.1,0.6,0,0.8c-0.3,-0.3,-0.7,-0.5,-1.2,-0.6Z" class="g12_17" />
<path fill-rule="evenodd" d="M297.3,104.7c-0.5,-0.1,-0.9,-0.1,-1.1,0c0.5,0.2,0.8,0.6,1.1,0.8c0.4,0.3,0.7,0.5,1.4,0.6c0.2,-0.1,0.4,-0.1,0.5,0c0.2,0.1,0.3,0.2,0.4,0.2c-0.1,-0.1,-0.2,-0.2,-0.3,-0.3c-0.1,-0.2,-0.2,-0.3,-0.3,-0.3c0.1,0,0.3,0.1,0.4,0.1c0.1,0.1,0.2,0.4,0.3,0.4c0,-0.1,-0.1,-0.5,-0.2,-0.7c0,-0.1,0,-0.4,0,-0.7c-0.1,-0.3,-0.2,-0.6,-0.4,-0.7c-0.2,-0.2,-0.4,-0.4,-0.6,-0.7c0.1,0.4,0,0.7,0,1c0,0.3,0,0.6,0.1,0.7c-0.3,-0.2,-0.8,-0.3,-1.3,-0.4Z" class="g12_17" />
<path fill-rule="evenodd" d="M294.4,100.2c0.1,0,0.2,0.1,0.3,0.2c-0.1,-0.2,-0.2,-0.3,-0.3,-0.4c-0.1,-0.1,-0.3,-0.2,-0.4,-0.3c0.1,0.1,0.3,0.1,0.4,0.2c0.1,0,0.2,0.1,0.3,0.2c0.1,-0.1,0.2,-0.1,0.2,-0.2c0.1,-0.1,0.3,-0.2,0.3,-0.6c0.1,-0.3,0,-0.6,-0.1,-0.8C295,98.3,294.9,98,294.8,97.7c-0.1,0.3,-0.3,0.6,-0.4,0.9c-0.1,0.4,-0.1,0.7,-0.1,0.9c-0.2,-0.3,-0.7,-0.5,-1.1,-0.7c-0.4,-0.2,-0.9,-0.3,-1,-0.3c0.3,0.4,0.4,0.8,0.7,1c0.2,0.3,0.4,0.5,1,0.6c0.2,0,0.4,0.1,0.5,0.1Z" class="g12_17" />
<path fill-rule="evenodd" d="M295.5,100.5c-0.1,0.3,-0.1,0.6,-0.1,0.7c-0.2,-0.2,-0.7,-0.4,-1.1,-0.5c-0.5,-0.1,-0.9,-0.1,-1,-0.1c0.4,0.3,0.5,0.6,0.8,0.9c0.2,0.2,0.5,0.4,1,0.4c0.3,0,0.5,0,0.6,0c0.1,0.1,0.2,0.2,0.3,0.2c-0.1,-0.2,-0.3,-0.3,-0.4,-0.3c-0.1,-0.1,-0.3,-0.2,-0.4,-0.3c0.1,0.1,0.3,0.1,0.4,0.1c0.1,0,0.4,0.2,0.5,0.2c0,-0.1,0,-0.2,0.1,-0.3c0.1,-0.1,0.1,-0.3,0.1,-0.5c0,-0.4,-0.1,-0.6,-0.2,-0.8C296,100,295.8,99.8,295.6,99.5c-0.1,0.3,-0.1,0.7,-0.1,1Z" class="g12_17" />
<path fill-rule="evenodd" d="M291.7,95.8c0.3,0,0.5,0,0.6,0.1c0,0,0.1,0.1,0.2,0.2c0,-0.2,-0.1,-0.4,-0.1,-0.6c0,-0.1,-0.1,-0.2,-0.2,-0.4c0.1,0.1,0.2,0.2,0.3,0.3c0,0.1,0.1,0.4,0.2,0.5c0.1,-0.1,0.1,-0.3,0.2,-0.4C293,95.4,293,95.2,293.1,95c0.1,-0.4,0.2,-0.7,0.1,-0.9c0,-0.3,-0.2,-0.5,-0.2,-0.8c-0.1,0.3,-0.4,0.6,-0.5,1c-0.1,0.3,-0.3,0.5,-0.3,0.8c-0.1,-0.3,-0.5,-0.6,-0.9,-0.8c-0.4,-0.3,-0.8,-0.4,-1,-0.3c0.3,0.4,0.4,0.7,0.6,1c0.1,0.3,0.4,0.5,0.8,0.8Z" class="g12_17" />
<path fill-rule="evenodd" d="M293.3,97.8c0.1,0.1,0.2,0.1,0.3,0.2l0,-0.1c-0.2,-0.1,-0.3,-0.3,-0.4,-0.4c-0.1,-0.1,-0.3,-0.2,-0.4,-0.3c0.1,0.1,0.3,0.1,0.4,0.2c0.2,0,0.3,0.1,0.5,0.2c0,0,0.1,-0.1,0.1,-0.2c0.1,-0.1,0.2,-0.3,0.2,-0.5c0.1,-0.5,0,-0.7,-0.1,-0.9c-0.1,-0.2,-0.2,-0.5,-0.3,-0.8c0,0.4,-0.2,0.7,-0.3,1c-0.1,0.3,-0.2,0.7,-0.1,0.9c-0.3,-0.3,-0.7,-0.5,-1.1,-0.7c-0.4,-0.1,-0.8,-0.2,-1,-0.1c0.4,0.4,0.5,0.7,0.7,0.9c0.2,0.3,0.4,0.4,1,0.6c0.3,-0.1,0.4,0,0.5,0Z" class="g12_17" />
<path fill-rule="evenodd" d="M290.2,90.8c0.3,0.1,0.4,0.2,0.5,0.3c0.1,0.1,0.1,0.1,0.2,0.2c-0.1,-0.1,0,-0.4,-0.1,-0.5c0,-0.2,0,-0.3,-0.1,-0.4c0.1,0.1,0.2,0.1,0.2,0.2c0.1,0.1,0.1,0.2,0.1,0.3c0.2,0,0.2,0,0.3,-0.1c0.1,-0.1,0.2,-0.2,0.4,-0.5c0.1,-0.4,0.2,-0.6,0.2,-0.9c0,-0.3,-0.1,-0.5,0,-0.9c-0.2,0.4,-0.5,0.7,-0.7,1c-0.3,0.3,-0.3,0.5,-0.4,0.8c-0.1,-0.3,-0.3,-0.6,-0.6,-0.9C289.9,89.1,289.6,89,289.4,89c0.2,0.5,0.2,0.8,0.2,1.1c0.1,0.3,0.2,0.5,0.6,0.7Z" class="g12_17" />
<path fill-rule="evenodd" d="M291,93.1c0.2,0,0.3,0,0.3,0.1l0,-0.4c0,-0.1,-0.1,-0.2,-0.1,-0.3c0.1,0.1,0.2,0.2,0.2,0.3c0.1,0.1,0.1,0.2,0.2,0.3c0,-0.1,0.1,-0.2,0.2,-0.2c0.1,-0.1,0.3,-0.2,0.4,-0.6c0.1,-0.4,0.1,-0.7,0,-0.9c0,-0.3,-0.1,-0.5,-0.1,-0.9c-0.2,0.3,-0.4,0.7,-0.5,1c-0.2,0.4,-0.3,0.6,-0.3,0.8c-0.2,-0.3,-0.6,-0.6,-1,-0.8c-0.3,-0.2,-0.7,-0.3,-0.9,-0.3c0.3,0.4,0.4,0.8,0.5,1c0.2,0.3,0.4,0.6,0.9,0.8c0.1,0,0.2,0.1,0.2,0.1Z" class="g12_17" />
<path fill-rule="evenodd" d="M290.5,88.2c0,0.1,0,0.1,0,0.2c0,-0.1,0.2,-0.3,0.1,-0.4c0.1,0.1,0.3,0.2,0.3,0.3c0,-0.1,0.1,-0.1,0.3,-0.1c0.1,0,0.2,-0.1,0.3,-0.4c0.2,-0.3,0.2,-0.6,0.2,-0.9c0,-0.2,-0.1,-0.4,-0.1,-0.8c-0.1,0.3,-0.4,0.5,-0.6,0.8c-0.2,0.2,-0.3,0.4,-0.3,0.6c-0.2,-0.3,-0.5,-0.7,-0.8,-1c-0.3,-0.2,-0.8,-0.6,-0.9,-0.6c0.1,0.9,0.3,1.3,0.4,1.5c0.1,0.2,0.2,0.3,0.6,0.6c0.2,0.1,0.4,0.1,0.5,0.2Z" class="g12_17" />
<path fill-rule="evenodd" d="M290,85.3c0.2,0.2,0.3,0.3,0.5,0.4c0,0.1,0,0.2,0.1,0.3c0,-0.2,-0.1,-0.4,-0.1,-0.5c-0.1,-0.2,-0.2,-0.4,-0.3,-0.5c0.1,0.1,0.3,0.2,0.4,0.3c0.1,0.2,0.1,0.3,0.2,0.4c0,0,0.1,0,0.2,0c0.2,-0.1,0.3,-0.1,0.5,-0.4c0.2,-0.3,0.3,-0.5,0.3,-0.8c0,-0.2,0,-0.4,0,-0.8c-0.2,0.3,-0.6,0.5,-0.8,0.7c-0.3,0.2,-0.3,0.4,-0.4,0.6c0,-0.3,-0.3,-0.8,-0.5,-1.1c-0.3,-0.4,-0.8,-0.7,-0.9,-0.7c0.1,0.5,0.1,0.9,0.1,1.2c0.1,0.3,0.3,0.5,0.7,0.9Z" class="g12_17" />
<path fill-rule="evenodd" d="M324.5,73.7c0.1,0,0.2,0,0.2,0c0,0,-0.1,0,-0.2,-0.1c0,-0.1,-0.1,-0.1,-0.2,-0.2l0,0.1c0,0,0.1,0,0.1,0.1c0,0,0.1,0,0.1,0.1Z" class="g2_17" />
<path fill-rule="evenodd" d="M326.1,94.7l0.1,0c0,-0.4,0,-0.7,-0.1,-0.9c-0.1,-0.3,-0.4,-0.6,-0.5,-1.2l0,-0.1c-0.1,0.1,-0.1,0.2,-0.1,0.3c0,0.1,-0.1,0.2,-0.1,0.2c0.2,0.3,0.4,0.6,0.5,0.9c0.2,0.3,0.3,0.6,0.2,0.8Z" class="g2_17" />
<path fill-rule="evenodd" d="M326.9,94c0,0.1,-0.1,0.2,-0.2,0.2c0.1,0,0.2,-0.1,0.3,-0.2c0,0,0.1,0,0.2,-0.1C327.1,94,327,94,326.9,94Z" class="g2_17" />
<path fill-rule="evenodd" d="M327.4,89.7l0,-0.1l0,-0.1c-0.1,0,-0.1,0,-0.1,-0.1c0,0.1,0,0.2,0,0.2c0,0.1,0.1,0.1,0.1,0.2Z" class="g2_17" />
<path fill-rule="evenodd" d="M327.9,89c-0.1,0,-0.1,0.1,-0.1,0.1c0,0,0.1,-0.1,0.1,-0.1c0.1,-0.1,0.2,-0.2,0.2,-0.2c-0.1,0,-0.2,0.1,-0.2,0.2Z" class="g2_17" />
<path fill-rule="evenodd" d="M323.6,101.1c-0.4,0.2,-0.8,0.4,-1.1,0.6c0.1,-0.2,0.1,-0.4,0.1,-0.6c-0.1,-0.4,-0.2,-0.8,-0.3,-1.2c-0.1,0.3,-0.3,0.4,-0.4,0.7c-0.2,0.2,-0.3,0.5,-0.3,0.9c0,0.4,0.2,0.4,0.3,0.6c0.1,0.1,0.2,0.2,0,0.4c0.2,0,0.3,-0.1,0.4,-0.1c0.1,0,0.2,-0.1,0.6,0c0.5,-0.1,0.8,-0.1,1,-0.3c0.3,-0.3,0.5,-0.8,0.9,-1.1c-0.2,-0.1,-0.7,0,-1.2,0.1Z" class="g12_17" />
<path fill-rule="evenodd" d="M293.6,71l0,0.3c0,-0.2,0.1,-0.4,0.1,-0.5c0.1,-0.2,0.1,-0.3,0.1,-0.5c0,0.2,0,0.3,0.1,0.4l0,0.4c0.1,0,0.1,0,0.3,0c0.1,0,0.3,0,0.6,-0.1c0.4,-0.2,0.6,-0.4,0.7,-0.7c0.1,-0.2,0.3,-0.5,0.6,-0.8c-0.3,0.2,-0.8,0.4,-1.2,0.5c-0.3,0.1,-0.6,0.2,-0.8,0.4c0.2,-0.3,0.2,-0.8,0.2,-1.2c-0.1,-0.4,-0.3,-0.8,-0.4,-0.8c-0.1,0.5,-0.3,0.7,-0.5,1c-0.2,0.3,-0.2,0.6,-0.1,1.1c0.2,0.2,0.3,0.4,0.3,0.5Z" class="g12_17" />
<path fill-rule="evenodd" d="M292.8,73.2c0.1,-0.1,0.1,-0.3,0.1,-0.5c0,-0.1,0,-0.3,0,-0.4c0,0.1,0.1,0.2,0.1,0.3c0.1,0.2,0.1,0.3,0.1,0.5c0.1,-0.1,0.2,0,0.3,-0.1c0.2,0,0.3,0,0.6,-0.2c0.3,-0.3,0.5,-0.5,0.6,-0.7c0.1,-0.2,0.2,-0.5,0.4,-0.8c-0.4,0.2,-0.7,0.4,-1,0.5c-0.3,0.2,-0.6,0.4,-0.8,0.5c0.1,-0.3,0,-0.8,-0.1,-1.2c-0.1,-0.4,-0.3,-0.7,-0.5,-0.8c0,0.5,-0.2,0.8,-0.3,1.2c-0.1,0.3,-0.1,0.6,0.1,1c0.2,0.2,0.4,0.4,0.4,0.5c0,0.1,0,0.1,0,0.2Z" class="g12_17" />
<path fill-rule="evenodd" d="M296.6,66.6c0.1,-0.1,0.1,-0.2,0.2,-0.3c0.1,-0.1,0.1,-0.1,0.2,-0.2l-0.1,0.1l-0.1,0.5c0.1,0,0.2,0,0.3,0.1c0.1,0.1,0.2,0.1,0.6,0.1c0.3,-0.1,0.6,-0.2,0.7,-0.3c0.2,-0.2,0.4,-0.4,0.7,-0.6c-0.4,0,-0.7,0,-1,0c-0.3,-0.1,-0.6,-0.1,-0.8,0c0.2,-0.3,0.3,-0.7,0.4,-1.2c0,-0.4,0,-0.8,-0.1,-1c-0.3,0.5,-0.5,0.7,-0.7,0.9c-0.1,0.2,-0.2,0.5,-0.3,1c0.1,0.3,0.1,0.5,0.1,0.6c0,0.1,0,0.2,-0.1,0.3Z" class="g12_17" />
<path fill-rule="evenodd" d="M295.2,68.4c-0.1,0.1,-0.1,0.2,-0.2,0.3c0.2,-0.2,0.3,-0.3,0.3,-0.5c0.1,-0.2,0.1,-0.3,0.1,-0.5l0,0.5c0,0.1,0,0.3,0,0.4c0,0,0.1,0.1,0.2,0.1c0.1,0.1,0.3,0.1,0.5,0c0.4,-0.1,0.6,-0.1,0.8,-0.3c0.1,-0.2,0.3,-0.5,0.5,-0.7c-0.3,0,-0.6,0,-0.9,0c-0.3,0,-0.6,0.1,-0.8,0.2C295.9,67.6,296,67,296,66.6c0,-0.5,-0.1,-0.8,-0.3,-1c-0.2,0.5,-0.4,0.8,-0.5,1.1C295,66.9,295,67.1,295,67.8c0.1,0.2,0.2,0.4,0.2,0.6Z" class="g12_17" />
<path fill-rule="evenodd" d="M300.4,63.3c0.1,-0.1,0.2,-0.3,0.3,-0.4c0,0.1,-0.1,0.3,-0.2,0.4c0,0.2,-0.1,0.3,-0.2,0.4c0.1,0,0.2,0.1,0.3,0.2c0.1,0.1,0.2,0.1,0.5,0.2c0.4,0.1,0.6,0,0.9,-0.1c0.2,-0.1,0.4,-0.3,0.7,-0.4c-0.3,0,-0.7,-0.1,-1,-0.3c-0.3,-0.1,-0.6,-0.1,-0.8,-0.1c0.5,-0.3,0.5,-0.7,0.7,-1c0.2,-0.5,0.2,-0.8,0.2,-1c-0.4,0.3,-0.7,0.5,-1,0.7c-0.3,0.2,-0.5,0.4,-0.6,0.9c0,0.3,0,0.5,0,0.6c-0.1,0.1,-0.1,0.2,-0.2,0.3c0.2,-0.1,0.3,-0.3,0.4,-0.4Z" class="g12_17" />
<path fill-rule="evenodd" d="M298.5,65.1c0.1,-0.2,0.2,-0.3,0.3,-0.5c0,-0.1,0.1,-0.2,0.2,-0.4c-0.1,0.2,-0.1,0.3,-0.1,0.4c0,0.2,-0.1,0.3,-0.1,0.5c0.1,0,0.1,0.1,0.3,0.1c0.1,0.1,0.2,0.1,0.5,0.1c0.4,0,0.6,-0.1,0.8,-0.2c0.2,-0.2,0.4,-0.4,0.7,-0.5c-0.3,-0.1,-0.7,-0.1,-1,-0.2c-0.4,0,-0.6,0,-0.8,0.1c0.2,-0.3,0.3,-0.8,0.4,-1.3c0.2,-0.4,0.2,-0.8,0.1,-0.9c-0.3,0.4,-0.6,0.6,-0.8,0.8c-0.2,0.2,-0.4,0.5,-0.5,1.1c0.1,0.3,0.1,0.4,0.1,0.5c0,0.1,-0.1,0.3,-0.1,0.4Z" class="g12_17" />
<path fill-rule="evenodd" d="M305.7,60.8c-0.1,0.1,-0.2,0.3,-0.3,0.4c-0.1,0.1,-0.2,0.2,-0.4,0.3c0.1,0.1,0.1,0.2,0.2,0.3c0,0.1,0.2,0.2,0.4,0.3c0.4,0.2,0.4,0.2,0.8,0.1c0.3,0,0.6,-0.1,0.9,-0.1c-0.3,-0.2,-0.6,-0.4,-0.8,-0.6c-0.3,-0.1,-0.5,-0.3,-0.7,-0.3c0.3,-0.1,0.7,-0.5,1,-0.8c0.3,-0.4,0.5,-0.7,0.5,-0.9c-0.5,0.2,-0.8,0.3,-1.1,0.4c-0.3,0.1,-0.6,0.3,-1,0.8c-0.1,0.2,-0.1,0.4,-0.2,0.5c-0.1,0.1,-0.1,0.1,-0.2,0.2c0.1,-0.1,0.3,-0.1,0.4,-0.2c0.2,-0.1,0.3,-0.3,0.5,-0.4Z" class="g12_17" />
<path fill-rule="evenodd" d="M303.1,61.6c0,0.2,-0.2,0.3,-0.3,0.4c0,0.2,-0.1,0.3,-0.2,0.4c0,0,0,0.1,0.1,0.2c0.1,0.1,0.2,0.2,0.5,0.3c0.3,0.1,0.6,0.1,0.8,0.1c0.2,-0.1,0.5,-0.3,0.8,-0.3c-0.3,-0.1,-0.6,-0.3,-0.8,-0.5C303.7,62.1,303.4,62,303.2,62c0.4,-0.2,1,-0.6,1.3,-1.2c0.3,-0.4,0.3,-0.7,0.2,-0.9c-0.4,0.4,-0.7,0.4,-1.1,0.5c-0.3,0.2,-0.8,0.4,-0.9,1.1c-0.1,0.3,-0.1,0.4,-0.2,0.5c-0.1,0.1,-0.1,0.2,-0.2,0.3c0.1,-0.1,0.3,-0.2,0.4,-0.3c0.1,-0.1,0.3,-0.3,0.4,-0.4Z" class="g12_17" />
<path fill-rule="evenodd" d="M309.8,61c0.1,0.1,0.1,0.3,0.5,0.6c0.2,0.3,0.5,0.3,0.7,0.3c0.3,0.1,0.5,0.1,0.9,0.2c-0.4,-0.4,-0.6,-0.7,-0.9,-1c-0.1,-0.2,-0.3,-0.3,-0.5,-0.4c0.3,0,0.7,-0.2,1,-0.4c0.5,-0.3,0.8,-0.6,0.8,-0.8c-0.4,0.1,-0.8,0,-1.1,0.1c-0.3,0,-0.6,0.1,-1,0.4c-0.3,0.3,-0.3,0.4,-0.4,0.5c-0.1,0.1,-0.2,0.1,-0.3,0.2c0.3,0,0.3,0.1,0.3,0.3Z" class="g12_17" />
<path fill-rule="evenodd" d="M307.7,60.8c0.2,0,0.3,-0.2,0.4,-0.3c0,0.2,-0.1,0.3,-0.2,0.4c-0.1,0.1,-0.3,0.2,-0.4,0.3c0.1,0,0.1,0.1,0.1,0.2c0.1,0.1,0.2,0.2,0.5,0.4c0.3,0.2,0.6,0.2,0.8,0.2c0.2,0,0.5,-0.1,0.8,0c-0.2,-0.3,-0.5,-0.5,-0.8,-0.7c-0.2,-0.2,-0.5,-0.4,-0.7,-0.4c0.4,-0.1,0.7,-0.3,1,-0.8c0.4,-0.3,0.6,-0.8,0.6,-0.9c-0.4,0.2,-0.8,0.2,-1.2,0.4c-0.3,0.1,-0.5,0.2,-0.8,0.7c-0.1,0.3,-0.2,0.4,-0.3,0.5c-0.1,0.1,-0.1,0.1,-0.2,0.2c0.1,-0.1,0.3,-0.1,0.4,-0.2Z" class="g12_17" />
<path fill-rule="evenodd" d="M326,96.7c-0.4,0.1,-0.6,0.4,-0.8,0.7c0,-0.3,-0.1,-0.5,-0.2,-0.9c-0.1,-0.3,-0.3,-0.6,-0.3,-1c-0.1,0.4,-0.2,0.6,-0.3,0.8c-0.2,0.2,-0.2,0.5,-0.2,0.8c0.1,0.4,0.2,0.5,0.3,0.6c0.1,0.1,0.1,0.2,0.2,0.2c0.1,0,0.2,-0.1,0.3,-0.2c0.2,0,0.3,0,0.5,-0.1c-0.2,0.1,-0.3,0.2,-0.5,0.3c-0.1,0.1,-0.2,0.3,-0.3,0.4c0.1,-0.1,0.2,-0.1,0.3,-0.2c0.1,0,0.3,-0.1,0.6,0c0.5,-0.2,0.8,-0.4,1,-0.6c0.2,-0.4,0.2,-0.7,0.5,-1C327,96.4,326.4,96.4,326,96.7Z" class="g12_17" />
<path fill-rule="evenodd" d="M324.7,99c-0.5,0.1,-0.6,0.5,-0.8,0.8c0.1,-0.3,0,-0.5,-0.1,-0.8c-0.1,-0.4,-0.3,-0.7,-0.4,-1.1c-0.1,0.4,-0.2,0.6,-0.3,0.8C323,99,323,99.2,323,99.6c0.1,0.3,0.2,0.5,0.2,0.6c0.1,0,0.2,0.1,0.3,0.2c0.1,-0.1,0.2,-0.2,0.3,-0.3c0.2,0,0.3,0,0.4,-0.1c-0.1,0.1,-0.2,0.2,-0.3,0.3c-0.1,0.2,-0.2,0.3,-0.3,0.4c-0.4,0.1,-0.2,0.2,0.2,0c-0.4,0.1,0.8,-0.2,0.6,-0.2c0.5,-0.2,0.8,-0.4,0.9,-0.7c0.2,-0.3,0.3,-0.6,0.7,-1c-0.2,-0.1,-0.9,-0.1,-1.3,0.2Z" class="g12_17" />
<path fill-rule="evenodd" d="M322.4,103.2c-0.4,0.2,-1.1,0.3,-1.2,0.6c0.1,-0.1,0,-0.4,0,-0.7c-0.1,-0.4,-0.1,-0.9,-0.2,-1.3c-0.1,0.4,-0.4,0.8,-0.5,1c-0.1,0.2,-0.3,0.4,-0.2,0.8c0,0.3,0,0.5,0.1,0.6c0.1,0.1,0.2,0.1,0.2,0.2c0.1,-0.1,0.8,-0.3,0.9,-0.3c-0.2,0,-0.3,0.1,-0.4,0.3c-0.2,0.1,-0.3,0.2,-0.5,0.3c0.1,-0.1,0.2,-0.1,0.3,-0.1c0.2,-0.1,0.3,-0.1,0.6,-0.1c0.6,-0.1,1,-0.3,1.3,-0.6c0.2,-0.2,0.2,-0.5,0.6,-0.8c-0.1,-0.1,-0.5,0,-1,0.1Z" class="g12_17" />
<path fill-rule="evenodd" d="M320.7,104.9c-0.5,0.1,-1,0.3,-1.3,0.5c0.1,-0.2,0.1,-0.5,0.1,-0.8c-0.1,-0.3,-0.1,-0.6,-0.1,-0.9c-0.1,0.2,-0.3,0.4,-0.5,0.6c-0.2,0.2,-0.4,0.4,-0.4,0.7c-0.1,0.3,-0.1,0.5,-0.1,0.6l0,0.5c0.1,-0.1,0.2,-0.1,0.3,-0.2c0.2,-0.1,0.3,-0.1,0.4,-0.2c-0.1,0.1,-0.2,0.2,-0.3,0.4c-0.2,0.1,-0.3,0.2,-0.3,0.4c0.1,-0.1,0.1,-0.1,0.4,-0.2c0.1,-0.1,0.4,-0.3,0.7,-0.2c0.6,0,0.9,-0.2,1.2,-0.4c0.3,-0.2,0.5,-0.5,1,-0.8c-0.2,-0.1,-0.6,-0.1,-1.1,0Z" class="g12_17" />
<path fill-rule="evenodd" d="M327,94.5c-0.4,0.2,-0.8,0.5,-0.9,0.8c0,-0.2,0.1,-0.3,0.1,-0.6c-0.1,-0.5,-0.8,-0.9,-0.9,-1.2c0,0.3,-0.1,0.6,-0.1,0.8c-0.1,0.3,-0.2,0.5,0,0.9c0.1,0.3,0.2,0.5,0.3,0.6c0.1,0.1,0.2,0.1,0.2,0.2c0.2,-0.1,0.3,-0.2,0.4,-0.3c0.1,-0.1,0.2,-0.1,0.3,-0.2c-0.1,0.1,-0.2,0.3,-0.3,0.4c-0.1,0.1,-0.2,0.2,-0.2,0.4c0.1,-0.1,0.1,-0.1,0.2,-0.2C326.2,96,326.3,96,326.6,96c0.5,-0.2,0.7,-0.5,0.8,-0.8c0.1,-0.3,0.4,-0.8,0.6,-1.2c-0.1,0,-0.7,0.2,-1,0.5Z" class="g12_17" />
<path fill-rule="evenodd" d="M328.1,89.5c-0.3,0.3,-0.5,0.6,-0.7,1c0,-0.2,-0.2,-0.5,-0.4,-0.8c-0.2,-0.3,-0.4,-0.6,-0.6,-1c0,0.4,-0.1,0.7,-0.1,1c0,0.2,0.1,0.5,0.3,0.9c0.2,0.2,0.3,0.6,0.4,0.6c0.1,0.1,0.2,0,0.2,0.1c0.1,-0.2,0.2,-0.3,0.3,-0.4c0.1,-0.1,0.2,-0.2,0.3,-0.2c-0.1,0.1,-0.1,0.2,-0.2,0.4c-0.1,0.1,-0.2,0.3,-0.2,0.4c0.1,0,0.1,-0.1,0.2,-0.2c0.1,0,0.2,-0.1,0.5,-0.2c0.4,-0.3,0.5,-0.6,0.6,-1c0,-0.3,0,-0.6,0.2,-1.1c-0.2,0,-0.5,0.2,-0.8,0.5Z" class="g12_17" />
<path fill-rule="evenodd" d="M327.6,91.8c-0.4,0.3,-0.5,0.5,-0.6,0.9c0,-0.3,0,-0.5,-0.2,-0.9c-0.2,-0.3,-0.5,-0.6,-0.6,-1c0,0.4,-0.1,0.6,-0.2,0.8c0,0.3,0,0.6,0.1,0.9c0.1,0.4,0.2,0.5,0.3,0.6c0.1,0.1,0.2,0.1,0.2,0.2c0.1,-0.1,0.2,-0.2,0.4,-0.3c0.1,0,0.2,-0.1,0.3,-0.1c-0.1,0.1,-0.2,0.2,-0.3,0.3c-0.1,0.1,-0.2,0.3,-0.2,0.5c0.1,-0.1,0.1,-0.2,0.2,-0.2c0.1,-0.1,0.2,-0.2,0.5,-0.2c0.5,-0.2,0.6,-0.5,0.7,-0.8c0.2,-0.3,0.4,-0.8,0.6,-1.2c-0.2,0,-0.9,0.3,-1.2,0.5Z" class="g12_17" />
<path fill-rule="evenodd" d="M326.5,83.7c0.1,0.4,0.1,0.7,0.1,1c0,0.2,0,0.4,0.2,0.8c0.3,0.6,0.8,0.3,0.9,0.4c0,-0.2,0.1,-0.3,0.2,-0.5c0.1,-0.1,0.2,-0.2,0.3,-0.3c-0.1,0.1,-0.3,0.4,-0.3,0.6c-0.1,0.1,-0.1,0.3,-0.2,0.6c0.1,-0.2,0.3,-0.4,0.3,-0.5c-0.1,0.2,0.5,-0.3,0.5,-0.3c0.4,-0.5,0.6,-0.9,0.6,-1.3c0,-0.3,0,-0.7,0.1,-1.1c-0.1,0,-0.6,0.3,-0.9,0.7c-0.3,0.4,-0.4,0.9,-0.5,1.2c-0.1,-0.2,-0.3,-0.3,-0.5,-0.6C327,84.2,326.8,84,326.5,83.7Z" class="g12_17" />
<path fill-rule="evenodd" d="M328.2,86.6c-0.3,0.4,-0.5,0.8,-0.6,1.1c0,-0.2,-0.2,-0.4,-0.4,-0.7c-0.2,-0.2,-0.4,-0.4,-0.6,-0.7c0,0.3,-0.1,0.6,-0.1,0.9c0,0.2,-0.1,0.5,0.1,0.8c0.2,0.3,0.3,0.4,0.4,0.4c0.1,0.1,0.2,0.1,0.3,0.2c0.1,-0.2,0.2,-0.4,0.3,-0.5c0.1,-0.1,0.2,-0.2,0.4,-0.3c-0.2,0.2,-0.2,0.3,-0.3,0.5c-0.1,0.1,-0.2,0.3,-0.3,0.5c0.2,-0.1,0.2,-0.2,0.3,-0.3c0.1,-0.1,0.2,-0.2,0.5,-0.3c0.5,-0.5,0.6,-0.7,0.7,-1.1c0.1,-0.3,0.1,-0.7,0.3,-1.2c-0.1,0,-0.6,0.4,-1,0.7Z" class="g12_17" />
<path fill-rule="evenodd" d="M326,78.7c0.1,0.3,0.1,0.6,0.2,0.9c0.1,0.2,0.1,0.6,0.5,0.8c0.2,0.2,0.3,0.3,0.5,0.4c0.1,0,0.1,-0.2,0.1,-0.2c0.1,-0.1,0.3,-0.3,0.3,-0.4c0.1,-0.1,-0.1,0.2,0,0.1c-0.1,0.2,0.1,-0.2,0.1,0c-0.2,0.2,0,0.5,0,0.7c0.1,-0.1,0.1,-0.4,0.1,-0.5c0.1,-0.1,0.2,-0.2,0.4,-0.4c0.4,-0.5,0.4,-0.8,0.4,-1.1c-0.1,-0.3,-0.2,-0.6,-0.1,-1.1c-0.2,0,-0.5,0.3,-0.7,0.7c-0.1,0.4,-0.4,0.8,-0.4,1.1c-0.1,-0.2,-0.3,-0.2,-0.5,-0.4c-0.4,-0.1,-0.7,-0.4,-0.9,-0.6Z" class="g12_17" />
<path fill-rule="evenodd" d="M328.2,80.9c-0.3,0.4,-0.5,0.8,-0.6,1.2c0,-0.2,-0.3,-0.4,-0.5,-0.7c-0.2,-0.2,-0.6,-0.4,-0.8,-0.6c0.1,0.3,0.1,0.5,0.1,0.8c0,0.3,0.1,0.7,0.4,1c0.1,0.2,0.6,0.2,0.6,0.2c0.1,-0.1,0.3,-0.4,0.4,-0.5c0,0.1,-0.1,0.7,-0.1,0.9c0,-0.2,0.3,-0.6,0.6,-0.7c0.4,-0.5,0.6,-0.8,0.7,-1.2c0,-0.3,0,-0.5,0.1,-1c-0.2,0,-0.6,0.2,-0.9,0.6Z" class="g12_17" />
<path fill-rule="evenodd" d="M324.4,74.1c0.2,0.3,0.3,0.5,0.4,0.8c0.1,0.2,0.2,0.4,0.6,0.6c0.3,0.2,0.5,0.2,0.6,0.2c0.1,0.1,0.2,0,0.3,0c0,-0.1,0,-0.2,0.1,-0.3c0,-0.1,0.1,-0.3,0.1,-0.4c0,0.2,0,0.3,0,0.5c0,0.1,0,0.5,0.1,0.6c0,-0.1,0,-0.4,0,-0.5c0,-0.1,0.2,-0.2,0.4,-0.4c0.2,-0.5,0.2,-0.9,0.1,-1.2c-0.1,-0.3,-0.3,-0.5,-0.3,-1c-0.2,0.1,-0.4,0.4,-0.5,0.8c-0.1,0.4,-0.2,0.9,-0.2,1.2c-0.1,-0.2,-0.4,-0.3,-0.7,-0.4c-0.4,-0.2,-0.7,-0.3,-1,-0.5Z" class="g12_17" />
<path fill-rule="evenodd" d="M326.7,77.1c-0.1,-0.2,-0.4,-0.4,-0.6,-0.6c-0.4,-0.2,-0.7,-0.4,-0.9,-0.6c0.1,0.3,0.1,0.6,0.2,0.8c0.1,0.3,0.2,0.5,0.5,0.7c0.2,0.3,0.4,0.3,0.5,0.4c0.1,0,0.2,0,0.3,0c0.1,-0.1,0.1,-0.2,0.2,-0.4c0,-0.1,0.1,-0.2,0.2,-0.3C327,77.2,327,77.4,327,77.6l0,0.4c0,-0.1,0,-0.2,0.1,-0.2c0,-0.1,0.1,-0.3,0.3,-0.5c0.4,-0.4,0.6,-0.7,0.5,-1c0,-0.3,-0.2,-0.7,-0.2,-1.2c-0.2,0.1,-0.5,0.3,-0.7,0.7c-0.5,0.9,-0.3,0.5,-0.3,1.3Z" class="g12_17" />
<path fill-rule="evenodd" d="M321.9,69.5c0.3,0.3,0.4,0.5,0.5,0.7c0.2,0.3,0.4,0.5,0.8,0.6c0.3,0.2,0.5,0.2,0.6,0.2c0.1,0,0.3,0.1,0.4,0.2c0,-0.2,-0.1,-0.4,-0.1,-0.5c0.1,-0.2,0,-0.3,0.1,-0.4c0,0.2,0,0.2,0,0.4c0.1,0.1,0.2,0.4,0.3,0.6l0,-0.4c0,-0.1,0.1,-0.3,0.3,-0.6c0.1,-0.5,0,-0.8,-0.1,-1.1c-0.2,-0.3,-0.3,-0.6,-0.5,-1.1c-0.2,0.1,-0.4,0.5,-0.5,1c0,0.4,0,0.8,0.1,1.1C323.7,70,323.3,69.9,323,69.8c-0.4,-0.1,-1.2,-0.4,-1.1,-0.3Z" class="g12_17" />
<path fill-rule="evenodd" d="M324.8,72.2c-0.2,-0.1,-0.4,-0.3,-0.8,-0.5c-0.3,-0.1,-0.7,-0.3,-1,-0.5c0.2,0.3,0.3,0.6,0.4,0.8c0.1,0.3,0.3,0.5,0.6,0.7c0.2,0.2,0.5,0.2,0.6,0.3l0.3,0c0,-0.1,0,-0.3,0.1,-0.4c0,-0.2,0.1,-0.3,0.2,-0.4c-0.1,0.2,-0.1,0.3,-0.1,0.5c0,0.2,0.1,0.3,0.1,0.5c0,-0.1,0,-0.2,0.1,-0.3c0,-0.2,0.1,-0.3,0.3,-0.4c0.2,-0.5,0.3,-0.9,0.1,-1.2c-0.1,-0.3,-0.2,-0.7,-0.2,-1.2c-0.2,0,-0.5,0.5,-0.7,0.9c-0.1,0.4,-0.1,0.9,0,1.2Z" class="g12_17" />
<path fill-rule="evenodd" d="M319.5,66.5c0.2,0.2,0.4,0.3,0.8,0.4c0.3,0,0.5,0,0.6,-0.1c0.1,0,0.2,-0.1,0.2,-0.1c0,-0.1,-0.1,-0.4,-0.2,-0.5l0,-0.5c0,0.2,0.2,0.3,0.2,0.5c0.1,0.1,0.2,0.3,0.3,0.5c0,-0.2,-0.1,-0.3,-0.1,-0.4c0,-0.1,0,-0.3,0.1,-0.6c-0.1,-0.6,-0.2,-0.9,-0.3,-1.1c-0.2,-0.1,-0.4,-0.3,-0.7,-0.8c-0.1,0.2,-0.2,0.6,-0.1,1c0.1,0.4,0.1,0.9,0.3,1.2c-0.1,-0.1,-0.4,-0.1,-0.7,-0.1c-0.3,0,-0.7,0.1,-1.1,0.1c0.3,0.2,0.5,0.3,0.7,0.5Z" class="g12_17" />
<path fill-rule="evenodd" d="M321.1,68.1c0.2,0.2,0.4,0.4,0.7,0.5c0.3,0,0.5,0.1,0.6,0c0.1,0,0.1,-0.1,0.2,-0.2c0,-0.1,-0.1,-0.2,-0.1,-0.4l0,-0.5c0.1,0.2,0.1,0.3,0.2,0.5c0.1,0.2,0.1,0.4,0.2,0.5c0,-0.1,0,-0.2,0,-0.3c0,-0.2,0,-0.3,0.1,-0.6c0,-0.6,-0.1,-0.9,-0.2,-1.2c-0.1,-0.2,-0.4,-0.4,-0.6,-0.9c-0.1,0.1,-0.1,0.5,-0.1,0.9c0,0.5,0,1,0.2,1.3c-0.2,-0.1,-0.5,-0.1,-0.8,-0.1c-0.3,-0.1,-0.7,-0.1,-1,-0.1c0.3,0.2,0.4,0.4,0.6,0.6Z" class="g12_17" />
<path fill-rule="evenodd" d="M316.6,62.6c-0.2,0,-0.5,0,-0.8,0.1c-0.4,0.1,-0.7,0.2,-1.1,0.3c0.4,0.1,0.6,0.2,0.8,0.3c0.2,0.2,0.5,0.3,1.1,0.2c0.3,0,0.4,0,0.5,-0.2c0,0,0.2,-0.1,0.2,-0.2C317.2,63,317.1,62.9,317,62.7c0,-0.1,0,-0.3,-0.1,-0.6c0,0.1,0.1,0.2,0.2,0.3c0,0.1,0.2,0.2,0.2,0.3l0,-0.2c0,-0.1,0.1,-0.1,0.1,-0.3c-0.1,-0.5,-0.4,-0.8,-0.7,-1c-0.3,-0.1,-0.7,-0.2,-1,-0.5c-0.1,0.1,0,0.6,0.2,0.9c0.1,0.4,0.4,0.7,0.7,1Z" class="g12_17" />
<path fill-rule="evenodd" d="M317.5,64.6c0.2,0.2,0.4,0.3,0.8,0.3c0.3,0,0.5,-0.1,0.6,-0.1c0.1,-0.1,0.1,-0.1,0.2,-0.2C319,64.5,319,64.4,319,64.2c-0.1,-0.2,-0.1,-0.3,-0.1,-0.4c0.1,0.1,0.1,0.3,0.2,0.4c0.1,0.2,0.2,0.3,0.3,0.4c0,-0.1,-0.1,-0.1,-0.1,-0.2c0,-0.2,0,-0.4,0,-0.7c0,-0.5,-0.2,-0.8,-0.4,-1c-0.3,-0.3,-0.5,-0.5,-0.8,-0.9c-0.1,0.2,-0.1,0.6,0,1c0.1,0.4,0.3,1,0.5,1.2c-0.2,-0.1,-0.6,-0.1,-0.9,0c-0.3,0,-0.6,0.2,-0.9,0.2c0.3,0.1,0.5,0.3,0.7,0.4Z" class="g12_17" />
<path fill-rule="evenodd" d="M312.6,60.7c0.1,0,0.2,0,0.3,-0.1c-0.1,0.1,-0.2,0.1,-0.4,0.2c-0.2,0,-0.3,0,-0.5,0c0.2,0.4,1,0.4,1.7,0.2c0.7,-0.2,1.8,-0.9,1.7,-1c-0.2,0.1,-0.5,-0.1,-0.7,-0.2c-0.2,-0.1,-0.6,-0.1,-1.1,-0.1c-0.3,0,-0.6,0.3,-0.8,0.5c-0.2,0.1,-0.4,0.3,-0.6,0.4c0.1,0.1,0.2,0.1,0.4,0.1Z" class="g12_17" />
<path fill-rule="evenodd" d="M315.2,61.7c-0.1,-0.2,-0.2,-0.4,-0.6,-0.4c-0.2,0.1,-0.4,0.1,-0.7,0.2c-0.2,0.1,-0.3,0.1,-0.5,0.2c0.2,0,0.3,0.1,0.4,0.2c0.2,0,0.4,0,0.5,0C314.1,62,313.8,62,313.5,62c-0.3,-0.1,-0.5,-0.2,-0.7,-0.3c0,0,-0.2,0,-0.2,0c0,0,-0.1,0,-0.1,0c-0.1,0.1,0.1,0.4,0.4,0.5c0.4,0.2,0.8,0.4,1.2,0.4c0.4,-0.2,0.6,-0.2,0.9,-0.3c0.1,-0.1,0.3,-0.2,0.5,-0.1c-0.2,-0.1,-0.2,-0.3,-0.3,-0.5Z" class="g12_17" />
<path fill-rule="evenodd" d="M311.4,72.5c0,0,-0.1,0,-0.1,0Z" class="g2_17" />
<path fill-rule="evenodd" d="M309.5,97.6l-0.1,0c-0.2,0,-0.1,0,0,0c0.1,0,0.1,0.1,0.1,0Z" class="g2_17" />
<path fill-rule="evenodd" d="M291.6,83.2c-0.1,0.1,-0.2,0.2,-0.3,0.3c-0.1,0.1,-0.3,0.2,-0.4,0.3c0.1,-0.2,0.2,-0.3,0.3,-0.4c0.2,-0.1,0.3,-0.3,0.5,-0.5l0,0.2c0,0,-0.1,0.1,-0.1,0.1Z" class="g2_17" />
<path fill-rule="evenodd" d="M293.8,73.7c-0.1,0,-0.3,0.1,-0.4,0.1c-0.1,0.1,-0.3,0.1,-0.4,0.2c0.1,-0.1,0.2,-0.2,0.4,-0.3c0.1,0,0.3,-0.2,0.5,-0.3c0,0,-0.1,0.1,-0.1,0.1c0,0.1,0,0.1,0,0.2Z" class="g2_17" />
<path fill-rule="evenodd" d="M306.5,76.2c-0.4,0,-0.8,0.1,-1.1,0.3c-0.3,0.1,-0.6,0.3,-1.1,0.3c0,0,0.1,-0.5,0.4,-1.2c0.2,-0.7,0.7,-1.6,1.6,-2.6c0.3,-0.5,0.9,-0.9,1.6,-1.3c0.5,-0.3,1.2,-0.7,1.6,-0.9l0,-0.1c-0.4,0,-1.1,0.1,-1.7,0.1c-0.7,0,-1.4,-0.1,-1.6,-0.5c0,-0.4,0.2,-0.9,0.7,-1.3c0.5,-0.4,1.2,-0.6,2,-0.7c0.5,0,1,0.1,1.4,0.2c0.4,0.1,0.8,0.4,1.1,0.6c0.5,0.3,0.8,0.7,1.1,1.1c0.2,0.5,0.4,0.9,0.4,1.5c-0.6,0.2,-0.9,0.4,-1.1,0.6c-0.3,0.1,-0.4,0.2,-0.4,0.2c0.1,0,0.2,0,0.3,0.1l0.4,0c0.2,0,0.4,0,0.6,0c0.1,0,0.2,0,0.3,-0.1l0,0.4l0,0.3c0,0,0.1,0,0.1,0c0,0,0,0.1,0,0.1c-0.8,0.4,-1.3,0.6,-1.7,0.8c-0.4,0.2,-0.7,0.3,-1.1,0.4c-0.1,0,-0.2,0,-0.4,0c-0.1,0.1,-0.2,0.1,-0.2,0.1c0.1,0,0.3,0.1,0.5,0.1c0.2,0,0.5,0.1,0.7,0.1c0.3,0,0.7,-0.1,1.1,-0.2c0.4,-0.1,0.9,-0.3,1.2,-0.4c0,0.1,0,0.4,0.1,0.5c0.1,0.2,0.2,0.3,0.5,0.4l0,0.1c-1,0.5,-1.7,0.7,-2.2,0.9c-0.4,0.1,-0.7,0,-0.7,0l-0.8,-0.2l-0.7,-0.2c0.2,0.1,0.5,0.4,0.8,0.5c0.3,0.2,0.7,0.4,1.1,0.5c0.3,0.1,0.8,-0.1,1.4,-0.3c0.5,-0.1,1,-0.3,1.4,-0.5l0.1,0.5l0.1,0.5c-0.6,0,-1.2,0.4,-2,0.8c-0.7,0.3,-1.4,0.6,-2.4,0.3c-0.4,-0.4,-1,-0.8,-1.5,-1.2c-0.6,-0.3,-1.2,-0.6,-1.9,-0.6Z" class="g10_17" />
<path fill-rule="evenodd" d="M308.2,78.7l-1.5,0c-0.5,0,-0.9,0,-0.9,-0.1c-0.2,0,-0.6,-0.2,-0.9,-0.4c-0.4,-0.2,-0.6,-0.4,-0.6,-0.5c0.1,0,0.2,0,0.4,0c0.3,-0.1,0.6,-0.2,1.1,-0.4c0.7,-0.3,1.3,0,1.7,0.4c0.4,0.3,0.7,0.8,0.7,1Z" class="g10_17" />
<path fill-rule="evenodd" d="M316.3,60.1c0,0,0.1,0,0.1,0l0.1,0l-0.1,0c0,0,-0.1,0,-0.1,0Z" class="g9_17" />
<path d="M302.5,56.5l0,-1" class="g15_17" />
<path fill-rule="evenodd" d="M312.8,78.4c0.9,-0.5,1.4,-0.6,1.6,-0.7c0.1,0,0.1,0.1,0.1,0.1c0,0.1,-0.1,0.3,-0.2,0.6c-0.2,0.1,-0.4,0.3,-0.5,0.3l-0.9,0c-0.4,0,-0.9,0,-1.2,0c0.3,0,0.4,0,0.6,-0.1c0.1,0,0.3,-0.1,0.5,-0.2Z" class="g10_17" />
<path fill-rule="evenodd" d="M309.5,60.6c0.2,0,0.2,0,0.5,-0.1c0.2,0,0.3,-0.1,0.5,-0.1c-0.1,0.1,-0.3,0.2,-0.5,0.3c-0.1,0.1,-0.3,0.2,-0.5,0.2Z" class="g2_17" />
<path fill-rule="evenodd" d="M315.1,59.8l0.2,0c0.2,0,0.4,0,0.6,0.1C316,60,315.8,60,316,60c0.2,0,0.7,0.1,0.9,0c0.2,0,0.5,-0.1,0.8,-0.1c0.3,0,0.7,0,1.1,0.3c-0.3,-0.4,-0.5,-0.6,-0.8,-0.7c-0.3,-0.1,-0.5,-0.2,-0.9,-0.2c-0.5,0,-0.8,-0.3,-1.2,-0.5Z" class="g2_17" />
<path fill-rule="evenodd" d="M302.8,59.4c1,-0.2,1.2,-0.8,1.2,-0.8l-2.3,-0.5l2.4,-0.6c0,0,-2.6,-1.1,-2.7,-1.1c0.1,0,2.5,0.2,2.8,0.1c0,0,-1.7,-1.2,-2.2,-1.5c0,0,2.1,0.6,2.7,0.7c0,0,-1.9,-1.9,-1.9,-2c0.3,0.1,2.2,1.2,2.4,1.2c-0.3,-0.5,-1.6,-2.3,-1.6,-2.3l2.3,1.6c0,-0.3,-0.9,-2.4,-1,-2.6c0.3,0.5,1.4,1.8,1.9,2l-0.5,-2.7l1.5,2.4c0,-0.2,0,-2.3,-0.1,-2.9c0.1,0.4,0.9,2.4,1,2.7l0.5,-2.7c0,0,0.5,2.6,0.5,2.7c0.1,-0.3,1,-2.6,1,-2.6c0,0.5,-0.1,2.7,-0.1,2.8l1.7,-2.4l-0.7,2.8c0.1,-0.1,2,-2,2,-2c-0.1,0.2,-1,2,-1.2,2.5l2.4,-1.6l-1.6,2.3c0,0,0,0.1,0.2,0c0.1,0,2.3,-1,2.5,-1.2c-0.5,0.4,-1.7,1.4,-2.2,2.1l2.7,-0.6c0,0,-2.2,1.4,-2.2,1.4c0,0.1,2.7,0,2.9,0c-0.3,0.1,-2.5,0.8,-2.5,0.9l2.6,0.6c0,0,-2.3,0.4,-2.3,0.5c0.1,0.1,1.1,0.9,1.2,0.9c0.1,0,-1.1,0,-1.3,-0.2c-0.2,-0.2,-1,-0.3,-1.7,-0.1c0.1,0,0,-0.4,-0.1,-0.4c-0.4,0.2,-2.1,0.1,-2.5,0.3c0,0,0,-0.4,0,-0.7c-0.7,0.3,-1.1,0.3,-1.5,0.4c-0.4,0,-0.8,0.1,-1,0.4c-0.1,0,0,-0.6,-0.2,-0.5c-0.6,0.2,-1.1,0.3,-1.6,0.4c-0.4,0.1,-0.7,0.2,-1,0.5c0,-0.1,-0.1,-0.6,-0.1,-0.6c-0.2,0.3,-0.4,0.3,-0.9,0.5c-0.6,0.2,-1.5,0,-1.4,-0.1Z" class="g16_17" />
<path fill-rule="evenodd" d="M312.8,57.4l-0.5,0c0,-0.3,-0.4,-0.4,-0.5,-0.4c0,0,0.1,0.1,0.1,0.2c0,0.1,-0.1,0.2,-0.1,0.3c-0.2,0,-0.2,0.1,-0.3,0.2l-0.4,0c-0.1,-0.1,-0.2,-0.2,-0.3,-0.2c-0.1,-0.1,-0.1,-0.2,-0.1,-0.3l0,-0.1c0,-0.1,0,-0.1,0,-0.2l-0.3,0.4c-0.1,0.1,-0.5,0,-0.5,0l0.5,-0.8c1.1,-0.1,1.7,0.1,2,0.3c0.4,0.3,0.4,0.6,0.4,0.6Z" class="g2_17" />
<path fill-rule="evenodd" d="M313.1,56.5l-0.3,0C312.7,56.2,312.3,56.1,312,56c-0.3,0,-0.6,0,-0.6,0l-1.5,0.1l0.3,-0.7l0.5,0c1.1,-0.1,1.7,0.2,2,0.5c0.3,0.3,0.4,0.6,0.4,0.6Z" class="g2_17" />
<path fill-rule="evenodd" d="M308.4,57.3c0,0,-0.4,0,-0.5,0L307.6,57c0,0,0,0.1,0,0.1c0,0.1,-0.1,0.2,-0.1,0.3c-0.1,0.1,-0.2,0.2,-0.3,0.2c0,0,-0.4,0,-0.4,0c-0.1,0,-0.2,-0.1,-0.3,-0.2c0,-0.1,-0.1,-0.3,-0.1,-0.4c0.1,0,0.1,-0.1,0.1,-0.1c-0.1,0,-0.2,0.1,-0.3,0.2c-0.1,0,-0.2,0.1,-0.3,0.2l-0.4,0c0,0,0.1,-0.2,0.4,-0.5c0.3,-0.3,0.9,-0.5,2,-0.3Z" class="g2_17" />
<path fill-rule="evenodd" d="M305.1,56.5c0,0,0.1,-0.4,0.5,-0.6c0.3,-0.3,0.9,-0.6,2.2,-0.5l0.4,0l0.1,0.7L307.5,56c0,0,-1,-0.1,-1.3,0c-0.3,0,-0.6,0.1,-0.8,0.4Z" class="g2_17" />
<path fill-rule="evenodd" d="M307.6,110.5l-0.2,-0.2c0,0,-0.1,0,-0.3,0.1c-0.5,0.1,-1.9,0.4,-2.7,0.5l-0.1,0c-0.9,0.2,-1.6,0.2,-1.6,0.2c-0.1,0.2,0.1,0.5,0.4,0.7c0.2,0.1,0.4,0.2,0.5,0.3l0.1,0c0.9,-0.2,3.5,-0.9,4.2,-1.1Z" class="g2_17" />
<path fill-rule="evenodd" d="M310.3,111c0.7,0.2,3.3,0.8,4.2,1c0,0,0.1,0,0.1,0.1c0,-0.1,0.3,-0.2,0.6,-0.4c0.2,-0.1,0.4,-0.4,0.3,-0.6c0,0,-0.7,-0.1,-1.7,-0.2l-0.1,0c-0.7,-0.1,-2.1,-0.4,-2.6,-0.5c-0.2,-0.1,-0.2,-0.1,-0.2,-0.1l-0.4,0.2Z" class="g2_17" />
<path fill-rule="evenodd" d="M310.5,111.1c0.1,-0.1,-0.1,-0.7,0.4,-0.7l0.2,0c0.1,-0.1,1.1,-0.4,1.5,-1.2c0,-0.1,0,-0.2,0,-0.3c0.1,-0.2,0.1,-0.3,0.1,-0.4c0,-0.1,-0.1,-0.3,-0.1,-0.4c0,-0.1,-0.1,-0.3,-0.2,-0.4c-0.3,-0.4,-1,-0.6,-1.6,-0.6c-0.7,0,-1.4,0.1,-1.6,0.1l-0.1,0c-0.2,0,-0.9,-0.1,-1.6,-0.1c-1.1,0,-1.7,0.6,-1.7,0.6c-0.5,0.5,-0.1,1.5,-0.1,1.6c0.2,0.3,0.7,0.8,1.3,1c0.1,0,0.3,0,0.4,0.1c0,0,0.4,0,0.4,0.7c-0.4,0.7,-1.1,1.1,-1.9,1.4c-0.7,0.2,-1.6,0.3,-2.4,0.5c0,0,0.3,0.3,0.4,0.5c0.1,0.1,0.3,0.4,0.3,0.3c1.7,-0.4,2.8,-1,3.2,-1.5c0.6,-0.5,0.7,-0.8,0.7,-0.8l0.1,0.5c0,0,-0.1,0.5,-0.6,1c-0.5,0.5,-1.3,1.1,-2.8,1.3l0.4,0.2l0.5,0.2c0.7,0,1.3,-0.2,1.7,-0.5c0.5,-0.4,0.8,-0.9,1.2,-1.7l0.1,0c0,0,0.2,0.1,0.4,0.2l0.1,0c0.1,0,0.2,0,0.3,-0.1c0.2,0,0.3,-0.1,0.4,-0.2c0.4,0.8,0.7,1.3,1.2,1.7c0.4,0.4,1,0.6,1.6,0.7c0.2,-0.1,0.4,-0.2,0.5,-0.3c0.2,-0.1,0.3,-0.2,0.3,-0.2c-1,-0.1,-1.8,-0.7,-2.4,-1.3c-0.6,-0.5,-0.9,-1.1,-0.9,-1.1c0.1,0,0.2,-0.4,0.2,-0.4c0,0.3,0.6,0.8,1.3,1.3c0.6,0.6,1.5,1,2.2,1.1c0,0,0.2,-0.2,0.3,-0.4c0.1,-0.1,0.2,-0.3,0.2,-0.4c-0.6,0.1,-1.6,-0.4,-2.4,-0.9c-0.8,-0.5,-1.4,-1,-1.5,-1.1m0.9,-1.9c-0.3,0.2,-0.7,0.3,-0.8,0.4c0.1,-0.1,0.5,-0.4,0.5,-0.9c0,-0.1,-0.1,-0.3,-0.2,-0.5c-0.1,-0.1,-0.2,-0.1,-0.3,-0.2c0,0,-0.2,-0.1,-0.1,-0.2c0.1,0,0.8,0,1.1,0.2c0.5,0.5,0.1,0.9,-0.2,1.2m-1.4,0.1c-0.1,0.2,-0.2,0.4,-0.2,0.4c-0.1,0,-0.1,0,-0.1,0.1c0.1,0,0,0,0,0c0,-0.1,0,-0.1,-0.1,-0.2c-0.1,0,-0.2,0,-0.5,0c-0.5,0,-0.7,0.1,-0.8,0.1c0,0.1,0,0.1,-0.1,0c0,0,-0.1,-0.1,-0.1,-0.3c-0.1,0,-0.1,-0.1,-0.1,-0.2c0,0,0,-0.2,0,-0.3c0,-0.1,0.1,-0.4,0.3,-0.5c0.3,-0.2,0.6,-0.2,0.7,-0.2c0.2,0,0.4,0,0.6,0.2c0.3,0.1,0.4,0.2,0.4,0.3c0.1,0.2,0.1,0.4,0,0.6m-0.4,1.6c0,0,0,0.3,-0.1,0.5c0,0.3,-0.2,0.6,-0.4,0.6c-0.2,0,-0.4,-0.3,-0.4,-0.6c-0.1,-0.2,-0.1,-0.5,-0.1,-0.5c0,0,0,-0.1,0,-0.3c0,-0.1,0.1,-0.2,0.5,-0.3c0.4,0,0.5,0.2,0.5,0.3c0.1,0.2,0,0.3,0,0.3m-2.3,-1.3l0.1,0.1c-0.2,-0.1,-1.5,-0.8,-0.9,-1.6l0.1,0c0.5,-0.4,1,-0.2,1,-0.2c-0.9,0.6,-0.4,1.7,-0.3,1.7Z" class="g13_17" />
</svg>