<?xml version="1.0" encoding="UTF-8" standalone="no"?>
<!DOCTYPE svg PUBLIC "-//W3C//DTD SVG 1.1//EN"
"http://www.w3.org/Graphics/SVG/1.1/DTD/svg11.dtd">
<svg version="1.1" xmlns="http://www.w3.org/2000/svg" xmlns:xlink="http://www.w3.org/1999/xlink">
<defs>
<clipPath id="c0_4"><path d="M71.5,308.5l0,-30l7,0l0,30Zm88,0l0,-30l7,0l0,30Z" /></clipPath>
<clipPath id="c1_4"><path d="M168.5,308.5l0,-30l7,0l0,30Zm446,0l0,-30l7,0l0,30Z" /></clipPath>
<clipPath id="c2_4"><path d="M623.5,308.5l0,-30l7,0l0,30Zm110,0l0,-30l7,0l0,30Z" /></clipPath>
<clipPath id="c3_4"><path d="M742.5,308.5l0,-30l7,0l0,30Zm88,0l0,-30l7,0l0,30Z" /></clipPath>
<clipPath id="c4_4"><path d="M168.5,360.5l0,-50l7,0l0,50Zm446,0l0,-50l7,0l0,50Z" /></clipPath>
<clipPath id="c5_4"><path d="M168.5,394.5l0,-31l7,0l0,31Zm446,0l0,-31l7,0l0,31Z" /></clipPath>
<clipPath id="c6_4"><path d="M168.5,447.5l0,-49l7,0l0,49Zm446,0l0,-49l7,0l0,49Z" /></clipPath>
<clipPath id="c7_4"><path d="M168.5,500.5l0,-49l7,0l0,49Zm446,0l0,-49l7,0l0,49Z" /></clipPath>
<clipPath id="c8_4"><path d="M168.5,553.5l0,-49l7,0l0,49Zm446,0l0,-49l7,0l0,49Z" /></clipPath>
<clipPath id="c9_4"><path d="M168.5,625.5l0,-69l7,0l0,69Zm446,0l0,-69l7,0l0,69Z" /></clipPath>
<clipPath id="c10_4"><path d="M168.5,675.5l0,-47l7,0l0,47Zm446,0l0,-47l7,0l0,47Z" /></clipPath>
<clipPath id="c11_4"><path d="M168.5,712.5l0,-36l7,0l0,36Zm446,0l0,-36l7,0l0,36Z" /></clipPath>
<clipPath id="c12_4"><path d="M168.5,750.5l0,-36l7,0l0,36Zm446,0l0,-36l7,0l0,36Z" /></clipPath>
<clipPath id="c13_4"><path d="M168.5,799.5l0,-46l7,0l0,46Zm446,0l0,-46l7,0l0,46Z" /></clipPath>
<clipPath id="c14_4"><path d="M614.5,826.5l0,-21l-438,0l0,21Zm-446,5l0,-30l453,0l0,30Z" /></clipPath>
<clipPath id="c15_4"><path d="M168.5,883.5l0,-51l7,0l0,51Zm446,0l0,-51l7,0l0,51Z" /></clipPath>
<clipPath id="c16_4"><path d="M168.5,921.5l0,-36l7,0l0,36Zm446,0l0,-36l7,0l0,36Z" /></clipPath>
<clipPath id="c17_4"><path d="M168.5,958.5l0,-36l7,0l0,36Zm446,0l0,-36l7,0l0,36Z" /></clipPath>
<clipPath id="c18_4"><path d="M168.5,996.5l0,-36l7,0l0,36Zm446,0l0,-36l7,0l0,36Z" /></clipPath>
<clipPath id="c19_4"><path d="M168.5,1049.5l0,-50l7,0l0,50Zm446,0l0,-50l7,0l0,50Z" /></clipPath>
<clipPath id="c20_4"><path d="M168.5,1102.5l0,-50l7,0l0,50Zm446,0l0,-50l7,0l0,50Z" /></clipPath>
<clipPath id="c21_4"><path d="M168.5,1136.5l0,-31l7,0l0,31Zm446,0l0,-31l7,0l0,31Z" /></clipPath>
<clipPath id="c22_4"><path d="M168.5,1189.5l0,-50l7,0l0,50Zm446,0l0,-50l7,0l0,50Z" /></clipPath>
<clipPath id="c23_4"><path d="M168.5,1223.5l0,-31l7,0l0,31Zm446,0l0,-31l7,0l0,31Z" /></clipPath>
<clipPath id="c24_4"><path d="M168.5,1257.5l0,-30l7,0l0,30Zm446,0l0,-30l7,0l0,30Z" /></clipPath>
<clipPath id="c25_4"><path d="M168.5,1310.5l0,-49l7,0l0,49Zm446,0l0,-49l7,0l0,49Z" /></clipPath>
<clipPath id="c26_4"><path d="M168.5,1363.5l0,-49l7,0l0,49Zm446,0l0,-49l7,0l0,49Z" /></clipPath>
<clipPath id="c27_4"><path d="M168.5,1416.5l0,-49l7,0l0,49Zm446,0l0,-49l7,0l0,49Z" /></clipPath>
<clipPath id="c28_4"><path d="M168.5,1451.5l0,-31l7,0l0,31Zm446,0l0,-31l7,0l0,31Z" /></clipPath>
<style type="text/css"><![CDATA[
.g5_4{
fill: #D9D9D9;
}
.g6_4{
fill: none;
stroke: #EAF1DD;
stroke-width: 1;
stroke-linecap: butt;
stroke-linejoin: miter;
}
.g8_4{
fill: none;
stroke: #DAEEF3;
stroke-width: 1;
stroke-linecap: butt;
stroke-linejoin: miter;
}
.g11_4{
fill: #FDE9D9;
}
.g9_4{
fill: none;
stroke: #FFFFFF;
stroke-width: 1;
stroke-linecap: butt;
stroke-linejoin: miter;
}
.g10_4{
fill: none;
stroke: #D9D9D9;
stroke-width: 1;
stroke-linecap: butt;
stroke-linejoin: miter;
}
.g7_4{
fill: #DAEEF3;
}
.g1_4{
fill: #FFFFFF;
}
.g15_4{
fill: #DBE5F1;
}
.g13_4{
fill: #E5DFEC;
}
.g12_4{
fill: none;
stroke: #FDE9D9;
stroke-width: 1;
stroke-linecap: butt;
stroke-linejoin: miter;
}
.g2_4{
fill: #548ED4;
}
.g14_4{
fill: none;
stroke: #E5DFEC;
stroke-width: 1;
stroke-linecap: butt;
stroke-linejoin: miter;
}
.g16_4{
fill: none;
stroke: #DBE5F1;
stroke-width: 1;
stroke-linecap: butt;
stroke-linejoin: miter;
}
.g3_4{
fill: #365F91;
}
.g4_4{
fill: #EAF1DD;
}
]]></style>
</defs>
<image x="319" y="129" width="219" height="52" xlink:href="img/1.png" />
<image x="535" y="86" width="79" height="93" xlink:href="img/2.png" />
<path d="M674,73l192,0l0,-52L674,21l0,52Z" class="g1_4" />
<g clip-path="url(#c0_4)">
<path d="M71,308l95,0l0,-30l-95,0l0,30Z" class="g2_4" />
</g>
<path d="M78,308l81,0l0,-30l-81,0l0,30Z" class="g2_4" />
<g clip-path="url(#c1_4)">
<path d="M168,308l453,0l0,-30l-453,0l0,30Z" class="g2_4" />
</g>
<path d="M175,308l439,0l0,-30l-439,0l0,30Z" class="g2_4" />
<g clip-path="url(#c2_4)">
<path d="M623,308l117,0l0,-30l-117,0l0,30Z" class="g2_4" />
</g>
<path d="M630,308l103,0l0,-30l-103,0l0,30Z" class="g2_4" />
<g clip-path="url(#c3_4)">
<path d="M742,308l95,0l0,-30l-95,0l0,30Z" class="g2_4" />
</g>
<path d="M749,308l81,0l0,-30l-81,0l0,30Z" class="g2_4" />
<path d="M69,278l2,0l0,-2l-2,0l0,2Z" class="g3_4" />
<path d="M69,278l771,0l0,-2L69,276l0,2Z" class="g3_4" />
<path d="M837,278l3,0l0,-2l-3,0l0,2Z" class="g3_4" />
<path d="M69,308l2,0l0,-30l-2,0l0,30Z" class="g3_4" />
<path d="M166,308l2,0l0,-30l-2,0l0,30Z" class="g3_4" />
<path d="M621,308l2,0l0,-30l-2,0l0,30Z" class="g3_4" />
<path d="M740,308l2,0l0,-30l-2,0l0,30Z" class="g3_4" />
<path d="M837,308l3,0l0,-30l-3,0l0,30Z" class="g3_4" />
<g clip-path="url(#c4_4)">
<path d="M168,360l453,0l0,-50l-453,0l0,50Z" class="g4_4" />
</g>
<path d="M175,335l439,0l0,-25l-439,0l0,25Z" class="g4_4" />
<path d="M175,360l439,0l0,-25l-439,0l0,25Z" class="g4_4" />
<path d="M69,310l771,0l0,-2L69,308l0,2Z" class="g3_4" />
<path d="M69,360l2,0l0,-50l-2,0l0,50Z" class="g5_4" />
<path d="M166,360l2,0l0,-50l-2,0l0,50Z" class="g5_4" />
<path d="M621,360l2,0l0,-50l-2,0l0,50Z" class="g5_4" />
<path d="M740,360l2,0l0,-50l-2,0l0,50Z" class="g5_4" />
<path d="M837,360l3,0l0,-50l-3,0l0,50Z" class="g5_4" />
<g clip-path="url(#c5_4)">
<path d="M168,394l453,0l0,-31l-453,0l0,31Z" class="g4_4" />
</g>
<path d="M175,394l439,0l0,-31l-439,0l0,31Z" class="g4_4" />
<path d="M69,363l2,0l0,-3l-2,0l0,3Z" class="g5_4" />
<path d="M71,362l95,0l0,-2l-95,0l0,2Z" class="g5_4" />
<path d="M166,363l2,0l0,-3l-2,0l0,3Z" class="g5_4" />
<path d="M168,363l453,0l0,-3l-453,0l0,3Z" class="g1_4" />
<path d="M168.5,363.5l453,0" class="g6_4" />
<path d="M621,363l2,0l0,-3l-2,0l0,3Z" class="g5_4" />
<path d="M623,362l117,0l0,-2l-117,0l0,2Z" class="g5_4" />
<path d="M740,363l2,0l0,-3l-2,0l0,3Z" class="g5_4" />
<path d="M742,362l95,0l0,-2l-95,0l0,2Z" class="g5_4" />
<path d="M837,363l3,0l0,-3l-3,0l0,3Z" class="g5_4" />
<path d="M69,394l2,0l0,-31l-2,0l0,31Z" class="g5_4" />
<path d="M166,394l2,0l0,-31l-2,0l0,31Z" class="g5_4" />
<path d="M621,394l2,0l0,-31l-2,0l0,31Z" class="g5_4" />
<path d="M740,394l2,0l0,-31l-2,0l0,31Z" class="g5_4" />
<path d="M837,394l3,0l0,-31l-3,0l0,31Z" class="g5_4" />
<g clip-path="url(#c6_4)">
<path d="M168,447l453,0l0,-49l-453,0l0,49Z" class="g7_4" />
</g>
<path d="M175,422l439,0l0,-24l-439,0l0,24Z" class="g7_4" />
<path d="M175,447l439,0l0,-25l-439,0l0,25Z" class="g7_4" />
<path d="M69,398l2,0l0,-4l-2,0l0,4Z" class="g5_4" />
<path d="M71,397l95,0l0,-3l-95,0l0,3Z" class="g5_4" />
<path d="M166,398l2,0l0,-4l-2,0l0,4Z" class="g5_4" />
<path d="M168,398l453,0l0,-4l-453,0l0,4Z" class="g1_4" />
<path d="M168.5,398.5l453,0" class="g8_4" />
<path d="M621,398l2,0l0,-4l-2,0l0,4Z" class="g5_4" />
<path d="M623,397l117,0l0,-3l-117,0l0,3Z" class="g5_4" />
<path d="M740,398l2,0l0,-4l-2,0l0,4Z" class="g5_4" />
<path d="M742,397l95,0l0,-3l-95,0l0,3Z" class="g5_4" />
<path d="M837,398l3,0l0,-4l-3,0l0,4Z" class="g5_4" />
<path d="M69,447l2,0l0,-49l-2,0l0,49Z" class="g5_4" />
<path d="M166,447l2,0l0,-49l-2,0l0,49Z" class="g5_4" />
<path d="M621,447l2,0l0,-49l-2,0l0,49Z" class="g5_4" />
<path d="M740,447l2,0l0,-49l-2,0l0,49Z" class="g5_4" />
<path d="M837,447l3,0l0,-49l-3,0l0,49Z" class="g5_4" />
<g clip-path="url(#c7_4)">
<path d="M168,500l453,0l0,-49l-453,0l0,49Z" class="g4_4" />
</g>
<path d="M175,475l439,0l0,-24l-439,0l0,24Z" class="g4_4" />
<path d="M175,500l439,0l0,-25l-439,0l0,25Z" class="g4_4" />
<path d="M69,451l2,0l0,-4l-2,0l0,4Z" class="g5_4" />
<path d="M71,449l95,0l0,-2l-95,0l0,2Z" class="g5_4" />
<path d="M166,451l2,0l0,-4l-2,0l0,4Z" class="g5_4" />
<path d="M168,451l453,0l0,-4l-453,0l0,4Z" class="g1_4" />
<path d="M168.5,451.5l453,0" class="g6_4" />
<path d="M621,451l2,0l0,-4l-2,0l0,4Z" class="g5_4" />
<path d="M623,449l117,0l0,-2l-117,0l0,2Z" class="g5_4" />
<path d="M740,451l2,0l0,-4l-2,0l0,4Z" class="g5_4" />
<path d="M742,449l95,0l0,-2l-95,0l0,2Z" class="g5_4" />
<path d="M837,451l3,0l0,-4l-3,0l0,4Z" class="g5_4" />
<path d="M69,500l2,0l0,-49l-2,0l0,49Z" class="g5_4" />
<path d="M166,500l2,0l0,-49l-2,0l0,49Z" class="g5_4" />
<path d="M621,500l2,0l0,-49l-2,0l0,49Z" class="g5_4" />
<path d="M740,500l2,0l0,-49l-2,0l0,49Z" class="g5_4" />
<path d="M837,500l3,0l0,-49l-3,0l0,49Z" class="g5_4" />
<g clip-path="url(#c8_4)">
<path d="M168,553l453,0l0,-49l-453,0l0,49Z" class="g7_4" />
</g>
<path d="M175,528l439,0l0,-24l-439,0l0,24Z" class="g7_4" />
<path d="M175,553l439,0l0,-25l-439,0l0,25Z" class="g7_4" />
<path d="M69,504l2,0l0,-4l-2,0l0,4Z" class="g5_4" />
<path d="M71,502l95,0l0,-2l-95,0l0,2Z" class="g5_4" />
<path d="M166,504l2,0l0,-4l-2,0l0,4Z" class="g5_4" />
<path d="M168,503l453,0l0,-3l-453,0l0,3Z" class="g1_4" />
<path d="M168.5,504.5l453,0" class="g8_4" />
<path d="M621,504l2,0l0,-4l-2,0l0,4Z" class="g5_4" />
<path d="M623,502l117,0l0,-2l-117,0l0,2Z" class="g5_4" />
<path d="M740,504l2,0l0,-4l-2,0l0,4Z" class="g5_4" />
<path d="M742,502l95,0l0,-2l-95,0l0,2Z" class="g5_4" />
<path d="M837,504l3,0l0,-4l-3,0l0,4Z" class="g5_4" />
<path d="M69,553l2,0l0,-49l-2,0l0,49Z" class="g5_4" />
<path d="M166,553l2,0l0,-49l-2,0l0,49Z" class="g5_4" />
<path d="M621,553l2,0l0,-49l-2,0l0,49Z" class="g5_4" />
<path d="M740,553l2,0l0,-49l-2,0l0,49Z" class="g5_4" />
<path d="M837,553l3,0l0,-49l-3,0l0,49Z" class="g5_4" />
<g clip-path="url(#c9_4)">
<path d="M168,625l453,0l0,-69l-453,0l0,69Z" class="g7_4" />
</g>
<path d="M175,581l439,0l0,-25l-439,0l0,25Z" class="g7_4" />
<path d="M175,600l439,0l0,-19l-439,0l0,19Z" class="g7_4" />
<path d="M175,625l439,0l0,-25l-439,0l0,25Z" class="g7_4" />
<path d="M69,557l2,0l0,-4l-2,0l0,4Z" class="g5_4" />
<path d="M71,555l95,0l0,-2l-95,0l0,2Z" class="g5_4" />
<path d="M166,557l2,0l0,-4l-2,0l0,4Z" class="g5_4" />
<path d="M168,556l453,0l0,-3l-453,0l0,3Z" class="g1_4" />
<path d="M168.5,557.5l453,0" class="g8_4" />
<path d="M621,557l2,0l0,-4l-2,0l0,4Z" class="g5_4" />
<path d="M623,555l117,0l0,-2l-117,0l0,2Z" class="g5_4" />
<path d="M740,557l2,0l0,-4l-2,0l0,4Z" class="g5_4" />
<path d="M742,555l95,0l0,-2l-95,0l0,2Z" class="g5_4" />
<path d="M837,557l3,0l0,-4l-3,0l0,4Z" class="g5_4" />
<path d="M69,625l2,0l0,-68l-2,0l0,68Z" class="g5_4" />
<path d="M166,625l2,0l0,-68l-2,0l0,68Z" class="g5_4" />
<path d="M621,625l2,0l0,-68l-2,0l0,68Z" class="g5_4" />
<path d="M740,625l2,0l0,-68l-2,0l0,68Z" class="g5_4" />
<path d="M837,625l3,0l0,-68l-3,0l0,68Z" class="g5_4" />
<g clip-path="url(#c10_4)">
<path d="M168,675l453,0l0,-47l-453,0l0,47Z" class="g7_4" />
</g>
<path d="M175,653l439,0l0,-25l-439,0l0,25Z" class="g7_4" />
<path d="M175,675l439,0l0,-22l-439,0l0,22Z" class="g7_4" />
<path d="M69,628l2,0l0,-3l-2,0l0,3Z" class="g5_4" />
<path d="M166,628l2,0l0,-3l-2,0l0,3Z" class="g5_4" />
<path d="M168,628l453,0l0,-3l-453,0l0,3Z" class="g1_4" />
<path d="M168.5,628.5l453,0" class="g8_4" />
<path d="M621,628l2,0l0,-3l-2,0l0,3Z" class="g5_4" />
<path d="M740,628l2,0l0,-3l-2,0l0,3Z" class="g5_4" />
<path d="M742,627l95,0l0,-2l-95,0l0,2Z" class="g5_4" />
<path d="M837,628l3,0l0,-3l-3,0l0,3Z" class="g5_4" />
<path d="M69,675l2,0l0,-47l-2,0l0,47Z" class="g5_4" />
<path d="M166,675l2,0l0,-47l-2,0l0,47Z" class="g5_4" />
<path d="M621,675l2,0l0,-47l-2,0l0,47Z" class="g5_4" />
<path d="M740,675l2,0l0,-47l-2,0l0,47Z" class="g5_4" />
<path d="M837,675l3,0l0,-47l-3,0l0,47Z" class="g5_4" />
<g clip-path="url(#c11_4)">
<path d="M168,712l453,0l0,-36l-453,0l0,36Z" class="g7_4" />
</g>
<path d="M175,694l439,0l0,-18l-439,0l0,18Z" class="g7_4" />
<path d="M175,712l439,0l0,-18l-439,0l0,18Z" class="g7_4" />
<path d="M69,676l2,0l0,-1l-2,0l0,1Z" class="g5_4" />
<path d="M166,676l2,0l0,-1l-2,0l0,1Z" class="g5_4" />
<path d="M168.5,676.5l453,0" class="g9_4" />
<path d="M168.5,676.5l453,0" class="g8_4" />
<path d="M621,676l2,0l0,-1l-2,0l0,1Z" class="g5_4" />
<path d="M623.5,676.5l117,0" class="g10_4" />
<path d="M740,676l2,0l0,-1l-2,0l0,1Z" class="g5_4" />
<path d="M742.5,676.5l95,0" class="g10_4" />
<path d="M837,676l3,0l0,-1l-3,0l0,1Z" class="g5_4" />
<path d="M69,712l2,0l0,-36l-2,0l0,36Z" class="g5_4" />
<path d="M166,712l2,0l0,-36l-2,0l0,36Z" class="g5_4" />
<path d="M621,712l2,0l0,-36l-2,0l0,36Z" class="g5_4" />
<path d="M740,712l2,0l0,-36l-2,0l0,36Z" class="g5_4" />
<path d="M837,712l3,0l0,-36l-3,0l0,36Z" class="g5_4" />
<g clip-path="url(#c12_4)">
<path d="M168,750l453,0l0,-36l-453,0l0,36Z" class="g7_4" />
</g>
<path d="M175,732l439,0l0,-18l-439,0l0,18Z" class="g7_4" />
<path d="M175,750l439,0l0,-18l-439,0l0,18Z" class="g7_4" />
<path d="M69,714l2,0l0,-2l-2,0l0,2Z" class="g5_4" />
<path d="M166,714l2,0l0,-2l-2,0l0,2Z" class="g5_4" />
<path d="M168.5,713.5l453,0" class="g9_4" />
<path d="M168.5,714.5l453,0" class="g8_4" />
<path d="M621,714l2,0l0,-2l-2,0l0,2Z" class="g5_4" />
<path d="M623.5,713.5l117,0" class="g10_4" />
<path d="M740,714l2,0l0,-2l-2,0l0,2Z" class="g5_4" />
<path d="M742.5,713.5l95,0" class="g10_4" />
<path d="M837,714l3,0l0,-2l-3,0l0,2Z" class="g5_4" />
<path d="M69,750l2,0l0,-36l-2,0l0,36Z" class="g5_4" />
<path d="M166,750l2,0l0,-36l-2,0l0,36Z" class="g5_4" />
<path d="M621,750l2,0l0,-36l-2,0l0,36Z" class="g5_4" />
<path d="M740,750l2,0l0,-36l-2,0l0,36Z" class="g5_4" />
<path d="M837,750l3,0l0,-36l-3,0l0,36Z" class="g5_4" />
<g clip-path="url(#c13_4)">
<path d="M168,799l453,0l0,-46l-453,0l0,46Z" class="g7_4" />
</g>
<path d="M175,778l439,0l0,-25l-439,0l0,25Z" class="g7_4" />
<path d="M175,799l439,0l0,-21l-439,0l0,21Z" class="g7_4" />
<path d="M69,753l2,0l0,-3l-2,0l0,3Z" class="g5_4" />
<path d="M71,752l95,0l0,-2l-95,0l0,2Z" class="g5_4" />
<path d="M166,753l2,0l0,-3l-2,0l0,3Z" class="g5_4" />
<path d="M168,753l453,0l0,-3l-453,0l0,3Z" class="g1_4" />
<path d="M168.5,753.5l453,0" class="g8_4" />
<path d="M621,753l2,0l0,-3l-2,0l0,3Z" class="g5_4" />
<path d="M623,752l117,0l0,-2l-117,0l0,2Z" class="g5_4" />
<path d="M740,753l2,0l0,-3l-2,0l0,3Z" class="g5_4" />
<path d="M742,752l95,0l0,-2l-95,0l0,2Z" class="g5_4" />
<path d="M837,753l3,0l0,-3l-3,0l0,3Z" class="g5_4" />
<path d="M69,799l2,0l0,-46l-2,0l0,46Z" class="g5_4" />
<path d="M166,799l2,0l0,-46l-2,0l0,46Z" class="g5_4" />
<path d="M621,799l2,0l0,-46l-2,0l0,46Z" class="g5_4" />
<path d="M740,799l2,0l0,-46l-2,0l0,46Z" class="g5_4" />
<path d="M837,799l3,0l0,-46l-3,0l0,46Z" class="g5_4" />
<g clip-path="url(#c14_4)">
<path d="M168,831l453,0l0,-30l-453,0l0,30Z" class="g7_4" />
</g>
<path d="M175,826l439,0l0,-21l-439,0l0,21Z" class="g7_4" />
<path d="M69,801l2,0l0,-2l-2,0l0,2Z" class="g5_4" />
<path d="M166,801l2,0l0,-2l-2,0l0,2Z" class="g5_4" />
<path d="M168.5,801.5l453,0" class="g9_4" />
<path d="M168.5,801.5l453,0" class="g8_4" />
<path d="M621,801l2,0l0,-2l-2,0l0,2Z" class="g5_4" />
<path d="M623.5,801.5l117,0" class="g10_4" />
<path d="M740,801l2,0l0,-2l-2,0l0,2Z" class="g5_4" />
<path d="M742.5,801.5l95,0" class="g10_4" />
<path d="M837,801l3,0l0,-2l-3,0l0,2Z" class="g5_4" />
<path d="M69,831l2,0l0,-30l-2,0l0,30Z" class="g5_4" />
<path d="M166,831l2,0l0,-30l-2,0l0,30Z" class="g5_4" />
<path d="M621,831l2,0l0,-30l-2,0l0,30Z" class="g5_4" />
<path d="M740,831l2,0l0,-30l-2,0l0,30Z" class="g5_4" />
<path d="M837,831l3,0l0,-30l-3,0l0,30Z" class="g5_4" />
<g clip-path="url(#c15_4)">
<path d="M168,883l453,0l0,-51l-453,0l0,51Z" class="g7_4" />
</g>
<path d="M175,850l439,0l0,-18l-439,0l0,18Z" class="g7_4" />
<path d="M175,865l439,0l0,-15l-439,0l0,15Z" class="g7_4" />
<path d="M175,883l439,0l0,-18l-439,0l0,18Z" class="g7_4" />
<path d="M69,832l2,0l0,-1l-2,0l0,1Z" class="g5_4" />
<path d="M166,832l2,0l0,-1l-2,0l0,1Z" class="g5_4" />
<path d="M168.5,832.5l453,0" class="g9_4" />
<path d="M168.5,832.5l453,0" class="g8_4" />
<path d="M621,832l2,0l0,-1l-2,0l0,1Z" class="g5_4" />
<path d="M623.5,832.5l117,0" class="g10_4" />
<path d="M740,832l2,0l0,-1l-2,0l0,1Z" class="g5_4" />
<path d="M742.5,832.5l95,0" class="g10_4" />
<path d="M837,832l3,0l0,-1l-3,0l0,1Z" class="g5_4" />
<path d="M69,883l2,0l0,-51l-2,0l0,51Z" class="g5_4" />
<path d="M166,883l2,0l0,-51l-2,0l0,51Z" class="g5_4" />
<path d="M621,883l2,0l0,-51l-2,0l0,51Z" class="g5_4" />
<path d="M740,883l2,0l0,-51l-2,0l0,51Z" class="g5_4" />
<path d="M837,883l3,0l0,-51l-3,0l0,51Z" class="g5_4" />
<g clip-path="url(#c16_4)">
<path d="M168,921l453,0l0,-36l-453,0l0,36Z" class="g7_4" />
</g>
<path d="M175,903l439,0l0,-18l-439,0l0,18Z" class="g7_4" />
<path d="M175,921l439,0l0,-18l-439,0l0,18Z" class="g7_4" />
<path d="M69,885l2,0l0,-2l-2,0l0,2Z" class="g5_4" />
<path d="M166,885l2,0l0,-2l-2,0l0,2Z" class="g5_4" />
<path d="M168.5,885.5l453,0" class="g9_4" />
<path d="M168.5,885.5l453,0" class="g8_4" />
<path d="M621,885l2,0l0,-2l-2,0l0,2Z" class="g5_4" />
<path d="M623.5,885.5l117,0" class="g10_4" />
<path d="M740,885l2,0l0,-2l-2,0l0,2Z" class="g5_4" />
<path d="M742.5,885.5l95,0" class="g10_4" />
<path d="M837,885l3,0l0,-2l-3,0l0,2Z" class="g5_4" />
<path d="M69,921l2,0l0,-36l-2,0l0,36Z" class="g5_4" />
<path d="M166,921l2,0l0,-36l-2,0l0,36Z" class="g5_4" />
<path d="M621,921l2,0l0,-36l-2,0l0,36Z" class="g5_4" />
<path d="M740,921l2,0l0,-36l-2,0l0,36Z" class="g5_4" />
<path d="M837,921l3,0l0,-36l-3,0l0,36Z" class="g5_4" />
<g clip-path="url(#c17_4)">
<path d="M168,958l453,0l0,-36l-453,0l0,36Z" class="g7_4" />
</g>
<path d="M175,940l439,0l0,-18l-439,0l0,18Z" class="g7_4" />
<path d="M175,958l439,0l0,-18l-439,0l0,18Z" class="g7_4" />
<path d="M69,922l2,0l0,-1l-2,0l0,1Z" class="g5_4" />
<path d="M166,922l2,0l0,-1l-2,0l0,1Z" class="g5_4" />
<path d="M168.5,922.5l453,0" class="g9_4" />
<path d="M168.5,922.5l453,0" class="g8_4" />
<path d="M621,922l2,0l0,-1l-2,0l0,1Z" class="g5_4" />
<path d="M623.5,922.5l117,0" class="g10_4" />
<path d="M740,922l2,0l0,-1l-2,0l0,1Z" class="g5_4" />
<path d="M742.5,922.5l95,0" class="g10_4" />
<path d="M837,922l3,0l0,-1l-3,0l0,1Z" class="g5_4" />
<path d="M69,958l2,0l0,-36l-2,0l0,36Z" class="g5_4" />
<path d="M166,958l2,0l0,-36l-2,0l0,36Z" class="g5_4" />
<path d="M621,958l2,0l0,-36l-2,0l0,36Z" class="g5_4" />
<path d="M740,958l2,0l0,-36l-2,0l0,36Z" class="g5_4" />
<path d="M837,958l3,0l0,-36l-3,0l0,36Z" class="g5_4" />
<g clip-path="url(#c18_4)">
<path d="M168,996l453,0l0,-36l-453,0l0,36Z" class="g7_4" />
</g>
<path d="M175,978l439,0l0,-18l-439,0l0,18Z" class="g7_4" />
<path d="M175,996l439,0l0,-18l-439,0l0,18Z" class="g7_4" />
<path d="M69,960l2,0l0,-2l-2,0l0,2Z" class="g5_4" />
<path d="M166,960l2,0l0,-2l-2,0l0,2Z" class="g5_4" />
<path d="M168.5,960.5l453,0" class="g9_4" />
<path d="M168.5,960.5l453,0" class="g8_4" />
<path d="M621,960l2,0l0,-2l-2,0l0,2Z" class="g5_4" />
<path d="M623.5,960.5l117,0" class="g10_4" />
<path d="M740,960l2,0l0,-2l-2,0l0,2Z" class="g5_4" />
<path d="M742.5,960.5l95,0" class="g10_4" />
<path d="M837,960l3,0l0,-2l-3,0l0,2Z" class="g5_4" />
<path d="M69,996l2,0l0,-36l-2,0l0,36Z" class="g5_4" />
<path d="M166,996l2,0l0,-36l-2,0l0,36Z" class="g5_4" />
<path d="M621,996l2,0l0,-36l-2,0l0,36Z" class="g5_4" />
<path d="M740,996l2,0l0,-36l-2,0l0,36Z" class="g5_4" />
<path d="M837,996l3,0l0,-36l-3,0l0,36Z" class="g5_4" />
<g clip-path="url(#c19_4)">
<path d="M168,1049l453,0l0,-50l-453,0l0,50Z" class="g11_4" />
</g>
<path d="M175,1024l439,0l0,-25l-439,0l0,25Z" class="g11_4" />
<path d="M175,1049l439,0l0,-25l-439,0l0,25Z" class="g11_4" />
<path d="M69,999l2,0l0,-3l-2,0l0,3Z" class="g5_4" />
<path d="M71,998l95,0l0,-2l-95,0l0,2Z" class="g5_4" />
<path d="M166,999l2,0l0,-3l-2,0l0,3Z" class="g5_4" />
<path d="M168,999l453,0l0,-3l-453,0l0,3Z" class="g1_4" />
<path d="M168.5,999.5l453,0" class="g12_4" />
<path d="M621,999l2,0l0,-3l-2,0l0,3Z" class="g5_4" />
<path d="M623,998l117,0l0,-2l-117,0l0,2Z" class="g5_4" />
<path d="M740,999l2,0l0,-3l-2,0l0,3Z" class="g5_4" />
<path d="M742,998l95,0l0,-2l-95,0l0,2Z" class="g5_4" />
<path d="M837,999l3,0l0,-3l-3,0l0,3Z" class="g5_4" />
<path d="M69,1049l2,0l0,-50l-2,0l0,50Z" class="g5_4" />
<path d="M166,1049l2,0l0,-50l-2,0l0,50Z" class="g5_4" />
<path d="M621,1049l2,0l0,-50l-2,0l0,50Z" class="g5_4" />
<path d="M740,1049l2,0l0,-50l-2,0l0,50Z" class="g5_4" />
<path d="M837,1049l3,0l0,-50l-3,0l0,50Z" class="g5_4" />
<g clip-path="url(#c20_4)">
<path d="M168,1102l453,0l0,-50l-453,0l0,50Z" class="g11_4" />
</g>
<path d="M175,1077l439,0l0,-25l-439,0l0,25Z" class="g11_4" />
<path d="M175,1102l439,0l0,-25l-439,0l0,25Z" class="g11_4" />
<path d="M69,1052l2,0l0,-3l-2,0l0,3Z" class="g5_4" />
<path d="M71,1051l95,0l0,-2l-95,0l0,2Z" class="g5_4" />
<path d="M166,1052l2,0l0,-3l-2,0l0,3Z" class="g5_4" />
<path d="M168,1052l453,0l0,-3l-453,0l0,3Z" class="g1_4" />
<path d="M168.5,1052.5l453,0" class="g12_4" />
<path d="M621,1052l2,0l0,-3l-2,0l0,3Z" class="g5_4" />
<path d="M623,1051l117,0l0,-2l-117,0l0,2Z" class="g5_4" />
<path d="M740,1052l2,0l0,-3l-2,0l0,3Z" class="g5_4" />
<path d="M742,1051l95,0l0,-2l-95,0l0,2Z" class="g5_4" />
<path d="M837,1052l3,0l0,-3l-3,0l0,3Z" class="g5_4" />
<path d="M69,1102l2,0l0,-50l-2,0l0,50Z" class="g5_4" />
<path d="M166,1102l2,0l0,-50l-2,0l0,50Z" class="g5_4" />
<path d="M621,1102l2,0l0,-50l-2,0l0,50Z" class="g5_4" />
<path d="M740,1102l2,0l0,-50l-2,0l0,50Z" class="g5_4" />
<path d="M837,1102l3,0l0,-50l-3,0l0,50Z" class="g5_4" />
<g clip-path="url(#c21_4)">
<path d="M168,1136l453,0l0,-31l-453,0l0,31Z" class="g13_4" />
</g>
<path d="M175,1136l439,0l0,-31l-439,0l0,31Z" class="g13_4" />
<path d="M69,1105l2,0l0,-3l-2,0l0,3Z" class="g5_4" />
<path d="M71,1104l95,0l0,-2l-95,0l0,2Z" class="g5_4" />
<path d="M166,1105l2,0l0,-3l-2,0l0,3Z" class="g5_4" />
<path d="M168,1105l453,0l0,-3l-453,0l0,3Z" class="g1_4" />
<path d="M168.5,1105.5l453,0" class="g14_4" />
<path d="M621,1105l2,0l0,-3l-2,0l0,3Z" class="g5_4" />
<path d="M623,1104l117,0l0,-2l-117,0l0,2Z" class="g5_4" />
<path d="M740,1105l2,0l0,-3l-2,0l0,3Z" class="g5_4" />
<path d="M742,1104l95,0l0,-2l-95,0l0,2Z" class="g5_4" />
<path d="M837,1105l3,0l0,-3l-3,0l0,3Z" class="g5_4" />
<path d="M69,1136l2,0l0,-31l-2,0l0,31Z" class="g5_4" />
<path d="M166,1136l2,0l0,-31l-2,0l0,31Z" class="g5_4" />
<path d="M621,1136l2,0l0,-31l-2,0l0,31Z" class="g5_4" />
<path d="M740,1136l2,0l0,-31l-2,0l0,31Z" class="g5_4" />
<path d="M837,1136l3,0l0,-31l-3,0l0,31Z" class="g5_4" />
<g clip-path="url(#c22_4)">
<path d="M168,1189l453,0l0,-50l-453,0l0,50Z" class="g7_4" />
</g>
<path d="M175,1164l439,0l0,-25l-439,0l0,25Z" class="g7_4" />
<path d="M175,1189l439,0l0,-25l-439,0l0,25Z" class="g7_4" />
<path d="M69,1139l2,0l0,-3l-2,0l0,3Z" class="g5_4" />
<path d="M166,1139l2,0l0,-3l-2,0l0,3Z" class="g5_4" />
<path d="M168,1139l453,0l0,-3l-453,0l0,3Z" class="g1_4" />
<path d="M168.5,1139.5l453,0" class="g8_4" />
<path d="M621,1139l2,0l0,-3l-2,0l0,3Z" class="g5_4" />
<path d="M740,1139l2,0l0,-3l-2,0l0,3Z" class="g5_4" />
<path d="M742,1138l95,0l0,-2l-95,0l0,2Z" class="g5_4" />
<path d="M837,1139l3,0l0,-3l-3,0l0,3Z" class="g5_4" />
<path d="M69,1189l2,0l0,-50l-2,0l0,50Z" class="g5_4" />
<path d="M166,1189l2,0l0,-50l-2,0l0,50Z" class="g5_4" />
<path d="M621,1189l2,0l0,-50l-2,0l0,50Z" class="g5_4" />
<path d="M740,1189l2,0l0,-50l-2,0l0,50Z" class="g5_4" />
<path d="M837,1189l3,0l0,-50l-3,0l0,50Z" class="g5_4" />
<g clip-path="url(#c23_4)">
<path d="M168,1223l453,0l0,-31l-453,0l0,31Z" class="g4_4" />
</g>
<path d="M175,1223l439,0l0,-31l-439,0l0,31Z" class="g4_4" />
<path d="M69,1192l2,0l0,-3l-2,0l0,3Z" class="g5_4" />
<path d="M166,1192l2,0l0,-3l-2,0l0,3Z" class="g5_4" />
<path d="M168,1192l453,0l0,-3l-453,0l0,3Z" class="g1_4" />
<path d="M168.5,1192.5l453,0" class="g6_4" />
<path d="M621,1192l2,0l0,-3l-2,0l0,3Z" class="g5_4" />
<path d="M740,1192l2,0l0,-3l-2,0l0,3Z" class="g5_4" />
<path d="M742,1191l95,0l0,-2l-95,0l0,2Z" class="g5_4" />
<path d="M837,1192l3,0l0,-3l-3,0l0,3Z" class="g5_4" />
<path d="M69,1223l2,0l0,-31l-2,0l0,31Z" class="g5_4" />
<path d="M166,1223l2,0l0,-31l-2,0l0,31Z" class="g5_4" />
<path d="M621,1223l2,0l0,-31l-2,0l0,31Z" class="g5_4" />
<path d="M740,1223l2,0l0,-31l-2,0l0,31Z" class="g5_4" />
<path d="M837,1223l3,0l0,-31l-3,0l0,31Z" class="g5_4" />
<g clip-path="url(#c24_4)">
<path d="M168,1257l453,0l0,-30l-453,0l0,30Z" class="g11_4" />
</g>
<path d="M175,1257l439,0l0,-30l-439,0l0,30Z" class="g11_4" />
<path d="M69,1227l2,0l0,-4l-2,0l0,4Z" class="g5_4" />
<path d="M166,1227l2,0l0,-4l-2,0l0,4Z" class="g5_4" />
<path d="M168,1227l453,0l0,-4l-453,0l0,4Z" class="g1_4" />
<path d="M168.5,1227.5l453,0" class="g12_4" />
<path d="M621,1227l2,0l0,-4l-2,0l0,4Z" class="g5_4" />
<path d="M740,1227l2,0l0,-4l-2,0l0,4Z" class="g5_4" />
<path d="M742,1225l95,0l0,-2l-95,0l0,2Z" class="g5_4" />
<path d="M837,1227l3,0l0,-4l-3,0l0,4Z" class="g5_4" />
<path d="M69,1257l2,0l0,-30l-2,0l0,30Z" class="g5_4" />
<path d="M166,1257l2,0l0,-30l-2,0l0,30Z" class="g5_4" />
<path d="M621,1257l2,0l0,-30l-2,0l0,30Z" class="g5_4" />
<path d="M740,1257l2,0l0,-30l-2,0l0,30Z" class="g5_4" />
<path d="M837,1257l3,0l0,-30l-3,0l0,30Z" class="g5_4" />
<g clip-path="url(#c25_4)">
<path d="M168,1310l453,0l0,-49l-453,0l0,49Z" class="g11_4" />
</g>
<path d="M175,1286l439,0l0,-25l-439,0l0,25Z" class="g11_4" />
<path d="M175,1310l439,0l0,-24l-439,0l0,24Z" class="g11_4" />
<path d="M69,1261l2,0l0,-4l-2,0l0,4Z" class="g5_4" />
<path d="M71,1260l95,0l0,-3l-95,0l0,3Z" class="g5_4" />
<path d="M166,1261l2,0l0,-4l-2,0l0,4Z" class="g5_4" />
<path d="M168,1261l453,0l0,-4l-453,0l0,4Z" class="g1_4" />
<path d="M168.5,1261.5l453,0" class="g12_4" />
<path d="M621,1261l2,0l0,-4l-2,0l0,4Z" class="g5_4" />
<path d="M623,1260l117,0l0,-3l-117,0l0,3Z" class="g5_4" />
<path d="M740,1261l2,0l0,-4l-2,0l0,4Z" class="g5_4" />
<path d="M742,1260l95,0l0,-3l-95,0l0,3Z" class="g5_4" />
<path d="M837,1261l3,0l0,-4l-3,0l0,4Z" class="g5_4" />
<path d="M69,1310l2,0l0,-49l-2,0l0,49Z" class="g5_4" />
<path d="M166,1310l2,0l0,-49l-2,0l0,49Z" class="g5_4" />
<path d="M621,1310l2,0l0,-49l-2,0l0,49Z" class="g5_4" />
<path d="M740,1310l2,0l0,-49l-2,0l0,49Z" class="g5_4" />
<path d="M837,1310l3,0l0,-49l-3,0l0,49Z" class="g5_4" />
<g clip-path="url(#c26_4)">
<path d="M168,1363l453,0l0,-49l-453,0l0,49Z" class="g4_4" />
</g>
<path d="M175,1339l439,0l0,-25l-439,0l0,25Z" class="g4_4" />
<path d="M175,1363l439,0l0,-24l-439,0l0,24Z" class="g4_4" />
<path d="M69,1314l2,0l0,-4l-2,0l0,4Z" class="g5_4" />
<path d="M166,1314l2,0l0,-4l-2,0l0,4Z" class="g5_4" />
<path d="M168,1314l453,0l0,-4l-453,0l0,4Z" class="g1_4" />
<path d="M168.5,1314.5l453,0" class="g6_4" />
<path d="M621,1314l2,0l0,-4l-2,0l0,4Z" class="g5_4" />
<path d="M740,1314l2,0l0,-4l-2,0l0,4Z" class="g5_4" />
<path d="M742,1313l95,0l0,-3l-95,0l0,3Z" class="g5_4" />
<path d="M837,1314l3,0l0,-4l-3,0l0,4Z" class="g5_4" />
<path d="M69,1363l2,0l0,-49l-2,0l0,49Z" class="g5_4" />
<path d="M166,1363l2,0l0,-49l-2,0l0,49Z" class="g5_4" />
<path d="M621,1363l2,0l0,-49l-2,0l0,49Z" class="g5_4" />
<path d="M740,1363l2,0l0,-49l-2,0l0,49Z" class="g5_4" />
<path d="M837,1363l3,0l0,-49l-3,0l0,49Z" class="g5_4" />
<g clip-path="url(#c27_4)">
<path d="M168,1416l453,0l0,-49l-453,0l0,49Z" class="g11_4" />
</g>
<path d="M175,1392l439,0l0,-25l-439,0l0,25Z" class="g11_4" />
<path d="M175,1416l439,0l0,-24l-439,0l0,24Z" class="g11_4" />
<path d="M69,1367l2,0l0,-4l-2,0l0,4Z" class="g5_4" />
<path d="M71,1366l95,0l0,-3l-95,0l0,3Z" class="g5_4" />
<path d="M166,1367l2,0l0,-4l-2,0l0,4Z" class="g5_4" />
<path d="M168,1367l453,0l0,-4l-453,0l0,4Z" class="g1_4" />
<path d="M168.5,1367.5l453,0" class="g12_4" />
<path d="M621,1367l2,0l0,-4l-2,0l0,4Z" class="g5_4" />
<path d="M623,1366l117,0l0,-3l-117,0l0,3Z" class="g5_4" />
<path d="M740,1367l2,0l0,-4l-2,0l0,4Z" class="g5_4" />
<path d="M742,1366l95,0l0,-3l-95,0l0,3Z" class="g5_4" />
<path d="M837,1367l3,0l0,-4l-3,0l0,4Z" class="g5_4" />
<path d="M69,1416l2,0l0,-49l-2,0l0,49Z" class="g5_4" />
<path d="M166,1416l2,0l0,-49l-2,0l0,49Z" class="g5_4" />
<path d="M621,1416l2,0l0,-49l-2,0l0,49Z" class="g5_4" />
<path d="M740,1416l2,0l0,-49l-2,0l0,49Z" class="g5_4" />
<path d="M837,1416l3,0l0,-49l-3,0l0,49Z" class="g5_4" />
<g clip-path="url(#c28_4)">
<path d="M168,1451l453,0l0,-31l-453,0l0,31Z" class="g15_4" />
</g>
<path d="M175,1451l439,0l0,-31l-439,0l0,31Z" class="g15_4" />
<path d="M69,1420l2,0l0,-4l-2,0l0,4Z" class="g5_4" />
<path d="M71,1419l95,0l0,-3l-95,0l0,3Z" class="g5_4" />
<path d="M166,1420l2,0l0,-4l-2,0l0,4Z" class="g5_4" />
<path d="M168,1420l453,0l0,-4l-453,0l0,4Z" class="g1_4" />
<path d="M168.5,1420.5l453,0" class="g16_4" />
<path d="M621,1420l2,0l0,-4l-2,0l0,4Z" class="g5_4" />
<path d="M623,1419l117,0l0,-3l-117,0l0,3Z" class="g5_4" />
<path d="M740,1420l2,0l0,-4l-2,0l0,4Z" class="g5_4" />
<path d="M742,1419l95,0l0,-3l-95,0l0,3Z" class="g5_4" />
<path d="M837,1420l3,0l0,-4l-3,0l0,4Z" class="g5_4" />
<path d="M69,1453l2,0l0,-33l-2,0l0,33Z" class="g5_4" />
<path d="M69,1453l97,0l0,-2l-97,0l0,2Z" class="g5_4" />
<path d="M166,1453l2,0l0,-33l-2,0l0,33Z" class="g5_4" />
<path d="M168,1453l453,0l0,-2l-453,0l0,2Z" class="g5_4" />
<path d="M621,1453l2,0l0,-33l-2,0l0,33Z" class="g5_4" />
<path d="M623,1453l117,0l0,-2l-117,0l0,2Z" class="g5_4" />
<path d="M740,1453l2,0l0,-33l-2,0l0,33Z" class="g5_4" />
<path d="M742,1453l95,0l0,-2l-95,0l0,2Z" class="g5_4" />
<path d="M837,1453l3,0l0,-33l-3,0l0,33Z" class="g5_4" />
<path d="M837,1453l3,0l0,-2l-3,0l0,2Z" class="g5_4" />
</svg>